<svg width="16" height="16" viewBox="0 0 16 16" fill="none" xmlns="http://www.w3.org/2000/svg">
<path d="M8 0C12.4183 0 16 3.58172 16 8C16 12.4183 12.4183 16 8 16C3.58172 16 0 12.4183 0 8C0 3.58172 3.58172 0 8 0Z" fill="#33C69F" fill-opacity="0.2"/>
<path d="M6.45912 6.97561C6.45912 5.68293 7.13836 5.20732 8.15723 5.20732C9.02516 5.20732 9.54088 5.69512 9.54088 6.30488C9.54088 7.14634 8.92453 7.36585 8.32075 7.87805C7.54088 8.5122 7.07547 9.17073 7.07547 10.4756H8.37107C8.37107 9.2439 8.89937 8.85366 9.65409 8.32927C10.4088 7.80488 11 7.32927 11 6.28049C11 4.93902 9.79245 4 8.19497 4C6.03145 4 5 5.28049 5 6.97561H6.45912ZM7.72956 13C8.18239 13 8.53459 12.6951 8.53459 12.2073C8.53459 11.7317 8.18239 11.4146 7.72956 11.4146C7.26415 11.4146 6.91195 11.7317 6.91195 12.2073C6.91195 12.6951 7.26415 13 7.72956 13Z" fill="#33C69F"/>
</svg>
