<svg width="1470" height="1470" viewBox="0 0 1470 1470" fill="none" xmlns="http://www.w3.org/2000/svg">
<g clip-path="url(#clip0)">
<circle opacity="0.55" cx="684.944" cy="734.944" r="406.444" fill="url(#paint0_radial)" stroke="#33C69F"/>
<circle opacity="0.33" cx="684.605" cy="734.605" r="567.105" fill="url(#paint1_radial)" stroke="#33C69F"/>
<circle opacity="0.1" cx="685" cy="735" r="734.5" fill="url(#paint2_radial)" stroke="#33C69F"/>
<path opacity="0.22" d="M685.5 517.839L838.737 581.447M685.5 517.839L532.264 581.447M685.5 517.839L902.345 734.683M685.5 517.839L838.737 887.92M685.5 517.839V951.527M685.5 517.839L532.264 887.92M685.5 517.839L468.656 734.683M838.737 581.447L902.345 734.683M838.737 581.447H532.264M838.737 581.447L468.656 734.683M838.737 581.447L532.264 887.92M838.737 581.447L685.5 951.527M838.737 581.447V887.92M902.345 734.683L838.737 887.92M902.345 734.683L532.264 581.447M902.345 734.683H468.656M902.345 734.683L532.264 887.92M902.345 734.683L685.5 951.527M838.737 887.92L685.5 951.527M838.737 887.92L532.264 581.447M838.737 887.92L468.656 734.683M838.737 887.92H532.264M685.5 951.527L532.264 887.92M685.5 951.527L532.264 581.447M685.5 951.527L468.656 734.683M532.264 887.92L468.656 734.683M532.264 887.92V581.447M468.656 734.683L532.264 581.447" stroke="#5CD8B7" stroke-width="0.816667" stroke-dasharray="1.63 1.63"/>
<g filter="url(#filter0_d)">
<rect x="647.788" y="696.3" width="75.4241" height="75.4241" rx="6.28534" fill="#FDB515"/>
<path fill-rule="evenodd" clip-rule="evenodd" d="M710.865 737.903V727.726L695.781 712.462H685.725L675.575 712.462L660.586 727.726V737.903L685.725 712.462L710.865 737.903ZM695.78 755.712H688.238V732.394V722.217L695.78 729.849L710.864 745.114V755.29L695.78 740.026V755.712ZM675.67 755.712H683.212V722.217L683.211 722.218V722.217L660.585 745.114V755.29L675.67 740.025V755.712Z" fill="#001B28"/>
</g>
<circle cx="685.5" cy="518.267" r="3.26667" fill="#7DE6CA"/>
<circle cx="685.5" cy="518.267" r="5.62367" stroke="#7DE6CA" stroke-opacity="0.1" stroke-width="4.71401"/>
<circle cx="839.033" cy="582.783" r="3.26667" fill="#7DE6CA"/>
<circle cx="839.033" cy="582.783" r="5.62367" stroke="#7DE6CA" stroke-opacity="0.1" stroke-width="4.71401"/>
<g opacity="0.55">
<circle cx="838.705" cy="707.185" r="2.357" fill="#7DE6CA"/>
<circle cx="838.705" cy="707.185" r="4.71401" stroke="#7DE6CA" stroke-opacity="0.1" stroke-width="4.71401"/>
</g>
<g opacity="0.7">
<circle cx="749.139" cy="671.044" r="2.357" fill="#7DE6CA"/>
<circle cx="749.139" cy="671.044" r="4.71401" stroke="#7DE6CA" stroke-opacity="0.1" stroke-width="4.71401"/>
</g>
<g opacity="0.7">
<circle cx="879.56" cy="678.901" r="2.357" fill="#7DE6CA"/>
<circle cx="879.56" cy="678.901" r="4.71401" stroke="#7DE6CA" stroke-opacity="0.1" stroke-width="4.71401"/>
</g>
<g opacity="0.7">
<circle cx="596.719" cy="733.898" r="2.357" fill="#7DE6CA"/>
<circle cx="596.719" cy="733.898" r="4.71401" stroke="#7DE6CA" stroke-opacity="0.1" stroke-width="4.71401"/>
</g>
<g opacity="0.55">
<circle cx="684.714" cy="645.903" r="2.357" fill="#7DE6CA"/>
<circle cx="684.714" cy="645.903" r="4.71401" stroke="#7DE6CA" stroke-opacity="0.1" stroke-width="4.71401"/>
</g>
<g opacity="0.55">
<circle cx="684.714" cy="825.57" r="2.357" fill="#7DE6CA"/>
<circle cx="684.714" cy="825.57" r="4.71401" stroke="#7DE6CA" stroke-opacity="0.1" stroke-width="4.71401"/>
</g>
<g opacity="0.75">
<circle cx="748.415" cy="797.803" r="2.357" fill="#7DE6CA"/>
<circle cx="748.415" cy="797.803" r="4.71401" stroke="#7DE6CA" stroke-opacity="0.1" stroke-width="4.71401"/>
</g>
<g opacity="0.12">
<circle cx="622.648" cy="887.636" r="2.357" fill="#7DE6CA"/>
<circle cx="622.648" cy="887.636" r="4.71401" stroke="#7DE6CA" stroke-opacity="0.1" stroke-width="4.71401"/>
</g>
<g opacity="0.55">
<circle cx="750.711" cy="581.478" r="2.357" fill="#7DE6CA"/>
<circle cx="750.711" cy="581.478" r="4.71401" stroke="#7DE6CA" stroke-opacity="0.1" stroke-width="4.71401"/>
</g>
<g opacity="0.22">
<circle cx="595.148" cy="861.175" r="2.357" fill="#7DE6CA"/>
<circle cx="595.148" cy="861.175" r="4.71401" stroke="#7DE6CA" stroke-opacity="0.1" stroke-width="4.71401"/>
</g>
<g opacity="0.22">
<circle cx="749.139" cy="887.888" r="2.357" fill="#7DE6CA"/>
<circle cx="749.139" cy="887.888" r="4.71401" stroke="#7DE6CA" stroke-opacity="0.1" stroke-width="4.71401"/>
</g>
<g opacity="0.55">
<circle cx="532.294" cy="735.469" r="2.357" fill="#7DE6CA"/>
<circle cx="532.294" cy="735.469" r="4.71401" stroke="#7DE6CA" stroke-opacity="0.1" stroke-width="4.71401"/>
</g>
<g opacity="0.55">
<circle cx="576.293" cy="625.475" r="2.357" fill="#7DE6CA"/>
<circle cx="576.293" cy="625.475" r="4.71401" stroke="#7DE6CA" stroke-opacity="0.1" stroke-width="4.71401"/>
</g>
<circle cx="902.733" cy="735.5" r="3.26667" fill="#7DE6CA"/>
<circle cx="902.733" cy="735.5" r="5.62367" stroke="#7DE6CA" stroke-opacity="0.1" stroke-width="4.71401"/>
<circle cx="838.217" cy="887.4" r="3.26667" fill="#7DE6CA"/>
<circle cx="838.217" cy="887.4" r="5.62367" stroke="#7DE6CA" stroke-opacity="0.1" stroke-width="4.71401"/>
<circle cx="684.684" cy="951.1" r="3.26667" fill="#7DE6CA"/>
<circle cx="684.684" cy="951.1" r="5.62367" stroke="#7DE6CA" stroke-opacity="0.1" stroke-width="4.71401"/>
<circle cx="531.967" cy="887.4" r="3.26667" fill="#7DE6CA"/>
<circle cx="531.967" cy="887.4" r="5.62367" stroke="#7DE6CA" stroke-opacity="0.1" stroke-width="4.71401"/>
<circle cx="468.267" cy="733.866" r="3.26667" fill="#7DE6CA"/>
<circle cx="468.267" cy="733.866" r="5.62367" stroke="#7DE6CA" stroke-opacity="0.1" stroke-width="4.71401"/>
<circle cx="531.967" cy="581.15" r="3.26667" fill="#7DE6CA"/>
<circle cx="531.967" cy="581.15" r="5.62367" stroke="#7DE6CA" stroke-opacity="0.1" stroke-width="4.71401"/>
<g filter="url(#filter1_d)">
<path d="M561.122 662.873L685.5 591.063L809.879 662.873V806.493L685.5 878.303L561.122 806.493V662.873Z" stroke="#33C69F" stroke-width="1.63333"/>
</g>
<g clip-path="url(#clip1)" filter="url(#filter2_d)">
<path d="M682.895 570.504C684.353 569.113 686.647 569.113 688.105 570.504C689.435 571.772 691.366 572.183 693.097 571.565C694.995 570.887 697.091 571.82 697.857 573.684C698.556 575.384 700.153 576.545 701.986 576.684C703.995 576.837 705.53 578.542 705.472 580.556C705.419 582.393 706.406 584.103 708.024 584.976C709.797 585.933 710.506 588.114 709.634 589.931C708.838 591.588 709.045 593.551 710.167 595.006C711.398 596.602 711.158 598.883 709.623 600.188C708.222 601.378 707.612 603.256 708.046 605.042C708.521 607 707.374 608.987 705.44 609.554C703.677 610.071 702.356 611.539 702.026 613.347C701.663 615.329 699.808 616.677 697.81 616.409C695.989 616.165 694.185 616.968 693.148 618.485C692.011 620.149 689.767 620.626 688.052 619.568C686.487 618.604 684.513 618.604 682.948 619.568C681.233 620.626 678.989 620.149 677.852 618.485C676.815 616.968 675.011 616.165 673.19 616.409C671.192 616.677 669.337 615.329 668.975 613.347C668.644 611.539 667.323 610.071 665.56 609.554C663.626 608.987 662.479 607 662.955 605.042C663.388 603.256 662.778 601.378 661.377 600.188C659.842 598.883 659.602 596.602 660.833 595.006C661.955 593.551 662.162 591.588 661.366 589.931C660.494 588.114 661.203 585.933 662.976 584.976C664.594 584.103 665.581 582.393 665.528 580.556C665.47 578.542 667.005 576.837 669.014 576.684C670.847 576.545 672.444 575.384 673.143 573.684C673.91 571.82 676.005 570.887 677.903 571.565C679.634 572.183 681.565 571.772 682.895 570.504Z" fill="#142433" stroke="#33C69F" stroke-width="1.08889"/>
<path d="M683.463 576.002C684.756 574.769 686.789 574.769 688.081 576.002C688.996 576.875 690.324 577.157 691.514 576.732C693.196 576.131 695.053 576.958 695.733 578.61C696.213 579.779 697.312 580.577 698.572 580.673C700.353 580.809 701.714 582.319 701.662 584.105C701.626 585.368 702.305 586.544 703.417 587.145C704.989 587.993 705.617 589.926 704.844 591.536C704.297 592.676 704.439 594.026 705.211 595.027C706.302 596.441 706.089 598.463 704.728 599.619C703.765 600.438 703.345 601.729 703.644 602.958C704.065 604.693 703.049 606.454 701.335 606.956C700.122 607.312 699.213 608.322 698.986 609.565C698.665 611.322 697.021 612.517 695.251 612.279C693.998 612.111 692.757 612.663 692.044 613.707C691.036 615.181 689.048 615.604 687.527 614.667C686.451 614.004 685.093 614.004 684.017 614.667C682.497 615.604 680.508 615.181 679.5 613.707C678.787 612.663 677.547 612.111 676.294 612.279C674.524 612.517 672.879 611.322 672.558 609.565C672.331 608.322 671.422 607.312 670.209 606.956C668.496 606.454 667.479 604.693 667.901 602.958C668.199 601.729 667.779 600.438 666.816 599.619C665.455 598.463 665.242 596.441 666.333 595.027C667.105 594.026 667.247 592.676 666.7 591.536C665.927 589.926 666.555 587.993 668.127 587.145C669.24 586.544 669.919 585.368 669.882 584.105C669.831 582.319 671.191 580.809 672.972 580.673C674.232 580.577 675.331 579.779 675.812 578.61C676.491 576.958 678.348 576.131 680.03 576.732C681.22 577.157 682.549 576.875 683.463 576.002Z" fill="#33C69F" fill-opacity="0.1"/>
<circle cx="685.5" cy="595.033" r="11.7056" stroke="white" stroke-opacity="0.1" stroke-width="0.544444"/>
<circle cx="685.5" cy="595.033" r="14.4278" stroke="white" stroke-opacity="0.2" stroke-width="0.544444"/>
<g filter="url(#filter3_d)">
<path fill-rule="evenodd" clip-rule="evenodd" d="M681.588 595.345L679.155 598.817C678.349 597.644 677.877 596.224 677.877 594.694C677.877 591.874 679.48 589.428 681.824 588.218C680.788 588.868 680.271 589.891 680.271 591.287C680.271 592.577 680.763 594.016 681.588 595.345ZM682.086 596.08C683.694 598.26 686.182 599.985 688.762 599.985C689.271 599.985 689.745 599.979 690.184 599.967C688.877 601.213 687.108 601.977 685.16 601.977C682.974 601.977 681.012 601.014 679.677 599.488L682.086 596.08ZM686.987 587.641L682.16 594.529C681.448 593.473 681.01 592.317 681.01 591.203C681.01 589.011 682.272 587.75 684.795 587.419C684.916 587.413 685.038 587.41 685.16 587.41C685.791 587.41 686.403 587.49 686.987 587.641ZM687.247 587.713C690.253 588.61 692.444 591.396 692.444 594.694C692.444 594.99 692.426 595.281 692.392 595.568C692.205 596.224 691.946 596.771 691.617 597.208L687.247 587.713ZM690.649 598.073C690.12 598.377 689.491 598.529 688.762 598.529C686.631 598.529 684.242 597.115 682.686 595.231L687.124 588.954L690.649 598.073Z" fill="#33C69F"/>
</g>
</g>
<g filter="url(#filter4_d)">
<path d="M807.028 639.921C808.486 638.53 810.78 638.53 812.238 639.921C813.568 641.189 815.499 641.6 817.23 640.982C819.128 640.304 821.223 641.237 821.99 643.101C822.689 644.801 824.286 645.962 826.118 646.101C828.128 646.254 829.663 647.959 829.605 649.973C829.552 651.81 830.539 653.52 832.157 654.393C833.93 655.35 834.639 657.531 833.767 659.348C832.971 661.005 833.178 662.968 834.3 664.423C835.531 666.019 835.291 668.3 833.755 669.605C832.355 670.795 831.745 672.673 832.178 674.459C832.654 676.417 831.507 678.404 829.573 678.971C827.81 679.488 826.489 680.956 826.158 682.764C825.796 684.746 823.941 686.094 821.943 685.826C820.122 685.582 818.318 686.385 817.281 687.902C816.144 689.566 813.9 690.043 812.185 688.985C810.62 688.021 808.646 688.021 807.081 688.985C805.366 690.043 803.122 689.566 801.985 687.902C800.948 686.385 799.144 685.582 797.323 685.826C795.325 686.094 793.469 684.746 793.107 682.764C792.777 680.956 791.456 679.488 789.692 678.971C787.759 678.404 786.612 676.417 787.087 674.459C787.521 672.673 786.911 670.795 785.51 669.605C783.975 668.3 783.735 666.019 784.966 664.423C786.088 662.968 786.295 661.005 785.499 659.348C784.627 657.531 785.336 655.35 787.109 654.393C788.727 653.52 789.714 651.81 789.661 649.973C789.603 647.959 791.138 646.254 793.147 646.101C794.98 645.962 796.577 644.801 797.276 643.101C798.042 641.237 800.138 640.304 802.036 640.982C803.767 641.6 805.698 641.189 807.028 639.921Z" fill="#142433" stroke="#33C69F" stroke-width="1.08889"/>
<path d="M807.596 645.419C808.889 644.186 810.921 644.186 812.214 645.419C813.128 646.292 814.457 646.574 815.647 646.149C817.329 645.548 819.186 646.375 819.865 648.027C820.346 649.196 821.445 649.994 822.705 650.09C824.486 650.226 825.846 651.736 825.795 653.522C825.759 654.785 826.438 655.961 827.55 656.562C829.122 657.41 829.75 659.343 828.977 660.953C828.43 662.093 828.572 663.443 829.344 664.444C830.435 665.858 830.222 667.88 828.861 669.036C827.898 669.855 827.478 671.146 827.776 672.375C828.198 674.11 827.181 675.871 825.468 676.373C824.255 676.729 823.346 677.739 823.119 678.982C822.798 680.739 821.153 681.934 819.383 681.696C818.131 681.528 816.89 682.08 816.177 683.124C815.169 684.598 813.18 685.021 811.66 684.084C810.584 683.421 809.226 683.421 808.15 684.084C806.629 685.021 804.641 684.598 803.633 683.124C802.92 682.08 801.679 681.528 800.427 681.696C798.656 681.934 797.012 680.739 796.691 678.982C796.464 677.739 795.555 676.729 794.342 676.373C792.628 675.871 791.612 674.11 792.033 672.375C792.332 671.146 791.912 669.855 790.949 669.036C789.588 667.88 789.375 665.858 790.466 664.444C791.238 663.443 791.38 662.093 790.833 660.953C790.06 659.343 790.688 657.41 792.26 656.562C793.372 655.961 794.051 654.785 794.015 653.522C793.964 651.736 795.324 650.226 797.105 650.09C798.365 649.994 799.464 649.196 799.944 648.027C800.624 646.375 802.481 645.548 804.163 646.149C805.353 646.574 806.682 646.292 807.596 645.419Z" fill="#33C69F" fill-opacity="0.1"/>
<circle cx="809.633" cy="664.45" r="11.7056" stroke="white" stroke-opacity="0.1" stroke-width="0.544444"/>
<circle cx="809.633" cy="664.45" r="14.4278" stroke="white" stroke-opacity="0.2" stroke-width="0.544444"/>
<path d="M818.616 664.45C818.616 659.505 814.6 655.481 809.657 655.468C809.655 655.468 809.654 655.468 809.651 655.468C809.645 655.468 809.639 655.467 809.633 655.467C809.627 655.467 809.621 655.468 809.615 655.468C809.612 655.468 809.61 655.468 809.607 655.468C804.665 655.482 800.649 659.506 800.649 664.45C800.649 669.403 804.679 673.433 809.632 673.433C814.586 673.433 818.616 669.403 818.616 664.45ZM814.252 667.97C814.534 667.026 814.697 666.004 814.734 664.923H817.646C817.549 666.582 816.95 668.104 815.994 669.344C815.467 668.814 814.885 668.349 814.252 667.97ZM803.268 669.34C802.314 668.102 801.716 666.58 801.619 664.923H804.531C804.569 666.002 804.731 667.023 805.012 667.965C804.378 668.345 803.796 668.809 803.268 669.34ZM803.269 659.559C803.797 660.09 804.379 660.555 805.012 660.934C804.731 661.877 804.569 662.898 804.531 663.977H801.619C801.716 662.32 802.314 660.798 803.269 659.559ZM815.994 659.556C816.95 660.796 817.549 662.318 817.646 663.977H814.734C814.697 662.897 814.534 661.874 814.252 660.931C814.885 660.552 815.467 660.087 815.994 659.556ZM813.789 663.977H810.106V662.19C811.254 662.129 812.369 661.859 813.396 661.385C813.621 662.192 813.755 663.06 813.789 663.977ZM810.106 661.244V656.744C811.447 657.584 812.47 658.874 813.095 660.477C812.165 660.922 811.151 661.182 810.106 661.244ZM809.16 656.744V661.244C808.113 661.183 807.099 660.923 806.169 660.479C806.794 658.876 807.818 657.584 809.16 656.744ZM809.16 662.19V663.977H805.476C805.51 663.061 805.644 662.193 805.869 661.387C806.895 661.86 808.011 662.129 809.16 662.19ZM805.476 664.923H809.16V666.711C808.011 666.771 806.895 667.04 805.869 667.513C805.644 666.707 805.51 665.839 805.476 664.923ZM809.16 667.656V672.156C807.818 671.316 806.794 670.024 806.169 668.42C807.099 667.977 808.113 667.718 809.16 667.656ZM810.106 672.156V667.656C811.151 667.718 812.165 667.979 813.095 668.424C812.47 670.026 811.447 671.317 810.106 672.156ZM810.106 666.711V664.923H813.789C813.755 665.84 813.621 666.709 813.396 667.516C812.369 667.042 811.254 666.771 810.106 666.711ZM815.376 658.838C814.937 659.288 814.452 659.682 813.929 660.013C813.389 658.679 812.593 657.539 811.58 656.661C813.045 657.028 814.352 657.791 815.376 658.838ZM807.686 656.661C806.672 657.539 805.876 658.68 805.336 660.016C804.812 659.685 804.326 659.291 803.887 658.841C804.911 657.792 806.22 657.028 807.686 656.661ZM803.886 670.059C804.326 669.609 804.811 669.215 805.335 668.883C805.875 670.22 806.672 671.361 807.686 672.239C806.219 671.873 804.91 671.108 803.886 670.059ZM811.58 672.24C812.593 671.362 813.388 670.222 813.928 668.887C814.452 669.219 814.937 669.613 815.376 670.062C814.352 671.11 813.045 671.873 811.58 672.24Z" fill="#33C69F"/>
</g>
<g filter="url(#filter5_d)">
<path d="M558.761 639.921C560.219 638.53 562.513 638.53 563.971 639.921C565.301 641.189 567.233 641.6 568.963 640.982C570.861 640.304 572.957 641.237 573.723 643.101C574.422 644.801 576.019 645.962 577.852 646.101C579.861 646.254 581.396 647.959 581.338 649.973C581.285 651.81 582.273 653.52 583.89 654.393C585.663 655.35 586.372 657.531 585.5 659.348C584.705 661.005 584.911 662.968 586.033 664.423C587.264 666.019 587.025 668.3 585.489 669.605C584.088 670.795 583.478 672.673 583.912 674.459C584.387 676.417 583.24 678.404 581.307 678.971C579.543 679.488 578.222 680.956 577.892 682.764C577.53 684.746 575.674 686.094 573.677 685.826C571.855 685.582 570.051 686.385 569.014 687.902C567.877 689.566 565.634 690.043 563.918 688.985C562.353 688.021 560.379 688.021 558.815 688.985C557.099 690.043 554.855 689.566 553.718 687.902C552.681 686.385 550.877 685.582 549.056 685.826C547.059 686.094 545.203 684.746 544.841 682.764C544.51 680.956 543.189 679.488 541.426 678.971C539.492 678.404 538.345 676.417 538.821 674.459C539.254 672.673 538.644 670.795 537.244 669.605C535.708 668.3 535.468 666.019 536.699 664.423C537.822 662.968 538.028 661.005 537.233 659.348C536.36 657.531 537.069 655.35 538.843 654.393C540.46 653.52 541.447 651.81 541.394 649.973C541.336 647.959 542.871 646.254 544.881 646.101C546.713 645.962 548.311 644.801 549.009 643.101C549.776 641.237 551.871 640.304 553.769 640.982C555.5 641.6 557.431 641.189 558.761 639.921Z" fill="#142433" stroke="#33C69F" stroke-width="1.08889"/>
<path d="M559.33 645.419C560.622 644.186 562.655 644.186 563.947 645.419C564.862 646.292 566.19 646.574 567.381 646.149C569.063 645.548 570.92 646.375 571.599 648.027C572.08 649.196 573.178 649.994 574.439 650.09C576.219 650.226 577.58 651.736 577.528 653.522C577.492 654.785 578.171 655.961 579.283 656.562C580.855 657.41 581.483 659.343 580.71 660.953C580.163 662.093 580.305 663.443 581.077 664.444C582.168 665.858 581.956 667.88 580.595 669.036C579.631 669.855 579.212 671.146 579.51 672.375C579.931 674.11 578.915 675.871 577.201 676.373C575.988 676.729 575.08 677.739 574.852 678.982C574.531 680.739 572.887 681.934 571.117 681.696C569.864 681.528 568.623 682.08 567.91 683.124C566.902 684.598 564.914 685.021 563.393 684.084C562.317 683.421 560.959 683.421 559.883 684.084C558.363 685.021 556.374 684.598 555.367 683.124C554.653 682.08 553.413 681.528 552.16 681.696C550.39 681.934 548.745 680.739 548.424 678.982C548.197 677.739 547.289 676.729 546.076 676.373C544.362 675.871 543.345 674.11 543.767 672.375C544.065 671.146 543.645 669.855 542.682 669.036C541.321 667.88 541.109 665.858 542.2 664.444C542.972 663.443 543.114 662.093 542.566 660.953C541.793 659.343 542.422 657.41 543.993 656.562C545.106 655.961 545.785 654.785 545.748 653.522C545.697 651.736 547.057 650.226 548.838 650.09C550.098 649.994 551.197 649.196 551.678 648.027C552.357 646.375 554.214 645.548 555.896 646.149C557.087 646.574 558.415 646.292 559.33 645.419Z" fill="#33C69F" fill-opacity="0.1"/>
<circle cx="561.366" cy="664.45" r="11.7056" stroke="white" stroke-opacity="0.1" stroke-width="0.544444"/>
<circle cx="561.366" cy="664.45" r="14.4278" stroke="white" stroke-opacity="0.2" stroke-width="0.544444"/>
<path d="M554.719 653.833H549.933V655.03L550.73 655.827V673.377L549.933 674.174V674.972H554.719V674.174L553.921 673.377V664.602H557.112V673.377L556.314 674.174V674.972H561.1V674.174L560.303 673.377V655.827L561.1 655.03V653.833H556.314V655.03L557.112 655.827V663.007H553.921V655.827L554.719 655.03V653.833Z" fill="#12926F"/>
<path d="M562.298 658.22V653.833C563.096 653.966 565.249 653.833 567.483 653.833C569.716 653.833 571.87 653.966 572.668 653.833V658.22C572.03 658.858 571.604 658.486 571.471 658.22C571.471 655.987 569.876 655.428 569.078 655.428V673.177L569.876 674.174V674.972H565.09V674.174L565.887 673.177V655.428C563.654 655.428 563.361 657.29 563.494 658.22C562.856 658.858 562.431 658.486 562.298 658.22Z" fill="#33C69F"/>
</g>
<g filter="url(#filter6_d)">
<path d="M807.028 779.57C808.486 778.179 810.78 778.179 812.238 779.57C813.568 780.839 815.499 781.249 817.23 780.631C819.128 779.954 821.223 780.887 821.99 782.751C822.689 784.45 824.286 785.611 826.118 785.75C828.128 785.903 829.663 787.608 829.605 789.622C829.552 791.459 830.539 793.169 832.157 794.042C833.93 794.999 834.639 797.181 833.767 798.997C832.971 800.654 833.178 802.618 834.3 804.073C835.531 805.668 835.291 807.95 833.755 809.255C832.355 810.444 831.745 812.322 832.178 814.108C832.654 816.067 831.507 818.053 829.573 818.62C827.81 819.138 826.489 820.605 826.158 822.413C825.796 824.395 823.941 825.744 821.943 825.476C820.122 825.231 818.318 826.034 817.281 827.551C816.144 829.215 813.9 829.692 812.185 828.635C810.62 827.67 808.646 827.67 807.081 828.635C805.366 829.692 803.122 829.215 801.985 827.551C800.948 826.034 799.144 825.231 797.323 825.476C795.325 825.744 793.469 824.395 793.107 822.413C792.777 820.605 791.456 819.138 789.692 818.62C787.759 818.053 786.612 816.067 787.087 814.108C787.521 812.322 786.911 810.444 785.51 809.255C783.975 807.95 783.735 805.668 784.966 804.073C786.088 802.618 786.295 800.654 785.499 798.997C784.627 797.181 785.336 794.999 787.109 794.042C788.727 793.169 789.714 791.459 789.661 789.622C789.603 787.608 791.138 785.903 793.147 785.75C794.98 785.611 796.577 784.45 797.276 782.751C798.042 780.887 800.138 779.954 802.036 780.631C803.767 781.249 805.698 780.839 807.028 779.57Z" fill="#142433" stroke="#33C69F" stroke-width="1.08889"/>
<path d="M807.596 785.068C808.889 783.836 810.921 783.836 812.214 785.068C813.128 785.941 814.457 786.223 815.647 785.798C817.329 785.198 819.186 786.025 819.865 787.676C820.346 788.845 821.445 789.644 822.705 789.74C824.486 789.875 825.846 791.386 825.795 793.171C825.759 794.435 826.438 795.611 827.55 796.211C829.122 797.059 829.75 798.992 828.977 800.602C828.43 801.742 828.572 803.093 829.344 804.093C830.435 805.508 830.222 807.529 828.861 808.686C827.898 809.504 827.478 810.796 827.776 812.024C828.198 813.76 827.181 815.52 825.468 816.023C824.255 816.379 823.346 817.388 823.119 818.631C822.798 820.388 821.153 821.583 819.383 821.346C818.131 821.177 816.89 821.73 816.177 822.773C815.169 824.248 813.18 824.67 811.66 823.733C810.584 823.07 809.226 823.07 808.15 823.733C806.629 824.67 804.641 824.248 803.633 822.773C802.92 821.73 801.679 821.177 800.427 821.346C798.656 821.583 797.012 820.388 796.691 818.631C796.464 817.388 795.555 816.379 794.342 816.023C792.628 815.52 791.612 813.76 792.033 812.024C792.332 810.796 791.912 809.504 790.949 808.686C789.588 807.529 789.375 805.508 790.466 804.093C791.238 803.093 791.38 801.742 790.833 800.602C790.06 798.992 790.688 797.059 792.26 796.211C793.372 795.611 794.051 794.435 794.015 793.171C793.964 791.386 795.324 789.875 797.105 789.74C798.365 789.644 799.464 788.845 799.944 787.676C800.624 786.025 802.481 785.198 804.163 785.798C805.353 786.223 806.682 785.941 807.596 785.068Z" fill="#33C69F" fill-opacity="0.1"/>
<circle cx="809.633" cy="804.1" r="11.7056" stroke="white" stroke-opacity="0.1" stroke-width="0.544444"/>
<circle cx="809.633" cy="804.099" r="14.4278" stroke="white" stroke-opacity="0.2" stroke-width="0.544444"/>
<path d="M809.882 794.664H809.075V806.768H809.882V794.664Z" fill="#33C69F"/>
<path d="M809.882 808.383H809.075V816.452H809.882V808.383Z" fill="#33C69F"/>
<path d="M809.478 795.068C808.366 795.068 807.461 794.163 807.461 793.051C807.461 791.938 808.366 791.033 809.478 791.033C810.591 791.033 811.496 791.938 811.496 793.051C811.496 794.163 810.591 795.068 809.478 795.068ZM809.478 791.84C808.811 791.84 808.268 792.383 808.268 793.051C808.268 793.718 808.811 794.261 809.478 794.261C810.146 794.261 810.689 793.718 810.689 793.051C810.689 792.383 810.146 791.84 809.478 791.84Z" fill="#33C69F"/>
<path fill-rule="evenodd" clip-rule="evenodd" d="M809.477 816.856C808.142 816.856 807.057 815.77 807.057 814.435C807.057 813.906 807.224 813.404 807.541 812.982L808.186 813.466C807.975 813.748 807.864 814.083 807.864 814.435C807.864 815.325 808.587 816.049 809.477 816.049C810.368 816.049 811.091 815.325 811.091 814.435C811.091 813.716 810.399 813.319 809.494 812.876L809.297 812.778L809.658 812.057L809.85 812.151C810.665 812.551 811.898 813.155 811.898 814.435C811.898 815.77 810.813 816.856 809.477 816.856Z" fill="#33C69F"/>
<path fill-rule="evenodd" clip-rule="evenodd" d="M809.297 812.778C809.226 812.742 809.145 812.703 809.056 812.661C808.075 812.19 806.25 811.314 806.25 809.593C806.25 808.307 807.385 807.636 808.062 807.235L808.473 807.931C807.698 808.388 807.057 808.829 807.057 809.593C807.057 810.806 808.584 811.539 809.405 811.933C809.498 811.978 809.583 812.019 809.658 812.057L809.297 812.778Z" fill="#33C69F"/>
<path fill-rule="evenodd" clip-rule="evenodd" d="M811.272 811.972L810.911 811.25C811.576 810.917 811.898 810.376 811.898 809.593C811.898 808.4 810.336 807.637 809.496 807.228L809.297 807.13L809.658 806.408L809.85 806.503C810.777 806.955 812.705 807.895 812.705 809.593C812.705 810.68 812.21 811.503 811.272 811.972Z" fill="#33C69F"/>
<path fill-rule="evenodd" clip-rule="evenodd" d="M809.478 807.22L809.105 807.035C808.13 806.56 805.847 805.449 805.847 803.541C805.847 801.698 807.252 800.717 808.268 800.717V801.524C807.705 801.524 806.654 802.116 806.654 803.541C806.654 804.944 808.619 805.901 809.458 806.31L809.478 806.319L809.498 806.31C810.337 805.901 812.302 804.944 812.302 803.541C812.302 802.116 811.251 801.524 810.688 801.524V800.717C811.704 800.717 813.109 801.698 813.109 803.541C813.109 805.449 810.826 806.56 809.851 807.035L809.478 807.22Z" fill="#33C69F"/>
<path fill-rule="evenodd" clip-rule="evenodd" d="M808.267 799.91H806.653C802.547 799.91 797.746 798.672 796.587 795.196C796.546 795.073 796.567 794.937 796.643 794.832C796.719 794.727 796.841 794.665 796.97 794.665C800.394 794.665 801.623 793.931 802.611 793.34C803.233 792.969 803.77 792.647 804.636 792.647C805.711 792.647 806.653 793.59 806.653 794.665V795.875C806.653 796.32 807.015 796.682 807.46 796.682H808.267V797.489H807.46C806.57 797.489 805.846 796.765 805.846 795.875V794.665C805.846 793.983 805.196 793.454 804.636 793.454C803.993 793.454 803.587 793.697 803.025 794.033C802.067 794.606 800.775 795.377 797.575 795.464C798.529 797.308 801.323 799.103 806.653 799.103H808.267V799.91Z" fill="#33C69F"/>
<path d="M805.846 797.893H805.039V799.506H805.846V797.893Z" fill="#33C69F"/>
<path d="M804.232 797.489H803.425V799.507H804.232V797.489Z" fill="#33C69F"/>
<path d="M802.617 797.085H801.811V799.102H802.617V797.085Z" fill="#33C69F"/>
<path d="M801.004 796.682H800.197V798.296H801.004V796.682Z" fill="#33C69F"/>
<path fill-rule="evenodd" clip-rule="evenodd" d="M812.302 799.91H810.688V799.103H812.302C817.633 799.103 820.427 797.308 821.381 795.464C818.18 795.377 816.889 794.605 815.931 794.033C815.369 793.697 814.963 793.454 814.32 793.454C813.76 793.454 813.109 793.983 813.109 794.665V795.875C813.109 796.765 812.385 797.489 811.495 797.489H810.688V796.682H811.495C811.94 796.682 812.302 796.32 812.302 795.875V794.665C812.302 793.59 813.245 792.647 814.32 792.647C815.186 792.647 815.723 792.969 816.345 793.34C817.333 793.931 818.561 794.665 821.986 794.665C822.115 794.665 822.237 794.727 822.313 794.832C822.389 794.938 822.409 795.073 822.369 795.196C821.21 798.672 816.409 799.91 812.302 799.91Z" fill="#33C69F"/>
<path d="M813.915 797.893H813.108V799.506H813.915V797.893Z" fill="#33C69F"/>
<path d="M815.53 797.489H814.723V799.507H815.53V797.489Z" fill="#33C69F"/>
<path d="M817.144 797.085H816.337V799.102H817.144V797.085Z" fill="#33C69F"/>
<path d="M818.757 796.682H817.95V798.296H818.757V796.682Z" fill="#33C69F"/>
</g>
<g filter="url(#filter7_d)">
<path d="M558.761 779.57C560.219 778.179 562.513 778.179 563.971 779.57C565.301 780.839 567.233 781.249 568.963 780.631C570.861 779.954 572.957 780.887 573.723 782.751C574.422 784.45 576.019 785.611 577.852 785.75C579.861 785.903 581.396 787.608 581.338 789.622C581.285 791.459 582.273 793.169 583.89 794.042C585.663 794.999 586.372 797.181 585.5 798.997C584.705 800.654 584.911 802.618 586.033 804.073C587.264 805.668 587.025 807.95 585.489 809.255C584.088 810.444 583.478 812.322 583.912 814.108C584.387 816.067 583.24 818.053 581.307 818.62C579.543 819.138 578.222 820.605 577.892 822.413C577.53 824.395 575.674 825.744 573.677 825.476C571.855 825.231 570.051 826.034 569.014 827.551C567.877 829.215 565.634 829.692 563.918 828.635C562.353 827.67 560.379 827.67 558.815 828.635C557.099 829.692 554.855 829.215 553.718 827.551C552.681 826.034 550.877 825.231 549.056 825.476C547.059 825.744 545.203 824.395 544.841 822.413C544.51 820.605 543.189 819.138 541.426 818.62C539.492 818.053 538.345 816.067 538.821 814.108C539.254 812.322 538.644 810.444 537.244 809.255C535.708 807.95 535.468 805.668 536.699 804.073C537.822 802.618 538.028 800.654 537.233 798.997C536.36 797.181 537.069 794.999 538.843 794.042C540.46 793.169 541.447 791.459 541.394 789.622C541.336 787.608 542.871 785.903 544.881 785.75C546.713 785.611 548.311 784.45 549.009 782.751C549.776 780.887 551.871 779.954 553.769 780.631C555.5 781.249 557.431 780.839 558.761 779.57Z" fill="#142433" stroke="#33C69F" stroke-width="1.08889"/>
<path d="M559.33 785.068C560.622 783.836 562.655 783.836 563.947 785.068C564.862 785.941 566.19 786.223 567.381 785.798C569.063 785.198 570.92 786.025 571.599 787.676C572.08 788.845 573.178 789.644 574.439 789.74C576.219 789.875 577.58 791.386 577.528 793.171C577.492 794.435 578.171 795.611 579.283 796.211C580.855 797.059 581.483 798.992 580.71 800.602C580.163 801.742 580.305 803.093 581.077 804.093C582.168 805.508 581.956 807.529 580.595 808.686C579.631 809.504 579.212 810.796 579.51 812.024C579.931 813.76 578.915 815.52 577.201 816.023C575.988 816.379 575.08 817.388 574.852 818.631C574.531 820.388 572.887 821.583 571.117 821.346C569.864 821.177 568.623 821.73 567.91 822.773C566.902 824.248 564.914 824.67 563.393 823.733C562.317 823.07 560.959 823.07 559.883 823.733C558.363 824.67 556.374 824.248 555.367 822.773C554.653 821.73 553.413 821.177 552.16 821.346C550.39 821.583 548.745 820.388 548.424 818.631C548.197 817.388 547.289 816.379 546.076 816.023C544.362 815.52 543.345 813.76 543.767 812.024C544.065 810.796 543.645 809.504 542.682 808.686C541.321 807.529 541.109 805.508 542.2 804.093C542.972 803.093 543.114 801.742 542.566 800.602C541.793 798.992 542.422 797.059 543.993 796.211C545.106 795.611 545.785 794.435 545.748 793.171C545.697 791.386 547.057 789.875 548.838 789.74C550.098 789.644 551.197 788.845 551.678 787.676C552.357 786.025 554.214 785.198 555.896 785.798C557.087 786.223 558.415 785.941 559.33 785.068Z" fill="#33C69F" fill-opacity="0.1"/>
<circle cx="561.366" cy="804.1" r="11.7056" stroke="white" stroke-opacity="0.1" stroke-width="0.544444"/>
<circle cx="561.366" cy="804.099" r="14.4278" stroke="white" stroke-opacity="0.2" stroke-width="0.544444"/>
<path fill-rule="evenodd" clip-rule="evenodd" d="M560.754 795.35L561.788 794.527L562.822 795.35L562.428 794.019L563.478 793.196H562.184L561.788 791.85L561.392 793.198L560.099 793.196L561.148 794.019L560.754 795.35Z" fill="#33C69F"/>
<path fill-rule="evenodd" clip-rule="evenodd" d="M555.687 796.225L556.72 795.402L557.753 796.225L557.36 794.895L558.41 794.072H557.116L556.72 792.725L556.324 794.074L555.03 794.072L556.079 794.895L555.687 796.225Z" fill="#33C69F"/>
<path fill-rule="evenodd" clip-rule="evenodd" d="M552.495 797.1L552.099 798.449L550.806 798.447L551.855 799.27L551.462 800.6L552.495 799.777L553.529 800.6L553.136 799.27L554.185 798.447H552.891L552.495 797.1Z" fill="#33C69F"/>
<path fill-rule="evenodd" clip-rule="evenodd" d="M550.806 805.027L551.839 805.85L551.446 804.52L552.496 803.697H551.202L550.806 802.35L550.41 803.7L549.116 803.697L550.166 804.52L549.773 805.85L550.806 805.027Z" fill="#33C69F"/>
<path fill-rule="evenodd" clip-rule="evenodd" d="M552.891 808.947L552.495 807.6L552.099 808.949L550.806 808.947L551.855 809.77L551.462 811.1L552.495 810.276L553.529 811.1L553.136 809.77L554.185 808.947H552.891Z" fill="#33C69F"/>
<path fill-rule="evenodd" clip-rule="evenodd" d="M557.116 813.322L556.72 811.976L556.324 813.324L555.03 813.322L556.079 814.145L555.687 815.476L556.72 814.653L557.753 815.476L557.361 814.145L558.41 813.322H557.116Z" fill="#33C69F"/>
<path fill-rule="evenodd" clip-rule="evenodd" d="M562.184 814.197L561.788 812.85L561.393 814.199L560.099 814.197L561.148 815.02L560.755 816.35L561.789 815.527L562.822 816.35L562.428 815.02L563.478 814.197H562.184Z" fill="#33C69F"/>
<path fill-rule="evenodd" clip-rule="evenodd" d="M567.253 813.322L566.858 811.976L566.461 813.324L565.168 813.322L566.217 814.145L565.824 815.476L566.858 814.653L567.891 815.476L567.497 814.145L568.547 813.322H567.253Z" fill="#33C69F"/>
<path fill-rule="evenodd" clip-rule="evenodd" d="M571.478 808.947L571.081 807.6L570.684 808.949L569.392 808.947L570.442 809.77L570.048 811.1L571.081 810.276L572.115 811.1L571.721 809.77L572.771 808.947H571.478Z" fill="#33C69F"/>
<path fill-rule="evenodd" clip-rule="evenodd" d="M573.617 803.697H572.323L571.926 802.35L571.531 803.699L570.237 803.697L571.287 804.52L570.894 805.85L571.926 805.026L572.96 805.85L572.567 804.52L573.617 803.697Z" fill="#33C69F"/>
<path fill-rule="evenodd" clip-rule="evenodd" d="M570.047 800.6L571.081 799.777L572.115 800.6L571.721 799.269L572.771 798.448H571.478L571.081 797.1L570.685 798.449L569.392 798.448L570.442 799.269L570.047 800.6Z" fill="#33C69F"/>
<path fill-rule="evenodd" clip-rule="evenodd" d="M566.857 792.725L566.462 794.074L565.168 794.071L566.216 794.895L565.824 796.225L566.858 795.401L567.89 796.225L567.498 794.895L568.547 794.071H567.252L566.857 792.725Z" fill="#33C69F"/>
</g>
<g filter="url(#filter8_d)">
<path d="M682.895 849.804C684.353 848.413 686.647 848.413 688.105 849.804C689.435 851.072 691.366 851.483 693.097 850.865C694.995 850.187 697.091 851.12 697.857 852.984C698.556 854.684 700.153 855.844 701.986 855.984C703.995 856.137 705.53 857.841 705.472 859.856C705.419 861.693 706.406 863.403 708.024 864.275C709.797 865.233 710.506 867.414 709.634 869.231C708.838 870.887 709.045 872.851 710.167 874.306C711.398 875.902 711.158 878.183 709.623 879.488C708.222 880.678 707.612 882.556 708.046 884.342C708.521 886.3 707.374 888.286 705.44 888.854C703.677 889.371 702.356 890.839 702.026 892.646C701.663 894.629 699.808 895.977 697.81 895.709C695.989 895.464 694.185 896.267 693.148 897.785C692.011 899.448 689.767 899.925 688.052 898.868C686.487 897.904 684.513 897.904 682.948 898.868C681.233 899.925 678.989 899.448 677.852 897.785C676.815 896.267 675.011 895.464 673.19 895.709C671.192 895.977 669.337 894.629 668.975 892.646C668.644 890.839 667.323 889.371 665.56 888.854C663.626 888.286 662.479 886.3 662.955 884.342C663.388 882.556 662.778 880.678 661.377 879.488C659.842 878.183 659.602 875.902 660.833 874.306C661.955 872.851 662.162 870.887 661.366 869.231C660.494 867.414 661.203 865.233 662.976 864.275C664.594 863.403 665.581 861.693 665.528 859.856C665.47 857.841 667.005 856.137 669.014 855.984C670.847 855.844 672.444 854.684 673.143 852.984C673.91 851.12 676.005 850.187 677.903 850.865C679.634 851.483 681.565 851.072 682.895 849.804Z" fill="#142433" stroke="#33C69F" stroke-width="1.08889"/>
<path d="M683.463 855.302C684.756 854.069 686.789 854.069 688.081 855.302C688.996 856.174 690.324 856.457 691.514 856.032C693.196 855.431 695.053 856.258 695.733 857.91C696.213 859.079 697.312 859.877 698.572 859.973C700.353 860.109 701.714 861.619 701.662 863.404C701.626 864.668 702.305 865.844 703.417 866.444C704.989 867.293 705.617 869.226 704.844 870.836C704.297 871.975 704.439 873.326 705.211 874.327C706.302 875.741 706.089 877.763 704.728 878.919C703.765 879.737 703.345 881.029 703.644 882.257C704.065 883.993 703.049 885.753 701.335 886.256C700.122 886.612 699.213 887.621 698.986 888.865C698.665 890.622 697.021 891.817 695.251 891.579C693.998 891.411 692.757 891.963 692.044 893.007C691.036 894.481 689.048 894.904 687.527 893.967C686.451 893.303 685.093 893.303 684.017 893.967C682.497 894.904 680.508 894.481 679.5 893.007C678.787 891.963 677.547 891.411 676.294 891.579C674.524 891.817 672.879 890.622 672.558 888.865C672.331 887.621 671.422 886.612 670.209 886.256C668.496 885.753 667.479 883.993 667.901 882.257C668.199 881.029 667.779 879.737 666.816 878.919C665.455 877.763 665.242 875.741 666.333 874.327C667.105 873.326 667.247 871.975 666.7 870.836C665.927 869.226 666.555 867.293 668.127 866.444C669.24 865.844 669.919 864.668 669.882 863.404C669.831 861.619 671.191 860.109 672.972 859.973C674.232 859.877 675.331 859.079 675.812 857.91C676.491 856.258 678.348 855.431 680.03 856.032C681.22 856.457 682.549 856.174 683.463 855.302Z" fill="#33C69F" fill-opacity="0.1"/>
<circle cx="685.5" cy="874.333" r="11.7056" stroke="white" stroke-opacity="0.1" stroke-width="0.544444"/>
<circle cx="685.5" cy="874.333" r="14.4278" stroke="white" stroke-opacity="0.2" stroke-width="0.544444"/>
<path d="M682.878 859.633H673.327C672.849 864.338 674.719 869.436 675.714 871.396L681.684 882.572C686.459 881.631 689.643 886.101 690.638 888.454L695.413 887.277C698.756 885.866 697.602 882.768 696.607 881.395L682.878 868.456V859.633Z" fill="#20B08A"/>
</g>
<g filter="url(#filter9_d)">
<path d="M835.612 558.254C837.07 556.863 839.364 556.863 840.822 558.254C842.152 559.522 844.083 559.933 845.814 559.315C847.712 558.637 849.807 559.57 850.574 561.434C851.273 563.134 852.87 564.295 854.702 564.434C856.712 564.587 858.247 566.292 858.189 568.306C858.136 570.143 859.123 571.853 860.741 572.726C862.514 573.683 863.223 575.864 862.351 577.681C861.555 579.338 861.762 581.301 862.884 582.756C864.115 584.352 863.875 586.633 862.339 587.938C860.939 589.128 860.329 591.006 860.762 592.792C861.238 594.75 860.091 596.737 858.157 597.304C856.394 597.821 855.073 599.289 854.742 601.097C854.38 603.079 852.525 604.427 850.527 604.159C848.706 603.915 846.902 604.718 845.865 606.235C844.728 607.899 842.484 608.376 840.769 607.318C839.204 606.354 837.23 606.354 835.665 607.318C833.95 608.376 831.706 607.899 830.569 606.235C829.532 604.718 827.728 603.915 825.907 604.159C823.909 604.427 822.053 603.079 821.691 601.097C821.361 599.289 820.04 597.821 818.276 597.304C816.343 596.737 815.196 594.75 815.671 592.792C816.105 591.006 815.495 589.128 814.094 587.938C812.558 586.633 812.319 584.352 813.55 582.756C814.672 581.301 814.879 579.338 814.083 577.681C813.211 575.864 813.92 573.683 815.693 572.726C817.311 571.853 818.298 570.143 818.245 568.306C818.187 566.292 819.722 564.587 821.731 564.434C823.564 564.295 825.161 563.134 825.86 561.434C826.626 559.57 828.722 558.637 830.62 559.315C832.351 559.933 834.282 559.522 835.612 558.254Z" fill="#142433" stroke="#33C69F" stroke-width="1.08889"/>
<path d="M836.18 563.752C837.473 562.519 839.505 562.519 840.798 563.752C841.712 564.625 843.041 564.907 844.231 564.482C845.913 563.881 847.77 564.708 848.449 566.36C848.93 567.529 850.029 568.327 851.289 568.423C853.07 568.559 854.43 570.069 854.379 571.855C854.343 573.118 855.022 574.294 856.134 574.895C857.706 575.743 858.334 577.676 857.561 579.286C857.014 580.426 857.156 581.776 857.928 582.777C859.019 584.191 858.806 586.213 857.445 587.369C856.482 588.188 856.062 589.479 856.36 590.708C856.782 592.443 855.765 594.204 854.052 594.706C852.839 595.062 851.93 596.072 851.703 597.315C851.382 599.072 849.737 600.267 847.967 600.029C846.715 599.861 845.474 600.413 844.761 601.457C843.753 602.931 841.764 603.354 840.244 602.417C839.168 601.754 837.81 601.754 836.734 602.417C835.213 603.354 833.225 602.931 832.217 601.457C831.504 600.413 830.263 599.861 829.011 600.029C827.24 600.267 825.596 599.072 825.275 597.315C825.048 596.072 824.139 595.062 822.926 594.706C821.212 594.204 820.196 592.443 820.617 590.708C820.916 589.479 820.496 588.188 819.533 587.369C818.172 586.213 817.959 584.191 819.05 582.777C819.822 581.776 819.964 580.426 819.417 579.286C818.644 577.676 819.272 575.743 820.844 574.895C821.956 574.294 822.635 573.118 822.599 571.855C822.548 570.069 823.908 568.559 825.689 568.423C826.949 568.327 828.048 567.529 828.528 566.36C829.208 564.708 831.065 563.881 832.747 564.482C833.937 564.907 835.266 564.625 836.18 563.752Z" fill="#33C69F" fill-opacity="0.1"/>
<circle cx="838.217" cy="582.783" r="11.7056" stroke="white" stroke-opacity="0.1" stroke-width="0.544444"/>
<circle cx="838.217" cy="582.783" r="14.4278" stroke="white" stroke-opacity="0.2" stroke-width="0.544444"/>
<g clip-path="url(#clip2)">
<path d="M852.524 586.685L854.409 586.091L853.796 584.732C853.347 585.297 852.897 586.024 852.524 586.685ZM851.882 580.474L848.188 572.243L821.143 573.774L828.636 594.217L843.059 589.671C842.14 588.35 841.805 586.78 842.867 586.015C844.054 585.154 845.844 586.149 846.982 587.556C848.083 585.718 851.174 581.44 851.882 580.474Z" fill="#33C69F" fill-opacity="0.33"/>
<path d="M847.345 578.191C848.474 578.191 849.393 577.329 849.393 576.257C849.393 575.186 848.474 574.324 847.345 574.324C846.216 574.324 845.297 575.186 845.297 576.257C845.297 577.32 846.216 578.191 847.345 578.191ZM845.67 579.023H849.02V587.78H845.67V579.023Z" fill="#7DE6CA"/>
<path d="M844.015 581.578C844.044 581.588 844.063 581.578 844.063 581.549V579.329C844.063 579.3 844.044 579.272 844.015 579.253C844.015 579.253 843.575 578.965 842.235 578.889C842.168 578.851 840.991 578.841 840.675 578.889C835.794 579.281 835.612 582.813 835.612 582.966V583.827C835.612 583.932 835.612 587.54 840.675 587.856C841.173 587.895 842.139 587.856 842.235 587.856C843.403 587.856 844.206 587.502 844.206 587.502C844.235 587.493 844.254 587.464 844.254 587.435V585.358C844.254 585.33 844.235 585.32 844.216 585.339C844.216 585.339 843.852 585.626 842.264 585.789C841.814 585.837 841.594 585.818 841.431 585.789C839.172 585.406 839.067 583.76 839.067 583.76C839.067 583.731 839.058 583.684 839.058 583.664V583.033C839.058 583.004 839.058 582.956 839.067 582.937C839.067 582.937 839.22 581.167 841.431 580.975H842.264C843.23 581.1 844.015 581.578 844.015 581.578Z" fill="#7DE6CA"/>
<path d="M826.31 587.751C826.31 587.78 826.329 587.799 826.357 587.799H829.621C829.65 587.799 829.669 587.78 829.669 587.751V585.205C829.669 585.177 829.688 585.158 829.717 585.158C829.717 585.158 834.932 585.531 834.932 582.038C834.932 579.272 831.659 578.975 830.588 579.023C830.568 579.023 826.357 579.023 826.357 579.023C826.329 579.023 826.31 579.042 826.31 579.071V587.751ZM829.611 583.215V580.927H830.415C830.415 580.927 831.573 580.975 831.669 581.77C831.688 581.827 831.688 582.219 831.669 582.239C831.516 583.167 830.511 583.215 830.511 583.215H829.611Z" fill="#7DE6CA"/>
<path d="M847.442 592.006C847.71 592.006 847.92 592.006 848.265 591.853C849.451 591.231 853.461 581.44 857.691 578.425C857.72 578.406 857.749 578.378 857.768 578.349C857.797 578.311 857.797 578.272 857.797 578.272C857.797 578.272 857.797 578.071 857.175 578.071C853.414 577.966 849.499 585.862 847.442 588.982C847.413 589.02 847.279 588.982 847.279 588.982C847.279 588.982 845.901 587.355 844.705 586.732C844.676 586.723 844.542 586.675 844.398 586.685C844.303 586.685 843.747 586.799 843.489 587.067C843.183 587.393 843.192 587.575 843.192 587.967C843.192 587.996 843.212 588.13 843.25 588.197C843.547 588.714 844.877 590.551 845.977 591.565C846.14 591.69 846.398 592.006 847.442 592.006Z" fill="#33C69F"/>
</g>
</g>
<g clip-path="url(#clip3)" filter="url(#filter10_d)">
<path d="M834.795 859.604C836.254 858.213 838.547 858.213 840.006 859.604C841.335 860.872 843.267 861.283 844.997 860.665C846.895 859.987 848.991 860.92 849.757 862.784C850.456 864.484 852.054 865.644 853.886 865.784C855.896 865.937 857.43 867.641 857.372 869.656C857.32 871.493 858.307 873.203 859.924 874.075C861.698 875.032 862.406 877.214 861.534 879.031C860.739 880.687 860.945 882.651 862.068 884.106C863.299 885.702 863.059 887.983 861.523 889.288C860.122 890.478 859.512 892.355 859.946 894.141C860.421 896.1 859.275 898.086 857.341 898.654C855.577 899.171 854.256 900.638 853.926 902.446C853.564 904.429 851.708 905.777 849.711 905.509C847.889 905.264 846.086 906.067 845.049 907.584C843.911 909.248 841.668 909.725 839.952 908.668C838.388 907.703 836.413 907.703 834.849 908.668C833.133 909.725 830.89 909.248 829.752 907.584C828.715 906.067 826.912 905.264 825.09 905.509C823.093 905.777 821.237 904.429 820.875 902.446C820.545 900.638 819.224 899.171 817.46 898.654C815.526 898.086 814.379 896.1 814.855 894.141C815.289 892.355 814.678 890.478 813.278 889.288C811.742 887.983 811.502 885.702 812.733 884.106C813.856 882.651 814.062 880.687 813.267 879.031C812.394 877.214 813.103 875.032 814.877 874.075C816.494 873.203 817.481 871.493 817.428 869.656C817.371 867.641 818.905 865.937 820.915 865.784C822.747 865.644 824.345 864.484 825.044 862.784C825.81 860.92 827.905 859.987 829.803 860.665C831.534 861.283 833.466 860.872 834.795 859.604Z" fill="#142433" stroke="#33C69F" stroke-width="1.08889"/>
<path d="M835.364 865.102C836.656 863.869 838.689 863.869 839.981 865.102C840.896 865.974 842.224 866.257 843.415 865.831C845.097 865.231 846.954 866.058 847.633 867.71C848.114 868.879 849.212 869.677 850.473 869.773C852.254 869.908 853.614 871.419 853.563 873.204C853.526 874.468 854.205 875.644 855.318 876.244C856.889 877.092 857.518 879.026 856.745 880.636C856.197 881.775 856.339 883.126 857.111 884.127C858.202 885.541 857.99 887.562 856.629 888.719C855.665 889.537 855.246 890.829 855.544 892.057C855.965 893.793 854.949 895.553 853.235 896.056C852.022 896.412 851.114 897.421 850.887 898.665C850.566 900.422 848.921 901.616 847.151 901.379C845.898 901.21 844.657 901.763 843.944 902.806C842.936 904.281 840.948 904.704 839.428 903.766C838.352 903.103 836.994 903.103 835.917 903.766C834.397 904.704 832.409 904.281 831.401 902.806C830.688 901.763 829.447 901.21 828.194 901.379C826.424 901.616 824.779 900.422 824.459 898.665C824.231 897.421 823.323 896.412 822.11 896.056C820.396 895.553 819.38 893.793 819.801 892.057C820.099 890.829 819.68 889.537 818.716 888.719C817.355 887.562 817.143 885.541 818.234 884.127C819.006 883.126 819.148 881.775 818.601 880.636C817.828 879.026 818.456 877.092 820.027 876.244C821.14 875.644 821.819 874.468 821.783 873.204C821.731 871.419 823.091 869.908 824.872 869.773C826.133 869.677 827.231 868.879 827.712 867.71C828.391 866.058 830.248 865.231 831.93 865.831C833.121 866.257 834.449 865.974 835.364 865.102Z" fill="#33C69F" fill-opacity="0.1"/>
<circle cx="837.401" cy="884.133" r="11.7056" stroke="white" stroke-opacity="0.1" stroke-width="0.544444"/>
<circle cx="837.4" cy="884.133" r="14.4278" stroke="white" stroke-opacity="0.2" stroke-width="0.544444"/>
<g filter="url(#filter11_d)">
<path d="M835.825 883.055V884.888H830.273V890.35H828.135V877.503H837.118V879.318H830.273V883.055H835.825ZM837.045 877.503H842.525C843.855 877.503 844.909 877.827 845.687 878.474C846.478 879.12 846.873 880.025 846.873 881.187C846.873 882.061 846.663 882.768 846.244 883.307C845.825 883.846 845.238 884.205 844.483 884.385V884.421C845.106 884.54 845.573 884.834 845.885 885.301C846.208 885.768 846.418 886.277 846.514 886.828C846.622 887.367 846.699 888.032 846.747 888.822C846.783 889.302 846.819 889.649 846.855 889.865C846.891 890.068 846.957 890.188 847.053 890.224V890.35H844.807C844.723 890.278 844.669 890.14 844.645 889.936C844.621 889.733 844.603 889.433 844.591 889.038C844.579 888.331 844.525 887.732 844.43 887.241C844.346 886.75 844.136 886.319 843.801 885.948C843.477 885.576 842.986 885.391 842.327 885.391H839.183V890.35H837.045V877.503ZM839.183 883.558H842.076C842.89 883.558 843.537 883.414 844.016 883.127C844.507 882.84 844.753 882.277 844.753 881.438C844.753 880.6 844.507 880.037 844.016 879.749C843.525 879.462 842.878 879.318 842.076 879.318H839.183V883.558Z" fill="#33C69F"/>
</g>
</g>
<g clip-path="url(#clip4)" filter="url(#filter12_d)">
<path d="M530.178 558.254C531.636 556.863 533.93 556.863 535.388 558.254C536.718 559.522 538.65 559.933 540.38 559.315C542.278 558.637 544.374 559.57 545.14 561.434C545.839 563.134 547.436 564.295 549.269 564.434C551.278 564.587 552.813 566.292 552.755 568.306C552.702 570.143 553.69 571.853 555.307 572.726C557.08 573.683 557.789 575.864 556.917 577.681C556.122 579.338 556.328 581.301 557.45 582.756C558.681 584.352 558.442 586.633 556.906 587.938C555.505 589.128 554.895 591.006 555.329 592.792C555.804 594.75 554.657 596.737 552.724 597.304C550.96 597.821 549.639 599.289 549.309 601.097C548.947 603.079 547.091 604.427 545.094 604.159C543.272 603.915 541.468 604.718 540.431 606.235C539.294 607.899 537.051 608.376 535.335 607.318C533.77 606.354 531.796 606.354 530.232 607.318C528.516 608.376 526.272 607.899 525.135 606.235C524.098 604.718 522.294 603.915 520.473 604.159C518.476 604.427 516.62 603.079 516.258 601.097C515.927 599.289 514.606 597.821 512.843 597.304C510.909 596.737 509.762 594.75 510.238 592.792C510.671 591.006 510.061 589.128 508.661 587.938C507.125 586.633 506.885 584.352 508.116 582.756C509.239 581.301 509.445 579.338 508.65 577.681C507.777 575.864 508.486 573.683 510.26 572.726C511.877 571.853 512.864 570.143 512.811 568.306C512.753 566.292 514.288 564.587 516.298 564.434C518.13 564.295 519.727 563.134 520.426 561.434C521.193 559.57 523.288 558.637 525.186 559.315C526.917 559.933 528.848 559.522 530.178 558.254Z" fill="#142433" stroke="#33C69F" stroke-width="1.08889"/>
<path d="M530.747 563.752C532.039 562.519 534.072 562.519 535.364 563.752C536.279 564.625 537.607 564.907 538.798 564.482C540.48 563.881 542.337 564.708 543.016 566.36C543.497 567.529 544.595 568.327 545.856 568.423C547.636 568.559 548.997 570.069 548.945 571.855C548.909 573.118 549.588 574.294 550.7 574.895C552.272 575.743 552.9 577.676 552.127 579.286C551.58 580.426 551.722 581.776 552.494 582.777C553.585 584.191 553.373 586.213 552.012 587.369C551.048 588.188 550.629 589.479 550.927 590.708C551.348 592.443 550.332 594.204 548.618 594.706C547.405 595.062 546.497 596.072 546.269 597.315C545.948 599.072 544.304 600.267 542.534 600.029C541.281 599.861 540.04 600.413 539.327 601.457C538.319 602.931 536.331 603.354 534.81 602.417C533.734 601.754 532.376 601.754 531.3 602.417C529.78 603.354 527.791 602.931 526.784 601.457C526.07 600.413 524.83 599.861 523.577 600.029C521.807 600.267 520.162 599.072 519.841 597.315C519.614 596.072 518.706 595.062 517.493 594.706C515.779 594.204 514.762 592.443 515.184 590.708C515.482 589.479 515.062 588.188 514.099 587.369C512.738 586.213 512.526 584.191 513.616 582.777C514.389 581.776 514.531 580.426 513.983 579.286C513.21 577.676 513.839 575.743 515.41 574.895C516.523 574.294 517.202 573.118 517.165 571.855C517.114 570.069 518.474 568.559 520.255 568.423C521.515 568.327 522.614 567.529 523.095 566.36C523.774 564.708 525.631 563.881 527.313 564.482C528.504 564.907 529.832 564.625 530.747 563.752Z" fill="#33C69F" fill-opacity="0.1"/>
<circle cx="532.783" cy="582.783" r="11.7056" stroke="white" stroke-opacity="0.1" stroke-width="0.544444"/>
<circle cx="532.783" cy="582.783" r="14.4278" stroke="white" stroke-opacity="0.2" stroke-width="0.544444"/>
<g filter="url(#filter13_d)">
<path d="M528.389 580.574C528.245 579.783 527.904 579.112 527.365 578.561C526.826 577.998 526.018 577.717 524.94 577.717C523.646 577.717 522.676 578.178 522.029 579.1C521.394 580.023 521.077 581.179 521.077 582.568C521.077 583.969 521.394 585.131 522.029 586.053C522.676 586.976 523.646 587.437 524.94 587.437C526.041 587.437 526.868 587.137 527.419 586.539C527.982 585.94 528.305 585.197 528.389 584.311H530.527C530.431 585.281 530.15 586.143 529.683 586.898C529.216 587.641 528.581 588.221 527.778 588.641C526.988 589.06 526.059 589.27 524.993 589.27C523.784 589.27 522.718 588.982 521.795 588.407C520.885 587.832 520.184 587.042 519.693 586.035C519.202 585.017 518.957 583.862 518.957 582.568C518.957 581.286 519.202 580.142 519.693 579.136C520.196 578.118 520.903 577.322 521.813 576.747C522.724 576.172 523.784 575.884 524.993 575.884C526.047 575.884 526.97 576.088 527.76 576.495C528.563 576.902 529.198 577.465 529.665 578.184C530.132 578.891 530.419 579.687 530.527 580.574H528.389ZM534.284 576.154V589H532.146V576.154H534.284ZM541.418 581.346C542.567 581.634 543.46 581.915 544.095 582.191C544.729 582.454 545.245 582.849 545.64 583.376C546.047 583.891 546.251 584.604 546.251 585.514C546.251 586.221 546.071 586.856 545.712 587.419C545.364 587.982 544.831 588.431 544.113 588.766C543.394 589.102 542.514 589.27 541.472 589.27C540.417 589.27 539.465 589.09 538.615 588.73C537.776 588.371 537.106 587.85 536.603 587.167C536.111 586.485 535.848 585.67 535.812 584.724H537.95C538.01 585.574 538.333 586.239 538.92 586.718C539.507 587.197 540.358 587.437 541.472 587.437C542.37 587.437 543.035 587.269 543.466 586.934C543.897 586.586 544.113 586.143 544.113 585.604C544.113 585.113 543.987 584.73 543.735 584.454C543.496 584.179 543.142 583.957 542.675 583.79C542.22 583.622 541.489 583.412 540.483 583.161C539.657 582.957 538.944 582.724 538.345 582.46C537.758 582.185 537.267 581.807 536.872 581.328C536.489 580.837 536.297 580.208 536.297 579.442C536.297 578.316 536.704 577.441 537.519 576.819C538.333 576.196 539.447 575.884 540.861 575.884C542.298 575.884 543.478 576.25 544.4 576.98C545.322 577.699 545.825 578.705 545.909 579.999H543.771C543.568 578.478 542.597 577.717 540.861 577.717C540.094 577.717 539.495 577.855 539.064 578.13C538.633 578.394 538.417 578.765 538.417 579.244C538.417 579.687 538.531 580.035 538.759 580.286C538.998 580.538 539.304 580.729 539.675 580.861C540.046 580.981 540.627 581.143 541.418 581.346Z" fill="#33C69F"/>
</g>
</g>
<g filter="url(#filter14_d)">
<path d="M530.178 859.604C531.636 858.213 533.93 858.213 535.388 859.604C536.718 860.872 538.65 861.283 540.38 860.665C542.278 859.987 544.374 860.92 545.14 862.784C545.839 864.484 547.436 865.644 549.269 865.784C551.278 865.937 552.813 867.641 552.755 869.656C552.702 871.493 553.69 873.203 555.307 874.075C557.08 875.032 557.789 877.214 556.917 879.031C556.122 880.687 556.328 882.651 557.45 884.106C558.681 885.702 558.442 887.983 556.906 889.288C555.505 890.478 554.895 892.355 555.329 894.141C555.804 896.1 554.657 898.086 552.724 898.654C550.96 899.171 549.639 900.638 549.309 902.446C548.947 904.429 547.091 905.777 545.094 905.509C543.272 905.264 541.468 906.067 540.431 907.584C539.294 909.248 537.051 909.725 535.335 908.668C533.77 907.703 531.796 907.703 530.232 908.668C528.516 909.725 526.272 909.248 525.135 907.584C524.098 906.067 522.294 905.264 520.473 905.509C518.476 905.777 516.62 904.429 516.258 902.446C515.927 900.638 514.606 899.171 512.843 898.654C510.909 898.086 509.762 896.1 510.238 894.141C510.671 892.355 510.061 890.478 508.661 889.288C507.125 887.983 506.885 885.702 508.116 884.106C509.239 882.651 509.445 880.687 508.65 879.031C507.777 877.214 508.486 875.032 510.26 874.075C511.877 873.203 512.864 871.493 512.811 869.656C512.753 867.641 514.288 865.937 516.298 865.784C518.13 865.644 519.727 864.484 520.426 862.784C521.193 860.92 523.288 859.987 525.186 860.665C526.917 861.283 528.848 860.872 530.178 859.604Z" fill="#142433" stroke="#33C69F" stroke-width="1.08889"/>
<path d="M530.747 865.102C532.039 863.869 534.072 863.869 535.364 865.102C536.279 865.974 537.607 866.257 538.798 865.831C540.48 865.231 542.337 866.058 543.016 867.71C543.497 868.879 544.595 869.677 545.856 869.773C547.636 869.908 548.997 871.419 548.945 873.204C548.909 874.468 549.588 875.644 550.7 876.244C552.272 877.092 552.9 879.026 552.127 880.636C551.58 881.775 551.722 883.126 552.494 884.127C553.585 885.541 553.373 887.562 552.012 888.719C551.048 889.537 550.629 890.829 550.927 892.057C551.348 893.793 550.332 895.553 548.618 896.056C547.405 896.412 546.497 897.421 546.269 898.665C545.948 900.422 544.304 901.616 542.534 901.379C541.281 901.21 540.04 901.763 539.327 902.806C538.319 904.281 536.331 904.704 534.81 903.766C533.734 903.103 532.376 903.103 531.3 903.766C529.78 904.704 527.791 904.281 526.784 902.806C526.07 901.763 524.83 901.21 523.577 901.379C521.807 901.616 520.162 900.422 519.841 898.665C519.614 897.421 518.706 896.412 517.493 896.056C515.779 895.553 514.762 893.793 515.184 892.057C515.482 890.829 515.062 889.537 514.099 888.719C512.738 887.562 512.526 885.541 513.616 884.127C514.389 883.126 514.531 881.775 513.983 880.636C513.21 879.026 513.839 877.092 515.41 876.244C516.523 875.644 517.202 874.468 517.165 873.204C517.114 871.419 518.474 869.908 520.255 869.773C521.515 869.677 522.614 868.879 523.095 867.71C523.774 866.058 525.631 865.231 527.313 865.831C528.504 866.257 529.832 865.974 530.747 865.102Z" fill="#33C69F" fill-opacity="0.1"/>
<circle cx="532.783" cy="884.133" r="11.7056" stroke="white" stroke-opacity="0.1" stroke-width="0.544444"/>
<circle cx="532.783" cy="884.133" r="14.4278" stroke="white" stroke-opacity="0.2" stroke-width="0.544444"/>
<path d="M517.552 888.592H515.633V881.204C515.633 881.204 515.633 879.797 517.04 879.349C518.319 878.933 519.151 879.765 519.151 879.765L525.451 886.577C525.771 886.769 525.899 886.577 525.899 886.385V879.349H527.85V886.673C527.85 887.28 527.338 888.08 526.571 888.368C525.803 888.656 525.004 888.656 524.044 887.824L518.127 881.428C517.968 881.268 517.552 881.236 517.552 881.556V888.592Z" fill="#33C69F"/>
<path d="M529.065 879.348H531.016V885.969C531.016 886.672 531.624 886.672 532.168 886.672H540.739C541.091 886.672 541.507 886.257 541.507 885.809C541.507 885.361 541.091 884.913 540.707 884.913H535.142C534.183 884.945 532.2 884.05 532.2 882.195C532.2 879.924 534.087 879.38 534.95 879.316H550.749V881.267H546.816V888.591H544.897V881.267H535.238C534.311 881.203 533.671 882.771 535.174 882.994H541.123C542.018 882.994 543.489 883.762 543.521 885.681C543.521 887.632 542.37 888.559 541.123 888.559H532.264C530.824 888.559 530.281 888.208 529.769 887.76C529.289 887.28 529.225 887.024 529.065 886.065V879.348C529.097 879.348 529.065 879.348 529.065 879.348Z" fill="#33C69F"/>
</g>
</g>
<defs>
<filter id="filter0_d" x="600.648" y="680.586" width="169.704" height="169.704" filterUnits="userSpaceOnUse" color-interpolation-filters="sRGB">
<feFlood flood-opacity="0" result="BackgroundImageFix"/>
<feColorMatrix in="SourceAlpha" type="matrix" values="0 0 0 0 0 0 0 0 0 0 0 0 0 0 0 0 0 0 127 0"/>
<feOffset dy="31.4267"/>
<feGaussianBlur stdDeviation="23.57"/>
<feColorMatrix type="matrix" values="0 0 0 0 0 0 0 0 0 0 0 0 0 0 0 0 0 0 0.25 0"/>
<feBlend mode="normal" in2="BackgroundImageFix" result="effect1_dropShadow"/>
<feBlend mode="normal" in="SourceGraphic" in2="effect1_dropShadow" result="shape"/>
</filter>
<filter id="filter1_d" x="557.039" y="590.12" width="256.924" height="295.659" filterUnits="userSpaceOnUse" color-interpolation-filters="sRGB">
<feFlood flood-opacity="0" result="BackgroundImageFix"/>
<feColorMatrix in="SourceAlpha" type="matrix" values="0 0 0 0 0 0 0 0 0 0 0 0 0 0 0 0 0 0 127 0"/>
<feOffset dy="3.26667"/>
<feGaussianBlur stdDeviation="1.63333"/>
<feColorMatrix type="matrix" values="0 0 0 0 0 0 0 0 0 0 0 0 0 0 0 0 0 0 0.25 0"/>
<feBlend mode="normal" in2="BackgroundImageFix" result="effect1_dropShadow"/>
<feBlend mode="normal" in="SourceGraphic" in2="effect1_dropShadow" result="shape"/>
</filter>
<filter id="filter2_d" x="654.467" y="567.267" width="62.0667" height="62.0667" filterUnits="userSpaceOnUse" color-interpolation-filters="sRGB">
<feFlood flood-opacity="0" result="BackgroundImageFix"/>
<feColorMatrix in="SourceAlpha" type="matrix" values="0 0 0 0 0 0 0 0 0 0 0 0 0 0 0 0 0 0 127 0"/>
<feOffset dy="3.26667"/>
<feGaussianBlur stdDeviation="1.63333"/>
<feColorMatrix type="matrix" values="0 0 0 0 0 0 0 0 0 0 0 0 0 0 0 0 0 0 0.25 0"/>
<feBlend mode="normal" in2="BackgroundImageFix" result="effect1_dropShadow"/>
<feBlend mode="normal" in="SourceGraphic" in2="effect1_dropShadow" result="shape"/>
</filter>
<filter id="filter3_d" x="635.562" y="566.046" width="99.5179" height="99.5179" filterUnits="userSpaceOnUse" color-interpolation-filters="sRGB">
<feFlood flood-opacity="0" result="BackgroundImageFix"/>
<feColorMatrix in="SourceAlpha" type="matrix" values="0 0 0 0 0 0 0 0 0 0 0 0 0 0 0 0 0 0 127 0"/>
<feOffset dy="20.9511"/>
<feGaussianBlur stdDeviation="15.7134"/>
<feColorMatrix type="matrix" values="0 0 0 0 0 0 0 0 0 0 0 0 0 0 0 0 0 0 0.25 0"/>
<feBlend mode="normal" in2="BackgroundImageFix" result="effect1_dropShadow"/>
<feBlend mode="normal" in="SourceGraphic" in2="effect1_dropShadow" result="shape"/>
</filter>
<filter id="filter4_d" x="778.6" y="636.684" width="62.0667" height="62.0667" filterUnits="userSpaceOnUse" color-interpolation-filters="sRGB">
<feFlood flood-opacity="0" result="BackgroundImageFix"/>
<feColorMatrix in="SourceAlpha" type="matrix" values="0 0 0 0 0 0 0 0 0 0 0 0 0 0 0 0 0 0 127 0"/>
<feOffset dy="3.26667"/>
<feGaussianBlur stdDeviation="1.63333"/>
<feColorMatrix type="matrix" values="0 0 0 0 0 0 0 0 0 0 0 0 0 0 0 0 0 0 0.25 0"/>
<feBlend mode="normal" in2="BackgroundImageFix" result="effect1_dropShadow"/>
<feBlend mode="normal" in="SourceGraphic" in2="effect1_dropShadow" result="shape"/>
</filter>
<filter id="filter5_d" x="530.333" y="636.684" width="62.0667" height="62.0667" filterUnits="userSpaceOnUse" color-interpolation-filters="sRGB">
<feFlood flood-opacity="0" result="BackgroundImageFix"/>
<feColorMatrix in="SourceAlpha" type="matrix" values="0 0 0 0 0 0 0 0 0 0 0 0 0 0 0 0 0 0 127 0"/>
<feOffset dy="3.26667"/>
<feGaussianBlur stdDeviation="1.63333"/>
<feColorMatrix type="matrix" values="0 0 0 0 0 0 0 0 0 0 0 0 0 0 0 0 0 0 0.25 0"/>
<feBlend mode="normal" in2="BackgroundImageFix" result="effect1_dropShadow"/>
<feBlend mode="normal" in="SourceGraphic" in2="effect1_dropShadow" result="shape"/>
</filter>
<filter id="filter6_d" x="778.6" y="776.333" width="62.0667" height="62.0667" filterUnits="userSpaceOnUse" color-interpolation-filters="sRGB">
<feFlood flood-opacity="0" result="BackgroundImageFix"/>
<feColorMatrix in="SourceAlpha" type="matrix" values="0 0 0 0 0 0 0 0 0 0 0 0 0 0 0 0 0 0 127 0"/>
<feOffset dy="3.26667"/>
<feGaussianBlur stdDeviation="1.63333"/>
<feColorMatrix type="matrix" values="0 0 0 0 0 0 0 0 0 0 0 0 0 0 0 0 0 0 0.25 0"/>
<feBlend mode="normal" in2="BackgroundImageFix" result="effect1_dropShadow"/>
<feBlend mode="normal" in="SourceGraphic" in2="effect1_dropShadow" result="shape"/>
</filter>
<filter id="filter7_d" x="530.333" y="776.333" width="62.0667" height="62.0667" filterUnits="userSpaceOnUse" color-interpolation-filters="sRGB">
<feFlood flood-opacity="0" result="BackgroundImageFix"/>
<feColorMatrix in="SourceAlpha" type="matrix" values="0 0 0 0 0 0 0 0 0 0 0 0 0 0 0 0 0 0 127 0"/>
<feOffset dy="3.26667"/>
<feGaussianBlur stdDeviation="1.63333"/>
<feColorMatrix type="matrix" values="0 0 0 0 0 0 0 0 0 0 0 0 0 0 0 0 0 0 0.25 0"/>
<feBlend mode="normal" in2="BackgroundImageFix" result="effect1_dropShadow"/>
<feBlend mode="normal" in="SourceGraphic" in2="effect1_dropShadow" result="shape"/>
</filter>
<filter id="filter8_d" x="654.467" y="846.566" width="62.0667" height="62.0667" filterUnits="userSpaceOnUse" color-interpolation-filters="sRGB">
<feFlood flood-opacity="0" result="BackgroundImageFix"/>
<feColorMatrix in="SourceAlpha" type="matrix" values="0 0 0 0 0 0 0 0 0 0 0 0 0 0 0 0 0 0 127 0"/>
<feOffset dy="3.26667"/>
<feGaussianBlur stdDeviation="1.63333"/>
<feColorMatrix type="matrix" values="0 0 0 0 0 0 0 0 0 0 0 0 0 0 0 0 0 0 0.25 0"/>
<feBlend mode="normal" in2="BackgroundImageFix" result="effect1_dropShadow"/>
<feBlend mode="normal" in="SourceGraphic" in2="effect1_dropShadow" result="shape"/>
</filter>
<filter id="filter9_d" x="807.184" y="555.017" width="62.0667" height="62.0667" filterUnits="userSpaceOnUse" color-interpolation-filters="sRGB">
<feFlood flood-opacity="0" result="BackgroundImageFix"/>
<feColorMatrix in="SourceAlpha" type="matrix" values="0 0 0 0 0 0 0 0 0 0 0 0 0 0 0 0 0 0 127 0"/>
<feOffset dy="3.26667"/>
<feGaussianBlur stdDeviation="1.63333"/>
<feColorMatrix type="matrix" values="0 0 0 0 0 0 0 0 0 0 0 0 0 0 0 0 0 0 0.25 0"/>
<feBlend mode="normal" in2="BackgroundImageFix" result="effect1_dropShadow"/>
<feBlend mode="normal" in="SourceGraphic" in2="effect1_dropShadow" result="shape"/>
</filter>
<filter id="filter10_d" x="806.367" y="856.366" width="62.0667" height="62.0667" filterUnits="userSpaceOnUse" color-interpolation-filters="sRGB">
<feFlood flood-opacity="0" result="BackgroundImageFix"/>
<feColorMatrix in="SourceAlpha" type="matrix" values="0 0 0 0 0 0 0 0 0 0 0 0 0 0 0 0 0 0 127 0"/>
<feOffset dy="3.26667"/>
<feGaussianBlur stdDeviation="1.63333"/>
<feColorMatrix type="matrix" values="0 0 0 0 0 0 0 0 0 0 0 0 0 0 0 0 0 0 0.25 0"/>
<feBlend mode="normal" in2="BackgroundImageFix" result="effect1_dropShadow"/>
<feBlend mode="normal" in="SourceGraphic" in2="effect1_dropShadow" result="shape"/>
</filter>
<filter id="filter11_d" x="787.463" y="855.147" width="99.5179" height="99.5179" filterUnits="userSpaceOnUse" color-interpolation-filters="sRGB">
<feFlood flood-opacity="0" result="BackgroundImageFix"/>
<feColorMatrix in="SourceAlpha" type="matrix" values="0 0 0 0 0 0 0 0 0 0 0 0 0 0 0 0 0 0 127 0"/>
<feOffset dy="20.9511"/>
<feGaussianBlur stdDeviation="15.7134"/>
<feColorMatrix type="matrix" values="0 0 0 0 0 0 0 0 0 0 0 0 0 0 0 0 0 0 0.25 0"/>
<feBlend mode="normal" in2="BackgroundImageFix" result="effect1_dropShadow"/>
<feBlend mode="normal" in="SourceGraphic" in2="effect1_dropShadow" result="shape"/>
</filter>
<filter id="filter12_d" x="501.75" y="555.017" width="62.0667" height="62.0667" filterUnits="userSpaceOnUse" color-interpolation-filters="sRGB">
<feFlood flood-opacity="0" result="BackgroundImageFix"/>
<feColorMatrix in="SourceAlpha" type="matrix" values="0 0 0 0 0 0 0 0 0 0 0 0 0 0 0 0 0 0 127 0"/>
<feOffset dy="3.26667"/>
<feGaussianBlur stdDeviation="1.63333"/>
<feColorMatrix type="matrix" values="0 0 0 0 0 0 0 0 0 0 0 0 0 0 0 0 0 0 0.25 0"/>
<feBlend mode="normal" in2="BackgroundImageFix" result="effect1_dropShadow"/>
<feBlend mode="normal" in="SourceGraphic" in2="effect1_dropShadow" result="shape"/>
</filter>
<filter id="filter13_d" x="482.846" y="553.797" width="99.5179" height="99.5179" filterUnits="userSpaceOnUse" color-interpolation-filters="sRGB">
<feFlood flood-opacity="0" result="BackgroundImageFix"/>
<feColorMatrix in="SourceAlpha" type="matrix" values="0 0 0 0 0 0 0 0 0 0 0 0 0 0 0 0 0 0 127 0"/>
<feOffset dy="20.9511"/>
<feGaussianBlur stdDeviation="15.7134"/>
<feColorMatrix type="matrix" values="0 0 0 0 0 0 0 0 0 0 0 0 0 0 0 0 0 0 0.25 0"/>
<feBlend mode="normal" in2="BackgroundImageFix" result="effect1_dropShadow"/>
<feBlend mode="normal" in="SourceGraphic" in2="effect1_dropShadow" result="shape"/>
</filter>
<filter id="filter14_d" x="501.75" y="856.366" width="62.0667" height="62.0667" filterUnits="userSpaceOnUse" color-interpolation-filters="sRGB">
<feFlood flood-opacity="0" result="BackgroundImageFix"/>
<feColorMatrix in="SourceAlpha" type="matrix" values="0 0 0 0 0 0 0 0 0 0 0 0 0 0 0 0 0 0 127 0"/>
<feOffset dy="3.26667"/>
<feGaussianBlur stdDeviation="1.63333"/>
<feColorMatrix type="matrix" values="0 0 0 0 0 0 0 0 0 0 0 0 0 0 0 0 0 0 0.25 0"/>
<feBlend mode="normal" in2="BackgroundImageFix" result="effect1_dropShadow"/>
<feBlend mode="normal" in="SourceGraphic" in2="effect1_dropShadow" result="shape"/>
</filter>
<radialGradient id="paint0_radial" cx="0" cy="0" r="1" gradientUnits="userSpaceOnUse" gradientTransform="translate(676.285 -2.94242) rotate(89.7013) scale(922.611 1464.37)">
<stop stop-color="#33C69F" stop-opacity="0.56"/>
<stop offset="1" stop-color="#33C69F" stop-opacity="0"/>
</radialGradient>
<radialGradient id="paint1_radial" cx="0" cy="0" r="1" gradientUnits="userSpaceOnUse" gradientTransform="translate(684.605 -41.0299) rotate(90) scale(775.635 1231.09)">
<stop stop-color="#33C69F" stop-opacity="0.56"/>
<stop offset="1" stop-color="#33C69F" stop-opacity="0"/>
</radialGradient>
<radialGradient id="paint2_radial" cx="0" cy="0" r="1" gradientUnits="userSpaceOnUse" gradientTransform="translate(685 -269.381) rotate(90) scale(1004.38 1594.16)">
<stop stop-color="#33C69F" stop-opacity="0.56"/>
<stop offset="1" stop-color="#33C69F" stop-opacity="0"/>
</radialGradient>
<clipPath id="clip0">
<rect width="1470" height="1470" fill="white"/>
</clipPath>
<clipPath id="clip1">
<rect width="55.5333" height="55.5333" fill="white" transform="translate(657.733 567.267)"/>
</clipPath>
<clipPath id="clip2">
<rect width="36.75" height="22.1074" fill="white" transform="translate(821.066 572.167)"/>
</clipPath>
<clipPath id="clip3">
<rect width="55.5333" height="55.5333" fill="white" transform="translate(809.634 856.366)"/>
</clipPath>
<clipPath id="clip4">
<rect width="55.5333" height="55.5333" fill="white" transform="translate(505.017 555.017)"/>
</clipPath>
</defs>
</svg>
