<svg width="640" height="508" viewBox="0 0 640 508" fill="none" xmlns="http://www.w3.org/2000/svg">
<g clip-path="url(#clip0)">
<rect y="0.959473" width="640" height="507" rx="8" fill="#0A1B2B"/>
<rect y="0.959473" width="640" height="507" rx="8" fill="url(#paint0_linear)" fill-opacity="0.04"/>
<path d="M86.35 65.6135H88.016C87.778 63.5695 86.238 61.9595 83.704 61.9595C80.82 61.9595 79 64.1575 79 67.1675C79 70.1915 80.82 72.3895 83.704 72.3895C86.252 72.3895 87.792 70.7795 88.016 68.5255H86.35C86.238 69.7435 85.524 70.9615 83.662 70.9615C81.506 70.9615 80.652 69.1555 80.652 67.1675C80.652 65.1935 81.506 63.3875 83.662 63.3875C85.51 63.3875 86.168 64.6055 86.35 65.6135Z" fill="white" fill-opacity="0.5"/>
<path d="M92.6361 72.3895C90.3961 72.3895 89.0381 70.8355 89.0381 68.6095C89.0381 66.3835 90.3961 64.8295 92.6361 64.8295C94.8761 64.8295 96.2341 66.3835 96.2341 68.6095C96.2341 70.8355 94.8761 72.3895 92.6361 72.3895ZM92.6361 71.1855C94.0361 71.1855 94.7641 70.0795 94.7641 68.6095C94.7641 67.1255 94.0361 66.0335 92.6361 66.0335C91.2361 66.0335 90.5081 67.1255 90.5081 68.6095C90.5081 70.0795 91.2361 71.1855 92.6361 71.1855Z" fill="white" fill-opacity="0.5"/>
<path d="M101.38 64.8295C100.148 64.8295 99.4061 65.3895 99.0281 65.9495H99.0001V65.0255H97.5301V72.1795H99.0001V67.8255C99.0001 66.7615 99.7281 66.0755 100.862 66.0755C101.87 66.0755 102.276 66.6915 102.276 67.6575V72.1795H103.76V67.2375C103.76 65.5995 102.71 64.8295 101.38 64.8295Z" fill="white" fill-opacity="0.5"/>
<path d="M108.664 66.2295V65.0255H107.32V62.7715H105.836V65.0255H104.8V66.2295H105.836V70.2335C105.836 71.7455 106.48 72.2775 107.656 72.2775C108.048 72.2775 108.37 72.2355 108.664 72.1655V70.9615C107.712 71.0175 107.32 70.9195 107.32 70.1075V66.2295H108.664Z" fill="white" fill-opacity="0.5"/>
<path d="M114.379 66.9015C114.379 67.5875 113.707 67.7275 112.601 67.9375C110.809 68.2875 109.647 68.7775 109.647 70.3455C109.647 71.5495 110.543 72.3895 111.999 72.3895C113.105 72.3895 113.917 71.9555 114.365 71.3255H114.393C114.533 72.0255 114.897 72.3055 115.681 72.3055C115.961 72.3055 116.199 72.2775 116.535 72.1515V71.4515C115.961 71.5075 115.849 71.2415 115.849 70.7375V67.3355C115.849 65.4315 114.673 64.8295 113.091 64.8295C110.935 64.8295 110.053 65.9075 109.983 67.2795H111.411C111.481 66.3555 111.915 65.9915 113.091 65.9915C114.071 65.9915 114.379 66.3835 114.379 66.9015ZM112.321 71.2275C111.523 71.2275 111.131 70.8635 111.131 70.2055C111.131 69.4775 111.663 69.1275 112.881 68.8615C113.567 68.7215 114.141 68.5535 114.379 68.3855V69.4635C114.379 70.6255 113.539 71.2275 112.321 71.2275Z" fill="white" fill-opacity="0.5"/>
<path d="M118.501 63.8215C118.935 63.8215 119.341 63.5415 119.341 63.0375C119.341 62.5335 118.935 62.2675 118.501 62.2675C118.095 62.2675 117.675 62.5335 117.675 63.0375C117.675 63.5415 118.095 63.8215 118.501 63.8215ZM117.773 65.0255V72.1795H119.243V65.0255H117.773Z" fill="white" fill-opacity="0.5"/>
<path d="M124.867 64.8295C123.635 64.8295 122.893 65.3895 122.515 65.9495H122.487V65.0255H121.017V72.1795H122.487V67.8255C122.487 66.7615 123.215 66.0755 124.349 66.0755C125.357 66.0755 125.763 66.6915 125.763 67.6575V72.1795H127.247V67.2375C127.247 65.5995 126.197 64.8295 124.867 64.8295Z" fill="white" fill-opacity="0.5"/>
<path d="M132.035 71.1855C130.733 71.1855 129.964 70.1915 129.964 68.9875H135.451C135.451 66.4395 134.317 64.8295 132.007 64.8295C129.851 64.8295 128.493 66.2855 128.493 68.6095C128.493 70.8495 129.851 72.3895 132.077 72.3895C133.911 72.3895 134.976 71.3535 135.34 69.9955H133.869C133.743 70.4295 133.253 71.1855 132.035 71.1855ZM132.007 65.9915C133.197 65.9915 133.981 66.7895 133.981 67.8955H129.964C129.964 66.7895 130.817 65.9915 132.007 65.9915Z" fill="white" fill-opacity="0.5"/>
<path d="M140.141 64.8575C139.203 64.8575 138.615 65.4735 138.237 66.3695H138.209V65.0255H136.739V72.1795H138.209V68.5255C138.209 66.9995 139.343 66.0475 140.757 66.2855H140.785V64.8995C140.575 64.8715 140.393 64.8575 140.141 64.8575Z" fill="white" fill-opacity="0.5"/>
<path d="M145.11 72.1795H146.734V64.5915H146.762L149.408 72.1795H150.738L153.384 64.5915H153.412V72.1795H155.036V62.1695H152.88L150.094 69.8695H150.066L147.266 62.1695H145.11V72.1795Z" fill="white" fill-opacity="0.5"/>
<path d="M160.171 71.1855C158.869 71.1855 158.099 70.1915 158.099 68.9875H163.587C163.587 66.4395 162.453 64.8295 160.143 64.8295C157.987 64.8295 156.629 66.2855 156.629 68.6095C156.629 70.8495 157.987 72.3895 160.213 72.3895C162.047 72.3895 163.111 71.3535 163.475 69.9955H162.005C161.879 70.4295 161.389 71.1855 160.171 71.1855ZM160.143 65.9915C161.333 65.9915 162.117 66.7895 162.117 67.8955H158.099C158.099 66.7895 158.953 65.9915 160.143 65.9915Z" fill="white" fill-opacity="0.5"/>
<path d="M168.154 66.2295V65.0255H166.81V62.7715H165.326V65.0255H164.29V66.2295H165.326V70.2335C165.326 71.7455 165.97 72.2775 167.146 72.2775C167.538 72.2775 167.86 72.2355 168.154 72.1655V70.9615C167.202 71.0175 166.81 70.9195 166.81 70.1075V66.2295H168.154Z" fill="white" fill-opacity="0.5"/>
<path d="M172.905 64.8575C171.967 64.8575 171.379 65.4735 171.001 66.3695H170.973V65.0255H169.503V72.1795H170.973V68.5255C170.973 66.9995 172.107 66.0475 173.521 66.2855H173.549V64.8995C173.339 64.8715 173.157 64.8575 172.905 64.8575Z" fill="white" fill-opacity="0.5"/>
<path d="M175.599 63.8215C176.033 63.8215 176.439 63.5415 176.439 63.0375C176.439 62.5335 176.033 62.2675 175.599 62.2675C175.193 62.2675 174.773 62.5335 174.773 63.0375C174.773 63.5415 175.193 63.8215 175.599 63.8215ZM174.871 65.0255V72.1795H176.341V65.0255H174.871Z" fill="white" fill-opacity="0.5"/>
<path d="M183.043 67.6435H184.513C184.331 66.0195 183.113 64.8295 181.251 64.8295C179.123 64.8295 177.737 66.3695 177.737 68.6095C177.737 70.8495 179.123 72.3895 181.265 72.3895C183.127 72.3895 184.401 71.1715 184.513 69.5195H183.043C182.987 70.3175 182.525 71.1855 181.265 71.1855C179.809 71.1855 179.207 69.9535 179.207 68.6095C179.207 67.2655 179.823 66.0335 181.265 66.0335C182.525 66.0335 182.987 66.9155 183.043 67.6435Z" fill="white" fill-opacity="0.5"/>
<path d="M188.968 67.8535C187.932 67.6155 187.134 67.5595 187.134 66.8315C187.134 66.3275 187.61 65.9915 188.492 65.9915C189.64 65.9915 189.92 66.5655 190.018 67.1255H191.446C191.348 65.8795 190.424 64.8295 188.478 64.8295C186.686 64.8295 185.65 65.7675 185.65 66.9435C185.65 68.5675 187.19 68.7915 188.324 69.0575C189.374 69.3095 190.228 69.3795 190.228 70.2755C190.228 70.7235 189.794 71.2275 188.772 71.2275C187.26 71.2275 186.924 70.5695 186.854 69.7995H185.426C185.496 71.3115 186.49 72.3895 188.8 72.3895C190.536 72.3895 191.712 71.5355 191.712 70.1635C191.712 68.4555 190.284 68.1615 188.968 67.8535Z" fill="white" fill-opacity="0.5"/>
<path d="M84.733 88.3794C82.927 88.3794 81.814 89.2194 81.247 90.0594H81.205V84.3894H79V99.4044H81.205V92.8734C81.205 91.2774 82.36 90.2484 83.977 90.2484C85.51 90.2484 86.119 91.1724 86.119 92.6214V99.4044H88.345V91.9914C88.345 89.5344 86.77 88.3794 84.733 88.3794Z" fill="white"/>
<path d="M95.1073 97.9134C93.1543 97.9134 91.9993 96.4224 91.9993 94.6164H100.231C100.231 90.7944 98.5303 88.3794 95.0653 88.3794C91.8313 88.3794 89.7943 90.5634 89.7943 94.0494C89.7943 97.4094 91.8313 99.7194 95.1703 99.7194C97.9213 99.7194 99.5173 98.1654 100.063 96.1284H97.8583C97.6693 96.7794 96.9343 97.9134 95.1073 97.9134ZM95.0653 90.1224C96.8503 90.1224 98.0263 91.3194 98.0263 92.9784H91.9993C91.9993 91.3194 93.2803 90.1224 95.0653 90.1224Z" fill="white"/>
<path d="M108.232 91.4874C108.232 92.5164 107.224 92.7264 105.565 93.0414C102.877 93.5664 101.134 94.3014 101.134 96.6534C101.134 98.4594 102.478 99.7194 104.662 99.7194C106.321 99.7194 107.539 99.0684 108.211 98.1234H108.253C108.463 99.1734 109.009 99.5934 110.185 99.5934C110.605 99.5934 110.962 99.5514 111.466 99.3624V98.3124C110.605 98.3964 110.437 97.9974 110.437 97.2414V92.1384C110.437 89.2824 108.673 88.3794 106.3 88.3794C103.066 88.3794 101.743 89.9964 101.638 92.0544H103.78C103.885 90.6684 104.536 90.1224 106.3 90.1224C107.77 90.1224 108.232 90.7104 108.232 91.4874ZM105.145 97.9764C103.948 97.9764 103.36 97.4304 103.36 96.4434C103.36 95.3514 104.158 94.8264 105.985 94.4274C107.014 94.2174 107.875 93.9654 108.232 93.7134V95.3304C108.232 97.0734 106.972 97.9764 105.145 97.9764Z" fill="white"/>
<path d="M112.798 84.3894V99.4044H115.024V84.3894H112.798Z" fill="white"/>
<path d="M122.289 90.4794V88.6734H120.273V85.2924H118.047V88.6734H116.493V90.4794H118.047V96.4854C118.047 98.7534 119.013 99.5514 120.777 99.5514C121.365 99.5514 121.848 99.4884 122.289 99.3834V97.5774C120.861 97.6614 120.273 97.5144 120.273 96.2964V90.4794H122.289Z" fill="white"/>
<path d="M129.625 88.3794C127.819 88.3794 126.706 89.2194 126.139 90.0594H126.097V84.3894H123.892V99.4044H126.097V92.8734C126.097 91.2774 127.252 90.2484 128.869 90.2484C130.402 90.2484 131.011 91.1724 131.011 92.6214V99.4044H133.237V91.9914C133.237 89.5344 131.662 88.3794 129.625 88.3794Z" fill="white"/>
<path d="M142.645 92.6004H144.85C144.577 90.1644 142.75 88.3794 139.957 88.3794C136.765 88.3794 134.686 90.6894 134.686 94.0494C134.686 97.4094 136.765 99.7194 139.978 99.7194C142.771 99.7194 144.682 97.8924 144.85 95.4144H142.645C142.561 96.6114 141.868 97.9134 139.978 97.9134C137.794 97.9134 136.891 96.0654 136.891 94.0494C136.891 92.0334 137.815 90.1854 139.978 90.1854C141.868 90.1854 142.561 91.5084 142.645 92.6004Z" fill="white"/>
<path d="M151.137 99.7194C147.777 99.7194 145.74 97.3884 145.74 94.0494C145.74 90.7104 147.777 88.3794 151.137 88.3794C154.497 88.3794 156.534 90.7104 156.534 94.0494C156.534 97.3884 154.497 99.7194 151.137 99.7194ZM151.137 97.9134C153.237 97.9134 154.329 96.2544 154.329 94.0494C154.329 91.8234 153.237 90.1854 151.137 90.1854C149.037 90.1854 147.945 91.8234 147.945 94.0494C147.945 96.2544 149.037 97.9134 151.137 97.9134Z" fill="white"/>
<path d="M157.764 93.0414V95.0994H163.413V93.0414H157.764Z" fill="white"/>
<path d="M171.704 91.4874C171.704 92.5164 170.696 92.7264 169.037 93.0414C166.349 93.5664 164.606 94.3014 164.606 96.6534C164.606 98.4594 165.95 99.7194 168.134 99.7194C169.793 99.7194 171.011 99.0684 171.683 98.1234H171.725C171.935 99.1734 172.481 99.5934 173.657 99.5934C174.077 99.5934 174.434 99.5514 174.938 99.3624V98.3124C174.077 98.3964 173.909 97.9974 173.909 97.2414V92.1384C173.909 89.2824 172.145 88.3794 169.772 88.3794C166.538 88.3794 165.215 89.9964 165.11 92.0544H167.252C167.357 90.6684 168.008 90.1224 169.772 90.1224C171.242 90.1224 171.704 90.7104 171.704 91.4874ZM168.617 97.9764C167.42 97.9764 166.832 97.4304 166.832 96.4434C166.832 95.3514 167.63 94.8264 169.457 94.4274C170.486 94.2174 171.347 93.9654 171.704 93.7134V95.3304C171.704 97.0734 170.444 97.9764 168.617 97.9764Z" fill="white"/>
<path d="M181.793 88.3794C180.113 88.3794 179.063 89.1774 178.496 89.9334H178.454V88.6734H176.228V103.058H178.454V98.1234H178.496C179.063 98.9214 180.113 99.7194 181.793 99.7194C184.523 99.7194 186.56 97.5774 186.56 94.0494C186.56 90.5214 184.523 88.3794 181.793 88.3794ZM181.373 97.9134C179.588 97.9134 178.475 96.4224 178.475 94.0494C178.475 91.6554 179.588 90.1854 181.373 90.1854C183.305 90.1854 184.334 91.9494 184.334 94.0494C184.334 96.1494 183.305 97.9134 181.373 97.9134Z" fill="white"/>
<path d="M189.402 86.8674C190.053 86.8674 190.662 86.4474 190.662 85.6914C190.662 84.9354 190.053 84.5364 189.402 84.5364C188.793 84.5364 188.163 84.9354 188.163 85.6914C188.163 86.4474 188.793 86.8674 189.402 86.8674ZM188.31 88.6734V99.4044H190.515V88.6734H188.31Z" fill="white"/>
<path d="M192.463 93.0414V95.0994H198.112V93.0414H192.463Z" fill="white"/>
<path d="M205.689 88.3794C203.841 88.3794 202.728 89.2194 202.161 90.0594H202.119V88.6734H199.914V99.4044H202.119V92.8734C202.119 91.2774 203.211 90.2484 204.912 90.2484C206.424 90.2484 207.033 91.1724 207.033 92.6214V99.4044H209.259V91.9914C209.259 89.5344 207.684 88.3794 205.689 88.3794Z" fill="white"/>
<path d="M216.105 99.7194C212.745 99.7194 210.708 97.3884 210.708 94.0494C210.708 90.7104 212.745 88.3794 216.105 88.3794C219.465 88.3794 221.502 90.7104 221.502 94.0494C221.502 97.3884 219.465 99.7194 216.105 99.7194ZM216.105 97.9134C218.205 97.9134 219.297 96.2544 219.297 94.0494C219.297 91.8234 218.205 90.1854 216.105 90.1854C214.005 90.1854 212.913 91.8234 212.913 94.0494C212.913 96.2544 214.005 97.9134 216.105 97.9134Z" fill="white"/>
<path d="M230.565 84.3894V89.9754H230.523C229.956 89.1564 228.906 88.3794 227.247 88.3794C224.496 88.3794 222.459 90.5214 222.459 94.0494C222.459 97.5774 224.496 99.7194 227.247 99.7194C228.906 99.7194 229.956 98.9004 230.523 98.1654H230.565V99.4044H232.77V84.3894H230.565ZM227.625 97.9134C225.693 97.9134 224.664 96.1494 224.664 94.0494C224.664 91.9494 225.693 90.1854 227.625 90.1854C229.431 90.1854 230.544 91.6554 230.544 94.0494C230.544 96.4224 229.431 97.9134 227.625 97.9134Z" fill="white"/>
<path d="M239.626 97.9134C237.673 97.9134 236.518 96.4224 236.518 94.6164H244.75C244.75 90.7944 243.049 88.3794 239.584 88.3794C236.35 88.3794 234.313 90.5634 234.313 94.0494C234.313 97.4094 236.35 99.7194 239.689 99.7194C242.44 99.7194 244.036 98.1654 244.582 96.1284H242.377C242.188 96.7794 241.453 97.9134 239.626 97.9134ZM239.584 90.1224C241.369 90.1224 242.545 91.3194 242.545 92.9784H236.518C236.518 91.3194 237.799 90.1224 239.584 90.1224Z" fill="white"/>
<path d="M247.396 86.8674C248.026 86.8674 248.656 86.4474 248.656 85.6914C248.656 84.9354 248.026 84.5364 247.396 84.5364C246.787 84.5364 246.157 84.9354 246.157 85.6914C246.157 86.4474 246.787 86.8674 247.396 86.8674ZM246.304 88.6734V99.9294C246.304 101.147 245.926 101.231 244.498 101.147V102.827C245.107 102.974 245.569 103.058 246.22 103.058C247.984 103.058 248.509 101.882 248.509 99.9084V88.6734H246.304Z" fill="white"/>
<path d="M255.394 92.9154C253.84 92.5584 252.643 92.4744 252.643 91.3824C252.643 90.6264 253.357 90.1224 254.68 90.1224C256.402 90.1224 256.822 90.9834 256.969 91.8234H259.111C258.964 89.9544 257.578 88.3794 254.659 88.3794C251.971 88.3794 250.417 89.7864 250.417 91.5504C250.417 93.9864 252.727 94.3224 254.428 94.7214C256.003 95.0994 257.284 95.2044 257.284 96.5484C257.284 97.2204 256.633 97.9764 255.1 97.9764C252.832 97.9764 252.328 96.9894 252.223 95.8344H250.081C250.186 98.1024 251.677 99.7194 255.142 99.7194C257.746 99.7194 259.51 98.4384 259.51 96.3804C259.51 93.8184 257.368 93.3774 255.394 92.9154Z" fill="white"/>
<path d="M534.137 74.4746L529 88.2296H531.363L532.496 84.9776H538.199L539.331 88.2296H541.695L536.58 74.4746H534.137ZM533.141 83.0742L535.348 76.5719H535.386L537.575 83.0742H533.141ZM547.991 78.1289C546.43 78.1289 545.453 78.8606 544.925 79.5526H544.887V78.3986H542.816V91.4685H544.887V87.0564H544.925C545.454 87.7882 546.43 88.5177 547.991 88.5177C550.53 88.5177 552.425 86.5569 552.425 83.3233C552.426 80.092 550.53 78.1289 547.991 78.1289ZM547.6 86.8633C545.94 86.8633 544.906 85.4971 544.906 83.3233C544.906 81.1303 545.94 79.7847 547.6 79.7847C549.397 79.7847 550.355 81.4 550.355 83.3233C550.355 85.2466 549.397 86.8633 547.6 86.8633ZM556.512 78.3986H558.389V80.0522H556.512V85.3814C556.512 86.4986 557.059 86.6327 558.389 86.5561V88.2104C557.979 88.3062 557.527 88.3637 556.98 88.3637C555.341 88.3637 554.441 87.6319 554.441 85.5554V80.0529H552.997V78.3986H554.441V75.3014H556.512V78.3986ZM560.198 78.3986H562.249V88.2296H560.198V78.3986ZM562.386 75.6133C562.386 76.2454 561.866 76.7581 561.224 76.7581C560.582 76.7581 560.062 76.2454 560.062 75.6133C560.062 74.9811 560.582 74.4685 561.223 74.4685C561.866 74.4685 562.386 74.9811 562.386 75.6133ZM569.447 78.1243C567.904 78.1243 566.928 78.8369 566.4 79.587H566.362V74.47H564.31V88.225H566.362V87.0886H566.4C566.928 87.7622 567.904 88.5123 569.447 88.5123C572.004 88.5123 573.9 86.5515 573.9 83.3179C573.9 80.0866 572.004 78.1243 569.447 78.1243ZM569.085 86.8534C567.405 86.8534 566.371 85.4872 566.371 83.3133C566.371 81.1203 567.405 79.7748 569.085 79.7748C570.882 79.7748 571.839 81.39 571.839 83.3133C571.839 85.2366 570.882 86.8534 569.085 86.8534ZM575.561 74.47H577.632V88.225H575.561V74.47ZM584.235 86.8588C582.419 86.8588 581.344 85.4925 581.344 83.839H589C589 80.338 587.419 78.125 584.197 78.125C581.188 78.125 579.292 80.1273 579.292 83.3194C579.292 86.3975 581.188 88.5139 584.292 88.5139C586.852 88.5139 588.338 87.0902 588.844 85.2243H586.792C586.618 85.8197 585.933 86.8588 584.235 86.8588ZM584.195 79.7219C585.856 79.7219 586.95 80.8184 586.95 82.3379H581.343C581.343 80.8184 582.535 79.7219 584.195 79.7219Z" fill="white"/>
<path fill-rule="evenodd" clip-rule="evenodd" d="M525 82.7038V79.4097L520.2 74.4685H517L525 82.7038ZM520.2 88.4685H517.8V80.9203V77.6262L520.2 80.0968L525 85.038V88.3321L520.2 83.3909V88.4685ZM513.8 88.4685H516.2V77.6262L516.2 77.6265V77.6262L509 85.038V88.3321L513.8 83.3907V88.4685ZM509 79.4097V82.7038L517 74.4685H513.77L509 79.4097Z" fill="#FFB607"/>
<path d="M590.002 78.4685C590.56 78.4685 591 78.0429 591 77.4685C591 76.8941 590.56 76.4685 590.002 76.4685C589.44 76.4685 589 76.8941 589 77.4685C589 78.0429 589.44 78.4685 590.002 78.4685ZM590.002 78.2908C589.537 78.2908 589.193 77.952 589.193 77.4685C589.193 76.9892 589.537 76.6462 590.002 76.6462C590.463 76.6462 590.807 76.9892 590.807 77.4685C590.807 77.952 590.463 78.2908 590.002 78.2908ZM589.608 77.9933H589.818V77.5801H589.998C590.287 77.5801 590.182 77.9478 590.229 77.9933H590.451V77.9809C590.392 77.9644 590.484 77.547 590.237 77.5016V77.4974C590.358 77.4685 590.438 77.3817 590.438 77.233C590.438 77.0388 590.291 76.9272 590.069 76.9272H589.608V77.9933ZM589.818 77.109H590.002C590.115 77.109 590.224 77.1131 590.224 77.2536C590.224 77.3941 590.115 77.4024 590.002 77.4024H589.818V77.109Z" fill="white"/>
<g clip-path="url(#clip1)">
<rect x="79" y="119.059" width="512" height="61" rx="5" fill="black" fill-opacity="0.1"/>
<rect x="332.156" y="120.059" width="1" height="78" fill="white" fill-opacity="0.15"/>
<path d="M102.444 137.962H103.991C103.77 136.064 102.34 134.569 99.9871 134.569C97.3091 134.569 95.6191 136.61 95.6191 139.405C95.6191 142.213 97.3091 144.254 99.9871 144.254C102.353 144.254 103.783 142.759 103.991 140.666H102.444C102.34 141.797 101.677 142.928 99.9481 142.928C97.9461 142.928 97.1531 141.251 97.1531 139.405C97.1531 137.572 97.9461 135.895 99.9481 135.895C101.664 135.895 102.275 137.026 102.444 137.962Z" fill="white"/>
<path d="M108.281 144.254C106.201 144.254 104.94 142.811 104.94 140.744C104.94 138.677 106.201 137.234 108.281 137.234C110.361 137.234 111.622 138.677 111.622 140.744C111.622 142.811 110.361 144.254 108.281 144.254ZM108.281 143.136C109.581 143.136 110.257 142.109 110.257 140.744C110.257 139.366 109.581 138.352 108.281 138.352C106.981 138.352 106.305 139.366 106.305 140.744C106.305 142.109 106.981 143.136 108.281 143.136Z" fill="white"/>
<path d="M116.401 137.234C115.257 137.234 114.568 137.754 114.217 138.274H114.191V137.416H112.826V144.059H114.191V140.016C114.191 139.028 114.867 138.391 115.92 138.391C116.856 138.391 117.233 138.963 117.233 139.86V144.059H118.611V139.47C118.611 137.949 117.636 137.234 116.401 137.234Z" fill="white"/>
<path d="M123.164 138.534V137.416H121.916V135.323H120.538V137.416H119.576V138.534H120.538V142.252C120.538 143.656 121.136 144.15 122.228 144.15C122.592 144.15 122.891 144.111 123.164 144.046V142.928C122.28 142.98 121.916 142.889 121.916 142.135V138.534H123.164Z" fill="white"/>
<path d="M128.471 139.158C128.471 139.795 127.847 139.925 126.82 140.12C125.156 140.445 124.077 140.9 124.077 142.356C124.077 143.474 124.909 144.254 126.261 144.254C127.288 144.254 128.042 143.851 128.458 143.266H128.484C128.614 143.916 128.952 144.176 129.68 144.176C129.94 144.176 130.161 144.15 130.473 144.033V143.383C129.94 143.435 129.836 143.188 129.836 142.72V139.561C129.836 137.793 128.744 137.234 127.275 137.234C125.273 137.234 124.454 138.235 124.389 139.509H125.715C125.78 138.651 126.183 138.313 127.275 138.313C128.185 138.313 128.471 138.677 128.471 139.158ZM126.56 143.175C125.819 143.175 125.455 142.837 125.455 142.226C125.455 141.55 125.949 141.225 127.08 140.978C127.717 140.848 128.25 140.692 128.471 140.536V141.537C128.471 142.616 127.691 143.175 126.56 143.175Z" fill="white"/>
<path d="M132.298 136.298C132.701 136.298 133.078 136.038 133.078 135.57C133.078 135.102 132.701 134.855 132.298 134.855C131.921 134.855 131.531 135.102 131.531 135.57C131.531 136.038 131.921 136.298 132.298 136.298ZM131.622 137.416V144.059H132.987V137.416H131.622Z" fill="white"/>
<path d="M138.21 137.234C137.066 137.234 136.377 137.754 136.026 138.274H136V137.416H134.635V144.059H136V140.016C136 139.028 136.676 138.391 137.729 138.391C138.665 138.391 139.042 138.963 139.042 139.86V144.059H140.42V139.47C140.42 137.949 139.445 137.234 138.21 137.234Z" fill="white"/>
<path d="M144.866 143.136C143.657 143.136 142.942 142.213 142.942 141.095H148.038C148.038 138.729 146.985 137.234 144.84 137.234C142.838 137.234 141.577 138.586 141.577 140.744C141.577 142.824 142.838 144.254 144.905 144.254C146.608 144.254 147.596 143.292 147.934 142.031H146.569C146.452 142.434 145.997 143.136 144.866 143.136ZM144.84 138.313C145.945 138.313 146.673 139.054 146.673 140.081H142.942C142.942 139.054 143.735 138.313 144.84 138.313Z" fill="white"/>
<path d="M152.393 137.26C151.522 137.26 150.976 137.832 150.625 138.664H150.599V137.416H149.234V144.059H150.599V140.666C150.599 139.249 151.652 138.365 152.965 138.586H152.991V137.299C152.796 137.273 152.627 137.26 152.393 137.26Z" fill="white"/>
<path d="M163.481 137.962H165.028C164.807 136.064 163.377 134.569 161.024 134.569C158.346 134.569 156.656 136.61 156.656 139.405C156.656 142.213 158.346 144.254 161.024 144.254C163.39 144.254 164.82 142.759 165.028 140.666H163.481C163.377 141.797 162.714 142.928 160.985 142.928C158.983 142.928 158.19 141.251 158.19 139.405C158.19 137.572 158.983 135.895 160.985 135.895C162.701 135.895 163.312 137.026 163.481 137.962Z" fill="white"/>
<path d="M169.318 144.254C167.238 144.254 165.977 142.811 165.977 140.744C165.977 138.677 167.238 137.234 169.318 137.234C171.398 137.234 172.659 138.677 172.659 140.744C172.659 142.811 171.398 144.254 169.318 144.254ZM169.318 143.136C170.618 143.136 171.294 142.109 171.294 140.744C171.294 139.366 170.618 138.352 169.318 138.352C168.018 138.352 167.342 139.366 167.342 140.744C167.342 142.109 168.018 143.136 169.318 143.136Z" fill="white"/>
<path d="M178.23 137.416V141.459C178.23 142.447 177.554 143.084 176.501 143.084C175.565 143.084 175.188 142.512 175.188 141.615V137.416H173.81V142.005C173.81 143.526 174.785 144.241 176.02 144.241C177.164 144.241 177.853 143.721 178.204 143.201H178.23V144.059H179.595V137.416H178.23Z" fill="white"/>
<path d="M184.73 137.234C183.586 137.234 182.897 137.754 182.546 138.274H182.52V137.416H181.155V144.059H182.52V140.016C182.52 139.028 183.196 138.391 184.249 138.391C185.185 138.391 185.562 138.963 185.562 139.86V144.059H186.94V139.47C186.94 137.949 185.965 137.234 184.73 137.234Z" fill="white"/>
<path d="M191.494 138.534V137.416H190.246V135.323H188.868V137.416H187.906V138.534H188.868V142.252C188.868 143.656 189.466 144.15 190.558 144.15C190.922 144.15 191.221 144.111 191.494 144.046V142.928C190.61 142.98 190.246 142.889 190.246 142.135V138.534H191.494Z" fill="white"/>
<rect x="291.316" y="129.706" width="30.3675" height="10.705" rx="2" fill="#55C28F" fill-opacity="0.2"/>
<path d="M298.124 134.442C297.224 134.217 296.621 134.091 296.621 133.389C296.621 132.912 297.08 132.624 297.845 132.624C298.736 132.624 299.204 133.02 299.303 133.767H300.374C300.284 132.444 299.258 131.706 297.845 131.706C296.441 131.706 295.559 132.345 295.559 133.488C295.559 134.712 296.648 135.099 297.656 135.351C298.925 135.666 299.474 135.81 299.474 136.575C299.474 137.07 299.105 137.493 298.151 137.493C296.999 137.493 296.441 136.953 296.387 136.134H295.316C295.379 137.592 296.576 138.411 298.151 138.411C299.771 138.411 300.545 137.556 300.545 136.53C300.545 135.09 299.501 134.793 298.124 134.442Z" fill="#33C69F"/>
<path d="M304.647 135.36H305.592C305.475 134.316 304.692 133.551 303.495 133.551C302.127 133.551 301.236 134.541 301.236 135.981C301.236 137.421 302.127 138.411 303.504 138.411C304.701 138.411 305.52 137.628 305.592 136.566H304.647C304.611 137.079 304.314 137.637 303.504 137.637C302.568 137.637 302.181 136.845 302.181 135.981C302.181 135.117 302.577 134.325 303.504 134.325C304.314 134.325 304.611 134.892 304.647 135.36Z" fill="#33C69F"/>
<path d="M309.265 134.883C309.265 135.324 308.833 135.414 308.122 135.549C306.97 135.774 306.223 136.089 306.223 137.097C306.223 137.871 306.799 138.411 307.735 138.411C308.446 138.411 308.968 138.132 309.256 137.727H309.274C309.364 138.177 309.598 138.357 310.102 138.357C310.282 138.357 310.435 138.339 310.651 138.258V137.808C310.282 137.844 310.21 137.673 310.21 137.349V135.162C310.21 133.938 309.454 133.551 308.437 133.551C307.051 133.551 306.484 134.244 306.439 135.126H307.357C307.402 134.532 307.681 134.298 308.437 134.298C309.067 134.298 309.265 134.55 309.265 134.883ZM307.942 137.664C307.429 137.664 307.177 137.43 307.177 137.007C307.177 136.539 307.519 136.314 308.302 136.143C308.743 136.053 309.112 135.945 309.265 135.837V136.53C309.265 137.277 308.725 137.664 307.942 137.664Z" fill="#33C69F"/>
<path d="M311.402 131.841V138.276H312.356V131.841H311.402Z" fill="#33C69F"/>
<path d="M315.488 137.637C314.651 137.637 314.156 136.998 314.156 136.224H317.684C317.684 134.586 316.955 133.551 315.47 133.551C314.084 133.551 313.211 134.487 313.211 135.981C313.211 137.421 314.084 138.411 315.515 138.411C316.694 138.411 317.378 137.745 317.612 136.872H316.667C316.586 137.151 316.271 137.637 315.488 137.637ZM315.47 134.298C316.235 134.298 316.739 134.811 316.739 135.522H314.156C314.156 134.811 314.705 134.298 315.47 134.298Z" fill="#33C69F"/>
<path d="M357.444 137.962H358.991C358.77 136.064 357.34 134.569 354.987 134.569C352.309 134.569 350.619 136.61 350.619 139.405C350.619 142.213 352.309 144.254 354.987 144.254C357.353 144.254 358.783 142.759 358.991 140.666H357.444C357.34 141.797 356.677 142.928 354.948 142.928C352.946 142.928 352.153 141.251 352.153 139.405C352.153 137.572 352.946 135.895 354.948 135.895C356.664 135.895 357.275 137.026 357.444 137.962Z" fill="white"/>
<path d="M363.281 144.254C361.201 144.254 359.94 142.811 359.94 140.744C359.94 138.677 361.201 137.234 363.281 137.234C365.361 137.234 366.622 138.677 366.622 140.744C366.622 142.811 365.361 144.254 363.281 144.254ZM363.281 143.136C364.581 143.136 365.257 142.109 365.257 140.744C365.257 139.366 364.581 138.352 363.281 138.352C361.981 138.352 361.305 139.366 361.305 140.744C361.305 142.109 361.981 143.136 363.281 143.136Z" fill="white"/>
<path d="M371.401 137.234C370.257 137.234 369.568 137.754 369.217 138.274H369.191V137.416H367.826V144.059H369.191V140.016C369.191 139.028 369.867 138.391 370.92 138.391C371.856 138.391 372.233 138.963 372.233 139.86V144.059H373.611V139.47C373.611 137.949 372.636 137.234 371.401 137.234Z" fill="white"/>
<path d="M378.164 138.534V137.416H376.916V135.323H375.538V137.416H374.576V138.534H375.538V142.252C375.538 143.656 376.136 144.15 377.228 144.15C377.592 144.15 377.891 144.111 378.164 144.046V142.928C377.28 142.98 376.916 142.889 376.916 142.135V138.534H378.164Z" fill="white"/>
<path d="M383.471 139.158C383.471 139.795 382.847 139.925 381.82 140.12C380.156 140.445 379.077 140.9 379.077 142.356C379.077 143.474 379.909 144.254 381.261 144.254C382.288 144.254 383.042 143.851 383.458 143.266H383.484C383.614 143.916 383.952 144.176 384.68 144.176C384.94 144.176 385.161 144.15 385.473 144.033V143.383C384.94 143.435 384.836 143.188 384.836 142.72V139.561C384.836 137.793 383.744 137.234 382.275 137.234C380.273 137.234 379.454 138.235 379.389 139.509H380.715C380.78 138.651 381.183 138.313 382.275 138.313C383.185 138.313 383.471 138.677 383.471 139.158ZM381.56 143.175C380.819 143.175 380.455 142.837 380.455 142.226C380.455 141.55 380.949 141.225 382.08 140.978C382.717 140.848 383.25 140.692 383.471 140.536V141.537C383.471 142.616 382.691 143.175 381.56 143.175Z" fill="white"/>
<path d="M387.298 136.298C387.701 136.298 388.078 136.038 388.078 135.57C388.078 135.102 387.701 134.855 387.298 134.855C386.921 134.855 386.531 135.102 386.531 135.57C386.531 136.038 386.921 136.298 387.298 136.298ZM386.622 137.416V144.059H387.987V137.416H386.622Z" fill="white"/>
<path d="M393.21 137.234C392.066 137.234 391.377 137.754 391.026 138.274H391V137.416H389.635V144.059H391V140.016C391 139.028 391.676 138.391 392.729 138.391C393.665 138.391 394.042 138.963 394.042 139.86V144.059H395.42V139.47C395.42 137.949 394.445 137.234 393.21 137.234Z" fill="white"/>
<path d="M399.866 143.136C398.657 143.136 397.942 142.213 397.942 141.095H403.038C403.038 138.729 401.985 137.234 399.84 137.234C397.838 137.234 396.577 138.586 396.577 140.744C396.577 142.824 397.838 144.254 399.905 144.254C401.608 144.254 402.596 143.292 402.934 142.031H401.569C401.452 142.434 400.997 143.136 399.866 143.136ZM399.84 138.313C400.945 138.313 401.673 139.054 401.673 140.081H397.942C397.942 139.054 398.735 138.313 399.84 138.313Z" fill="white"/>
<path d="M407.393 137.26C406.522 137.26 405.976 137.832 405.625 138.664H405.599V137.416H404.234V144.059H405.599V140.666C405.599 139.249 406.652 138.365 407.965 138.586H407.991V137.299C407.796 137.273 407.627 137.26 407.393 137.26Z" fill="white"/>
<path d="M415.53 138.521C414.23 138.196 413.359 138.014 413.359 137C413.359 136.311 414.022 135.895 415.127 135.895C416.414 135.895 417.09 136.467 417.233 137.546H418.78C418.65 135.635 417.168 134.569 415.127 134.569C413.099 134.569 411.825 135.492 411.825 137.143C411.825 138.911 413.398 139.47 414.854 139.834C416.687 140.289 417.48 140.497 417.48 141.602C417.48 142.317 416.947 142.928 415.569 142.928C413.905 142.928 413.099 142.148 413.021 140.965H411.474C411.565 143.071 413.294 144.254 415.569 144.254C417.909 144.254 419.027 143.019 419.027 141.537C419.027 139.457 417.519 139.028 415.53 138.521Z" fill="white"/>
<path d="M421.117 136.298C421.52 136.298 421.897 136.038 421.897 135.57C421.897 135.102 421.52 134.855 421.117 134.855C420.74 134.855 420.35 135.102 420.35 135.57C420.35 136.038 420.74 136.298 421.117 136.298ZM420.441 137.416V144.059H421.806V137.416H420.441Z" fill="white"/>
<path d="M423.207 143.045V144.059H428.758V142.941H424.962V142.915L428.615 138.326V137.416H423.441V138.534H426.782V138.56L423.207 143.045Z" fill="white"/>
<path d="M432.695 143.136C431.486 143.136 430.771 142.213 430.771 141.095H435.867C435.867 138.729 434.814 137.234 432.669 137.234C430.667 137.234 429.406 138.586 429.406 140.744C429.406 142.824 430.667 144.254 432.734 144.254C434.437 144.254 435.425 143.292 435.763 142.031H434.398C434.281 142.434 433.826 143.136 432.695 143.136ZM432.669 138.313C433.774 138.313 434.502 139.054 434.502 140.081H430.771C430.771 139.054 431.564 138.313 432.669 138.313Z" fill="white"/>
<rect x="550.316" y="129.706" width="30.3675" height="10.705" rx="2" fill="#55C28F" fill-opacity="0.2"/>
<path d="M557.124 134.442C556.224 134.217 555.621 134.091 555.621 133.389C555.621 132.912 556.08 132.624 556.845 132.624C557.736 132.624 558.204 133.02 558.303 133.767H559.374C559.284 132.444 558.258 131.706 556.845 131.706C555.441 131.706 554.559 132.345 554.559 133.488C554.559 134.712 555.648 135.099 556.656 135.351C557.925 135.666 558.474 135.81 558.474 136.575C558.474 137.07 558.105 137.493 557.151 137.493C555.999 137.493 555.441 136.953 555.387 136.134H554.316C554.379 137.592 555.576 138.411 557.151 138.411C558.771 138.411 559.545 137.556 559.545 136.53C559.545 135.09 558.501 134.793 557.124 134.442Z" fill="#33C69F"/>
<path d="M563.647 135.36H564.592C564.475 134.316 563.692 133.551 562.495 133.551C561.127 133.551 560.236 134.541 560.236 135.981C560.236 137.421 561.127 138.411 562.504 138.411C563.701 138.411 564.52 137.628 564.592 136.566H563.647C563.611 137.079 563.314 137.637 562.504 137.637C561.568 137.637 561.181 136.845 561.181 135.981C561.181 135.117 561.577 134.325 562.504 134.325C563.314 134.325 563.611 134.892 563.647 135.36Z" fill="#33C69F"/>
<path d="M568.265 134.883C568.265 135.324 567.833 135.414 567.122 135.549C565.97 135.774 565.223 136.089 565.223 137.097C565.223 137.871 565.799 138.411 566.735 138.411C567.446 138.411 567.968 138.132 568.256 137.727H568.274C568.364 138.177 568.598 138.357 569.102 138.357C569.282 138.357 569.435 138.339 569.651 138.258V137.808C569.282 137.844 569.21 137.673 569.21 137.349V135.162C569.21 133.938 568.454 133.551 567.437 133.551C566.051 133.551 565.484 134.244 565.439 135.126H566.357C566.402 134.532 566.681 134.298 567.437 134.298C568.067 134.298 568.265 134.55 568.265 134.883ZM566.942 137.664C566.429 137.664 566.177 137.43 566.177 137.007C566.177 136.539 566.519 136.314 567.302 136.143C567.743 136.053 568.112 135.945 568.265 135.837V136.53C568.265 137.277 567.725 137.664 566.942 137.664Z" fill="#33C69F"/>
<path d="M570.402 131.841V138.276H571.356V131.841H570.402Z" fill="#33C69F"/>
<path d="M574.488 137.637C573.651 137.637 573.156 136.998 573.156 136.224H576.684C576.684 134.586 575.955 133.551 574.47 133.551C573.084 133.551 572.211 134.487 572.211 135.981C572.211 137.421 573.084 138.411 574.515 138.411C575.694 138.411 576.378 137.745 576.612 136.872H575.667C575.586 137.151 575.271 137.637 574.488 137.637ZM574.47 134.298C575.235 134.298 575.739 134.811 575.739 135.522H573.156C573.156 134.811 573.705 134.298 574.47 134.298Z" fill="#33C69F"/>
<rect x="95" y="156.059" width="5" height="11" rx="1" fill="#33C69F"/>
<rect x="102" y="156.059" width="5" height="11" rx="1" fill="#33C69F"/>
<rect x="109" y="156.059" width="5" height="11" rx="1" fill="#33C69F" fill-opacity="0.1"/>
<rect x="116" y="156.059" width="5" height="11" rx="1" fill="#33C69F" fill-opacity="0.1"/>
<rect x="123" y="156.059" width="5" height="11" rx="1" fill="#33C69F" fill-opacity="0.1"/>
<rect x="130" y="156.059" width="5" height="11" rx="1" fill="#33C69F" fill-opacity="0.1"/>
<rect x="137" y="156.059" width="5" height="11" rx="1" fill="#33C69F" fill-opacity="0.1"/>
<rect x="144" y="156.059" width="5" height="11" rx="1" fill="#33C69F" fill-opacity="0.1"/>
<rect x="151" y="156.059" width="5" height="11" rx="1" fill="#33C69F" fill-opacity="0.1"/>
<rect x="158" y="156.059" width="5" height="11" rx="1" fill="#33C69F" fill-opacity="0.1"/>
<rect x="165" y="156.059" width="5" height="11" rx="1" fill="#33C69F" fill-opacity="0.1"/>
<rect x="172" y="156.059" width="5" height="11" rx="1" fill="#33C69F" fill-opacity="0.1"/>
<rect x="179" y="156.059" width="5" height="11" rx="1" fill="#33C69F" fill-opacity="0.1"/>
<rect x="186" y="156.059" width="5" height="11" rx="1" fill="#33C69F" fill-opacity="0.1"/>
<rect x="193" y="156.059" width="5" height="11" rx="1" fill="#33C69F" fill-opacity="0.1"/>
<rect x="200" y="156.059" width="5" height="11" rx="1" fill="#33C69F" fill-opacity="0.1"/>
<rect x="207" y="156.059" width="5" height="11" rx="1" fill="#33C69F" fill-opacity="0.1"/>
<rect x="214" y="156.059" width="5" height="11" rx="1" fill="#33C69F" fill-opacity="0.1"/>
<rect x="221" y="156.059" width="5" height="11" rx="1" fill="#33C69F" fill-opacity="0.1"/>
<rect x="228" y="156.059" width="5" height="11" rx="1" fill="#33C69F" fill-opacity="0.1"/>
<rect x="235" y="156.059" width="5" height="11" rx="1" fill="#33C69F" fill-opacity="0.1"/>
<rect x="350" y="156.059" width="5" height="11" rx="1" fill="#33C69F"/>
<rect x="357" y="156.059" width="5" height="11" rx="1" fill="#33C69F"/>
<rect x="364" y="156.059" width="5" height="11" rx="1" fill="#33C69F"/>
<rect x="371" y="156.059" width="5" height="11" rx="1" fill="#33C69F"/>
<rect x="378" y="156.059" width="5" height="11" rx="1" fill="#33C69F"/>
<rect x="385" y="156.059" width="5" height="11" rx="1" fill="#33C69F"/>
<rect x="392" y="156.059" width="5" height="11" rx="1" fill="#33C69F"/>
<rect x="399" y="156.059" width="5" height="11" rx="1" fill="#33C69F"/>
<rect x="406" y="156.059" width="5" height="11" rx="1" fill="#33C69F"/>
<rect x="413" y="156.059" width="5" height="11" rx="1" fill="#33C69F"/>
<rect x="420" y="156.059" width="5" height="11" rx="1" fill="#33C69F"/>
<rect x="427" y="156.059" width="5" height="11" rx="1" fill="#33C69F"/>
<rect x="434" y="156.059" width="5" height="11" rx="1" fill="#33C69F" fill-opacity="0.1"/>
<rect x="441" y="156.059" width="5" height="11" rx="1" fill="#33C69F" fill-opacity="0.1"/>
<rect x="448" y="156.059" width="5" height="11" rx="1" fill="#33C69F" fill-opacity="0.1"/>
<rect x="455" y="156.059" width="5" height="11" rx="1" fill="#33C69F" fill-opacity="0.1"/>
<rect x="462" y="156.059" width="5" height="11" rx="1" fill="#33C69F" fill-opacity="0.1"/>
<rect x="469" y="156.059" width="5" height="11" rx="1" fill="#33C69F" fill-opacity="0.1"/>
<rect x="476" y="156.059" width="5" height="11" rx="1" fill="#33C69F" fill-opacity="0.1"/>
<rect x="483" y="156.059" width="5" height="11" rx="1" fill="#33C69F" fill-opacity="0.1"/>
</g>
<rect x="79.5" y="119.559" width="511" height="60" rx="4.5" stroke="white" stroke-opacity="0.1"/>
<g clip-path="url(#clip2)">
<rect x="79" y="196.059" width="512" height="120" rx="5" fill="black" fill-opacity="0.1"/>
<path d="M131.063 272.08L109.19 290.396C107.436 291.865 104.909 291.956 103.053 290.617L82.5856 275.842C81.8743 275.329 81.3105 274.637 80.951 273.837L80 271.72V311.059C80 313.82 82.2386 316.059 85 316.059H585C587.761 316.059 590 313.82 590 311.059V252.059L565.788 259.3C565.081 259.511 564.43 259.876 563.881 260.368L544.398 277.849C543.378 278.764 542.027 279.22 540.662 279.111L518.191 277.319C517.743 277.283 517.292 277.308 516.85 277.393L495.071 281.58C494.311 281.726 493.528 281.694 492.783 281.486L468.63 274.745L447.091 269.789C446.842 269.732 446.597 269.656 446.36 269.561L423.466 260.432C422.169 259.915 420.715 259.963 419.455 260.566L396.793 271.41C396.364 271.616 395.966 271.881 395.612 272.199L375.639 290.118C373.846 291.727 371.162 291.828 369.252 290.36L348.947 274.745L327.497 254.126C326.173 252.852 324.256 252.408 322.507 252.969L302.515 259.375C302.007 259.537 301.527 259.781 301.096 260.096L276.286 278.181C275.312 278.891 274.115 279.225 272.915 279.123L251.835 277.321C251.398 277.284 250.958 277.304 250.526 277.382L227.017 281.6C226.276 281.733 225.515 281.697 224.79 281.495L200.606 274.745L179.126 269.803C178.837 269.737 178.555 269.645 178.283 269.528L157.25 260.542C155.883 259.958 154.327 260.013 153.005 260.691L131.992 271.464C131.66 271.634 131.349 271.841 131.063 272.08Z" fill="#33C69F" fill-opacity="0.1"/>
<path d="M590 251.559L565.326 259.325C564.642 259.54 564.013 259.899 563.481 260.379L543.971 277.951C542.95 278.871 541.595 279.33 540.226 279.22L517.761 277.422C517.31 277.386 516.857 277.411 516.414 277.496L494.639 281.699C493.876 281.846 493.09 281.814 492.342 281.604L468.19 274.836L446.648 269.861C446.398 269.804 446.153 269.727 445.915 269.631L423.025 260.468C421.724 259.948 420.264 259.997 419.001 260.603L396.342 271.488C395.912 271.695 395.514 271.961 395.16 272.28L375.191 290.267C373.396 291.884 370.701 291.986 368.789 290.509L348.488 274.836L327.038 254.137C325.712 252.857 323.79 252.411 322.035 252.975L302.051 259.404C301.541 259.568 301.061 259.812 300.629 260.129L275.819 278.285C274.843 278.999 273.643 279.335 272.439 279.232L251.364 277.424C250.925 277.386 250.483 277.407 250.05 277.485L226.544 281.719C225.8 281.853 225.036 281.817 224.308 281.613L200.124 274.836L178.642 269.875C178.353 269.808 178.07 269.716 177.797 269.599L156.769 260.58C155.398 259.992 153.836 260.046 152.51 260.729L131.5 271.542C131.168 271.713 130.857 271.921 130.571 272.161L108.692 290.553C106.94 292.026 104.41 292.121 102.552 290.782L82.0571 276.014C81.0083 275.259 80.2929 274.126 80.0611 272.854L79.5 269.775" stroke="#33C69F"/>
<path d="M590 248.559L565.326 256.325C564.642 256.54 564.013 256.899 563.481 257.379L543.971 274.951C542.95 275.871 541.595 276.33 540.226 276.22L517.449 274.397C517.205 274.377 516.962 274.34 516.724 274.285L493.479 268.923L468.19 261.836L446.648 256.861C446.398 256.804 446.153 256.727 445.915 256.631L423.83 247.79C422.083 247.091 420.092 247.432 418.677 248.671L395.694 268.799L375.191 287.267C373.396 288.883 370.701 288.986 368.789 287.509L349.584 272.682C348.867 272.129 348.012 271.78 347.113 271.674L325.965 269.186C325.253 269.102 324.531 269.172 323.849 269.392L302.051 276.403C301.541 276.567 301.008 276.648 300.472 276.643L275.481 276.403C274.708 276.396 273.948 276.209 273.259 275.859L253.118 265.597C251.611 264.83 249.819 264.876 248.354 265.719L226.309 278.407C225.718 278.747 225.064 278.963 224.387 279.041L201.985 281.622C200.785 281.76 199.576 281.46 198.581 280.776L179.562 267.706C178.682 267.101 177.631 266.794 176.564 266.829L155.646 267.524C154.959 267.547 154.283 267.711 153.662 268.007L131.001 278.799L108.337 288.89C106.711 289.613 104.824 289.419 103.38 288.379L82.0571 273.014C81.0083 272.258 80.2929 271.126 80.0611 269.854L79.5 266.775" stroke="#FFB607"/>
<circle opacity="0.1" cx="420.5" cy="260.559" r="4.5" fill="#33C69F"/>
<path d="M423 260.559C423 261.939 421.881 263.059 420.5 263.059C419.119 263.059 418 261.939 418 260.559C418 259.178 419.119 258.059 420.5 258.059C421.881 258.059 423 259.178 423 260.559Z" fill="#33C69F"/>
<circle opacity="0.1" cx="420.5" cy="247.559" r="4.5" fill="#FDB515"/>
<path d="M423 247.559C423 248.939 421.881 250.059 420.5 250.059C419.119 250.059 418 248.939 418 247.559C418 246.178 419.119 245.059 420.5 245.059C421.881 245.059 423 246.178 423 247.559Z" fill="#FDB515"/>
<rect x="420" y="198.059" width="1" height="201" fill="white" fill-opacity="0.1"/>
<path d="M95.1777 217.354H96.6857V210.308H96.7117L99.1687 217.354H100.404L102.861 210.308H102.887V217.354H104.395V208.059H102.393L99.8057 215.209H99.7797L97.1797 208.059H95.1777V217.354Z" fill="white"/>
<path d="M109.163 216.431C107.954 216.431 107.239 215.508 107.239 214.39H112.335C112.335 212.024 111.282 210.529 109.137 210.529C107.135 210.529 105.874 211.881 105.874 214.039C105.874 216.119 107.135 217.549 109.202 217.549C110.905 217.549 111.893 216.587 112.231 215.326H110.866C110.749 215.729 110.294 216.431 109.163 216.431ZM109.137 211.608C110.242 211.608 110.97 212.349 110.97 213.376H107.239C107.239 212.349 108.032 211.608 109.137 211.608Z" fill="white"/>
<path d="M120.863 210.529C119.836 210.529 119.186 211.036 118.692 211.673H118.666C118.393 210.958 117.834 210.529 116.898 210.529C115.897 210.529 115.273 211.049 114.922 211.569H114.896V210.711H113.531V217.354H114.896V213.311C114.896 212.323 115.481 211.686 116.391 211.686C117.34 211.686 117.522 212.258 117.522 213.155V217.354H118.9V213.311C118.9 212.323 119.472 211.686 120.395 211.686C121.331 211.686 121.513 212.258 121.513 213.155V217.354H122.891V212.765C122.891 211.335 122.202 210.529 120.863 210.529Z" fill="white"/>
<path d="M127.407 217.549C125.327 217.549 124.066 216.106 124.066 214.039C124.066 211.972 125.327 210.529 127.407 210.529C129.487 210.529 130.748 211.972 130.748 214.039C130.748 216.106 129.487 217.549 127.407 217.549ZM127.407 216.431C128.707 216.431 129.383 215.404 129.383 214.039C129.383 212.661 128.707 211.647 127.407 211.647C126.107 211.647 125.431 212.661 125.431 214.039C125.431 215.404 126.107 216.431 127.407 216.431Z" fill="white"/>
<path d="M135.111 210.555C134.24 210.555 133.694 211.127 133.343 211.959H133.317V210.711H131.952V217.354H133.317V213.961C133.317 212.544 134.37 211.66 135.683 211.881H135.709V210.594C135.514 210.568 135.345 210.555 135.111 210.555Z" fill="white"/>
<path d="M142.747 210.711H141.291L139.588 215.794H139.562L137.703 210.711H136.234L138.639 216.678C138.886 217.302 138.704 217.822 138.457 218.121C138.158 218.485 137.729 218.524 137.157 218.446H137.04V219.486C137.3 219.551 137.625 219.616 138.015 219.616C139.289 219.616 139.718 218.797 140.095 217.77L142.747 210.711Z" fill="white"/>
<rect x="154.746" y="211.837" width="13" height="4" rx="2" fill="#FDB515"/>
<path d="M176.915 214.074H178.07C177.927 212.798 176.97 211.863 175.507 211.863C173.835 211.863 172.746 213.073 172.746 214.833C172.746 216.593 173.835 217.803 175.518 217.803C176.981 217.803 177.982 216.846 178.07 215.548H176.915C176.871 216.175 176.508 216.857 175.518 216.857C174.374 216.857 173.901 215.889 173.901 214.833C173.901 213.777 174.385 212.809 175.518 212.809C176.508 212.809 176.871 213.502 176.915 214.074Z" fill="white" fill-opacity="0.5"/>
<path d="M181.979 217.803C184.124 217.803 185.037 215.999 185.037 213.843C185.037 211.687 184.124 209.872 181.979 209.872C179.834 209.872 178.921 211.687 178.921 213.843C178.921 215.999 179.834 217.803 181.979 217.803ZM181.979 216.714C180.637 216.714 180.186 215.427 180.186 213.843C180.186 212.259 180.637 210.961 181.979 210.961C183.321 210.961 183.761 212.259 183.761 213.843C183.761 215.427 183.321 216.714 181.979 216.714Z" fill="white" fill-opacity="0.5"/>
<path d="M188.699 216.857C187.676 216.857 187.071 216.076 187.071 215.13H191.383C191.383 213.128 190.492 211.863 188.677 211.863C186.983 211.863 185.916 213.007 185.916 214.833C185.916 216.593 186.983 217.803 188.732 217.803C190.173 217.803 191.009 216.989 191.295 215.922H190.14C190.041 216.263 189.656 216.857 188.699 216.857ZM188.677 212.776C189.612 212.776 190.228 213.403 190.228 214.272H187.071C187.071 213.403 187.742 212.776 188.677 212.776Z" fill="white" fill-opacity="0.5"/>
<path d="M195.794 213.491C195.794 214.03 195.265 214.14 194.396 214.305C192.988 214.58 192.076 214.965 192.076 216.197C192.076 217.143 192.78 217.803 193.924 217.803C194.793 217.803 195.43 217.462 195.782 216.967H195.805C195.915 217.517 196.2 217.737 196.816 217.737C197.036 217.737 197.223 217.715 197.487 217.616V217.066C197.036 217.11 196.948 216.901 196.948 216.505V213.832C196.948 212.336 196.024 211.863 194.781 211.863C193.087 211.863 192.395 212.71 192.34 213.788H193.462C193.517 213.062 193.857 212.776 194.781 212.776C195.551 212.776 195.794 213.084 195.794 213.491ZM194.177 216.89C193.55 216.89 193.241 216.604 193.241 216.087C193.241 215.515 193.659 215.24 194.616 215.031C195.155 214.921 195.607 214.789 195.794 214.657V215.504C195.794 216.417 195.134 216.89 194.177 216.89Z" fill="white" fill-opacity="0.5"/>
<path d="M199.527 213.601V213.579C199.549 212.193 199.868 210.917 201.243 210.917C202.046 210.917 202.442 211.379 202.519 211.962H203.795C203.641 210.818 202.684 209.872 201.254 209.872C199.34 209.872 198.251 211.269 198.251 213.865C198.251 216.142 199.032 217.803 201.254 217.803C202.959 217.803 204.004 216.637 204.004 215.141C204.004 213.645 202.981 212.611 201.485 212.611C200.605 212.611 199.901 212.985 199.527 213.601ZM201.21 216.758C200.198 216.758 199.593 216.131 199.593 215.229C199.593 214.294 200.264 213.656 201.276 213.656C202.145 213.656 202.761 214.239 202.761 215.207C202.761 216.131 202.189 216.758 201.21 216.758Z" fill="white" fill-opacity="0.5"/>
<path d="M208.06 217.803C210.205 217.803 211.118 215.999 211.118 213.843C211.118 211.687 210.205 209.872 208.06 209.872C205.915 209.872 205.002 211.687 205.002 213.843C205.002 215.999 205.915 217.803 208.06 217.803ZM208.06 216.714C206.718 216.714 206.267 215.427 206.267 213.843C206.267 212.259 206.718 210.961 208.06 210.961C209.402 210.961 209.842 212.259 209.842 213.843C209.842 215.427 209.402 216.714 208.06 216.714Z" fill="white" fill-opacity="0.5"/>
<path d="M216.166 214.074H217.321C217.178 212.798 216.221 211.863 214.758 211.863C213.086 211.863 211.997 213.073 211.997 214.833C211.997 216.593 213.086 217.803 214.769 217.803C216.232 217.803 217.233 216.846 217.321 215.548H216.166C216.122 216.175 215.759 216.857 214.769 216.857C213.625 216.857 213.152 215.889 213.152 214.833C213.152 213.777 213.636 212.809 214.769 212.809C215.759 212.809 216.122 213.502 216.166 214.074Z" fill="white" fill-opacity="0.5"/>
<path d="M217.985 210.037V211.115H221.967V211.137C220.614 212.336 219.118 215.13 219.118 217.638H220.46C220.46 215.218 221.626 212.446 223.353 211.005V210.037H217.985Z" fill="white" fill-opacity="0.5"/>
<rect x="235.354" y="211.837" width="13" height="4" rx="2" fill="#33C69F"/>
<path d="M255.202 210.125C255.125 211.06 254.729 211.742 253.354 211.742V212.655C253.992 212.655 254.498 212.655 254.949 212.215V217.726H256.225V210.125H255.202Z" fill="white" fill-opacity="0.5"/>
<path d="M260.726 217.891C262.871 217.891 263.784 216.087 263.784 213.931C263.784 211.775 262.871 209.96 260.726 209.96C258.581 209.96 257.668 211.775 257.668 213.931C257.668 216.087 258.581 217.891 260.726 217.891ZM260.726 216.802C259.384 216.802 258.933 215.515 258.933 213.931C258.933 212.347 259.384 211.049 260.726 211.049C262.068 211.049 262.508 212.347 262.508 213.931C262.508 215.515 262.068 216.802 260.726 216.802Z" fill="white" fill-opacity="0.5"/>
<path d="M267.611 210.807V209.861C267.38 209.817 267.127 209.784 266.841 209.784C265.917 209.784 265.411 210.202 265.411 211.39V212.105H264.608V213.051H265.411V217.726H266.577V213.051H267.611V212.105H266.577V211.489C266.577 210.851 266.863 210.774 267.611 210.807Z" fill="white" fill-opacity="0.5"/>
<path d="M271.833 213.579C271.833 214.118 271.305 214.228 270.436 214.393C269.028 214.668 268.115 215.053 268.115 216.285C268.115 217.231 268.819 217.891 269.963 217.891C270.832 217.891 271.47 217.55 271.822 217.055H271.844C271.954 217.605 272.24 217.825 272.856 217.825C273.076 217.825 273.263 217.803 273.527 217.704V217.154C273.076 217.198 272.988 216.989 272.988 216.593V213.92C272.988 212.424 272.064 211.951 270.821 211.951C269.127 211.951 268.434 212.798 268.379 213.876H269.501C269.556 213.15 269.897 212.864 270.821 212.864C271.591 212.864 271.833 213.172 271.833 213.579ZM270.216 216.978C269.589 216.978 269.281 216.692 269.281 216.175C269.281 215.603 269.699 215.328 270.656 215.119C271.195 215.009 271.646 214.877 271.833 214.745V215.592C271.833 216.505 271.173 216.978 270.216 216.978Z" fill="white" fill-opacity="0.5"/>
<path d="M278.372 209.861V212.787H278.35C278.053 212.358 277.503 211.951 276.634 211.951C275.193 211.951 274.126 213.073 274.126 214.921C274.126 216.769 275.193 217.891 276.634 217.891C277.503 217.891 278.053 217.462 278.35 217.077H278.372V217.726H279.527V209.861H278.372ZM276.832 216.945C275.82 216.945 275.281 216.021 275.281 214.921C275.281 213.821 275.82 212.897 276.832 212.897C277.778 212.897 278.361 213.667 278.361 214.921C278.361 216.164 277.778 216.945 276.832 216.945Z" fill="white" fill-opacity="0.5"/>
<path d="M282.029 212.82C282.029 211.775 282.458 211.049 283.591 211.049C284.57 211.049 284.867 211.676 284.867 212.303C284.867 213.381 283.976 213.744 282.579 214.668C281.413 215.405 280.61 216.384 280.61 217.726H286.066V216.648H282.271V216.626C282.898 215.075 286.143 214.668 286.143 212.248C286.143 210.796 285.032 209.96 283.624 209.96C281.677 209.96 280.797 211.181 280.797 212.82H282.029Z" fill="white" fill-opacity="0.5"/>
<path d="M291.153 214.162H292.308C292.165 212.886 291.208 211.951 289.745 211.951C288.073 211.951 286.984 213.161 286.984 214.921C286.984 216.681 288.073 217.891 289.756 217.891C291.219 217.891 292.22 216.934 292.308 215.636H291.153C291.109 216.263 290.746 216.945 289.756 216.945C288.612 216.945 288.139 215.977 288.139 214.921C288.139 213.865 288.623 212.897 289.756 212.897C290.746 212.897 291.109 213.59 291.153 214.162Z" fill="white" fill-opacity="0.5"/>
<path d="M294.93 210.125C294.853 211.06 294.457 211.742 293.082 211.742V212.655C293.72 212.655 294.226 212.655 294.677 212.215V217.726H295.953V210.125H294.93Z" fill="white" fill-opacity="0.5"/>
</g>
<rect x="79.5" y="196.559" width="511" height="119" rx="4.5" stroke="white" stroke-opacity="0.1"/>
<g clip-path="url(#clip3)">
<rect x="79" y="332.059" width="512" height="120" rx="5" fill="black" fill-opacity="0.1"/>
<path d="M103.869 427.87L79 410.638V447.059C79 449.82 81.2386 452.059 84 452.059H585C587.761 452.059 590 449.82 590 447.059V367.843L566.501 374.875C565.319 375.228 564.048 375.133 562.933 374.606L545.356 366.309C543.721 365.537 541.796 365.708 540.323 366.756L518.26 382.458C517.676 382.873 517.009 383.158 516.305 383.294L495.105 387.372C494.204 387.545 493.368 387.963 492.689 388.58L470.328 408.881C469.115 409.982 467.441 410.419 465.845 410.052L446.81 405.67C446.561 405.613 446.316 405.536 446.079 405.442L421.653 395.696C421.286 395.549 420.938 395.36 420.616 395.132L398.153 379.22C396.678 378.175 394.755 378.007 393.122 378.781L372.12 388.731L350.797 399.445C349.341 400.177 347.619 400.153 346.184 399.381L326.7 388.901C325.504 388.257 324.098 388.128 322.804 388.543L301.95 395.229C301.442 395.392 300.962 395.636 300.53 395.951L275.668 414.086C274.695 414.796 273.497 415.131 272.296 415.028L251.171 413.222C250.734 413.184 250.294 413.205 249.862 413.282L226.304 417.512C225.563 417.645 224.801 417.609 224.075 417.406L202.085 411.265C200.663 410.868 199.139 411.119 197.92 411.952L180.15 424.089C178.739 425.052 176.935 425.229 175.364 424.558L156.398 416.45C155.031 415.865 153.474 415.92 152.151 416.598L131.56 427.162C130.923 427.488 130.224 427.674 129.509 427.708L106.948 428.755C105.853 428.806 104.77 428.495 103.869 427.87Z" fill="#33C69F" fill-opacity="0.1"/>
<path d="M79.4219 410.836L104.313 428.089C105.22 428.718 106.308 429.029 107.41 428.974L129.921 427.853C130.632 427.818 131.328 427.631 131.961 427.305L152.509 416.729C153.835 416.046 155.397 415.992 156.768 416.58L175.686 424.693C177.256 425.367 179.061 425.192 180.473 424.23L198.2 412.147C199.42 411.316 200.944 411.066 202.366 411.464L224.308 417.613C225.035 417.817 225.8 417.853 226.543 417.719L250.05 413.485C250.483 413.407 250.925 413.386 251.363 413.424L272.438 415.232C273.642 415.335 274.843 414.999 275.818 414.285L300.628 396.128C301.061 395.812 301.541 395.568 302.05 395.404L322.851 388.713C324.149 388.295 325.562 388.426 326.762 389.075L346.201 399.599C347.634 400.374 349.355 400.403 350.814 399.675L372.09 389.059L393.05 379.06C394.683 378.281 396.609 378.445 398.086 379.488L420.503 395.312C420.822 395.537 421.166 395.724 421.528 395.869L445.914 405.631C446.152 405.727 446.398 405.804 446.647 405.861L465.643 410.248C467.238 410.617 468.913 410.181 470.126 409.082L492.442 388.862C493.12 388.248 493.954 387.831 494.852 387.658L516.017 383.573C516.719 383.437 517.383 383.153 517.966 382.739L539.995 367.081C541.463 366.037 543.38 365.864 545.011 366.628L562.525 374.826C563.659 375.357 564.951 375.442 566.146 375.067L590 367.559" stroke="#33C69F"/>
<path d="M79.4219 420.836L104.86 428.792C105.423 428.969 106.012 429.044 106.601 429.014L129.104 427.894C130.325 427.833 131.483 427.326 132.356 426.47L151.259 407.931C153.14 406.086 156.131 406.018 158.094 407.775L173.788 421.82C176.097 423.887 179.711 423.377 181.358 420.751L198.138 394.002C199.316 392.125 201.589 391.247 203.723 391.845L224.747 397.736C225.189 397.86 225.612 398.044 226.004 398.283L248.709 412.15C249.972 412.921 251.513 413.093 252.915 412.619L273.504 405.663C274.034 405.484 274.592 405.395 275.152 405.4L298.949 405.629C300.427 405.643 301.836 405.002 302.797 403.879L322.257 381.129C323.79 379.338 326.365 378.86 328.437 379.982L346.201 389.599C347.634 390.374 349.355 390.403 350.814 389.676L370.153 380.026C371.389 379.409 372.826 379.331 374.121 379.811L395.081 387.572C395.488 387.723 395.873 387.926 396.228 388.176L420.503 405.312C420.822 405.537 421.166 405.724 421.528 405.87L445.914 415.631C446.152 415.727 446.398 415.804 446.647 415.861L465.643 420.248C467.238 420.617 468.913 420.181 470.126 419.082L493.137 398.232C493.364 398.026 493.61 397.842 493.87 397.681L515.689 384.226C516.594 383.668 517.653 383.413 518.713 383.498L542.371 385.392L564.288 385.651L590 388.059" stroke="#FDB515"/>
<rect x="324" y="334.059" width="1" height="201" fill="white" fill-opacity="0.1"/>
<circle opacity="0.1" cx="324.5" cy="379.559" r="4.5" fill="#FDB515"/>
<path d="M327 379.559C327 380.939 325.881 382.059 324.5 382.059C323.119 382.059 322 380.939 322 379.559C322 378.178 323.119 377.059 324.5 377.059C325.881 377.059 327 378.178 327 379.559Z" fill="#FDB515"/>
<circle opacity="0.1" cx="324.5" cy="388.559" r="4.5" fill="#33C69F"/>
<path d="M327 388.559C327 389.939 325.881 391.059 324.5 391.059C323.119 391.059 322 389.939 322 388.559C322 387.178 323.119 386.059 324.5 386.059C325.881 386.059 327 387.178 327 388.559Z" fill="#33C69F"/>
<path d="M102.003 347.452H103.55C103.329 345.554 101.899 344.059 99.5457 344.059C96.8677 344.059 95.1777 346.1 95.1777 348.895C95.1777 351.703 96.8677 353.744 99.5457 353.744C101.912 353.744 103.342 352.249 103.55 350.156H102.003C101.899 351.287 101.236 352.418 99.5067 352.418C97.5047 352.418 96.7117 350.741 96.7117 348.895C96.7117 347.062 97.5047 345.385 99.5067 345.385C101.223 345.385 101.834 346.516 102.003 347.452Z" fill="white"/>
<path d="M104.955 353.549H106.502V349.831H108.907C110.688 349.831 111.975 348.986 111.975 347.036C111.975 345.086 110.688 344.254 108.907 344.254H104.955V353.549ZM106.502 345.567H108.842C109.882 345.567 110.428 346.022 110.428 347.036C110.428 348.063 109.882 348.505 108.842 348.505H106.502V345.567Z" fill="white"/>
<path d="M120.593 350.377V344.254H119.059V350.377C119.059 351.781 118.357 352.418 116.927 352.418C115.51 352.418 114.808 351.781 114.808 350.377V344.254H113.261V350.377C113.261 352.405 114.34 353.744 116.927 353.744C119.514 353.744 120.593 352.405 120.593 350.377Z" fill="white"/>
<rect x="132.592" y="346.901" width="13" height="4" rx="2" fill="#FDB515"/>
<path d="M154.761 349.138H155.916C155.773 347.862 154.816 346.927 153.353 346.927C151.681 346.927 150.592 348.137 150.592 349.897C150.592 351.657 151.681 352.867 153.364 352.867C154.827 352.867 155.828 351.91 155.916 350.612H154.761C154.717 351.239 154.354 351.921 153.364 351.921C152.22 351.921 151.747 350.953 151.747 349.897C151.747 348.841 152.231 347.873 153.364 347.873C154.354 347.873 154.717 348.566 154.761 349.138Z" fill="white" fill-opacity="0.5"/>
<path d="M159.825 352.867C161.97 352.867 162.883 351.063 162.883 348.907C162.883 346.751 161.97 344.936 159.825 344.936C157.68 344.936 156.767 346.751 156.767 348.907C156.767 351.063 157.68 352.867 159.825 352.867ZM159.825 351.778C158.483 351.778 158.032 350.491 158.032 348.907C158.032 347.323 158.483 346.025 159.825 346.025C161.167 346.025 161.607 347.323 161.607 348.907C161.607 350.491 161.167 351.778 159.825 351.778Z" fill="white" fill-opacity="0.5"/>
<path d="M166.544 351.921C165.521 351.921 164.916 351.14 164.916 350.194H169.228C169.228 348.192 168.337 346.927 166.522 346.927C164.828 346.927 163.761 348.071 163.761 349.897C163.761 351.657 164.828 352.867 166.577 352.867C168.018 352.867 168.854 352.053 169.14 350.986H167.985C167.886 351.327 167.501 351.921 166.544 351.921ZM166.522 347.84C167.457 347.84 168.073 348.467 168.073 349.336H164.916C164.916 348.467 165.587 347.84 166.522 347.84Z" fill="white" fill-opacity="0.5"/>
<path d="M173.639 348.555C173.639 349.094 173.111 349.204 172.242 349.369C170.834 349.644 169.921 350.029 169.921 351.261C169.921 352.207 170.625 352.867 171.769 352.867C172.638 352.867 173.276 352.526 173.628 352.031H173.65C173.76 352.581 174.046 352.801 174.662 352.801C174.882 352.801 175.069 352.779 175.333 352.68V352.13C174.882 352.174 174.794 351.965 174.794 351.569V348.896C174.794 347.4 173.87 346.927 172.627 346.927C170.933 346.927 170.24 347.774 170.185 348.852H171.307C171.362 348.126 171.703 347.84 172.627 347.84C173.397 347.84 173.639 348.148 173.639 348.555ZM172.022 351.954C171.395 351.954 171.087 351.668 171.087 351.151C171.087 350.579 171.505 350.304 172.462 350.095C173.001 349.985 173.452 349.853 173.639 349.721V350.568C173.639 351.481 172.979 351.954 172.022 351.954Z" fill="white" fill-opacity="0.5"/>
<path d="M177.373 348.665V348.643C177.395 347.257 177.714 345.981 179.089 345.981C179.892 345.981 180.288 346.443 180.365 347.026H181.641C181.487 345.882 180.53 344.936 179.1 344.936C177.186 344.936 176.097 346.333 176.097 348.929C176.097 351.206 176.878 352.867 179.1 352.867C180.805 352.867 181.85 351.701 181.85 350.205C181.85 348.709 180.827 347.675 179.331 347.675C178.451 347.675 177.747 348.049 177.373 348.665ZM179.056 351.822C178.044 351.822 177.439 351.195 177.439 350.293C177.439 349.358 178.11 348.72 179.122 348.72C179.991 348.72 180.607 349.303 180.607 350.271C180.607 351.195 180.035 351.822 179.056 351.822Z" fill="white" fill-opacity="0.5"/>
<path d="M185.906 352.867C188.051 352.867 188.964 351.063 188.964 348.907C188.964 346.751 188.051 344.936 185.906 344.936C183.761 344.936 182.848 346.751 182.848 348.907C182.848 351.063 183.761 352.867 185.906 352.867ZM185.906 351.778C184.564 351.778 184.113 350.491 184.113 348.907C184.113 347.323 184.564 346.025 185.906 346.025C187.248 346.025 187.688 347.323 187.688 348.907C187.688 350.491 187.248 351.778 185.906 351.778Z" fill="white" fill-opacity="0.5"/>
<path d="M194.011 349.138H195.166C195.023 347.862 194.066 346.927 192.603 346.927C190.931 346.927 189.842 348.137 189.842 349.897C189.842 351.657 190.931 352.867 192.614 352.867C194.077 352.867 195.078 351.91 195.166 350.612H194.011C193.967 351.239 193.604 351.921 192.614 351.921C191.47 351.921 190.997 350.953 190.997 349.897C190.997 348.841 191.481 347.873 192.614 347.873C193.604 347.873 193.967 348.566 194.011 349.138Z" fill="white" fill-opacity="0.5"/>
<path d="M195.831 345.101V346.179H199.812V346.201C198.46 347.4 196.964 350.194 196.964 352.702H198.306C198.306 350.282 199.472 347.51 201.199 346.069V345.101H195.831Z" fill="white" fill-opacity="0.5"/>
<rect x="213.199" y="346.901" width="13" height="4" rx="2" fill="#33C69F"/>
<path d="M233.047 345.189C232.97 346.124 232.574 346.806 231.199 346.806V347.719C231.837 347.719 232.343 347.719 232.794 347.279V352.79H234.07V345.189H233.047Z" fill="white" fill-opacity="0.5"/>
<path d="M238.572 352.955C240.717 352.955 241.63 351.151 241.63 348.995C241.63 346.839 240.717 345.024 238.572 345.024C236.427 345.024 235.514 346.839 235.514 348.995C235.514 351.151 236.427 352.955 238.572 352.955ZM238.572 351.866C237.23 351.866 236.779 350.579 236.779 348.995C236.779 347.411 237.23 346.113 238.572 346.113C239.914 346.113 240.354 347.411 240.354 348.995C240.354 350.579 239.914 351.866 238.572 351.866Z" fill="white" fill-opacity="0.5"/>
<path d="M245.456 345.871V344.925C245.225 344.881 244.972 344.848 244.686 344.848C243.762 344.848 243.256 345.266 243.256 346.454V347.169H242.453V348.115H243.256V352.79H244.422V348.115H245.456V347.169H244.422V346.553C244.422 345.915 244.708 345.838 245.456 345.871Z" fill="white" fill-opacity="0.5"/>
<path d="M249.679 348.643C249.679 349.182 249.151 349.292 248.282 349.457C246.874 349.732 245.961 350.117 245.961 351.349C245.961 352.295 246.665 352.955 247.809 352.955C248.678 352.955 249.316 352.614 249.668 352.119H249.69C249.8 352.669 250.086 352.889 250.702 352.889C250.922 352.889 251.109 352.867 251.373 352.768V352.218C250.922 352.262 250.834 352.053 250.834 351.657V348.984C250.834 347.488 249.91 347.015 248.667 347.015C246.973 347.015 246.28 347.862 246.225 348.94H247.347C247.402 348.214 247.743 347.928 248.667 347.928C249.437 347.928 249.679 348.236 249.679 348.643ZM248.062 352.042C247.435 352.042 247.127 351.756 247.127 351.239C247.127 350.667 247.545 350.392 248.502 350.183C249.041 350.073 249.492 349.941 249.679 349.809V350.656C249.679 351.569 249.019 352.042 248.062 352.042Z" fill="white" fill-opacity="0.5"/>
<path d="M256.218 344.925V347.851H256.196C255.899 347.422 255.349 347.015 254.48 347.015C253.039 347.015 251.972 348.137 251.972 349.985C251.972 351.833 253.039 352.955 254.48 352.955C255.349 352.955 255.899 352.526 256.196 352.141H256.218V352.79H257.373V344.925H256.218ZM254.678 352.009C253.666 352.009 253.127 351.085 253.127 349.985C253.127 348.885 253.666 347.961 254.678 347.961C255.624 347.961 256.207 348.731 256.207 349.985C256.207 351.228 255.624 352.009 254.678 352.009Z" fill="white" fill-opacity="0.5"/>
<path d="M259.875 347.884C259.875 346.839 260.304 346.113 261.437 346.113C262.416 346.113 262.713 346.74 262.713 347.367C262.713 348.445 261.822 348.808 260.425 349.732C259.259 350.469 258.456 351.448 258.456 352.79H263.912V351.712H260.117V351.69C260.744 350.139 263.989 349.732 263.989 347.312C263.989 345.86 262.878 345.024 261.47 345.024C259.523 345.024 258.643 346.245 258.643 347.884H259.875Z" fill="white" fill-opacity="0.5"/>
<path d="M268.999 349.226H270.154C270.011 347.95 269.054 347.015 267.591 347.015C265.919 347.015 264.83 348.225 264.83 349.985C264.83 351.745 265.919 352.955 267.602 352.955C269.065 352.955 270.066 351.998 270.154 350.7H268.999C268.955 351.327 268.592 352.009 267.602 352.009C266.458 352.009 265.985 351.041 265.985 349.985C265.985 348.929 266.469 347.961 267.602 347.961C268.592 347.961 268.955 348.654 268.999 349.226Z" fill="white" fill-opacity="0.5"/>
<path d="M272.776 345.189C272.699 346.124 272.303 346.806 270.928 346.806V347.719C271.566 347.719 272.072 347.719 272.523 347.279V352.79H273.799V345.189H272.776Z" fill="white" fill-opacity="0.5"/>
</g>
<rect x="79.5" y="332.559" width="511" height="119" rx="4.5" stroke="white" stroke-opacity="0.1"/>
<g clip-path="url(#clip4)">
<rect x="79" y="468.059" width="512" height="120" rx="5" fill="black" fill-opacity="0.1"/>
<rect x="152" y="470.059" width="1" height="201" fill="white" fill-opacity="0.1"/>
<path d="M95.1777 480.059V489.354H101.366V488.041H96.7247V480.059H95.1777Z" fill="white"/>
<path d="M105.343 489.549C103.263 489.549 102.002 488.106 102.002 486.039C102.002 483.972 103.263 482.529 105.343 482.529C107.423 482.529 108.684 483.972 108.684 486.039C108.684 488.106 107.423 489.549 105.343 489.549ZM105.343 488.431C106.643 488.431 107.319 487.404 107.319 486.039C107.319 484.661 106.643 483.647 105.343 483.647C104.043 483.647 103.367 484.661 103.367 486.039C103.367 487.404 104.043 488.431 105.343 488.431Z" fill="white"/>
<path d="M113.905 484.453C113.905 485.09 113.281 485.22 112.254 485.415C110.59 485.74 109.511 486.195 109.511 487.651C109.511 488.769 110.343 489.549 111.695 489.549C112.722 489.549 113.476 489.146 113.892 488.561H113.918C114.048 489.211 114.386 489.471 115.114 489.471C115.374 489.471 115.595 489.445 115.907 489.328V488.678C115.374 488.73 115.27 488.483 115.27 488.015V484.856C115.27 483.088 114.178 482.529 112.709 482.529C110.707 482.529 109.888 483.53 109.823 484.804H111.149C111.214 483.946 111.617 483.608 112.709 483.608C113.619 483.608 113.905 483.972 113.905 484.453ZM111.994 488.47C111.253 488.47 110.889 488.132 110.889 487.521C110.889 486.845 111.383 486.52 112.514 486.273C113.151 486.143 113.684 485.987 113.905 485.831V486.832C113.905 487.911 113.125 488.47 111.994 488.47Z" fill="white"/>
<path d="M121.632 480.059V483.517H121.606C121.255 483.01 120.605 482.529 119.578 482.529C117.875 482.529 116.614 483.855 116.614 486.039C116.614 488.223 117.875 489.549 119.578 489.549C120.605 489.549 121.255 489.042 121.606 488.587H121.632V489.354H122.997V480.059H121.632ZM119.812 488.431C118.616 488.431 117.979 487.339 117.979 486.039C117.979 484.739 118.616 483.647 119.812 483.647C120.93 483.647 121.619 484.557 121.619 486.039C121.619 487.508 120.93 488.431 119.812 488.431Z" fill="white"/>
<rect x="134.998" y="482.804" width="13" height="4" rx="2" fill="#FDB515"/>
<path d="M157.167 485.04H158.322C158.179 483.764 157.222 482.829 155.759 482.829C154.087 482.829 152.998 484.039 152.998 485.799C152.998 487.559 154.087 488.769 155.77 488.769C157.233 488.769 158.234 487.812 158.322 486.514H157.167C157.123 487.141 156.76 487.823 155.77 487.823C154.626 487.823 154.153 486.855 154.153 485.799C154.153 484.743 154.637 483.775 155.77 483.775C156.76 483.775 157.123 484.468 157.167 485.04Z" fill="white" fill-opacity="0.5"/>
<path d="M162.231 488.769C164.376 488.769 165.289 486.965 165.289 484.809C165.289 482.653 164.376 480.838 162.231 480.838C160.086 480.838 159.173 482.653 159.173 484.809C159.173 486.965 160.086 488.769 162.231 488.769ZM162.231 487.68C160.889 487.68 160.438 486.393 160.438 484.809C160.438 483.225 160.889 481.927 162.231 481.927C163.573 481.927 164.013 483.225 164.013 484.809C164.013 486.393 163.573 487.68 162.231 487.68Z" fill="white" fill-opacity="0.5"/>
<path d="M168.951 487.823C167.928 487.823 167.323 487.042 167.323 486.096H171.635C171.635 484.094 170.744 482.829 168.929 482.829C167.235 482.829 166.168 483.973 166.168 485.799C166.168 487.559 167.235 488.769 168.984 488.769C170.425 488.769 171.261 487.955 171.547 486.888H170.392C170.293 487.229 169.908 487.823 168.951 487.823ZM168.929 483.742C169.864 483.742 170.48 484.369 170.48 485.238H167.323C167.323 484.369 167.994 483.742 168.929 483.742Z" fill="white" fill-opacity="0.5"/>
<path d="M176.045 484.457C176.045 484.996 175.517 485.106 174.648 485.271C173.24 485.546 172.327 485.931 172.327 487.163C172.327 488.109 173.031 488.769 174.175 488.769C175.044 488.769 175.682 488.428 176.034 487.933H176.056C176.166 488.483 176.452 488.703 177.068 488.703C177.288 488.703 177.475 488.681 177.739 488.582V488.032C177.288 488.076 177.2 487.867 177.2 487.471V484.798C177.2 483.302 176.276 482.829 175.033 482.829C173.339 482.829 172.646 483.676 172.591 484.754H173.713C173.768 484.028 174.109 483.742 175.033 483.742C175.803 483.742 176.045 484.05 176.045 484.457ZM174.428 487.856C173.801 487.856 173.493 487.57 173.493 487.053C173.493 486.481 173.911 486.206 174.868 485.997C175.407 485.887 175.858 485.755 176.045 485.623V486.47C176.045 487.383 175.385 487.856 174.428 487.856Z" fill="white" fill-opacity="0.5"/>
<path d="M179.779 484.567V484.545C179.801 483.159 180.12 481.883 181.495 481.883C182.298 481.883 182.694 482.345 182.771 482.928H184.047C183.893 481.784 182.936 480.838 181.506 480.838C179.592 480.838 178.503 482.235 178.503 484.831C178.503 487.108 179.284 488.769 181.506 488.769C183.211 488.769 184.256 487.603 184.256 486.107C184.256 484.611 183.233 483.577 181.737 483.577C180.857 483.577 180.153 483.951 179.779 484.567ZM181.462 487.724C180.45 487.724 179.845 487.097 179.845 486.195C179.845 485.26 180.516 484.622 181.528 484.622C182.397 484.622 183.013 485.205 183.013 486.173C183.013 487.097 182.441 487.724 181.462 487.724Z" fill="white" fill-opacity="0.5"/>
<path d="M188.312 488.769C190.457 488.769 191.37 486.965 191.37 484.809C191.37 482.653 190.457 480.838 188.312 480.838C186.167 480.838 185.254 482.653 185.254 484.809C185.254 486.965 186.167 488.769 188.312 488.769ZM188.312 487.68C186.97 487.68 186.519 486.393 186.519 484.809C186.519 483.225 186.97 481.927 188.312 481.927C189.654 481.927 190.094 483.225 190.094 484.809C190.094 486.393 189.654 487.68 188.312 487.68Z" fill="white" fill-opacity="0.5"/>
<path d="M196.418 485.04H197.573C197.43 483.764 196.473 482.829 195.01 482.829C193.338 482.829 192.249 484.039 192.249 485.799C192.249 487.559 193.338 488.769 195.021 488.769C196.484 488.769 197.485 487.812 197.573 486.514H196.418C196.374 487.141 196.011 487.823 195.021 487.823C193.877 487.823 193.404 486.855 193.404 485.799C193.404 484.743 193.888 483.775 195.021 483.775C196.011 483.775 196.374 484.468 196.418 485.04Z" fill="white" fill-opacity="0.5"/>
<path d="M198.237 481.003V482.081H202.219V482.103C200.866 483.302 199.37 486.096 199.37 488.604H200.712C200.712 486.184 201.878 483.412 203.605 481.971V481.003H198.237Z" fill="white" fill-opacity="0.5"/>
<rect x="215.604" y="482.803" width="13" height="4" rx="2" fill="#33C69F"/>
<path d="M235.452 481.091C235.375 482.026 234.979 482.708 233.604 482.708V483.621C234.242 483.621 234.748 483.621 235.199 483.181V488.692H236.475V481.091H235.452Z" fill="white" fill-opacity="0.5"/>
<path d="M240.976 488.857C243.121 488.857 244.034 487.053 244.034 484.897C244.034 482.741 243.121 480.926 240.976 480.926C238.831 480.926 237.918 482.741 237.918 484.897C237.918 487.053 238.831 488.857 240.976 488.857ZM240.976 487.768C239.634 487.768 239.183 486.481 239.183 484.897C239.183 483.313 239.634 482.015 240.976 482.015C242.318 482.015 242.758 483.313 242.758 484.897C242.758 486.481 242.318 487.768 240.976 487.768Z" fill="white" fill-opacity="0.5"/>
<path d="M247.861 481.773V480.827C247.63 480.783 247.377 480.75 247.091 480.75C246.167 480.75 245.661 481.168 245.661 482.356V483.071H244.858V484.017H245.661V488.692H246.827V484.017H247.861V483.071H246.827V482.455C246.827 481.817 247.113 481.74 247.861 481.773Z" fill="white" fill-opacity="0.5"/>
<path d="M252.083 484.545C252.083 485.084 251.555 485.194 250.686 485.359C249.278 485.634 248.365 486.019 248.365 487.251C248.365 488.197 249.069 488.857 250.213 488.857C251.082 488.857 251.72 488.516 252.072 488.021H252.094C252.204 488.571 252.49 488.791 253.106 488.791C253.326 488.791 253.513 488.769 253.777 488.67V488.12C253.326 488.164 253.238 487.955 253.238 487.559V484.886C253.238 483.39 252.314 482.917 251.071 482.917C249.377 482.917 248.684 483.764 248.629 484.842H249.751C249.806 484.116 250.147 483.83 251.071 483.83C251.841 483.83 252.083 484.138 252.083 484.545ZM250.466 487.944C249.839 487.944 249.531 487.658 249.531 487.141C249.531 486.569 249.949 486.294 250.906 486.085C251.445 485.975 251.896 485.843 252.083 485.711V486.558C252.083 487.471 251.423 487.944 250.466 487.944Z" fill="white" fill-opacity="0.5"/>
<path d="M258.622 480.827V483.753H258.6C258.303 483.324 257.753 482.917 256.884 482.917C255.443 482.917 254.376 484.039 254.376 485.887C254.376 487.735 255.443 488.857 256.884 488.857C257.753 488.857 258.303 488.428 258.6 488.043H258.622V488.692H259.777V480.827H258.622ZM257.082 487.911C256.07 487.911 255.531 486.987 255.531 485.887C255.531 484.787 256.07 483.863 257.082 483.863C258.028 483.863 258.611 484.633 258.611 485.887C258.611 487.13 258.028 487.911 257.082 487.911Z" fill="white" fill-opacity="0.5"/>
<path d="M262.279 483.786C262.279 482.741 262.708 482.015 263.841 482.015C264.82 482.015 265.117 482.642 265.117 483.269C265.117 484.347 264.226 484.71 262.829 485.634C261.663 486.371 260.86 487.35 260.86 488.692H266.316V487.614H262.521V487.592C263.148 486.041 266.393 485.634 266.393 483.214C266.393 481.762 265.282 480.926 263.874 480.926C261.927 480.926 261.047 482.147 261.047 483.786H262.279Z" fill="white" fill-opacity="0.5"/>
<path d="M271.403 485.128H272.558C272.415 483.852 271.458 482.917 269.995 482.917C268.323 482.917 267.234 484.127 267.234 485.887C267.234 487.647 268.323 488.857 270.006 488.857C271.469 488.857 272.47 487.9 272.558 486.602H271.403C271.359 487.229 270.996 487.911 270.006 487.911C268.862 487.911 268.389 486.943 268.389 485.887C268.389 484.831 268.873 483.863 270.006 483.863C270.996 483.863 271.359 484.556 271.403 485.128Z" fill="white" fill-opacity="0.5"/>
<path d="M275.18 481.091C275.103 482.026 274.707 482.708 273.332 482.708V483.621C273.97 483.621 274.476 483.621 274.927 483.181V488.692H276.203V481.091H275.18Z" fill="white" fill-opacity="0.5"/>
</g>
<rect x="79.5" y="468.559" width="511" height="119" rx="4.5" stroke="white" stroke-opacity="0.1"/>
<rect y="0.959473" width="649" height="7" fill="#FDB515"/>
<rect width="641" height="238" transform="translate(0 270)" fill="url(#paint1_linear)"/>
</g>
<defs>
<linearGradient id="paint0_linear" x1="148.954" y1="0.959475" x2="348.3" y2="496.577" gradientUnits="userSpaceOnUse">
<stop stop-color="white"/>
<stop offset="1" stop-color="white" stop-opacity="0.8"/>
</linearGradient>
<linearGradient id="paint1_linear" x1="320.5" y1="0" x2="320.5" y2="216" gradientUnits="userSpaceOnUse">
<stop stop-color="#0A1B2B" stop-opacity="0"/>
<stop offset="1" stop-color="#0A1B2B"/>
</linearGradient>
<clipPath id="clip0">
<rect y="0.959473" width="640" height="507" rx="8" fill="white"/>
</clipPath>
<clipPath id="clip1">
<rect x="79" y="119.059" width="512" height="61" rx="5" fill="white"/>
</clipPath>
<clipPath id="clip2">
<rect x="79" y="196.059" width="512" height="120" rx="5" fill="white"/>
</clipPath>
<clipPath id="clip3">
<rect x="79" y="332.059" width="512" height="120" rx="5" fill="white"/>
</clipPath>
<clipPath id="clip4">
<rect x="79" y="468.059" width="512" height="120" rx="5" fill="white"/>
</clipPath>
</defs>
</svg>
