<svg xmlns="http://www.w3.org/2000/svg" xmlns:xlink="http://www.w3.org/1999/xlink" width="1316" height="872"><style><![CDATA[.B{stroke-width:3}.C{fill:#fff}.D{stroke-linejoin:round}.E{font-family:LucidaGrande, Lucida Grande}.F{stroke-linecap:round}.G{font-size:24px}.H{stroke:#fbb416}.I{stroke-width:1.5}.J{mask:url(#Q)}]]></style><defs><path id="A" d="M0 872h1316.49V.333H0z"/><path id="B" d="M90.86 308.32l-1.776 2.562c-1.67 2.4-5.252 2.36-6.855-.096l-1.6-2.466s-11.026 3.47-11.026 9.3h31.985c0-5.83-10.718-9.3-10.718-9.3z"/><path id="C" d="M80.82 286.354s2.303 10.52 14.2 7.86"/><path id="D" d="M80.128 303.856s2.61 3.332 5.54 3.332 5.54-3.05 5.54-3.05"/><path id="E" d="M75.87 392.09s2.74-.195 6.065-5.167"/><path id="F" d="M80.62 504.07s.396-2.658-.116-3.73-2.052-3.568-2.215-5.83c-2.168-1.935-2.418-4.546-2.418-4.546s-1.817-8.79 6.065-11.582c6.242-3.47 15.123 2.875 13.075 11.582 0 0 .35 2.61-1.82 4.546-.163 2.26-1.702 4.756-2.215 5.83s-.116 3.73-.116 3.73"/><path id="G" d="M80.128 499.605s2.61 3.333 5.54 3.333 5.54-3.052 5.54-3.052"/><path id="H" d="M409.926 297.767a14.22 14.22 0 0 1 .37 3.232c0 7.82-6.34 14.16-14.16 14.16s-14.16-6.34-14.16-14.16 6.34-14.16 14.16-14.16a14.13 14.13 0 0 1 5.233.998"/><path id="I" d="M389.94 298.344l6.048 6.048 14.307-14.455"/><path id="J" d="M409.926 395.55a14.22 14.22 0 0 1 .37 3.231c0 7.822-6.34 14.162-14.16 14.162s-14.16-6.34-14.16-14.162 6.34-14.16 14.16-14.16a14.15 14.15 0 0 1 5.233.998"/><path id="K" d="M389.94 396.126l6.048 6.047 14.307-14.455"/><path id="L" d="M654.775 590.363a14.22 14.22 0 0 1 .371 3.231c0 7.822-6.34 14.162-14.16 14.162s-14.16-6.34-14.16-14.162 6.34-14.16 14.16-14.16c1.85 0 3.614.355 5.233.998"/><path id="M" d="M654.775 491.038a14.22 14.22 0 0 1 .371 3.232c0 7.82-6.34 14.16-14.16 14.16s-14.16-6.34-14.16-14.16 6.34-14.16 14.16-14.16c1.85 0 3.614.354 5.233.998"/><path id="N" d="M634.79 491.615l6.047 6.048 14.308-14.455"/><path id="O" d="M1155.918 395.55c.243 1.038.37 2.12.37 3.23 0 7.822-6.34 14.162-14.16 14.162s-14.16-6.34-14.16-14.162 6.34-14.16 14.16-14.16c1.848 0 3.613.355 5.232.998"/><path id="P" d="M1155.918 297.767c.243 1.038.37 2.12.37 3.232 0 7.82-6.34 14.16-14.16 14.16s-14.16-6.34-14.16-14.16 6.34-14.16 14.16-14.16c1.848 0 3.613.354 5.232.998"/></defs><g fill="none" fill-rule="evenodd"><g transform="translate(0 -.333)"><path d="M629.502 189.053h-3.9l-.006-5.166c0-.195-.1-.293-.327-.293h-5.328c-.207 0-.32.1-.32.3v5.34l-2.85.696c-.185.054-.312.223-.312.416v3.355a.43.43 0 0 0 .431.434h2.73v8.07c0 5.994 4.205 6.583 7.042 6.583a11.86 11.86 0 0 0 3.103-.511c.155-.058.245-.218.245-.392l.004-3.7a.44.44 0 0 0-.432-.435c-.228 0-.8.093-1.4.093-1.92 0-2.572-.894-2.572-2.05v-7.67h3.9c.24 0 .432-.194.432-.435v-4.2c.001-.24-.192-.434-.43-.435m57.212-.57c-2.938 0-4.936 1.3-4.936 1.3v-9.236c0-.24-.193-.435-.43-.435h-5.228c-.24.001-.43.196-.43.435v27.276c0 .24.194.437.432.437h3.628c.163 0 .286-.084.377-.232s.22-1.257.22-1.257 2.138 2.025 6.184 2.025c4.75 0 7.475-2.4 7.475-10.816s-4.35-9.507-7.3-9.507m-2.04 15.368c-1.794-.055-3-.87-3-.87v-8.638s1.2-.735 2.673-.867c1.863-.167 3.658.395 3.658 4.84 0 4.686-.8 5.6-3.32 5.535M672.6 189.085h-5.172c-.237 0-.43.196-.43.436v13.375s-1.314.96-3.18.96-2.36-.846-2.36-2.672V189.52c0-.24-.193-.436-.43-.436h-5.25c-.237 0-.43.196-.43.436v12.547c0 5.424 3.023 6.75 7.182 6.75 3.413 0 6.163-1.884 6.163-1.884s.13.993.2 1.1.214.235.38.235l3.34-.014c.236 0 .43-.196.43-.435v-18.3c0-.24-.193-.436-.432-.436m-58.09 12.997v-12.6c.001-.24-.192-.433-.432-.435h-5.195c-.24 0-.452.246-.452.485v18.04c0 .53.33.688.758.688h4.68c.514 0 .64-.253.64-.696v-5.5m.373-17.942c0-1.878-1.505-3.395-3.362-3.395s-3.36 1.517-3.36 3.395 1.507 3.395 3.36 3.395 3.362-1.52 3.362-3.395m37.874-3.58a.43.43 0 0 0-.428-.435h-5.215c-.24.001-.433.196-.432.435l.001 10.074h-8.125V180.55a.43.43 0 0 0-.428-.435h-5.214a.43.43 0 0 0-.43.435v27.276c0 .24.194.437.43.437h5.212c.238 0 .43-.197.43-.437V196.16h8.125l-.014 11.667c0 .24.194.437.432.437h5.225c.24 0 .43-.197.43-.437V180.55m-47.7 11.237H595.8c-.238 0-.432.195-.432.433v4.526c0 .24.194.433.432.434h3.612v5.623s-.8.276-3.053.276c-2.645 0-6.34-.966-6.34-9.1s3.848-9.196 7.46-9.196c3.127 0 4.474.55 5.33.815.27.084.518-.184.518-.423l1.033-4.373c0-.113-.038-.247-.166-.34-.348-.248-2.47-1.437-7.836-1.437-6.18 0-12.52 2.63-12.52 15.27s7.26 14.524 13.375 14.524c5.064 0 8.136-2.164 8.136-2.164.127-.07.14-.247.14-.33V192.22c0-.238-.194-.433-.433-.433m500.104-4.526c-.866-.885-1.807-1.562-2.805-2.033s-2.258-.696-3.708-.696c-1.167 0-2.277.207-3.312.62a8.19 8.19 0 0 0-2.711 1.751c-.8.753-1.4 1.674-1.863 2.748s-.678 2.258-.678 3.576.225 2.504.678 3.576a8.03 8.03 0 0 0 1.863 2.73c.8.753 1.713 1.356 2.748 1.77s2.165.62 3.35.62c1.26 0 2.372-.17 3.312-.527s1.75-.847 2.43-1.45c.452-.415.866-.922 1.223-1.525a8.68 8.68 0 0 0 .847-2.052h-7.962v-4.517h12.988c.076.3.13.66.188 1.1a10.12 10.12 0 0 1 .075 1.299c0 1.788-.263 3.407-.8 4.894s-1.337 2.786-2.4 3.934c-1.185 1.26-2.597 2.22-4.253 2.918s-3.558 1.035-5.685 1.035c-1.92 0-3.728-.34-5.42-1.035s-3.182-1.657-4.46-2.88c-1.262-1.223-2.26-2.673-3.012-4.348s-1.1-3.54-1.1-5.535.377-3.84 1.1-5.533 1.732-3.143 3.012-4.367c1.26-1.224 2.748-2.165 4.46-2.86s3.52-1.036 5.42-1.036c2.184 0 4.122.376 5.797 1.13a13.3 13.3 0 0 1 4.348 3.107l-3.7 3.576z" class="C"/><path d="M1138.533 199.382c0 2.315-.847 4.18-2.54 5.6-1.713 1.374-3.802 2.07-6.268 2.07-2.183 0-4.123-.64-5.797-1.92s-2.824-3.03-3.464-5.233l3.238-1.336c.226.8.526 1.506.922 2.145s.847 1.186 1.374 1.638a6.41 6.41 0 0 0 1.751 1.073 5.27 5.27 0 0 0 2.032.395c1.544 0 2.824-.395 3.803-1.204.978-.8 1.468-1.864 1.468-3.182 0-1.1-.414-2.05-1.223-2.842-.753-.753-2.184-1.506-4.274-2.22l-3.953-1.544c-2.803-1.43-4.197-3.52-4.197-6.306 0-1.938.772-3.595 2.316-4.97 1.58-1.374 3.5-2.07 5.797-2.07 2.014 0 3.765.5 5.233 1.544 1.468 1.017 2.466 2.277 2.955 3.802l-3.144 1.298a4.71 4.71 0 0 0-1.75-2.446c-.866-.66-1.94-.98-3.18-.98-1.336 0-2.447.377-3.35 1.1-.903.678-1.354 1.582-1.354 2.673 0 .904.357 1.694 1.072 2.353.8.66 2.504 1.45 5.12 2.353 2.673.903 4.593 2.033 5.74 3.35 1.1 1.317 1.675 2.936 1.675 4.856m18.802 7.07h-3.238v-2.504h-.15c-.507.885-1.317 1.62-2.37 2.222-1.073.583-2.183.885-3.332.885-2.22 0-3.915-.64-5.1-1.902s-1.8-3.068-1.8-5.402v-11.37h3.388v11.143c.075 2.955 1.563 4.423 4.46 4.423 1.356 0 2.485-.546 3.388-1.637s1.355-2.4 1.355-3.934v-9.995h3.4v18.07z" fill="#737373"/><mask id="Q" class="C"><use xlink:href="#A"/></mask><path d="M1160.988 206.44h3.388v-18.07h-3.388v18.07zm4.086-24.3a2.3 2.3 0 0 1-2.391 2.391 2.3 2.3 0 0 1-1.694-.697c-.47-.47-.697-1.035-.697-1.694s.226-1.224.697-1.693a2.3 2.3 0 0 1 1.694-.698c.658 0 1.224.227 1.693.698s.698 1.035.698 1.693zm9.712 24.602c-1.468 0-2.7-.45-3.67-1.354s-1.47-2.184-1.487-3.803v-10.108h-3.18v-3.106h3.162v-5.534H1173v5.534h4.424v3.106H1173v8.997c0 1.205.226 2.014.696 2.448s.998.64 1.582.64a3.87 3.87 0 0 0 .79-.093c.264-.057.5-.152.716-.246l1.072 3.03c-.846.32-1.88.5-3.068.5m7.263-11.52h10.372a4.49 4.49 0 0 0-1.524-3.124c-.922-.828-2.165-1.243-3.7-1.243-1.28 0-2.37.395-3.294 1.186-.94.8-1.543 1.864-1.845 3.18m5.422 11.802c-2.654 0-4.838-.904-6.57-2.73-1.713-1.826-2.58-4.123-2.58-6.9 0-2.748.83-5.045 2.504-6.87s3.802-2.748 6.418-2.748c2.673 0 4.82.866 6.4 2.598s2.37 4.16 2.37 7.284l-.037.376h-14.193c.056 1.77.64 3.2 1.77 4.274s2.485 1.618 4.066 1.618c2.164 0 3.86-1.072 5.082-3.237l3.03 1.468a9.07 9.07 0 0 1-3.37 3.576c-1.45.847-3.086 1.28-4.893 1.28" fill="#737373" class="J"/><path d="M872.15 172.9h-17.484c0 4.36 3.534 7.893 7.892 7.893h3.22v3.1c.003 4.355 3.533 7.885 7.888 7.888v-17.373a1.52 1.52 0 0 0-1.517-1.517m-8.65 8.71h-17.483c.003 4.354 3.532 7.885 7.887 7.887h3.22v3.12c.005 4.354 3.537 7.882 7.893 7.882v-17.372a1.52 1.52 0 0 0-1.518-1.517m-8.655 8.707h-17.484c0 4.36 3.534 7.893 7.892 7.893h3.23v3.1c.003 4.352 3.526 7.88 7.878 7.888v-17.373a1.52 1.52 0 0 0-1.517-1.517" class="C J"/><path d="M889.854 178.02h3.985v20.226c0 5.358-2.344 9.056-7.84 9.056a14.14 14.14 0 0 1-4.779-.755v-3.874c1.312.5 2.708.765 4.115.755 3.367 0 4.53-2.012 4.53-4.916l-.01-20.492zm9.298 29.087h3.8V184.97h-3.8v22.138zm1.947-30.64c1.37-.098 2.56.933 2.656 2.302a2.09 2.09 0 0 1 0 .354c.002 1.468-1.186 2.658-2.654 2.66s-2.657-1.188-2.658-2.656v-.004c-.098-1.37.932-2.558 2.302-2.656a2.09 2.09 0 0 1 .354 0zm7.61 8.497h3.718v3.894c1.283-2.6 3.522-4.473 7.84-4.206v3.718c-4.87-.503-7.84.976-7.84 5.665v13.08H908.7v-22.152zm22.934 19.038c3.4 0 6.465-2.17 6.465-7.084v-1.8c0-4.916-2.787-7.084-6.037-7.084-4.297 0-6.5 2.832-6.5 7.97.02 5.333 2.144 8 6.088 8h-.005zm6.465-.886c-1.42 2.924-4.075 4.428-7.482 4.428-5.886 0-8.854-5-8.854-11.512 0-6.243 3.1-11.5 9.298-11.5 3.23 0 5.7 1.46 7.043 4.336v-3.893h3.8v22.138h-3.8l-.005-3.986z" fill="#a7a9ac" class="J"/><path d="M328.56 212.115V178.42l19.4 11.206 19.312-11.206v33.616l-9.617-5.563v-11.206l-9.695 5.643-9.457-5.403c-.08.08-.16.08-.16.08s-.08 0-.08.08-.08.16-.08.16v10.73l-9.616 5.563m48.48-25.357h3.974l4.37 7.073 4.45-7.073h3.974v16.848h-3.577v-10.5c-.08 0-.16-.08-.238-.08-.636.715-1.033 1.6-1.6 2.305l-1.67 2.543h-2.782l-3.1-4.7c-.08 0-.158.08-.158.08v10.33h-3.656V186.76zm23.127 8.187c0 1.986.636 3.497 1.987 4.53 2.145 1.668 5.404 1.272 6.993-.875 1.75-2.304 1.35-5.96-.954-7.63-1.67-1.192-3.417-1.43-5.324-.556-1.748 1.033-2.623 2.702-2.702 4.53m-3.894.317c0-5.005 3.894-8.74 9.06-8.74 5.006 0 8.82 3.815 8.82 8.74 0 5.007-3.894 8.743-9.06 8.743-5.007 0-8.82-3.815-8.82-8.743m24.16 5.007h3.894c.636-.08 1.35-.397 1.907-.715 1.828-1.192 2.305-2.94 2.067-5.007-.24-1.828-1.192-3.178-2.86-3.894-1.6-.636-3.258-.477-4.927-.477-.08 3.26-.08 6.676-.08 10.093m-3.735 3.418v-16.85c.16-.08.238-.16.318-.16 2.622 0 5.245-.08 7.867.16 3.497.32 6.28 2.94 7.073 6.2.874 3.576-.477 7.152-3.417 9.06-1.5 1.033-3.258 1.43-5.007 1.5h-6.278c-.238.08-.318.16-.556.08m29.96-10.163v3.338h-7.868v3.497h9.06v3.258h-12.715v-16.77h12.556v3.26h-8.9v3.417z" class="C J"/></g><text font-size="43" letter-spacing="-.946" class="C E"><tspan x="59.178" y="73.381">A</tspan><tspan x="87.899" y="73.381">cce</tspan><tspan x="155.906" y="73.381" letter-spacing=".086">s</tspan><tspan x="177.911" y="73.381">s </tspan><tspan x="213.437" y="73.381" letter-spacing=".129">C</tspan><tspan x="243.317" y="73.381">o</tspan><tspan x="269.73" y="73.381" letter-spacing="-.43">n</tspan><tspan x="295.986" y="73.381">t</tspan><tspan x="312.069" y="73.381" letter-spacing="-.731">r</tspan><tspan x="328.933" y="73.381">ol </tspan><tspan x="381.381" y="73.381" letter-spacing="-.215">R</tspan><tspan x="408.356" y="73.381" letter-spacing="-.516">e</tspan><tspan x="431.797" y="73.381">vi</tspan><tspan x="466.482" y="73.381" letter-spacing="-.516">e</tspan><tspan x="489.923" y="73.381">w</tspan></text><text letter-spacing=".05" class="C E G"><tspan x="129.399" y="303.054">U</tspan><tspan x="146.078" y="303.054" letter-spacing=".242">s</tspan><tspan x="158.555" y="303.054">er 1</tspan></text><g class="D H I"><use xlink:href="#B"/><g class="F"><path d="M80.62 308.32s.396-2.658-.116-3.73-2.052-3.567-2.215-5.83c-2.168-1.935-2.418-4.545-2.418-4.545s-1.817-8.792 6.065-11.583c6.242-3.47 15.123 2.875 13.075 11.583 0 0 .35 2.6-1.82 4.545-.163 2.262-1.702 4.756-2.215 5.83s-.116 3.73-.116 3.73m-15-14.105s2.74-.196 6.065-5.168"/><use xlink:href="#C"/><use xlink:href="#D"/></g></g><text letter-spacing=".05" class="C E G"><tspan x="129.399" y="400.929">U</tspan><tspan x="146.078" y="400.929" letter-spacing=".242">s</tspan><tspan x="158.555" y="400.929">er 2</tspan></text><g class="D H I"><use xlink:href="#B" y="97.875"/><g class="F"><path d="M80.62 406.195s.396-2.658-.116-3.73-2.052-3.568-2.215-5.83C76.12 394.7 75.87 392.1 75.87 392.1s-1.817-8.79 6.065-11.582c6.242-3.47 15.123 2.875 13.075 11.582 0 0 .35 2.61-1.82 4.546-.163 2.26-1.702 4.756-2.215 5.83s-.116 3.73-.116 3.73"/><use xlink:href="#E"/><use xlink:href="#C" y="97.876"/><use xlink:href="#D" y="97.874"/></g></g><text letter-spacing=".05" class="C E G"><tspan x="129.399" y="498.804">U</tspan><tspan x="146.078" y="498.804" letter-spacing=".242">s</tspan><tspan x="158.555" y="498.804">er 3</tspan></text><g class="D H I"><use xlink:href="#B" y="195.75"/><g class="F"><use xlink:href="#F"/><use xlink:href="#E" y="97.874"/><use xlink:href="#C" y="195.75"/><use xlink:href="#G"/></g></g><text letter-spacing=".05" class="C E G"><tspan x="129.399" y="596.679">U</tspan><tspan x="146.078" y="596.679" letter-spacing=".242">s</tspan><tspan x="158.555" y="596.679">er 4</tspan></text><g class="D H I"><use xlink:href="#B" y="293.625"/><g class="F"><use xlink:href="#F" y="97.875"/><use xlink:href="#E" y="195.75"/><use xlink:href="#C" y="293.626"/><use xlink:href="#G" y="97.875"/></g></g><text letter-spacing=".05" class="C E G"><tspan x="129.399" y="694.553">U</tspan><tspan x="146.078" y="694.553" letter-spacing=".242">s</tspan><tspan x="158.555" y="694.553">er 5</tspan></text><g class="D H I"><path d="M90.86 699.82l-1.776 2.562c-1.67 2.4-5.252 2.36-6.855-.096l-1.6-2.466s-11.026 3.47-11.026 9.3h31.985c0-5.828-10.718-9.3-10.718-9.3z"/><g class="F"><path d="M80.62 699.82s.396-2.658-.116-3.73-2.052-3.568-2.215-5.83c-2.168-1.934-2.418-4.545-2.418-4.545s-1.817-8.8 6.065-11.582c6.242-3.47 15.123 2.875 13.075 11.582 0 0 .35 2.6-1.82 4.545-.163 2.262-1.702 4.757-2.215 5.83s-.116 3.73-.116 3.73m-15-14.106s2.74-.196 6.065-5.167"/><use xlink:href="#C" y="391.5"/><use xlink:href="#G" y="195.75"/></g></g><text letter-spacing=".05" class="C E G"><tspan x="129.399" y="792.428">U</tspan><tspan x="146.078" y="792.428" letter-spacing=".242">s</tspan><tspan x="158.555" y="792.428">er 6</tspan></text><g class="D H I"><path d="M90.86 797.695l-1.776 2.56c-1.67 2.41-5.252 2.36-6.855-.095l-1.6-2.466s-11.026 3.47-11.026 9.3h31.985c0-5.828-10.718-9.3-10.718-9.3z"/><g class="F"><path d="M80.62 797.695s.396-2.658-.116-3.73-2.052-3.568-2.215-5.83c-2.17-1.935-2.42-4.535-2.42-4.535s-1.817-8.8 6.065-11.582c6.242-3.47 15.123 2.875 13.075 11.582 0 0 .35 2.6-1.82 4.545-.163 2.262-1.702 4.757-2.215 5.83s-.116 3.73-.116 3.73M75.87 783.6s2.74-.196 6.065-5.167"/><use xlink:href="#C" y="489.376"/><use xlink:href="#G" y="293.625"/></g></g><path d="M41.912 349.167h1246M41.912 252h1246m-1246 194.333h1246m-1246 97.167h1246m-1246 97.167h1246m-1246 97.166h1246M41.912 835h1246" stroke="#233841"/><path d="M262.246 146v689m251.916-689v689M766.08 146v689m251.916-689v689m251.917-689v689" stroke="#fff"/><g class="F B"><g stroke="#33c69f"><use xlink:href="#H"/><use xlink:href="#I"/><use xlink:href="#J"/><use xlink:href="#K"/></g><g stroke="#cb4c46" class="D"><path d="M390.6 488.088l12.953 12.953"/><path d="M404.142 487.498L390.6 501.04m243.983-206.222l12.953 12.953"/><path d="M648.126 294.228l-13.543 13.543m0 84.83l12.953 12.952"/><path d="M648.126 392l-13.543 13.543M884.4 587.413l12.953 12.952"/><path d="M897.932 586.823l-13.543 13.543m-249.806 180.93l12.953 12.952"/><path d="M648.126 780.704l-13.543 13.543"/></g><g stroke="#33c69f"><use xlink:href="#J" y="194.813"/><use xlink:href="#K" y="194.814"/><use xlink:href="#H" y="391.603"/><use xlink:href="#I" y="391.603"/><use xlink:href="#L"/><path d="M634.79 590.94l6.047 6.047 14.308-14.455"/><use xlink:href="#M"/><use xlink:href="#N"/><use xlink:href="#M" y="198.332"/><use xlink:href="#N" y="198.332"/><use xlink:href="#M" x="248.941" y="198.332"/><use xlink:href="#N" x="248.942" y="198.332"/><use xlink:href="#L" x="248.941" y="193.882"/><path d="M883.732 784.822l6.047 6.047 14.308-14.455"/><use xlink:href="#L" x="248.941" y="-194.813"/><path d="M883.732 396.126l6.047 6.047 14.308-14.455"/><use xlink:href="#M" x="248.941" y="-193.271"/><use xlink:href="#N" x="248.942" y="-193.271"/><use xlink:href="#M" x="248.941"/><use xlink:href="#N" x="248.942"/><use xlink:href="#O"/><use xlink:href="#K" x="745.993"/><use xlink:href="#P"/><use xlink:href="#I" x="745.993"/><use xlink:href="#P" y="193.271"/><use xlink:href="#I" x="745.993" y="193.271"/><use xlink:href="#P" y="391.603"/><use xlink:href="#I" x="745.993" y="391.603"/><use xlink:href="#O" y="194.813"/><use xlink:href="#K" x="745.993" y="194.814"/><use xlink:href="#O" y="388.695"/><use xlink:href="#K" x="745.993" y="388.696"/></g><g stroke="#cb4c46" class="D"><path d="M390.6 781.295l12.953 12.952"/><path d="M404.142 780.704L390.6 794.247"/></g></g></g></svg>