<svg width="368" height="438" viewBox="0 0 368 438" fill="none" xmlns="http://www.w3.org/2000/svg">
<path d="M1 65C1 63.3431 2.34315 62 4 62H185.878H189.551H193.224H356C357.657 62 359 63.3431 359 65V177C359 178.657 357.657 180 356 180H4.00001C2.34315 180 1 178.657 1 177V65Z" fill="#0A1B2B" stroke="#33C69F" stroke-width="2"/>
<path d="M13.13 90.705L15.444 100H17.082L18.98 92.72H19.006L20.917 100H22.542L24.869 90.705H23.283L21.697 97.907H21.671L19.786 90.705H18.2L16.328 97.907H16.302L14.716 90.705H13.13ZM28.1988 100.195C26.1188 100.195 24.8578 98.752 24.8578 96.685C24.8578 94.618 26.1188 93.175 28.1988 93.175C30.2788 93.175 31.5398 94.618 31.5398 96.685C31.5398 98.752 30.2788 100.195 28.1988 100.195ZM28.1988 99.077C29.4988 99.077 30.1748 98.05 30.1748 96.685C30.1748 95.307 29.4988 94.293 28.1988 94.293C26.8988 94.293 26.2228 95.307 26.2228 96.685C26.2228 98.05 26.8988 99.077 28.1988 99.077ZM35.9022 93.201C35.0312 93.201 34.4852 93.773 34.1342 94.605H34.1082V93.357H32.7432V100H34.1082V96.607C34.1082 95.19 35.1612 94.306 36.4742 94.527H36.5002V93.24C36.3052 93.214 36.1362 93.201 35.9022 93.201ZM37.637 90.705V100H39.002V97.595L39.925 96.724L42.018 100H43.656L40.861 95.827L43.383 93.357H41.706L39.002 96.022V90.705H37.637ZM47.6443 91.823V90.705C47.3713 90.653 47.0723 90.614 46.7343 90.614C45.6423 90.614 45.0443 91.108 45.0443 92.512V93.357H44.0953V94.475H45.0443V100H46.4223V94.475H47.6443V93.357H46.4223V92.629C46.4223 91.875 46.7603 91.784 47.6443 91.823ZM51.608 100.195C49.528 100.195 48.267 98.752 48.267 96.685C48.267 94.618 49.528 93.175 51.608 93.175C53.688 93.175 54.949 94.618 54.949 96.685C54.949 98.752 53.688 100.195 51.608 100.195ZM51.608 99.077C52.908 99.077 53.584 98.05 53.584 96.685C53.584 95.307 52.908 94.293 51.608 94.293C50.308 94.293 49.632 95.307 49.632 96.685C49.632 98.05 50.308 99.077 51.608 99.077ZM59.3114 93.201C58.4404 93.201 57.8944 93.773 57.5434 94.605H57.5174V93.357H56.1524V100H57.5174V96.607C57.5174 95.19 58.5704 94.306 59.8834 94.527H59.9094V93.24C59.7144 93.214 59.5454 93.201 59.3114 93.201ZM65.4064 95.788H66.7714C66.6024 94.28 65.4714 93.175 63.7424 93.175C61.7664 93.175 60.4794 94.605 60.4794 96.685C60.4794 98.765 61.7664 100.195 63.7554 100.195C65.4844 100.195 66.6674 99.064 66.7714 97.53H65.4064C65.3544 98.271 64.9254 99.077 63.7554 99.077C62.4034 99.077 61.8444 97.933 61.8444 96.685C61.8444 95.437 62.4164 94.293 63.7554 94.293C64.9254 94.293 65.3544 95.112 65.4064 95.788ZM70.8711 99.077C69.6621 99.077 68.9471 98.154 68.9471 97.036H74.0431C74.0431 94.67 72.9901 93.175 70.8451 93.175C68.8431 93.175 67.5821 94.527 67.5821 96.685C67.5821 98.765 68.8431 100.195 70.9101 100.195C72.6131 100.195 73.6011 99.233 73.9391 97.972H72.5741C72.4571 98.375 72.0021 99.077 70.8711 99.077ZM70.8451 94.254C71.9501 94.254 72.6781 94.995 72.6781 96.022H68.9471C68.9471 94.995 69.7401 94.254 70.8451 94.254ZM81.6406 94.462C80.3406 94.137 79.4696 93.955 79.4696 92.941C79.4696 92.252 80.1326 91.836 81.2376 91.836C82.5246 91.836 83.2006 92.408 83.3436 93.487H84.8906C84.7606 91.576 83.2786 90.51 81.2376 90.51C79.2096 90.51 77.9356 91.433 77.9356 93.084C77.9356 94.852 79.5086 95.411 80.9646 95.775C82.7976 96.23 83.5906 96.438 83.5906 97.543C83.5906 98.258 83.0576 98.869 81.6796 98.869C80.0156 98.869 79.2096 98.089 79.1316 96.906H77.5846C77.6756 99.012 79.4046 100.195 81.6796 100.195C84.0196 100.195 85.1376 98.96 85.1376 97.478C85.1376 95.398 83.6296 94.969 81.6406 94.462ZM89.4246 99.077C88.2156 99.077 87.5006 98.154 87.5006 97.036H92.5966C92.5966 94.67 91.5436 93.175 89.3986 93.175C87.3966 93.175 86.1356 94.527 86.1356 96.685C86.1356 98.765 87.3966 100.195 89.4636 100.195C91.1666 100.195 92.1546 99.233 92.4926 97.972H91.1276C91.0106 98.375 90.5556 99.077 89.4246 99.077ZM89.3986 94.254C90.5036 94.254 91.2316 94.995 91.2316 96.022H87.5006C87.5006 94.995 88.2936 94.254 89.3986 94.254ZM98.3685 95.788H99.7335C99.5645 94.28 98.4335 93.175 96.7045 93.175C94.7285 93.175 93.4415 94.605 93.4415 96.685C93.4415 98.765 94.7285 100.195 96.7175 100.195C98.4465 100.195 99.6295 99.064 99.7335 97.53H98.3685C98.3165 98.271 97.8875 99.077 96.7175 99.077C95.3655 99.077 94.8065 97.933 94.8065 96.685C94.8065 95.437 95.3785 94.293 96.7175 94.293C97.8875 94.293 98.3165 95.112 98.3685 95.788ZM105.263 93.357V97.4C105.263 98.388 104.587 99.025 103.534 99.025C102.598 99.025 102.221 98.453 102.221 97.556V93.357H100.843V97.946C100.843 99.467 101.818 100.182 103.053 100.182C104.197 100.182 104.886 99.662 105.237 99.142H105.263V100H106.628V93.357H105.263ZM111.347 93.201C110.476 93.201 109.93 93.773 109.579 94.605H109.553V93.357H108.188V100H109.553V96.607C109.553 95.19 110.606 94.306 111.919 94.527H111.945V93.24C111.75 93.214 111.581 93.201 111.347 93.201ZM113.849 92.239C114.252 92.239 114.629 91.979 114.629 91.511C114.629 91.043 114.252 90.796 113.849 90.796C113.472 90.796 113.082 91.043 113.082 91.511C113.082 91.979 113.472 92.239 113.849 92.239ZM113.173 93.357V100H114.538V93.357H113.173ZM119.358 94.475V93.357H118.11V91.264H116.732V93.357H115.77V94.475H116.732V98.193C116.732 99.597 117.33 100.091 118.422 100.091C118.786 100.091 119.085 100.052 119.358 99.987V98.869C118.474 98.921 118.11 98.83 118.11 98.076V94.475H119.358ZM126.537 93.357H125.081L123.378 98.44H123.352L121.493 93.357H120.024L122.429 99.324C122.676 99.948 122.494 100.468 122.247 100.767C121.948 101.131 121.519 101.17 120.947 101.092H120.83V102.132C121.09 102.197 121.415 102.262 121.805 102.262C123.079 102.262 123.508 101.443 123.885 100.416L126.537 93.357Z" fill="white"/>
<path d="M365.22 64.1101C365.22 59.1064 361.114 55 356.11 55C351.073 55 347 59.1117 347 64.1101C347 69.1424 351.078 73.2201 356.11 73.2201C361.108 73.2201 365.22 69.1476 365.22 64.1101Z" fill="#33C69F" stroke="#0A1B2B" stroke-width="4"/>
<path d="M16.85 83.15C19 83.15 20.36 81.57 20.36 79.42C20.36 77.27 19 75.7 16.85 75.7C14.69 75.7 13.34 77.27 13.34 79.42C13.34 81.57 14.69 83.15 16.85 83.15ZM16.85 82.13C15.21 82.13 14.52 80.87 14.52 79.42C14.52 77.98 15.21 76.72 16.85 76.72C18.49 76.72 19.17 77.98 19.17 79.42C19.17 80.87 18.49 82.13 16.85 82.13ZM26.8953 77.65C26.8953 76.5 26.0453 75.85 24.5753 75.85H21.5053V83H24.7453C26.2253 83 27.1753 82.29 27.1753 80.91C27.1753 79.84 26.5353 79.29 25.7853 79.16V79.14C26.3753 78.94 26.8953 78.53 26.8953 77.65ZM22.6953 78.81V76.86H24.6053C25.3153 76.86 25.7053 77.21 25.7053 77.84C25.7053 78.47 25.3853 78.81 24.5353 78.81H22.6953ZM22.6953 79.7H24.7853C25.5353 79.7 25.9853 80.11 25.9853 80.84C25.9853 81.51 25.6753 81.99 24.6553 81.99H22.6953V79.7ZM32.2185 80.76V75.85H31.0385V80.76C31.0385 81.56 30.8785 82.13 29.9885 82.13C29.0885 82.13 28.9485 81.56 28.9485 80.76V80.43H27.8185V80.76C27.8185 81.99 28.2985 83.15 30.0185 83.15C31.7385 83.15 32.2185 81.99 32.2185 80.76ZM34.7457 78.8V76.86H38.7257V75.85H33.5557V83H38.8257V81.99H34.7457V79.82H38.2357V78.8H34.7457ZM44.8295 78.31H46.0195C45.8495 76.85 44.7495 75.7 42.9395 75.7C40.8795 75.7 39.5795 77.27 39.5795 79.42C39.5795 81.58 40.8795 83.15 42.9395 83.15C44.7595 83.15 45.8595 82 46.0195 80.39H44.8295C44.7495 81.26 44.2395 82.13 42.9095 82.13C41.3695 82.13 40.7595 80.84 40.7595 79.42C40.7595 78.01 41.3695 76.72 42.9095 76.72C44.2295 76.72 44.6995 77.59 44.8295 78.31ZM48.7556 83H49.9456V76.86H52.2256V75.85H46.4656V76.86H48.7556V83ZM53.2577 75.85V83H54.4477V75.85H53.2577ZM55.3291 75.85L57.7691 83H59.0591L61.4991 75.85H60.2391L58.4191 81.7H58.4091L56.5891 75.85H55.3291ZM63.5582 78.8V76.86H67.5382V75.85H62.3682V83H67.6382V81.99H63.5582V79.82H67.0482V78.8H63.5582ZM70.9127 83H72.1027V80.14H73.9527C75.3227 80.14 76.3127 79.49 76.3127 77.99C76.3127 76.49 75.3227 75.85 73.9527 75.85H70.9127V83ZM72.1027 76.86H73.9027C74.7027 76.86 75.1227 77.21 75.1227 77.99C75.1227 78.78 74.7027 79.12 73.9027 79.12H72.1027V76.86ZM78.4941 78.8V76.86H82.4741V75.85H77.3041V83H82.5741V81.99H78.4941V79.82H81.9841V78.8H78.4941ZM83.7444 83H84.9344V80.24H86.6844C88.4044 80.24 87.7344 82.7 88.0644 83H89.3144V82.93C88.9344 82.81 89.5344 80.01 87.8844 79.7V79.68C88.7044 79.48 89.2144 78.9 89.2144 77.9C89.2144 76.6 88.2644 75.85 86.7944 75.85H83.7444V83ZM84.9344 76.86H86.5444C87.2744 76.86 88.0344 77.01 88.0344 78.04C88.0344 79.08 87.2744 79.22 86.5444 79.22H84.9344V76.86ZM91.5797 78.94V76.86H95.3897V75.85H90.3897V83H91.5797V79.96H94.6697V78.94H91.5797ZM99.4938 83.15C101.644 83.15 103.004 81.57 103.004 79.42C103.004 77.27 101.644 75.7 99.4938 75.7C97.3338 75.7 95.9838 77.27 95.9838 79.42C95.9838 81.57 97.3338 83.15 99.4938 83.15ZM99.4938 82.13C97.8538 82.13 97.1638 80.87 97.1638 79.42C97.1638 77.98 97.8538 76.72 99.4938 76.72C101.134 76.72 101.814 77.98 101.814 79.42C101.814 80.87 101.134 82.13 99.4938 82.13ZM104.149 83H105.339V80.24H107.089C108.809 80.24 108.139 82.7 108.469 83H109.719V82.93C109.339 82.81 109.939 80.01 108.289 79.7V79.68C109.109 79.48 109.619 78.9 109.619 77.9C109.619 76.6 108.669 75.85 107.199 75.85H104.149V83ZM105.339 76.86H106.949C107.679 76.86 108.439 77.01 108.439 78.04C108.439 79.08 107.679 79.22 106.949 79.22H105.339V76.86ZM110.794 83H111.954V77.58H111.974L113.864 83H114.814L116.704 77.58H116.724V83H117.884V75.85H116.344L114.354 81.35H114.334L112.334 75.85H110.794V83ZM123.436 81.31L124.016 83H125.226L122.606 75.85H121.356L118.726 83H119.936L120.516 81.31H123.436ZM120.846 80.32L121.976 76.94H121.996L123.116 80.32H120.846ZM126.106 83H127.296V77.65H127.316L130.546 83H131.866V75.85H130.676V81.22H130.656L127.436 75.85H126.106V83ZM138.318 78.31H139.508C139.338 76.85 138.238 75.7 136.428 75.7C134.368 75.7 133.068 77.27 133.068 79.42C133.068 81.58 134.368 83.15 136.428 83.15C138.248 83.15 139.348 82 139.508 80.39H138.318C138.238 81.26 137.728 82.13 136.398 82.13C134.858 82.13 134.248 80.84 134.248 79.42C134.248 78.01 134.858 76.72 136.398 76.72C137.718 76.72 138.188 77.59 138.318 78.31ZM141.779 78.8V76.86H145.759V75.85H140.589V83H145.859V81.99H141.779V79.82H145.269V78.8H141.779Z" fill="white" fill-opacity="0.5"/>
<rect opacity="0.2" x="5" y="141" width="5.03738" height="38" fill="#33C69F"/>
<rect opacity="0.2" x="12.1963" y="158" width="5.03738" height="21" fill="#33C69F"/>
<rect opacity="0.2" x="19.3926" y="137" width="5.03738" height="42" fill="#33C69F"/>
<rect opacity="0.2" x="26.5889" y="125" width="5.03738" height="54" fill="#33C69F"/>
<rect opacity="0.2" x="33.7852" y="135" width="5.03738" height="44" fill="#33C69F"/>
<rect opacity="0.2" x="40.9814" y="141" width="5.03738" height="38" fill="#33C69F"/>
<rect x="48.1777" y="147" width="5.03738" height="32" fill="#33C69F"/>
<rect opacity="0.2" x="55.374" y="143" width="5.03738" height="36" fill="#33C69F"/>
<rect opacity="0.2" x="62.5703" y="145" width="5.03738" height="34" fill="#33C69F"/>
<rect opacity="0.2" x="69.7666" y="125" width="5.03738" height="54" fill="#33C69F"/>
<rect opacity="0.2" x="76.9629" y="118" width="5.03738" height="61" fill="#33C69F"/>
<rect opacity="0.2" x="84" y="141" width="5.03738" height="38" fill="#33C69F"/>
<rect opacity="0.2" x="91.1963" y="158" width="5.03738" height="21" fill="#33C69F"/>
<rect opacity="0.2" x="98.3926" y="137" width="5.03738" height="42" fill="#33C69F"/>
<rect opacity="0.2" x="105.589" y="125" width="5.03738" height="54" fill="#33C69F"/>
<rect opacity="0.2" x="112.785" y="135" width="5.03738" height="44" fill="#33C69F"/>
<rect opacity="0.2" x="119.981" y="141" width="5.03738" height="38" fill="#33C69F"/>
<rect opacity="0.2" x="127.178" y="147" width="5.03738" height="32" fill="#33C69F"/>
<rect opacity="0.2" x="134.374" y="143" width="5.03738" height="36" fill="#33C69F"/>
<rect opacity="0.2" x="141.57" y="145" width="5.03738" height="34" fill="#33C69F"/>
<rect opacity="0.2" x="163.178" y="147" width="5.03738" height="32" fill="#33C69F"/>
<rect opacity="0.2" x="170.374" y="143" width="5.03738" height="36" fill="#33C69F"/>
<rect opacity="0.2" x="148.767" y="125" width="5.03738" height="54" fill="#33C69F"/>
<rect opacity="0.2" x="155.963" y="118" width="5.03738" height="61" fill="#33C69F"/>
<line x1="13" y1="180.5" x2="178" y2="180.5" stroke="white" stroke-opacity="0.2"/>
<line x1="180" y1="127.5" x2="359" y2="127.5" stroke="white" stroke-opacity="0.2"/>
<line x1="300.5" y1="181" x2="300.5" y2="62" stroke="white" stroke-opacity="0.1"/>
<line x1="179.5" y1="181" x2="179.5" y2="64" stroke="white" stroke-opacity="0.1"/>
<path d="M197.584 137.132L191.533 151.541C190.502 153.997 187.059 154.097 185.888 151.705C184.442 148.753 180 149.782 180 153.069V178H359V127.457C359 123.336 354.174 121.105 351.035 123.775C350.427 124.292 349.957 124.951 349.666 125.693L343.973 140.22C343.071 142.522 340.622 143.819 338.211 143.272L335.358 142.625C334.169 142.355 332.923 142.529 331.853 143.114L328.125 145.153C326.362 146.117 324.192 145.931 322.618 144.682L316.324 139.686L309.185 135.015C308.809 134.769 308.469 134.474 308.172 134.138L303.833 129.217C301.723 126.824 297.943 126.992 296.054 129.563L291.225 136.134C290.968 136.484 290.757 136.866 290.599 137.27L286.841 146.86C285.23 150.969 279.474 151.129 277.638 147.115L274.242 139.686L268.502 123.995C267.281 120.657 263.066 119.623 260.439 122.017L258.361 123.91C257.888 124.341 257.503 124.858 257.225 125.434L249.918 140.582C248.894 142.706 246.525 143.825 244.234 143.269L241.666 142.644C240.504 142.362 239.278 142.506 238.213 143.049L233.837 145.282C232.093 146.173 229.989 145.963 228.456 144.745L222.083 139.686L215.016 135.062C214.593 134.785 214.214 134.446 213.893 134.056L210.304 129.695C208.189 127.125 204.202 127.3 202.32 130.044L198.07 136.24C197.878 136.52 197.715 136.819 197.584 137.132Z" fill="#33C69F" fill-opacity="0.1"/>
<path d="M359 126.617V126.617C359 122.833 354.564 120.788 351.687 123.246L351.031 123.805C350.426 124.322 349.958 124.981 349.668 125.722L343.971 140.319C343.07 142.626 340.617 143.926 338.203 143.377L335.365 142.73C334.172 142.459 332.921 142.634 331.849 143.223L328.134 145.262C326.366 146.232 324.188 146.046 322.611 144.789L316.324 139.778L309.185 135.087C308.809 134.841 308.469 134.545 308.173 134.208L303.84 129.274C301.73 126.871 297.937 127.04 296.048 129.621L291.223 136.214C290.967 136.564 290.758 136.945 290.6 137.349L286.843 146.975C285.236 151.093 279.467 151.252 277.635 147.229L274.242 139.778L268.502 124.023C267.283 120.677 263.056 119.642 260.429 122.046L258.359 123.94C257.888 124.371 257.504 124.888 257.227 125.464L249.917 140.68C248.894 142.81 246.52 143.933 244.225 143.373L241.673 142.75C240.506 142.465 239.276 142.61 238.207 143.158L233.846 145.392C232.097 146.288 229.986 146.077 228.45 144.852L222.083 139.778L215.015 135.135C214.593 134.857 214.214 134.517 213.894 134.126L210.311 129.754C208.196 127.175 204.196 127.35 202.315 130.104L198.069 136.32C197.878 136.6 197.716 136.898 197.585 137.211L191.534 151.68C190.505 154.14 187.056 154.24 185.887 151.843L185.771 151.606C184.357 148.709 180 149.715 180 152.938V152.938" stroke="#33C69F"/>
<circle opacity="0.1" cx="300.5" cy="127.5" r="4.5" fill="#33C69F"/>
<circle cx="300.5" cy="127.5" r="2.5" fill="#33C69F"/>
<path d="M1 192C1 190.343 2.34315 189 4 189H185.878H189.551H193.224H356C357.657 189 359 190.343 359 192V304C359 305.657 357.657 307 356 307H4.00001C2.34315 307 1 305.657 1 304V192Z" fill="#0A1B2B" stroke="#EB5757" stroke-width="2"/>
<path d="M366.178 196.62L366.174 196.614L366.171 196.608L360.749 186.827L360.749 186.827L360.747 186.822C359.794 185.119 357.249 184.997 356.248 186.832L350.832 196.603C350.831 196.604 350.831 196.605 350.83 196.606C349.9 198.274 351.043 200.5 353.09 200.5H363.91C365.959 200.5 367.089 198.302 366.178 196.62ZM358.972 196.372C358.972 196.372 358.972 196.373 358.972 196.373C358.972 196.54 358.826 196.794 358.511 196.794C358.348 196.794 358.228 196.723 358.162 196.654C358.097 196.586 358.05 196.488 358.05 196.373C358.05 196.373 358.05 196.372 358.05 196.372H358.511H358.972Z" fill="#EB5757" stroke="#0A1B2B" stroke-width="3"/>
<path d="M13.793 227H17.446C20.02 227 21.541 225.349 21.541 222.359C21.541 219.369 19.968 217.705 17.407 217.705H13.793V227ZM15.34 219.018H17.329C19.409 219.018 19.994 220.578 19.994 222.359C19.994 224.14 19.409 225.687 17.329 225.687H15.34V219.018ZM25.8363 226.077C24.6273 226.077 23.9123 225.154 23.9123 224.036H29.0083C29.0083 221.67 27.9553 220.175 25.8103 220.175C23.8083 220.175 22.5473 221.527 22.5473 223.685C22.5473 225.765 23.8083 227.195 25.8753 227.195C27.5783 227.195 28.5663 226.233 28.9043 224.972H27.5393C27.4223 225.375 26.9673 226.077 25.8363 226.077ZM25.8103 221.254C26.9153 221.254 27.6433 221.995 27.6433 223.022H23.9123C23.9123 221.995 24.7053 221.254 25.8103 221.254ZM29.4018 220.357L31.7548 227H33.3018L35.6548 220.357H34.2118L32.5348 225.557H32.5218L30.8448 220.357H29.4018ZM37.3376 219.239C37.7406 219.239 38.1176 218.979 38.1176 218.511C38.1176 218.043 37.7406 217.796 37.3376 217.796C36.9606 217.796 36.5706 218.043 36.5706 218.511C36.5706 218.979 36.9606 219.239 37.3376 219.239ZM36.6616 220.357V227H38.0266V220.357H36.6616ZM44.2504 222.788H45.6154C45.4464 221.28 44.3154 220.175 42.5864 220.175C40.6104 220.175 39.3234 221.605 39.3234 223.685C39.3234 225.765 40.6104 227.195 42.5994 227.195C44.3284 227.195 45.5114 226.064 45.6154 224.53H44.2504C44.1984 225.271 43.7694 226.077 42.5994 226.077C41.2474 226.077 40.6884 224.933 40.6884 223.685C40.6884 222.437 41.2604 221.293 42.5994 221.293C43.7694 221.293 44.1984 222.112 44.2504 222.788ZM49.7151 226.077C48.5061 226.077 47.7911 225.154 47.7911 224.036H52.8871C52.8871 221.67 51.8341 220.175 49.6891 220.175C47.6871 220.175 46.4261 221.527 46.4261 223.685C46.4261 225.765 47.6871 227.195 49.7541 227.195C51.4571 227.195 52.4451 226.233 52.7831 224.972H51.4181C51.3011 225.375 50.8461 226.077 49.7151 226.077ZM49.6891 221.254C50.7941 221.254 51.5221 221.995 51.5221 223.022H47.7911C47.7911 221.995 48.5841 221.254 49.6891 221.254ZM60.4846 221.462C59.1846 221.137 58.3136 220.955 58.3136 219.941C58.3136 219.252 58.9766 218.836 60.0816 218.836C61.3686 218.836 62.0446 219.408 62.1876 220.487H63.7346C63.6046 218.576 62.1226 217.51 60.0816 217.51C58.0536 217.51 56.7796 218.433 56.7796 220.084C56.7796 221.852 58.3526 222.411 59.8086 222.775C61.6416 223.23 62.4346 223.438 62.4346 224.543C62.4346 225.258 61.9016 225.869 60.5236 225.869C58.8596 225.869 58.0536 225.089 57.9756 223.906H56.4286C56.5196 226.012 58.2486 227.195 60.5236 227.195C62.8636 227.195 63.9816 225.96 63.9816 224.478C63.9816 222.398 62.4736 221.969 60.4846 221.462ZM68.2686 226.077C67.0596 226.077 66.3446 225.154 66.3446 224.036H71.4406C71.4406 221.67 70.3876 220.175 68.2426 220.175C66.2406 220.175 64.9796 221.527 64.9796 223.685C64.9796 225.765 66.2406 227.195 68.3076 227.195C70.0106 227.195 70.9986 226.233 71.3366 224.972H69.9716C69.8546 225.375 69.3996 226.077 68.2686 226.077ZM68.2426 221.254C69.3476 221.254 70.0756 221.995 70.0756 223.022H66.3446C66.3446 221.995 67.1376 221.254 68.2426 221.254ZM77.2125 222.788H78.5775C78.4085 221.28 77.2775 220.175 75.5485 220.175C73.5725 220.175 72.2855 221.605 72.2855 223.685C72.2855 225.765 73.5725 227.195 75.5615 227.195C77.2905 227.195 78.4735 226.064 78.5775 224.53H77.2125C77.1605 225.271 76.7315 226.077 75.5615 226.077C74.2095 226.077 73.6505 224.933 73.6505 223.685C73.6505 222.437 74.2225 221.293 75.5615 221.293C76.7315 221.293 77.1605 222.112 77.2125 222.788ZM84.1073 220.357V224.4C84.1073 225.388 83.4313 226.025 82.3783 226.025C81.4423 226.025 81.0653 225.453 81.0653 224.556V220.357H79.6873V224.946C79.6873 226.467 80.6623 227.182 81.8973 227.182C83.0413 227.182 83.7303 226.662 84.0813 226.142H84.1073V227H85.4723V220.357H84.1073ZM90.1915 220.201C89.3205 220.201 88.7745 220.773 88.4235 221.605H88.3975V220.357H87.0325V227H88.3975V223.607C88.3975 222.19 89.4505 221.306 90.7635 221.527H90.7895V220.24C90.5945 220.214 90.4255 220.201 90.1915 220.201ZM92.6933 219.239C93.0963 219.239 93.4733 218.979 93.4733 218.511C93.4733 218.043 93.0963 217.796 92.6933 217.796C92.3163 217.796 91.9263 218.043 91.9263 218.511C91.9263 218.979 92.3163 219.239 92.6933 219.239ZM92.0173 220.357V227H93.3823V220.357H92.0173ZM98.202 221.475V220.357H96.954V218.264H95.576V220.357H94.614V221.475H95.576V225.193C95.576 226.597 96.174 227.091 97.266 227.091C97.63 227.091 97.929 227.052 98.202 226.987V225.869C97.318 225.921 96.954 225.83 96.954 225.076V221.475H98.202ZM105.381 220.357H103.925L102.222 225.44H102.196L100.337 220.357H98.8675L101.273 226.324C101.52 226.948 101.338 227.468 101.091 227.767C100.792 228.131 100.363 228.17 99.7905 228.092H99.6735V229.132C99.9335 229.197 100.259 229.262 100.649 229.262C101.923 229.262 102.352 228.443 102.729 227.416L105.381 220.357Z" fill="white"/>
<path d="M16.85 210.15C19 210.15 20.36 208.57 20.36 206.42C20.36 204.27 19 202.7 16.85 202.7C14.69 202.7 13.34 204.27 13.34 206.42C13.34 208.57 14.69 210.15 16.85 210.15ZM16.85 209.13C15.21 209.13 14.52 207.87 14.52 206.42C14.52 204.98 15.21 203.72 16.85 203.72C18.49 203.72 19.17 204.98 19.17 206.42C19.17 207.87 18.49 209.13 16.85 209.13ZM26.8953 204.65C26.8953 203.5 26.0453 202.85 24.5753 202.85H21.5053V210H24.7453C26.2253 210 27.1753 209.29 27.1753 207.91C27.1753 206.84 26.5353 206.29 25.7853 206.16V206.14C26.3753 205.94 26.8953 205.53 26.8953 204.65ZM22.6953 205.81V203.86H24.6053C25.3153 203.86 25.7053 204.21 25.7053 204.84C25.7053 205.47 25.3853 205.81 24.5353 205.81H22.6953ZM22.6953 206.7H24.7853C25.5353 206.7 25.9853 207.11 25.9853 207.84C25.9853 208.51 25.6753 208.99 24.6553 208.99H22.6953V206.7ZM32.2185 207.76V202.85H31.0385V207.76C31.0385 208.56 30.8785 209.13 29.9885 209.13C29.0885 209.13 28.9485 208.56 28.9485 207.76V207.43H27.8185V207.76C27.8185 208.99 28.2985 210.15 30.0185 210.15C31.7385 210.15 32.2185 208.99 32.2185 207.76ZM34.7457 205.8V203.86H38.7257V202.85H33.5557V210H38.8257V208.99H34.7457V206.82H38.2357V205.8H34.7457ZM44.8295 205.31H46.0195C45.8495 203.85 44.7495 202.7 42.9395 202.7C40.8795 202.7 39.5795 204.27 39.5795 206.42C39.5795 208.58 40.8795 210.15 42.9395 210.15C44.7595 210.15 45.8595 209 46.0195 207.39H44.8295C44.7495 208.26 44.2395 209.13 42.9095 209.13C41.3695 209.13 40.7595 207.84 40.7595 206.42C40.7595 205.01 41.3695 203.72 42.9095 203.72C44.2295 203.72 44.6995 204.59 44.8295 205.31ZM48.7556 210H49.9456V203.86H52.2256V202.85H46.4656V203.86H48.7556V210ZM53.2577 202.85V210H54.4477V202.85H53.2577ZM55.3291 202.85L57.7691 210H59.0591L61.4991 202.85H60.2391L58.4191 208.7H58.4091L56.5891 202.85H55.3291ZM63.5582 205.8V203.86H67.5382V202.85H62.3682V210H67.6382V208.99H63.5582V206.82H67.0482V205.8H63.5582ZM70.9127 210H72.1027V207.14H73.9527C75.3227 207.14 76.3127 206.49 76.3127 204.99C76.3127 203.49 75.3227 202.85 73.9527 202.85H70.9127V210ZM72.1027 203.86H73.9027C74.7027 203.86 75.1227 204.21 75.1227 204.99C75.1227 205.78 74.7027 206.12 73.9027 206.12H72.1027V203.86ZM78.4941 205.8V203.86H82.4741V202.85H77.3041V210H82.5741V208.99H78.4941V206.82H81.9841V205.8H78.4941ZM83.7444 210H84.9344V207.24H86.6844C88.4044 207.24 87.7344 209.7 88.0644 210H89.3144V209.93C88.9344 209.81 89.5344 207.01 87.8844 206.7V206.68C88.7044 206.48 89.2144 205.9 89.2144 204.9C89.2144 203.6 88.2644 202.85 86.7944 202.85H83.7444V210ZM84.9344 203.86H86.5444C87.2744 203.86 88.0344 204.01 88.0344 205.04C88.0344 206.08 87.2744 206.22 86.5444 206.22H84.9344V203.86ZM91.5797 205.94V203.86H95.3897V202.85H90.3897V210H91.5797V206.96H94.6697V205.94H91.5797ZM99.4938 210.15C101.644 210.15 103.004 208.57 103.004 206.42C103.004 204.27 101.644 202.7 99.4938 202.7C97.3338 202.7 95.9838 204.27 95.9838 206.42C95.9838 208.57 97.3338 210.15 99.4938 210.15ZM99.4938 209.13C97.8538 209.13 97.1638 207.87 97.1638 206.42C97.1638 204.98 97.8538 203.72 99.4938 203.72C101.134 203.72 101.814 204.98 101.814 206.42C101.814 207.87 101.134 209.13 99.4938 209.13ZM104.149 210H105.339V207.24H107.089C108.809 207.24 108.139 209.7 108.469 210H109.719V209.93C109.339 209.81 109.939 207.01 108.289 206.7V206.68C109.109 206.48 109.619 205.9 109.619 204.9C109.619 203.6 108.669 202.85 107.199 202.85H104.149V210ZM105.339 203.86H106.949C107.679 203.86 108.439 204.01 108.439 205.04C108.439 206.08 107.679 206.22 106.949 206.22H105.339V203.86ZM110.794 210H111.954V204.58H111.974L113.864 210H114.814L116.704 204.58H116.724V210H117.884V202.85H116.344L114.354 208.35H114.334L112.334 202.85H110.794V210ZM123.436 208.31L124.016 210H125.226L122.606 202.85H121.356L118.726 210H119.936L120.516 208.31H123.436ZM120.846 207.32L121.976 203.94H121.996L123.116 207.32H120.846ZM126.106 210H127.296V204.65H127.316L130.546 210H131.866V202.85H130.676V208.22H130.656L127.436 202.85H126.106V210ZM138.318 205.31H139.508C139.338 203.85 138.238 202.7 136.428 202.7C134.368 202.7 133.068 204.27 133.068 206.42C133.068 208.58 134.368 210.15 136.428 210.15C138.248 210.15 139.348 209 139.508 207.39H138.318C138.238 208.26 137.728 209.13 136.398 209.13C134.858 209.13 134.248 207.84 134.248 206.42C134.248 205.01 134.858 203.72 136.398 203.72C137.718 203.72 138.188 204.59 138.318 205.31ZM141.779 205.8V203.86H145.759V202.85H140.589V210H145.859V208.99H141.779V206.82H145.269V205.8H141.779Z" fill="white" fill-opacity="0.5"/>
<rect opacity="0.2" x="5" y="268" width="5.03738" height="38" fill="#33C69F"/>
<rect opacity="0.2" x="12.1963" y="285" width="5.03738" height="21" fill="#33C69F"/>
<rect opacity="0.2" x="19.3926" y="264" width="5.03738" height="42" fill="#33C69F"/>
<rect opacity="0.2" x="26.5889" y="252" width="5.03738" height="54" fill="#33C69F"/>
<rect opacity="0.2" x="33.7852" y="262" width="5.03738" height="44" fill="#33C69F"/>
<rect opacity="0.2" x="40.9814" y="268" width="5.03738" height="38" fill="#33C69F"/>
<rect opacity="0.2" x="48.1777" y="274" width="5.03738" height="32" fill="#33C69F"/>
<rect opacity="0.2" x="55.374" y="270" width="5.03738" height="36" fill="#33C69F"/>
<rect opacity="0.2" x="62.5703" y="272" width="5.03738" height="34" fill="#33C69F"/>
<rect opacity="0.2" x="69.7666" y="252" width="5.03738" height="54" fill="#33C69F"/>
<rect opacity="0.2" x="76.9629" y="245" width="5.03738" height="61" fill="#33C69F"/>
<rect opacity="0.2" x="84" y="268" width="5.03738" height="38" fill="#33C69F"/>
<rect opacity="0.2" x="91.1963" y="285" width="5.03738" height="21" fill="#33C69F"/>
<rect opacity="0.2" x="98.3926" y="264" width="5.03738" height="42" fill="#33C69F"/>
<rect x="106" y="289" width="5" height="17" fill="#EB5757"/>
<rect opacity="0.2" x="113" y="294" width="5" height="12" fill="#33C69F"/>
<rect opacity="0.2" x="120" y="298" width="5" height="8" fill="#33C69F"/>
<rect opacity="0.2" x="127" y="298" width="5" height="8" fill="#33C69F"/>
<rect opacity="0.2" x="134" y="297" width="5" height="9" fill="#33C69F"/>
<rect opacity="0.2" x="142" y="298" width="5" height="8" fill="#33C69F"/>
<rect opacity="0.2" x="163" y="298" width="5" height="8" fill="#33C69F"/>
<rect opacity="0.2" x="170" y="297" width="5" height="9" fill="#33C69F"/>
<rect opacity="0.2" x="149" y="293" width="5" height="13" fill="#33C69F"/>
<rect opacity="0.2" x="156" y="291" width="5" height="15" fill="#33C69F"/>
<line x1="13" y1="307.5" x2="178" y2="307.5" stroke="white" stroke-opacity="0.2"/>
<line x1="2" y1="289.5" x2="179" y2="289.5" stroke="white" stroke-opacity="0.2"/>
<line x1="340.5" y1="308" x2="340.5" y2="189" stroke="white" stroke-opacity="0.1"/>
<line x1="179.5" y1="308" x2="179.5" y2="191" stroke="white" stroke-opacity="0.1"/>
<path d="M197.584 264.132L191.533 278.541C190.502 280.997 187.059 281.097 185.888 278.705C184.442 275.753 180 276.782 180 280.069V305H359V294.518C359 294.174 358.964 293.83 358.894 293.493L353.545 267.961C352.526 263.099 345.79 262.583 343.977 267.208C343.075 269.51 340.622 270.819 338.211 270.272L335.358 269.625C334.169 269.355 332.923 269.529 331.853 270.114L328.125 272.153C326.362 273.117 324.192 272.931 322.618 271.682L316.324 266.686L309.185 262.015C308.809 261.769 308.469 261.474 308.172 261.138L303.833 256.217C301.723 253.824 297.943 253.992 296.054 256.563L291.225 263.134C290.968 263.484 290.757 263.866 290.599 264.27L286.841 273.86C285.23 277.969 279.474 278.129 277.638 274.115L274.242 266.686L268.502 250.995C267.281 247.657 263.066 246.623 260.439 249.017L258.361 250.91C257.888 251.341 257.503 251.858 257.225 252.434L249.918 267.582C248.894 269.706 246.525 270.825 244.234 270.269L241.666 269.644C240.504 269.362 239.278 269.506 238.213 270.049L233.837 272.282C232.093 273.173 229.989 272.963 228.456 271.745L222.083 266.686L215.016 262.062C214.593 261.785 214.214 261.446 213.893 261.056L210.304 256.695C208.189 254.125 204.202 254.3 202.32 257.044L198.07 263.24C197.878 263.52 197.715 263.819 197.584 264.132Z" fill="#EB5757" fill-opacity="0.1"/>
<path d="M359 303.617V294.518C359 294.174 358.964 293.83 358.894 293.493L353.555 268.028C352.535 263.162 345.785 262.672 343.977 267.302V267.302C343.077 269.609 340.617 270.926 338.203 270.377L335.365 269.73C334.172 269.459 332.921 269.634 331.849 270.223L328.134 272.262C326.366 273.232 324.188 273.046 322.611 271.789L316.324 266.778L309.185 262.087C308.809 261.841 308.469 261.545 308.173 261.208L303.84 256.274C301.73 253.871 297.937 254.04 296.048 256.621L291.223 263.214C290.967 263.564 290.758 263.945 290.6 264.349L286.843 273.975C285.236 278.093 279.467 278.252 277.635 274.229L274.242 266.778L268.502 251.023C267.283 247.677 263.056 246.642 260.429 249.046L258.359 250.94C257.888 251.371 257.504 251.888 257.227 252.464L249.917 267.68C248.894 269.81 246.52 270.933 244.225 270.373L241.673 269.75C240.506 269.465 239.276 269.61 238.207 270.158L233.846 272.392C232.097 273.288 229.986 273.077 228.45 271.852L222.083 266.778L215.015 262.135C214.593 261.857 214.214 261.517 213.894 261.126L210.311 256.754C208.196 254.175 204.196 254.35 202.315 257.104L198.069 263.32C197.878 263.6 197.716 263.898 197.585 264.211L191.534 278.68C190.505 281.14 187.056 281.24 185.887 278.843L185.771 278.606C184.357 275.709 180 276.715 180 279.938V279.938" stroke="#EB5757"/>
<circle opacity="0.1" cx="340.5" cy="270.5" r="4.5" fill="#EB5757"/>
<circle cx="340.5" cy="270.5" r="2.5" fill="#EB5757"/>
<path d="M1 322C1 320.343 2.34315 319 4 319H185.878H189.551H193.224H356C357.657 319 359 320.343 359 322V434C359 435.657 357.657 437 356 437H4.00001C2.34315 437 1 435.657 1 434V322Z" fill="#0A1B2B" stroke="#33C69F" stroke-width="2"/>
<path d="M19.201 354.803L19.955 357H21.528L18.122 347.705H16.497L13.078 357H14.651L15.405 354.803H19.201ZM15.834 353.516L17.303 349.122H17.329L18.785 353.516H15.834ZM25.9751 350.175C24.9351 350.175 24.2851 350.669 23.9341 351.137H23.9081V350.357H22.5301V359.262H23.9081V356.207H23.9341C24.2851 356.701 24.9351 357.195 25.9751 357.195C27.6651 357.195 28.9261 355.869 28.9261 353.685C28.9261 351.501 27.6651 350.175 25.9751 350.175ZM25.7151 356.077C24.6101 356.077 23.9211 355.154 23.9211 353.685C23.9211 352.203 24.6101 351.293 25.7151 351.293C26.9111 351.293 27.5481 352.385 27.5481 353.685C27.5481 354.985 26.9111 356.077 25.7151 356.077ZM33.6238 350.175C32.5838 350.175 31.9338 350.669 31.5828 351.137H31.5568V350.357H30.1788V359.262H31.5568V356.207H31.5828C31.9338 356.701 32.5838 357.195 33.6238 357.195C35.3138 357.195 36.5748 355.869 36.5748 353.685C36.5748 351.501 35.3138 350.175 33.6238 350.175ZM33.3638 356.077C32.2588 356.077 31.5698 355.154 31.5698 353.685C31.5698 352.203 32.2588 351.293 33.3638 351.293C34.5598 351.293 35.1968 352.385 35.1968 353.685C35.1968 354.985 34.5598 356.077 33.3638 356.077ZM48.064 357L46.608 355.232C47.128 354.4 47.427 353.412 47.544 352.528H46.257C46.166 353.1 45.997 353.672 45.75 354.192L44.047 352.138C45.269 351.436 45.971 350.786 45.971 349.733C45.971 348.641 45.087 347.497 43.592 347.51C41.993 347.523 41.213 348.641 41.213 349.733C41.213 350.604 41.655 351.228 42.305 352.021C41.33 352.593 40.355 353.334 40.355 354.712C40.355 356.129 41.369 357.195 43.267 357.195C44.294 357.195 45.126 356.818 45.763 356.246L46.387 357H48.064ZM43.592 348.797C44.281 348.797 44.645 349.265 44.645 349.824C44.645 350.5 44.177 350.916 43.41 351.384C42.916 350.812 42.539 350.344 42.539 349.824C42.539 349.265 42.916 348.797 43.592 348.797ZM43.358 355.908C42.305 355.908 41.759 355.284 41.759 354.582C41.759 353.88 42.149 353.295 42.929 352.775L44.97 355.271C44.541 355.661 44.008 355.908 43.358 355.908ZM51.7885 357H55.4415C58.0155 357 59.5365 355.349 59.5365 352.359C59.5365 349.369 57.9635 347.705 55.4025 347.705H51.7885V357ZM53.3355 349.018H55.3245C57.4045 349.018 57.9895 350.578 57.9895 352.359C57.9895 354.14 57.4045 355.687 55.3245 355.687H53.3355V349.018ZM64.8093 352.099C64.8093 352.736 64.1853 352.866 63.1583 353.061C61.4943 353.386 60.4153 353.841 60.4153 355.297C60.4153 356.415 61.2473 357.195 62.5993 357.195C63.6263 357.195 64.3803 356.792 64.7963 356.207H64.8223C64.9523 356.857 65.2903 357.117 66.0183 357.117C66.2783 357.117 66.4993 357.091 66.8113 356.974V356.324C66.2783 356.376 66.1743 356.129 66.1743 355.661V352.502C66.1743 350.734 65.0823 350.175 63.6133 350.175C61.6113 350.175 60.7923 351.176 60.7273 352.45H62.0533C62.1183 351.592 62.5213 351.254 63.6133 351.254C64.5233 351.254 64.8093 351.618 64.8093 352.099ZM62.8983 356.116C62.1573 356.116 61.7933 355.778 61.7933 355.167C61.7933 354.491 62.2873 354.166 63.4183 353.919C64.0553 353.789 64.5883 353.633 64.8093 353.477V354.478C64.8093 355.557 64.0293 356.116 62.8983 356.116ZM70.9147 351.475V350.357H69.6667V348.264H68.2887V350.357H67.3267V351.475H68.2887V355.193C68.2887 356.597 68.8867 357.091 69.9787 357.091C70.3427 357.091 70.6417 357.052 70.9147 356.987V355.869C70.0307 355.921 69.6667 355.83 69.6667 355.076V351.475H70.9147ZM76.2218 352.099C76.2218 352.736 75.5978 352.866 74.5708 353.061C72.9068 353.386 71.8278 353.841 71.8278 355.297C71.8278 356.415 72.6598 357.195 74.0118 357.195C75.0388 357.195 75.7928 356.792 76.2088 356.207H76.2348C76.3648 356.857 76.7028 357.117 77.4308 357.117C77.6908 357.117 77.9118 357.091 78.2238 356.974V356.324C77.6908 356.376 77.5868 356.129 77.5868 355.661V352.502C77.5868 350.734 76.4948 350.175 75.0258 350.175C73.0238 350.175 72.2048 351.176 72.1398 352.45H73.4658C73.5308 351.592 73.9338 351.254 75.0258 351.254C75.9358 351.254 76.2218 351.618 76.2218 352.099ZM74.3108 356.116C73.5698 356.116 73.2058 355.778 73.2058 355.167C73.2058 354.491 73.6998 354.166 74.8308 353.919C75.4678 353.789 76.0008 353.633 76.2218 353.477V354.478C76.2218 355.557 75.4418 356.116 74.3108 356.116ZM85.6838 351.462C84.3838 351.137 83.5128 350.955 83.5128 349.941C83.5128 349.252 84.1758 348.836 85.2808 348.836C86.5678 348.836 87.2438 349.408 87.3868 350.487H88.9338C88.8038 348.576 87.3218 347.51 85.2808 347.51C83.2528 347.51 81.9788 348.433 81.9788 350.084C81.9788 351.852 83.5518 352.411 85.0078 352.775C86.8408 353.23 87.6338 353.438 87.6338 354.543C87.6338 355.258 87.1008 355.869 85.7228 355.869C84.0588 355.869 83.2528 355.089 83.1748 353.906H81.6278C81.7188 356.012 83.4478 357.195 85.7228 357.195C88.0628 357.195 89.1808 355.96 89.1808 354.478C89.1808 352.398 87.6728 351.969 85.6838 351.462ZM93.4678 356.077C92.2588 356.077 91.5438 355.154 91.5438 354.036H96.6398C96.6398 351.67 95.5868 350.175 93.4418 350.175C91.4398 350.175 90.1788 351.527 90.1788 353.685C90.1788 355.765 91.4398 357.195 93.5068 357.195C95.2098 357.195 96.1978 356.233 96.5358 354.972H95.1708C95.0538 355.375 94.5988 356.077 93.4678 356.077ZM93.4418 351.254C94.5468 351.254 95.2748 351.995 95.2748 353.022H91.5438C91.5438 351.995 92.3368 351.254 93.4418 351.254ZM102.412 352.788H103.777C103.608 351.28 102.477 350.175 100.748 350.175C98.7717 350.175 97.4847 351.605 97.4847 353.685C97.4847 355.765 98.7717 357.195 100.761 357.195C102.49 357.195 103.673 356.064 103.777 354.53H102.412C102.36 355.271 101.931 356.077 100.761 356.077C99.4087 356.077 98.8497 354.933 98.8497 353.685C98.8497 352.437 99.4217 351.293 100.761 351.293C101.931 351.293 102.36 352.112 102.412 352.788ZM109.306 350.357V354.4C109.306 355.388 108.63 356.025 107.577 356.025C106.641 356.025 106.264 355.453 106.264 354.556V350.357H104.886V354.946C104.886 356.467 105.861 357.182 107.096 357.182C108.24 357.182 108.929 356.662 109.28 356.142H109.306V357H110.671V350.357H109.306ZM115.391 350.201C114.52 350.201 113.974 350.773 113.623 351.605H113.597V350.357H112.232V357H113.597V353.607C113.597 352.19 114.65 351.306 115.963 351.527H115.989V350.24C115.794 350.214 115.625 350.201 115.391 350.201ZM117.892 349.239C118.295 349.239 118.672 348.979 118.672 348.511C118.672 348.043 118.295 347.796 117.892 347.796C117.515 347.796 117.125 348.043 117.125 348.511C117.125 348.979 117.515 349.239 117.892 349.239ZM117.216 350.357V357H118.581V350.357H117.216ZM123.401 351.475V350.357H122.153V348.264H120.775V350.357H119.813V351.475H120.775V355.193C120.775 356.597 121.373 357.091 122.465 357.091C122.829 357.091 123.128 357.052 123.401 356.987V355.869C122.517 355.921 122.153 355.83 122.153 355.076V351.475H123.401ZM130.58 350.357H129.124L127.421 355.44H127.395L125.536 350.357H124.067L126.472 356.324C126.719 356.948 126.537 357.468 126.29 357.767C125.991 358.131 125.562 358.17 124.99 358.092H124.873V359.132C125.133 359.197 125.458 359.262 125.848 359.262C127.122 359.262 127.551 358.443 127.928 357.416L130.58 350.357Z" fill="white"/>
<path d="M365.22 321.11C365.22 316.106 361.114 312 356.11 312C351.073 312 347 316.112 347 321.11C347 326.142 351.078 330.22 356.11 330.22C361.108 330.22 365.22 326.148 365.22 321.11Z" fill="#33C69F" stroke="#0A1B2B" stroke-width="4"/>
<path d="M16.85 340.15C19 340.15 20.36 338.57 20.36 336.42C20.36 334.27 19 332.7 16.85 332.7C14.69 332.7 13.34 334.27 13.34 336.42C13.34 338.57 14.69 340.15 16.85 340.15ZM16.85 339.13C15.21 339.13 14.52 337.87 14.52 336.42C14.52 334.98 15.21 333.72 16.85 333.72C18.49 333.72 19.17 334.98 19.17 336.42C19.17 337.87 18.49 339.13 16.85 339.13ZM26.8953 334.65C26.8953 333.5 26.0453 332.85 24.5753 332.85H21.5053V340H24.7453C26.2253 340 27.1753 339.29 27.1753 337.91C27.1753 336.84 26.5353 336.29 25.7853 336.16V336.14C26.3753 335.94 26.8953 335.53 26.8953 334.65ZM22.6953 335.81V333.86H24.6053C25.3153 333.86 25.7053 334.21 25.7053 334.84C25.7053 335.47 25.3853 335.81 24.5353 335.81H22.6953ZM22.6953 336.7H24.7853C25.5353 336.7 25.9853 337.11 25.9853 337.84C25.9853 338.51 25.6753 338.99 24.6553 338.99H22.6953V336.7ZM32.2185 337.76V332.85H31.0385V337.76C31.0385 338.56 30.8785 339.13 29.9885 339.13C29.0885 339.13 28.9485 338.56 28.9485 337.76V337.43H27.8185V337.76C27.8185 338.99 28.2985 340.15 30.0185 340.15C31.7385 340.15 32.2185 338.99 32.2185 337.76ZM34.7457 335.8V333.86H38.7257V332.85H33.5557V340H38.8257V338.99H34.7457V336.82H38.2357V335.8H34.7457ZM44.8295 335.31H46.0195C45.8495 333.85 44.7495 332.7 42.9395 332.7C40.8795 332.7 39.5795 334.27 39.5795 336.42C39.5795 338.58 40.8795 340.15 42.9395 340.15C44.7595 340.15 45.8595 339 46.0195 337.39H44.8295C44.7495 338.26 44.2395 339.13 42.9095 339.13C41.3695 339.13 40.7595 337.84 40.7595 336.42C40.7595 335.01 41.3695 333.72 42.9095 333.72C44.2295 333.72 44.6995 334.59 44.8295 335.31ZM48.7556 340H49.9456V333.86H52.2256V332.85H46.4656V333.86H48.7556V340ZM53.2577 332.85V340H54.4477V332.85H53.2577ZM55.3291 332.85L57.7691 340H59.0591L61.4991 332.85H60.2391L58.4191 338.7H58.4091L56.5891 332.85H55.3291ZM63.5582 335.8V333.86H67.5382V332.85H62.3682V340H67.6382V338.99H63.5582V336.82H67.0482V335.8H63.5582ZM70.9127 340H72.1027V337.14H73.9527C75.3227 337.14 76.3127 336.49 76.3127 334.99C76.3127 333.49 75.3227 332.85 73.9527 332.85H70.9127V340ZM72.1027 333.86H73.9027C74.7027 333.86 75.1227 334.21 75.1227 334.99C75.1227 335.78 74.7027 336.12 73.9027 336.12H72.1027V333.86ZM78.4941 335.8V333.86H82.4741V332.85H77.3041V340H82.5741V338.99H78.4941V336.82H81.9841V335.8H78.4941ZM83.7444 340H84.9344V337.24H86.6844C88.4044 337.24 87.7344 339.7 88.0644 340H89.3144V339.93C88.9344 339.81 89.5344 337.01 87.8844 336.7V336.68C88.7044 336.48 89.2144 335.9 89.2144 334.9C89.2144 333.6 88.2644 332.85 86.7944 332.85H83.7444V340ZM84.9344 333.86H86.5444C87.2744 333.86 88.0344 334.01 88.0344 335.04C88.0344 336.08 87.2744 336.22 86.5444 336.22H84.9344V333.86ZM91.5797 335.94V333.86H95.3897V332.85H90.3897V340H91.5797V336.96H94.6697V335.94H91.5797ZM99.4938 340.15C101.644 340.15 103.004 338.57 103.004 336.42C103.004 334.27 101.644 332.7 99.4938 332.7C97.3338 332.7 95.9838 334.27 95.9838 336.42C95.9838 338.57 97.3338 340.15 99.4938 340.15ZM99.4938 339.13C97.8538 339.13 97.1638 337.87 97.1638 336.42C97.1638 334.98 97.8538 333.72 99.4938 333.72C101.134 333.72 101.814 334.98 101.814 336.42C101.814 337.87 101.134 339.13 99.4938 339.13ZM104.149 340H105.339V337.24H107.089C108.809 337.24 108.139 339.7 108.469 340H109.719V339.93C109.339 339.81 109.939 337.01 108.289 336.7V336.68C109.109 336.48 109.619 335.9 109.619 334.9C109.619 333.6 108.669 332.85 107.199 332.85H104.149V340ZM105.339 333.86H106.949C107.679 333.86 108.439 334.01 108.439 335.04C108.439 336.08 107.679 336.22 106.949 336.22H105.339V333.86ZM110.794 340H111.954V334.58H111.974L113.864 340H114.814L116.704 334.58H116.724V340H117.884V332.85H116.344L114.354 338.35H114.334L112.334 332.85H110.794V340ZM123.436 338.31L124.016 340H125.226L122.606 332.85H121.356L118.726 340H119.936L120.516 338.31H123.436ZM120.846 337.32L121.976 333.94H121.996L123.116 337.32H120.846ZM126.106 340H127.296V334.65H127.316L130.546 340H131.866V332.85H130.676V338.22H130.656L127.436 332.85H126.106V340ZM138.318 335.31H139.508C139.338 333.85 138.238 332.7 136.428 332.7C134.368 332.7 133.068 334.27 133.068 336.42C133.068 338.58 134.368 340.15 136.428 340.15C138.248 340.15 139.348 339 139.508 337.39H138.318C138.238 338.26 137.728 339.13 136.398 339.13C134.858 339.13 134.248 337.84 134.248 336.42C134.248 335.01 134.858 333.72 136.398 333.72C137.718 333.72 138.188 334.59 138.318 335.31ZM141.779 335.8V333.86H145.759V332.85H140.589V340H145.859V338.99H141.779V336.82H145.269V335.8H141.779Z" fill="white" fill-opacity="0.5"/>
<rect opacity="0.2" x="5" y="398" width="5.03738" height="38" fill="#33C69F"/>
<rect opacity="0.2" x="12.1963" y="415" width="5.03738" height="21" fill="#33C69F"/>
<rect opacity="0.2" x="19.3926" y="394" width="5.03738" height="42" fill="#33C69F"/>
<rect opacity="0.2" x="26.5889" y="382" width="5.03738" height="54" fill="#33C69F"/>
<rect opacity="0.2" x="33.7852" y="392" width="5.03738" height="44" fill="#33C69F"/>
<rect opacity="0.2" x="40.9814" y="398" width="5.03738" height="38" fill="#33C69F"/>
<rect x="48.1777" y="404" width="5.03738" height="32" fill="#33C69F"/>
<rect opacity="0.2" x="55.374" y="400" width="5.03738" height="36" fill="#33C69F"/>
<rect opacity="0.2" x="62.5703" y="402" width="5.03738" height="34" fill="#33C69F"/>
<rect opacity="0.2" x="69.7666" y="382" width="5.03738" height="54" fill="#33C69F"/>
<rect opacity="0.2" x="76.9629" y="375" width="5.03738" height="61" fill="#33C69F"/>
<rect opacity="0.2" x="84" y="398" width="5.03738" height="38" fill="#33C69F"/>
<rect opacity="0.2" x="91.1963" y="415" width="5.03738" height="21" fill="#33C69F"/>
<rect opacity="0.2" x="98.3926" y="394" width="5.03738" height="42" fill="#33C69F"/>
<rect opacity="0.2" x="106" y="351" width="5" height="85" fill="#33C69F"/>
<rect opacity="0.2" x="113" y="367" width="5" height="69" fill="#33C69F"/>
<rect opacity="0.2" x="120" y="376" width="5" height="60" fill="#33C69F"/>
<rect opacity="0.2" x="127" y="386" width="5" height="50" fill="#33C69F"/>
<rect opacity="0.2" x="134" y="379" width="5" height="57" fill="#33C69F"/>
<rect opacity="0.2" x="142" y="382" width="5" height="54" fill="#33C69F"/>
<rect opacity="0.2" x="163" y="386" width="5" height="50" fill="#33C69F"/>
<rect opacity="0.2" x="170" y="379" width="5" height="57" fill="#33C69F"/>
<rect opacity="0.2" x="149" y="351" width="5" height="85" fill="#33C69F"/>
<rect opacity="0.2" x="156" y="340" width="5" height="96" fill="#33C69F"/>
<line x1="13" y1="437.5" x2="178" y2="437.5" stroke="white" stroke-opacity="0.2"/>
<line x1="180" y1="384.5" x2="359" y2="384.5" stroke="white" stroke-opacity="0.2"/>
<line x1="300.5" y1="438" x2="300.5" y2="319" stroke="white" stroke-opacity="0.1"/>
<line x1="179.5" y1="438" x2="179.5" y2="321" stroke="white" stroke-opacity="0.1"/>
<path d="M197.584 394.132L191.533 408.541C190.502 410.997 187.059 411.097 185.888 408.705C184.442 405.753 180 406.782 180 410.069V435H359V384.457C359 380.336 354.174 378.105 351.035 380.775C350.427 381.292 349.957 381.951 349.666 382.693L343.973 397.22C343.071 399.522 340.622 400.819 338.211 400.272L335.358 399.625C334.169 399.355 332.923 399.529 331.853 400.114L328.125 402.153C326.362 403.117 324.192 402.931 322.618 401.682L316.324 396.686L309.185 392.015C308.809 391.769 308.469 391.474 308.172 391.138L303.833 386.217C301.723 383.824 297.943 383.992 296.054 386.563L291.225 393.134C290.968 393.484 290.757 393.866 290.599 394.27L286.841 403.86C285.23 407.969 279.474 408.129 277.638 404.115L274.242 396.686L268.502 380.995C267.281 377.657 263.066 376.623 260.439 379.017L258.361 380.91C257.888 381.341 257.503 381.858 257.225 382.434L249.918 397.582C248.894 399.706 246.525 400.825 244.234 400.269L241.666 399.644C240.504 399.362 239.278 399.506 238.213 400.049L233.837 402.282C232.093 403.173 229.989 402.963 228.456 401.745L222.083 396.686L215.016 392.062C214.593 391.785 214.214 391.446 213.893 391.056L210.304 386.695C208.189 384.125 204.202 384.3 202.32 387.044L198.07 393.24C197.878 393.52 197.715 393.819 197.584 394.132Z" fill="#33C69F" fill-opacity="0.1"/>
<path d="M359 383.617V383.617C359 379.833 354.564 377.788 351.687 380.246L351.031 380.805C350.426 381.322 349.958 381.981 349.668 382.722L343.971 397.319C343.07 399.626 340.617 400.926 338.203 400.377L335.365 399.73C334.172 399.459 332.921 399.634 331.849 400.223L328.134 402.262C326.366 403.232 324.188 403.046 322.611 401.789L316.324 396.778L309.185 392.087C308.809 391.841 308.469 391.545 308.173 391.208L303.84 386.274C301.73 383.871 297.937 384.04 296.048 386.621L291.223 393.214C290.967 393.564 290.758 393.945 290.6 394.349L286.843 403.975C285.236 408.093 279.467 408.252 277.635 404.229L274.242 396.778L268.502 381.023C267.283 377.677 263.056 376.642 260.429 379.046L258.359 380.94C257.888 381.371 257.504 381.888 257.227 382.464L249.917 397.68C248.894 399.81 246.52 400.933 244.225 400.373L241.673 399.75C240.506 399.465 239.276 399.61 238.207 400.158L233.846 402.392C232.097 403.288 229.986 403.077 228.45 401.852L222.083 396.778L215.015 392.135C214.593 391.857 214.214 391.517 213.894 391.126L210.311 386.754C208.196 384.175 204.196 384.35 202.315 387.104L198.069 393.32C197.878 393.6 197.716 393.898 197.585 394.211L191.534 408.68C190.505 411.14 187.056 411.24 185.887 408.843L185.771 408.606C184.357 405.709 180 406.715 180 409.938V409.938" stroke="#33C69F"/>
<circle opacity="0.1" cx="300.5" cy="384.5" r="4.5" fill="#33C69F"/>
<circle cx="300.5" cy="384.5" r="2.5" fill="#33C69F"/>
<path d="M162 6C162 4.34315 163.343 3 165 3H199C200.657 3 202 4.34315 202 6V40C202 41.6569 200.657 43 199 43H165C163.343 43 162 41.6569 162 40V6Z" fill="#FDB515"/>
<path fill-rule="evenodd" clip-rule="evenodd" d="M195.451 25.0634V19.6665L187.451 11.5713H182.119H182.118H176.736L168.786 19.6665V25.0634L182.118 11.5713L195.451 25.0634ZM187.451 34.5079H183.452V22.1416V16.7447L187.451 20.7923L195.451 28.8876V34.2844L187.451 26.1892V34.5079ZM176.786 34.5079H180.786V16.7447L180.785 16.7454V16.7447L168.786 28.8876V34.2844L176.786 26.1885V34.5079Z" fill="#001B28"/>
<path d="M165 6H199V0H165V6ZM199 6V40H205V6H199ZM199 40H165V46H199V40ZM165 40V6H159V40H165ZM165 40H165H159C159 43.3137 161.686 46 165 46V40ZM199 40V46C202.314 46 205 43.3137 205 40H199ZM199 6H205C205 2.68629 202.314 0 199 0V6ZM165 0C161.686 0 159 2.68629 159 6H165V6V0Z" fill="#001B28"/>
</svg>
