<svg xmlns="http://www.w3.org/2000/svg" xmlns:xlink="http://www.w3.org/1999/xlink" width="1316" height="737"><style><![CDATA[.B{mask:url(#E)}.C{fill:#fff}.D{fill:#a7a9ac}.E{fill:#bcbec0}]]></style><defs><path id="A" d="M0 737h1316V.275H0z"/><path id="B" d="M1008.912 606.86c0 36.65-29.712 66.363-66.363 66.363s-66.363-29.712-66.363-66.363 29.71-66.363 66.363-66.363 66.363 29.712 66.363 66.363"/><path id="C" d="M221.4 227.777c0 36.65-29.71 66.363-66.363 66.363s-66.363-29.712-66.363-66.363 29.712-66.363 66.363-66.363 66.363 29.712 66.363 66.363"/><path id="D" d="M1142.31 217.398c0 36.65-29.712 66.363-66.363 66.363s-66.364-29.712-66.364-66.363 29.712-66.363 66.364-66.363 66.363 29.712 66.363 66.363"/></defs><g fill="none" fill-rule="evenodd"><g fill="#233841"><use xlink:href="#B"/><path d="M715.656 623.095c0 36.65-29.712 66.362-66.363 66.362s-66.363-29.712-66.363-66.362 29.712-66.363 66.363-66.363 66.363 29.712 66.363 66.363"/><use xlink:href="#B" x="-587.16" y="-5.638"/><path d="M223.417 494.57c0 36.65-29.71 66.363-66.363 66.363S90.69 531.22 90.69 494.57s29.712-66.363 66.363-66.363 66.363 29.712 66.363 66.363"/><use xlink:href="#C"/><path d="M411.985 370.273c0 36.65-29.7 66.362-66.363 66.362s-66.363-29.7-66.363-66.362 29.71-66.373 66.363-66.373 66.363 29.712 66.363 66.363M714.5 173.682c0 36.65-29.712 66.363-66.363 66.363s-66.363-29.712-66.363-66.363 29.712-66.363 66.363-66.363 66.363 29.71 66.363 66.363"/><use xlink:href="#C" x="288.978" y="-110.753"/><use xlink:href="#D"/><use xlink:href="#D" x="67.688" y="254.292"/><use xlink:href="#D" x="-143.17" y="154.182"/><path d="M890.728 124.697c0 36.65-29.712 66.363-66.363 66.363s-66.363-29.712-66.363-66.363 29.712-66.363 66.363-66.363 66.363 29.712 66.363 66.363"/></g><path d="M648.572 245.53V294m0 256.863V449.158M492.997 175.36l116.786 129.033" stroke="#33c69f" stroke-width="2"/><g transform="translate(0 -.275)"><path d="M687.36 439.04l82.955 144.98c8.194 14.322 28.4 26.04 44.9 26.04h50.34M581.387 333.065l-153.73-89.34c-14.265-8.3-39.438-15.074-55.938-15.074H235.667m480.09 181.993l86.57 50.075c14.283 8.262 39.47 15.022 55.97 15.022h205.95M419.334 371.854h151.66m289.108 0h-133.95m-144.765 38.8l-120.02 69.214c-14.293 8.243-39.488 14.987-55.988 14.987h-176.7m764.336-276.15l-96.133.18c-16.5.03-40.772 8.193-53.938 18.137l-127.176 96.05M609.783 439.04L532.23 578.447c-8.022 14.42-28.085 26.217-44.585 26.217h-52.1m343.798-422.74L687.36 304.67" stroke="#33c69f" stroke-width="2"/><path d="M376.48 378.283a20.54 20.54 0 0 1-4.783-.56c-1.553-.372-2.764-.776-3.572-1.242-.497-.28-.84-.6-.963-.87a2.2 2.2 0 0 1-.186-.87v-1.584c0-.652.248-.963.714-.963a1.76 1.76 0 0 1 .559.093c.187.062.466.186.777.31a16.92 16.92 0 0 0 3.416 1.087c1.243.248 2.454.372 3.697.372 1.956 0 3.478-.34 4.534-1.024s1.616-1.678 1.616-2.95c0-.87-.28-1.584-.84-2.174s-1.616-1.118-3.137-1.615l-4.504-1.398c-2.267-.715-3.945-1.77-4.97-3.168-1.025-1.367-1.553-2.888-1.553-4.504 0-1.304.28-2.454.84-3.448a8 8 0 0 1 2.236-2.547c.932-.714 1.988-1.242 3.23-1.615s2.548-.527 3.914-.527c.683 0 1.398.03 2.08.124l2.02.342 1.77.497c.56.185.994.372 1.304.558.435.25.745.497.932.777.186.25.28.6.28 1.025v1.46c0 .652-.25.993-.715.993-.248 0-.652-.124-1.18-.372-1.77-.808-3.76-1.212-5.964-1.212-1.77 0-3.168.28-4.13.87s-1.46 1.49-1.46 2.765c0 .87.31 1.615.932 2.205s1.77 1.18 3.417 1.708l4.4 1.397c2.237.715 3.852 1.71 4.815 2.983s1.428 2.733 1.428 4.348c0 1.335-.28 2.547-.807 3.603-.56 1.056-1.304 1.988-2.267 2.733-.963.777-2.113 1.336-3.448 1.74a14.8 14.8 0 0 1-4.442.652zm-39.912-.84c-.56 0-.932-.093-1.18-.3-.25-.187-.467-.622-.653-1.21l-7.3-24c-.186-.62-.28-1.026-.28-1.242 0-.497.248-.777.745-.777h3.044c.6 0 .994.093 1.21.31.25.185.435.62.62 1.21l5.22 20.56 4.845-20.56c.155-.62.342-1.026.6-1.21s.683-.31 1.242-.31h2.485c.59 0 .994.093 1.243.31.248.185.466.62.6 1.21l4.907 20.8 5.374-20.8c.186-.62.404-1.026.62-1.21.25-.187.652-.31 1.21-.31h2.89c.497 0 .777.248.777.777 0 .155-.032.3-.062.497a4.58 4.58 0 0 1-.218.776l-7.486 24c-.186.62-.403 1.024-.652 1.21s-.652.3-1.18.3h-2.672c-.59 0-.993-.092-1.242-.3s-.466-.62-.6-1.242l-4.814-20.035-4.784 20.003c-.155.62-.34 1.026-.6 1.243s-.683.3-1.242.3h-2.67zm-24.942-3.354c1.025 0 2.082-.187 3.2-.56s2.112-1.057 2.95-1.988c.497-.6.87-1.242 1.057-1.988s.3-1.646.3-2.703v-1.303c-.9-.218-1.864-.405-2.857-.53s-1.957-.186-2.92-.186c-2.08 0-3.603.404-4.628 1.242s-1.522 2.02-1.522 3.572c0 1.46.372 2.547 1.15 3.292.745.778 1.833 1.15 3.26 1.15zm12.61-4.72c0 1.15.124 2.08.342 2.764.248.683.56 1.428.993 2.236.156.25.218.497.218.715 0 .3-.186.62-.6.93l-1.957 1.305c-.28.187-.56.28-.807.28-.31 0-.622-.155-.933-.434-.434-.466-.807-.963-1.118-1.46l-.963-1.832c-2.422 2.857-5.466 4.286-9.13 4.286-2.61 0-4.7-.746-6.212-2.236s-2.3-3.48-2.3-5.964c0-2.64.932-4.783 2.827-6.4s4.4-2.423 7.61-2.423c1.056 0 2.144.094 3.293.25s2.33.403 3.572.682v-2.266c0-2.362-.497-4.007-1.46-4.97-.994-.963-2.67-1.43-5.063-1.43-1.087 0-2.205.124-3.354.403s-2.267.622-3.355 1.056a8.77 8.77 0 0 1-1.087.404c-.218.063-.373.093-.497.093-.435 0-.652-.3-.652-.963v-1.52c0-.497.062-.87.217-1.087s.435-.436.87-.652c1.087-.56 2.392-1.026 3.914-1.398 1.52-.404 3.137-.59 4.845-.59 3.696 0 6.398.84 8.138 2.516 1.708 1.678 2.578 4.224 2.578 7.64v10.064h.062z" class="E"/><g class="C"><path d="M382.352 393.38c-10.22 7.547-25.065 11.554-37.832 11.554-17.9 0-34-6.616-46.186-17.612-.963-.87-.093-2.05 1.056-1.366 13.17 7.64 29.414 12.27 46.218 12.27 11.337 0 23.792-2.36 35.253-7.206 1.708-.777 3.168 1.118 1.5 2.36m4.256-4.847c-1.305-1.678-8.635-.808-11.958-.404-.994.125-1.15-.745-.25-1.398 5.84-4.1 15.437-2.92 16.555-1.552 1.118 1.397-.3 10.995-5.777 15.6-.84.715-1.646.342-1.274-.6 1.243-3.075 4.007-10 2.703-11.647"/><path d="M145.17 223.165h-3.9l-.007-5.166c0-.195-.1-.293-.326-.293H135.6c-.207 0-.32.1-.32.3v5.338l-2.85.697c-.185.054-.312.223-.312.416v3.354c0 .24.193.436.43.436h2.732v8.07c0 5.994 4.204 6.583 7.042 6.583 1.296 0 2.847-.416 3.103-.512.155-.056.245-.217.245-.4l.004-3.7a.44.44 0 0 0-.432-.435c-.228 0-.8.093-1.4.093-1.92 0-2.57-.894-2.57-2.05v-7.67h3.9c.238 0 .43-.194.43-.435v-4.2a.43.43 0 0 0-.43-.434m57.2-.57c-2.937 0-4.936 1.3-4.936 1.3v-9.237c0-.24-.192-.435-.43-.435h-5.227a.43.43 0 0 0-.43.435v27.276c0 .24.193.437.432.437h3.627c.163 0 .286-.085.378-.232s.22-1.257.22-1.257 2.137 2.025 6.184 2.025c4.75 0 7.474-2.4 7.474-10.817s-4.35-9.506-7.3-9.506m-2.04 15.368c-1.794-.055-3-.87-3-.87v-8.638s1.2-.735 2.673-.867c1.863-.167 3.658.396 3.658 4.84 0 4.686-.8 5.6-3.32 5.535m-12.097-14.756h-5.173c-.237 0-.43.196-.43.436v13.375s-1.314.96-3.18.96-2.36-.846-2.36-2.672v-11.664c0-.24-.193-.436-.43-.436h-5.25c-.236 0-.43.196-.43.436v12.547c0 5.424 3.023 6.75 7.182 6.75 3.412 0 6.163-1.884 6.163-1.884s.13.993.2 1.1.214.237.38.237l3.34-.015c.236 0 .43-.196.43-.435l-.001-18.3c0-.24-.194-.436-.432-.436M130.2 236.18v-12.6c0-.24-.193-.434-.432-.435h-5.196c-.238 0-.452.246-.452.485v18.04c0 .53.33.688.758.688h4.682c.514 0 .64-.253.64-.696v-5.5m.372-17.944c0-1.876-1.505-3.394-3.36-3.394s-3.36 1.518-3.36 3.394 1.506 3.396 3.36 3.396 3.36-1.52 3.36-3.396m37.874-3.58a.43.43 0 0 0-.428-.435h-5.214c-.24.001-.433.196-.432.435l.001 10.074h-8.125V214.67a.43.43 0 0 0-.428-.435h-5.215c-.238.001-.43.196-.43.435v27.276c0 .24.194.437.43.437h5.213c.238 0 .43-.197.43-.437V230.28h8.125l-.014 11.667c0 .24.194.437.432.437h5.225c.24 0 .43-.197.43-.437V214.67m-47.7 11.237h-9.258c-.24.001-.432.194-.432.433v4.526c0 .24.193.433.432.434h3.612v5.623s-.8.277-3.053.277c-2.645 0-6.34-.967-6.34-9.092s3.847-9.196 7.46-9.196c3.126 0 4.473.55 5.33.816.27.083.52-.186.52-.425l1.032-4.373c0-.112-.037-.246-.165-.338-.348-.248-2.47-1.436-7.836-1.436-6.18 0-12.52 2.63-12.52 15.27s7.258 14.524 13.374 14.524c5.065 0 8.137-2.164 8.137-2.164.127-.07.14-.247.14-.328V226.34c0-.24-.194-.433-.432-.433m197.526 368.066c-.913-.934-1.906-1.647-2.958-2.144s-2.38-.734-3.9-.734a9.36 9.36 0 0 0-3.493.654 8.62 8.62 0 0 0-2.858 1.847c-.833.793-1.5 1.766-1.965 2.898s-.714 2.38-.714 3.77.238 2.64.714 3.772 1.132 2.083 1.965 2.877 1.806 1.43 2.898 1.867 2.282.654 3.533.654c1.33 0 2.5-.18 3.493-.556s1.846-.892 2.56-1.528a7.09 7.09 0 0 0 1.29-1.607c.377-.656.674-1.37.893-2.164h-8.396v-4.763h13.695c.08.317.14.694.2 1.17s.08.913.08 1.37c0 1.886-.278 3.593-.834 5.16s-1.4 2.937-2.52 4.147c-1.25 1.33-2.74 2.343-4.486 3.078s-3.75 1.1-5.994 1.1c-2.025 0-3.93-.356-5.716-1.1s-3.354-1.748-4.704-3.038c-1.33-1.3-2.382-2.818-3.176-4.585s-1.17-3.73-1.17-5.834.397-4.05 1.17-5.836 1.826-3.315 3.176-4.605c1.33-1.3 2.898-2.282 4.704-3.017s3.7-1.1 5.716-1.1c2.303 0 4.347.397 6.113 1.2s3.295 1.885 4.585 3.275l-3.9 3.77z"/></g><path d="M353.464 606.754c0 2.44-.893 4.406-2.68 5.895-1.806 1.45-4 2.183-6.6 2.183-2.302 0-4.346-.675-6.113-2.024s-2.977-3.196-3.652-5.518l3.414-1.4c.238.834.556 1.588.973 2.263s.893 1.25 1.448 1.726a6.8 6.8 0 0 0 1.846 1.132 5.63 5.63 0 0 0 2.144.417c1.627 0 2.977-.417 4-1.27 1.032-.834 1.548-1.965 1.548-3.355 0-1.17-.436-2.163-1.3-2.997-.794-.794-2.302-1.588-4.505-2.342l-4.168-1.628c-2.958-1.508-4.427-3.7-4.427-6.648 0-2.045.814-3.8 2.442-5.24 1.667-1.45 3.692-2.184 6.113-2.184 2.124 0 3.97.536 5.518 1.628 1.548 1.072 2.6 2.4 3.116 4l-3.315 1.37c-.317-1.032-.933-1.905-1.846-2.58-.913-.696-2.044-1.032-3.354-1.032-1.4 0-2.58.396-3.533 1.17a3.37 3.37 0 0 0-1.429 2.819c0 .953.377 1.786 1.13 2.48.834.695 2.64 1.53 5.4 2.48 2.82.953 4.843 2.143 6.054 3.533 1.17 1.4 1.766 3.096 1.766 5.12m19.828 7.455h-3.414v-2.64h-.16c-.535.933-1.4 1.707-2.5 2.342-1.132.615-2.303.933-3.513.933-2.343 0-4.13-.675-5.38-2.004s-1.886-3.235-1.886-5.696v-12h3.573v11.75c.08 3.117 1.647 4.664 4.704 4.664 1.43 0 2.62-.576 3.573-1.726s1.428-2.54 1.428-4.15v-10.54h3.573v19.054z" fill="#737373"/><mask id="E" class="C"><use xlink:href="#A"/></mask><path d="M377.143 614.197h3.572v-19.054h-3.572v19.054zm4.306-25.624c0 .696-.238 1.3-.734 1.787a2.42 2.42 0 0 1-1.786.735 2.42 2.42 0 0 1-2.521-2.522c0-.697.238-1.3.735-1.786s1.1-.734 1.786-.734 1.3.238 1.786.734.734 1.092.734 1.786zm10.24 25.942c-1.548 0-2.838-.477-3.87-1.43s-1.548-2.302-1.568-4v-10.66H382.9v-3.274h3.334v-5.836h3.572v5.836h4.665v3.274h-4.665v9.488c0 1.27.24 2.124.735 2.58s1.052.675 1.667.675a3.96 3.96 0 0 0 .834-.1c.278-.06.516-.16.754-.258l1.13 3.195c-.893.337-1.985.516-3.235.516m7.66-12.143h10.937c-.1-1.33-.636-2.422-1.608-3.295s-2.283-1.3-3.9-1.3c-1.35 0-2.5.416-3.473 1.25-.992.853-1.627 1.964-1.945 3.354m5.716 12.444c-2.798 0-5.1-.953-6.926-2.878-1.807-1.924-2.72-4.346-2.72-7.264 0-2.898.873-5.32 2.64-7.244s4-2.898 6.768-2.898c2.818 0 5.08.913 6.75 2.738s2.5 4.387 2.5 7.682l-.04.397h-14.966c.06 1.866.675 3.375 1.866 4.505s2.62 1.707 4.287 1.707c2.283 0 4.07-1.13 5.36-3.414l3.196 1.548c-.854 1.6-2.045 2.86-3.553 3.772-1.528.893-3.255 1.35-5.16 1.35" fill="#737373" class="B"/><path d="M995.385 614.824c-2.035 0-2.613-.88-2.613-2.23v-5.97h3.164v-3.028h-3.164v-4l-3.493 1.57v12.163c0 3.1 2.145 4.678 5.087 4.678.44 0 1.047-.028 1.378-.11l.853-3.137-1.212.054zm-32.482-.193c-2.338 0-4.127-1.956-4.127-4.24s1.79-4.238 4.127-4.238c1.98 0 3.77 1.953 3.77 4.238s-1.79 4.24-3.77 4.24zm-.614-11.668c-3.687 0-6.97 3.107-6.97 7.65v12.163h3.45v-6.577c1.15 1.128 2.34 1.624 4.048 1.624 3.852 0 7.166-3.22 7.166-7.43 0-4.265-3.594-7.43-7.694-7.43zm-17.313 1.063c0-1.735 1.156-2.285 2.422-2.285 1.018 0 2.366.77 3.246 1.706l2.256-2.642c-1.127-1.512-3.41-2.56-5.283-2.56-3.743 0-6.44 2.175-6.44 5.78 0 6.687 8.228 4.567 8.228 8.31 0 1.154-1.127 2.174-2.42 2.174-2.038 0-2.7-.992-3.633-2.038l-2.505 2.586c1.597 1.954 3.577 2.946 5.944 2.946 3.55 0 6.412-2.202 6.412-5.642 0-7.43-8.228-5.118-8.228-8.337zM932.1 614.824c-2.34 0-4.127-1.953-4.127-4.237s1.788-4.24 4.127-4.24c1.98 0 3.77 1.954 3.77 4.24s-1.79 4.237-3.77 4.237zm-.086-11.668c-1.707 0-2.898.495-4.048 1.625v-6.546h-3.45v12.13c0 4.54 3.283 7.65 6.972 7.65 4.1 0 7.693-3.165 7.693-7.43 0-4.21-3.314-7.43-7.166-7.43zm-13.042 8.417a3.01 3.01 0 0 1-3.005 3.004 3.01 3.01 0 0 1-3.004-3.004v-8.517h-3.44v8.517a6.45 6.45 0 0 0 6.444 6.443 6.45 6.45 0 0 0 6.443-6.443v-8.517h-3.438v8.517zm-26.4-13.338h3.626v8.06h7.65v-8.06h3.632v19.78h-3.632v-8.227h-7.65v8.227h-3.626v-19.78z" class="B D"/><path d="M982.62 613.093c-.814.905-1.75 1.462-2.808 1.462h-.174c-.605 0-1.196-.167-1.775-.47-.65-.334-1.147-.81-1.554-1.415-.418-.593-.646-1.24-.646-1.927v-.21c0-.674.13-1.314.456-1.92a4.16 4.16 0 0 1 1.446-1.582c.616-.405 1.273-.604 2.004-.604h.07c.664 0 1.292.13 1.884.435a3.98 3.98 0 0 1 1.481 1.346 4.27 4.27 0 0 1 .663 1.892l.017.427c0 .926-.354 1.786-1.063 2.565m3.665-6.293c-.66-1.14-1.592-2.05-2.756-2.738-.87-.506-1.77-.827-2.787-.965v-3.617c1.017-.43 1.647-1.386 1.647-2.5 0-1.518-1.217-2.748-2.735-2.748s-2.757 1.23-2.757 2.748c0 1.114.594 2.07 1.61 2.5v3.62c-.813.117-1.657.37-2.426.76l-9.742-7.4a3.01 3.01 0 0 0 .127-.804c0-1.68-1.363-3.044-3.044-3.044s-3.044 1.363-3.044 3.044 1.363 3.045 3.045 3.045c.574 0 1.104-.168 1.562-.444l.637.482 8.744 6.3c-.462.425-.893.908-1.237 1.45-.698 1.105-1.124 2.32-1.124 3.645v.276c0 .93.176 1.81.477 2.634a6.95 6.95 0 0 0 1.133 1.968l-2.9 2.91a2.34 2.34 0 0 0-3.161 2.206 2.34 2.34 0 0 0 .69 1.664c.44.443 1.04.692 1.663.7s1.224-.247 1.664-.7a2.34 2.34 0 0 0 .69-1.664 2.35 2.35 0 0 0-.109-.706l3-3c.412.284.856.524 1.333.73.943.407 1.982.655 3.12.655h.21c1.257 0 2.444-.295 3.56-.9 1.176-.638 2.096-1.51 2.8-2.626s1.083-2.353 1.083-3.712v-.068c0-1.337-.31-2.57-.96-3.7" class="B C"/><path d="M595.526 605.194c-.79 0-1.527.737-1.527 1.527v10.794a1.5 1.5 0 0 0 1.527 1.528h5.46c2.46 0 5.927-.54 6.86-4.922l1.473-7.06c.198-1.006-.54-1.868-1.527-1.868h-12.267zm20.853 4.652c-3.665 0-5.856 1.527-6.86 4.868l-2.533 7.92c-.934 2.605-2.46 3.664-5.19 3.664h-6.322c-.8 0-1.473.666-1.473 1.473v4.06c0 .736.593 1.33 1.4 1.33h25.702c.79 0 1.473-.665 1.473-1.473v-20.44c0-.79-.592-1.402-1.4-1.402h-4.795z" class="B D"/><path d="M634.23 616.778h3l.072 19.65c0 4.527-2.928 6.053-6.197 6.053h-1.13v-2.802h1.13c2.928 0 3.197-1.598 3.197-3.125l-.072-19.775zm1.4-7.598a2.08 2.08 0 0 1 2.066 2.067c0 1.203-.934 2.136-2.066 2.136a2.08 2.08 0 0 1-2.066-2.065c0-1.203.935-2.138 2.066-2.138zm18.446 13.453c0-2.855-2.856-3.538-5.137-3.538-1.598 0-3.125.396-4.724 1.204l-1.33-2.46c2.605-1.13 4.67-1.33 6.197-1.33 4.13 0 7.993 1.797 7.993 5.928v11.855h-2.802v-1.868c-1.527 1.598-3.197 2.262-5.46 2.262-4.202 0-7.525-2.335-7.525-6.268 0-3.197 2.658-6 7.454-6 1.796 0 3.736.54 5.334 1.994v-1.78zm-4.723 2.46c-3.665 0-4.868 1.796-4.868 3.467s1.203 3.466 4.868 3.466 4.867-1.796 4.867-3.466c-.018-1.653-1.275-3.467-4.867-3.467zm36.083-1.455c0-3-1.725-4.328-3.8-4.328-2.46 0-4.328 1.6-4.328 4.454V634.3h-3v-10.65c0-3-1.724-4.328-3.8-4.328-2.46 0-4.328 1.6-4.328 4.454v10.526h-2.928v-17.387h3v2.065h.073c.8-1.795 2.927-2.46 4.723-2.46 1.725 0 3.664.468 5.065 3 1.06-2.2 3.323-3 5.586-3 3.736 0 6.592 2.264 6.592 6.8v10.992h-3V623.64h.126zm10.4-9.6c0-3.665 2.46-5.4 5.927-5.533v3h-.593c-1.526 0-2.334 1.258-2.334 2.803v2.4h2.802v2.658h-2.802v14.78h-3v-14.853h-2.604v-2.64h2.604v-2.604zM804.73 104.262H785.1c0 4.894 3.968 8.86 8.86 8.86h3.617v3.5a8.86 8.86 0 0 0 8.854 8.855v-19.503c0-.94-.763-1.703-1.703-1.703m-9.71 9.78H775.4a8.86 8.86 0 0 0 8.855 8.854h3.615v3.502a8.86 8.86 0 0 0 8.86 8.849v-19.502c0-.94-.763-1.703-1.703-1.703m-9.727 9.774h-19.628c0 4.894 3.968 8.86 8.86 8.86h3.627v3.5a8.86 8.86 0 0 0 8.844 8.854v-19.5c0-.94-.763-1.703-1.703-1.703" class="C B"/><path d="M824.605 110.002h4.474v22.705c0 6.016-2.632 10.167-8.8 10.167a15.93 15.93 0 0 1-5.365-.847v-4.35c1.472.57 3.04.858 4.62.847 3.778 0 5.083-2.26 5.083-5.518L824.605 110zm10.438 32.65h4.275V117.8h-4.275v24.852zm2.186-34.397a2.79 2.79 0 0 1 2.982 2.584c.01.133.01.266 0 .398.001 1.647-1.333 2.984-2.98 2.985s-2.983-1.333-2.984-2.98v-.005a2.79 2.79 0 0 1 2.584-2.982 2.95 2.95 0 0 1 .399 0zm8.545 9.54h4.174v4.372c1.44-2.932 3.953-5.022 8.8-4.723v4.175c-5.468-.565-8.8 1.095-8.8 6.36v14.685h-4.174v-24.87zm25.744 21.372c3.83 0 7.26-2.434 7.26-7.952v-2c0-5.518-3.13-7.953-6.78-7.953-4.823 0-7.308 3.18-7.308 8.947.022 5.987 2.406 8.97 6.834 8.97h-.006zm7.26-.994c-1.593 3.282-4.575 4.97-8.4 4.97-6.608 0-9.94-5.615-9.94-12.923 0-7 3.48-12.923 10.437-12.923 3.626 0 6.412 1.638 7.908 4.87v-4.372h4.276v24.85h-4.276l-.005-4.473z" class="D B"/><path d="M1131.957 471.84v10.832h2.422v-14.077h-3.353l-4.26 10.456-4.134-10.456h-3.49v14.077h2.276V471.84h.078l4.366 10.833h1.718l4.298-10.832h.078zm5.92-3.554c-.39 0-.732.133-1.01.397s-.424.596-.424.99c0 .387.14.713.42.97s.618.386 1.016.386.74-.13 1.02-.386.424-.584.424-.97c0-.38-.138-.708-.413-.978s-.62-.408-1.03-.408zm-1.21 14.386h2.373v-10.088h-2.373v10.088zm9.45-10.33c-1.09 0-2.06.233-2.886.693s-1.467 1.12-1.903 1.957-.653 1.812-.653 2.9c0 .953.213 1.828.635 2.6a4.46 4.46 0 0 0 1.776 1.795c.755.42 1.628.63 2.594.63 1.128 0 2.1-.225 2.863-.67l.03-.018v-2.174l-.1.073c-.35.254-.742.458-1.162.605s-.8.22-1.137.22c-.93 0-1.68-.29-2.22-.865s-.82-1.383-.82-2.4c0-1.023.288-1.852.854-2.463s1.315-.918 2.226-.918c.78 0 1.54.263 2.26.785l.1.072v-2.3l-.032-.018c-.27-.152-.64-.277-1.098-.37s-.903-.143-1.327-.143zm6.623 2v-1.747h-2.373v10.088h2.373v-5.16c0-.878.2-1.6.592-2.143.388-.538.904-.81 1.534-.81.214 0 .454.036.714.105s.443.145.554.224l.1.072v-2.392l-.038-.017c-.22-.094-.534-.14-.93-.14a2.43 2.43 0 0 0-1.587.569c-.402.332-.692.786-.913 1.353h-.026zm8.993-2c-1.664 0-2.985.487-3.926 1.45s-1.42 2.292-1.42 3.955c0 1.58.466 2.85 1.385 3.776s2.17 1.395 3.718 1.395c1.613 0 2.907-.495 3.85-1.47s1.42-2.29 1.42-3.916c0-1.603-.447-2.883-1.33-3.803s-2.127-1.386-3.694-1.386zm-.107 8.6c-.87 0-1.56-.29-2.044-.858s-.733-1.39-.733-2.426c0-1.07.246-1.906.734-2.49.484-.578 1.165-.872 2.023-.872.833 0 1.497.28 1.972.834s.72 1.387.72 2.47c0 1.094-.23 1.936-.678 2.5-.446.558-1.116.84-1.994.84zm10.13-8.6c-1.13 0-2.068.29-2.782.86-.72.575-1.085 1.327-1.085 2.24 0 .473.08.894.234 1.25a2.5 2.5 0 0 0 .718.937c.318.263.81.537 1.46.817l1.215.566c.253.147.432.295.534.44s.15.333.15.572c0 .677-.508 1.007-1.553 1.007-.386 0-.83-.08-1.312-.24a4.93 4.93 0 0 1-1.346-.681l-.1-.073v2.314l.037.016c.34.158.768.29 1.273.394s.962.157 1.36.157c1.227 0 2.216-.29 2.938-.865s1.094-1.35 1.094-2.29c0-.68-.198-1.264-.59-1.733s-1.06-.896-2-1.274c-.748-.3-1.228-.55-1.425-.74-.19-.185-.288-.446-.288-.776 0-.294.12-.53.365-.72s.59-.29 1.023-.29c.4 0 .81.063 1.216.187s.765.29 1.063.492l.1.068v-2.195l-.038-.015c-.276-.118-.638-.22-1.08-.302s-.836-.122-1.183-.122zm9.22 0c-1.665 0-2.986.487-3.927 1.45s-1.42 2.292-1.42 3.955c0 1.58.466 2.85 1.385 3.776s2.17 1.395 3.717 1.395c1.613 0 2.908-.495 3.85-1.47s1.42-2.29 1.42-3.916c0-1.603-.447-2.883-1.33-3.803s-2.126-1.386-3.693-1.386zm-.107 8.6c-.872 0-1.56-.29-2.044-.858s-.735-1.39-.735-2.426c0-1.07.247-1.906.735-2.49.485-.578 1.165-.872 2.024-.872.833 0 1.497.28 1.97.834s.72 1.387.72 2.47c0 1.094-.228 1.936-.677 2.5-.446.558-1.117.84-1.994.84zm17.79-6.43v-1.936h-2.403v-3.01l-.08.025-2.303.705v2.28h-3.562v-1.27c0-.59.13-1.043.392-1.346s.63-.45 1.102-.45c.34 0 .7.08 1.044.237l.088.04v-2.038l-.04-.016c-.33-.118-.78-.178-1.335-.178-.7 0-1.338.153-1.894.455s-.992.735-1.3 1.284-.46 1.183-.46 1.885v1.396h-1.674v1.936h1.674v8.153h2.403v-8.153h3.562v5.18c0 2.134 1.007 3.216 2.992 3.216a4.9 4.9 0 0 0 1.02-.113c.357-.077.6-.153.743-.235l.03-.02v-1.954l-.097.065c-.13.087-.292.158-.483.2s-.35.08-.475.08c-.464 0-.81-.125-1.022-.373s-.326-.685-.326-1.296v-4.762h2.403z" class="B E"/><g class="C B"><path d="M1088.6 475.056h11.164v-11.164H1088.6zm12.337 0h11.164v-11.164h-11.164zm-12.337 12.33h11.164v-11.163H1088.6zm12.337 0h11.164v-11.163h-11.164zM101.6 510.862V478.83l18.435 10.652 18.358-10.652v31.958l-9.142-5.3v-10.653l-9.216 5.365-9-5.138c-.076.076-.15.076-.15.076s-.076 0-.076.075-.075.152-.075.152v10.2l-9.142 5.288m46.083-24.103h3.777l4.156 6.725 4.23-6.725h3.777v16.017h-3.4v-9.973c-.076 0-.152-.075-.228-.075-.604.68-.98 1.5-1.5 2.2l-1.587 2.417h-2.644l-2.947-4.457c-.075 0-.15.075-.15.075v9.822h-3.475V486.76zm21.985 7.783c0 1.9.604 3.324 1.9 4.306 2.04 1.587 5.137 1.2 6.65-.83 1.662-2.2 1.284-5.666-.907-7.252-1.587-1.134-3.25-1.36-5.062-.53a5.12 5.12 0 0 0-2.57 4.307m-3.702.302c0-4.76 3.702-8.3 8.613-8.3 4.76 0 8.386 3.627 8.386 8.3 0 4.76-3.702 8.3-8.612 8.3-4.76 0-8.387-3.626-8.387-8.3m22.966 4.76h3.702c.604-.075 1.284-.378 1.813-.68 1.738-1.133 2.2-2.796 1.964-4.76-.226-1.74-1.133-3.023-2.72-3.703-1.5-.604-3.098-.453-4.684-.453l-.076 9.595m-3.55 3.25v-16.017c.15-.076.227-.15.302-.15l7.48.15c3.324.302 5.968 2.795 6.724 5.893.83 3.4-.454 6.8-3.25 8.612-1.435.983-3.098 1.36-4.76 1.436h-5.968c-.227.076-.302.15-.53.076m28.485-9.67v3.173h-7.48v3.324H215v3.098h-12.088v-15.94h11.937v3.098h-8.46v3.248zM458.66 118.295c-.752 0-1.3.26-1.64.795s-.534 1.3-.534 2.3.18 1.754.534 2.3c.35.54.887.803 1.64.803s1.3-.263 1.646-.803c.36-.546.542-1.32.542-2.3s-.182-1.75-.54-2.3-.896-.795-1.647-.795m-34.266 3.42s-.733-.12-1.553-.132c-1.168-.016-1.664.415-1.66.413-.345.243-.5.605-.5 1.1 0 .318.058.568.17.744.075.115.107.16.33.34-.004-.001.514.405 1.68.335.818-.05 1.545-.206 1.545-.206l-.001-2.602zm57.088-3.456c-.75 0-1.286.294-1.636.83-.232.353-.383.806-.463 1.35h4.082c-.04-.525-.143-.998-.38-1.35-.356-.535-.853-.83-1.604-.83"/><path d="M485.248 121.7c-.016.146-.166.15-.166.15l-5.724-.005c.037.87.244 1.485.667 1.904.412.4 1.07.67 1.958.673 1.358.002 1.94-.27 2.35-.423 0 0 .16-.057.216.1l.374 1.048c.076.178.015.24-.048.274-.36.198-1.23.567-2.882.573-.804.001-1.503-.114-2.078-.336s-1.063-.545-1.44-.954-.656-.898-.83-1.455-.26-1.167-.26-1.827c0-.648.084-1.263.25-1.827a4.14 4.14 0 0 1 .776-1.486c.347-.42.8-.758 1.317-1.006s1.175-.367 1.9-.367a4.2 4.2 0 0 1 1.64.332c.358.155.718.432 1.086.83a3.41 3.41 0 0 1 .733 1.34c.367 1.3.176 2.404.17 2.466zm-8.476 3.858c-.638.252-1.527.428-2.394.428-1.465 0-2.6-.424-3.338-1.256s-1.125-1.964-1.125-3.366c0-.65.093-1.263.275-1.82s.46-1.055.824-1.468.82-.746 1.36-.987 1.174-.363 1.885-.363a8.53 8.53 0 0 1 1.27.086 6.79 6.79 0 0 1 1.128.285c.04.015.15.07.104.198l-.415 1.156c-.063.174-.197.117-.197.117-.557-.176-1.1-.256-1.786-.256-.837 0-1.465.28-1.877.826s-.645 1.27-.648 2.227c-.003 1.052.26 1.83.725 2.3s1.116.724 1.935.724a6.2 6.2 0 0 0 .927-.066c.28-.044.54-.13.786-.225 0 0 .16-.062.215.103l.416 1.146c.053.142-.07.2-.07.2zm-7.156-8.35l-.43 1.2c-.036.1-.098.168-.208.155 0 0-.33-.077-.63-.077-.208 0-.502.026-.768.108-.26.08-.498.222-.707.425s-.377.488-.5.843-.2.93-.2 1.502v4.265c0 .096-.077.174-.173.174h-1.504c-.095 0-.174-.078-.174-.174v-8.537c0-.098.068-.175.164-.175h1.467c.096 0 .165.077.165.175v.696c.22-.294.613-.553.968-.713s.757-.282 1.475-.238c.376.024.863.127.96.165.038.014.13.075.086.205zm-7.075 5.98c-.166.56-.424 1.056-.77 1.47a3.64 3.64 0 0 1-1.298.979c-.518.234-1.127.354-1.812.354s-1.296-.12-1.814-.354a3.63 3.63 0 0 1-1.298-.979c-.346-.414-.604-.9-.77-1.47s-.248-1.17-.248-1.818.083-1.258.248-1.817.426-1.055.77-1.47a3.75 3.75 0 0 1 1.3-.987c.517-.24 1.127-.363 1.814-.363s1.295.122 1.8.363.954.574 1.3.987.603.908.77 1.47.25 1.17.25 1.817a6.35 6.35 0 0 1-.25 1.818zm-8.165-6.093l-.213 1.2c-.033.173-.192.168-.192.168h-1.885l-1.3 7.296c-.135.755-.305 1.402-.504 1.922-.2.528-.4.913-.742 1.28-.3.34-.658.593-1.058.738s-.88.218-1.406.218c-.25 0-.52-.004-.838-.08l-.523-.153c-.072-.027-.128-.116-.1-.23l.425-1.164c.06-.148.207-.092.207-.092.103.044.174.073.3.1a2.52 2.52 0 0 0 .458.05c.25 0 .477-.03.674-.097.24-.08.377-.218.523-.404.152-.194.274-.46.4-.814.128-.36.243-.834.343-1.4l1.283-7.163h-1.265c-.152 0-.2-.072-.185-.184l.212-1.192c.034-.17.2-.166.2-.166h1.3l.07-.387c.194-1.15.582-2.023 1.15-2.596s1.4-.87 2.424-.87c.297 0 .558.02.778.06l.565.135c.04.016.15.07.106.2l-.438 1.202c-.036.1-.062.144-.25.088-.046-.014-.115-.034-.293-.072a2.37 2.37 0 0 0-.469-.046 2 2 0 0 0-.615.087 1.2 1.2 0 0 0-.48.298c-.14.14-.3.354-.4.6-.2.606-.293 1.25-.303 1.3h1.83c.153 0 .2.07.187.185zm-13.164 8.237l-.564-.34c-.02-.028-.105-.062-.043-.224l.4-1.1c.06-.18.23-.115.267-.1l.334.2a4.79 4.79 0 0 0 2.609.751c.88 0 1.428-.467 1.428-1.095v-.033c0-.687-.84-.944-1.816-1.244l-.215-.066c-1.338-.383-2.766-.932-2.766-2.623v-.034c0-1.606 1.294-2.725 3.148-2.725l.203-.002c1.1 0 2.14.317 2.902.78.07.042.136.12.098.228l-.412 1.108c-.072.2-.267.064-.267.064-.667-.37-1.702-.66-2.574-.66-.785 0-1.292.417-1.292.982v.035c0 .662.867.943 1.87 1.27l.173.057c1.332.42 2.752 1.003 2.752 2.606v.034c0 1.734-1.258 2.812-3.283 2.812-.995 0-1.946-.156-2.953-.7zm-1.804-3.632c-.016.146-.166.15-.166.15l-5.724-.005c.037.87.243 1.485.667 1.904.412.4 1.07.67 1.957.673 1.36.002 1.94-.27 2.35-.423 0 0 .16-.057.216.1l.373 1.048c.076.178.016.24-.047.274-.36.198-1.23.567-2.883.573-.803.001-1.502-.114-2.077-.336s-1.064-.545-1.44-.954-.655-.898-.83-1.455-.26-1.167-.26-1.827c0-.648.086-1.263.252-1.827a4.14 4.14 0 0 1 .775-1.486 3.77 3.77 0 0 1 1.318-1.006c.526-.247 1.176-.367 1.9-.367a4.19 4.19 0 0 1 1.64.332c.358.155.718.432 1.086.83.234.25.6.798.732 1.34.368 1.3.177 2.404.172 2.466zm-9.478 3.93c0 .095-.07.173-.165.173h-1.518c-.096 0-.163-.078-.163-.173v-12.217c0-.095.067-.172.163-.172h1.518c.096 0 .165.077.165.172v12.217zm-3.843-.166l-.4.103-1.44.278a10.36 10.36 0 0 1-1.739.145c-.557 0-1.067-.052-1.515-.155-.456-.102-.848-.273-1.166-.505a2.35 2.35 0 0 1-.747-.894c-.175-.36-.262-.8-.262-1.307 0-.498.102-.943.305-1.32a2.77 2.77 0 0 1 .83-.944 3.68 3.68 0 0 1 1.196-.554c.444-.12.918-.18 1.4-.18l.894.027.944.1v-.242c0-.762-.16-1.123-.472-1.363-.32-.246-.796-.37-1.415-.37 0 0-1.392-.018-2.494.58-.05.03-.094.047-.094.047s-.137.048-.188-.093l-.404-1.1c-.062-.157.05-.228.05-.228.515-.402 1.766-.644 1.766-.644a9.41 9.41 0 0 1 1.533-.142c1.143 0 2.028.266 2.63.792s.9 1.378.9 2.526l.003 5.235s.01.152-.13.187zm-8.294-2.254c0 1.734-1.258 2.812-3.283 2.812-.995 0-1.946-.156-2.953-.7l-.564-.34c-.02-.028-.104-.062-.042-.224l.4-1.1c.063-.2.208-.127.265-.1l.335.2a4.79 4.79 0 0 0 2.609.751c.88 0 1.427-.467 1.427-1.095v-.033c0-.687-.84-.944-1.815-1.244l-.215-.066c-1.338-.383-2.766-.932-2.766-2.623v-.034c0-1.606 1.294-2.725 3.148-2.725l.203-.002c1.1 0 2.14.317 2.902.78.07.042.137.12.098.228l-.412 1.108c-.07.2-.267.064-.267.064-.667-.37-1.702-.66-2.574-.66-.785 0-1.3.417-1.3.982v.035c0 .662.866.943 1.87 1.27l.173.057c1.332.42 2.752 1.003 2.752 2.606v.034zM474.1 98.296a21.05 21.05 0 0 0-8.611 1.83c-3.028-5.396-8.716-9.03-15.234-9.03-4.904 0-9.338 2.058-12.523 5.376-3.504-4.58-9.032-7.538-15.25-7.538-10.593 0-19.18 8.575-19.18 19.153a19.07 19.07 0 0 0 1.578 7.618c-4.926 2.88-8.242 8.262-8.242 14.426 0 9.2 7.38 16.654 16.483 16.654a16.29 16.29 0 0 0 3.387-.353c2.502 6.785 9.017 11.622 16.663 11.622 7.34 0 13.64-4.46 16.344-10.82 2.057 1.003 4.367 1.567 6.8 1.567 5.834 0 10.916-3.214 13.583-7.97a21.17 21.17 0 0 0 4.194.417c11.757 0 21.3-9.615 21.3-21.476s-9.532-21.475-21.3-21.475zm-38.457 19.964c-.75 0-1.286.294-1.636.83-.232.353-.38.806-.463 1.35h4.082c-.04-.525-.143-.998-.378-1.35-.357-.535-.854-.83-1.605-.83"/></g><path d="M647.98 187.916l3.027.005a.42.42 0 0 0 .445-.403c.18-3.648.103-21.02-.01-23.764-.01-.237-.11-.326-.273-.347-.73-.098-2.808-.075-3.473.1-.13.034-.207.133-.21.26-.163 7.07-.053 23.372-.02 23.68s.196.458.515.47zm48.984.018c.27-.02 3.15-.418 4.035-.62.22-.05.297-.234.174-.417-.493-.74-1.79-2.843-3.15-4.725-1.25-1.73-2.568-3.252-2.994-3.838-.105-.142-.1-.282.014-.392l5.478-5.492c.493-.534.197-.764-.223-.888-.81-.242-2.12-.543-2.864-.7-.314-.067-.692-.043-.968.24-1.274 1.19-5.165 5.094-6.327 6.26-.21.21-.33.164-.332-.137l-.134-13.47c-.005-.21-.257-.368-.4-.376-.73-.038-2.576-.05-3.303-.006a.52.52 0 0 0-.416.406c-.168 2.534.07 21.138.17 23.74.007.188.147.334.325.344.726.042 2.52.04 3.358.024.412 0 .463-.3.463-.3l.06-4.992s.043-.222.11-.295l1.46-1.532c.084-.08.216-.076.3.04.414.56 1.595 2.374 2.69 3.995l2.008 2.904c.152.216.33.224.462.22zm-27.447-8.49c-.027-4.68 3.234-8.63 8.53-8.664 3.305-.022 5.706 1.476 6.13 2.183.086.166.042.305-.017.472a16.41 16.41 0 0 1-1.491 2.378c-.213.275-.447.04-.717-.14-.75-.5-2.177-1.11-3.58-1.11-2.548.001-4.445 1.747-4.423 4.96.02 3.084 1.836 4.778 4.43 4.84 1.357.034 2.67-.746 3.378-1.385.222-.193.453-.097.705.102.498.51 1.213 1.295 1.61 1.836.26.3.065.594-.027.712-1.076 1.36-3.15 2.504-5.897 2.52-5.75.04-8.602-4.003-8.63-8.7v-.001zm-15.315-6.248c1.087-.972 3.24-2.485 6.674-2.405 4.53.094 6.924 2.218 7.147 7.3.092 2.095-.06 7.94-.097 9.396-.005.21-.076.353-.357.36-.746.03-2.47.018-3.262.007-.4-.02-.446-.217-.45-.425l-.024-.867c-.004-.174-.168-.17-.2-.124-1.062 1.134-2.803 1.682-4.654 1.682-2.813 0-5.617-1.655-5.61-4.932.01-3.356 2.39-5.012 5.003-5.402 1.674-.25 3.56-.028 5 .54.09.036.278-.016.28-.146.006-.428-.015-1.243-.097-1.63-.2-.985-1.03-1.777-2.756-2-.355-.044-.713-.058-1.07-.03-1.37.108-3.02 1.178-3.705 1.578a.44.44 0 0 1-.494-.08c-.4-.515-1.4-2.022-1.48-2.263s.033-.442.173-.57v.001zm7.73 7.317c-2.323.03-4.453.665-4.515 2.48 0 1.44 1.168 2.15 2.81 2.056 1.573-.152 2.774-.834 3.302-1.74.196-.335.225-1.59.214-2.128-.003-.114-.23-.33-.328-.372-.494-.208-.86-.272-1.482-.298v.001zm-29.932-4.55c0-3.194 2.33-5.424 6.56-5.424 2.583 0 4.696.824 5.84 1.632.163.115.456.395.28.915a22.41 22.41 0 0 1-.933 1.952c-.17.318-.61.276-.836.162-.815-.413-2.153-1.112-3.382-1.24a7.33 7.33 0 0 0-.937-.041c-1.082.025-1.986.4-2.304 1.226-.063.156-.098.322-.104.5-.03 1.088 1.485 1.482 3.32 1.797 3.41.584 5.99 1.584 5.99 5.094 0 2.98-2.37 5.674-7.01 5.592-3.06-.062-5.23-1.096-6.394-2.1-.04-.035-.482-.485-.245-1.028.272-.698.73-1.498 1.1-1.923.2-.273.728-.317 1.002-.146.96.596 2.537 1.55 4.356 1.614.144.006.286.006.426.003 1.636-.04 2.626-.66 2.605-1.705-.017-.92-1.315-1.46-3.38-1.85-3.295-.62-5.945-1.706-5.945-5.02z" class="B D"/><g class="C B"><path d="M596.547 180.662c-1.184.01-2.188-.697-2.558-1.798l-.038-.126a2.75 2.75 0 0 1 1.78-3.359l22.47-7.53a3.08 3.08 0 0 1 .82-.12c1.215-.01 2.246.712 2.625 1.837l.034.1c.42 1.47-.624 2.78-1.876 3.2-.001.001-.228.077-22.346 7.63a2.92 2.92 0 0 1-.913.156m3.748 11.05c-1.193.01-2.2-.687-2.566-1.773l-.038-.124a2.77 2.77 0 0 1 1.777-3.393l22.472-7.597a2.95 2.95 0 0 1 .892-.15c1.197-.008 2.248.723 2.62 1.82l.035.114a2.84 2.84 0 0 1-.343 2.286c-.322.5-1.336.94-1.336.94l-22.557 7.712c-.308.104-.63.16-.955.163z"/><path d="M619 191.76a2.76 2.76 0 0 1-2.642-1.88l-7.5-22.278-.037-.125c-.406-1.42.375-2.902 1.776-3.374.28-.094.57-.143.86-.146a2.75 2.75 0 0 1 1.248.29 2.76 2.76 0 0 1 1.39 1.594l7.52 22.347c.42 1.474-.36 2.957-1.76 3.43a2.8 2.8 0 0 1-.857.144m-11.148 3.75a2.76 2.76 0 0 1-2.643-1.882l-7.498-22.276a2.76 2.76 0 0 1 1.73-3.497 2.83 2.83 0 0 1 .865-.146 2.76 2.76 0 0 1 2.642 1.881l7.498 22.277a2.76 2.76 0 0 1-1.73 3.497 2.78 2.78 0 0 1-.865.146z"/><path d="M615.302 186.744l5.23-1.788-1.7-5.077-5.236 1.77zm-11.132 3.806l5.23-1.788-1.722-5.115-5.235 1.77zm7.4-14.864l5.23-1.786-1.7-5.017-5.24 1.756zm-11.133 3.8l5.23-1.785-1.7-5.082-5.24 1.755zM974.894 371.67c.222-3.5 1.17-5.155 2.973-5.155 1.77 0 2.688 1.676 2.814 5.155h-5.787zm13.156 2.087c0-3.92-.854-7.02-2.53-9.202-1.708-2.214-4.27-3.353-7.526-3.353-6.673 0-10.816 4.934-10.816 12.84 0 4.428 1.107 7.748 3.3 9.867 1.96 1.898 4.776 2.846 8.412 2.846 3.352 0 6.452-.8 8.4-2.087l-.853-5.376c-1.93 1.044-4.174 1.613-6.704 1.613-1.518 0-2.562-.316-3.32-.98-.823-.695-1.297-1.834-1.456-3.446h13a65.66 65.66 0 0 0 .094-2.72zm-31.37 5.312c-.633 1.203-1.612 1.835-2.75 1.835-.8 0-1.486-.158-2.12-.474v-11.7c1.328-1.392 2.53-1.55 2.973-1.55 1.992 0 2.972 2.15 2.972 6.356 0 2.404-.347 4.27-1.075 5.534zm6.515-15.178c-1.392-1.803-3.32-2.7-5.787-2.7-2.277 0-4.27.95-6.135 2.942l-.4-2.467h-6.895v33.7l7.843-1.297v-7.906c1.202.38 2.436.57 3.542.57 1.96 0 4.807-.506 7.02-2.9 2.12-2.3 3.194-5.882 3.194-10.594 0-4.175-.8-7.337-2.372-9.36zm-30.2 22.4h7.874v-24.603h-7.874v24.603zm3.953-27.04c2.277 0 4.112-1.865 4.112-4.142 0-2.3-1.835-4.143-4.112-4.143-2.308 0-4.142 1.834-4.142 4.143 0 2.277 1.834 4.142 4.142 4.142zm-7.336 2.096c-2.214 0-3.985 1.162-4.68 3.25l-.474-2.9h-6.862v24.602h7.843v-15.97c.98-1.202 2.37-1.636 4.268-1.636.4 0 .854 0 1.392.095v-7.243c-.538-.126-1.012-.2-1.486-.2zm-15.04 6.158l.95-5.818h-5v-7.064l-6.733 1.108-.973 5.956-2.37.384-.886 5.434h3.245v11.416c0 2.973.76 5.03 2.3 6.293 1.296 1.044 3.162 1.55 5.787 1.55 2.023 0 3.257-.348 4.1-.57v-6.166c-.473.126-1.55.347-2.276.347-1.55 0-2.214-.8-2.214-2.592v-10.28h4.06zm-22.465 3.447c-2.308-.853-3.574-1.517-3.574-2.56 0-.886.728-1.392 2.025-1.392 2.37 0 4.806.917 6.482 1.74l.95-5.85c-1.328-.632-4.047-1.676-7.8-1.676-2.656 0-4.87.696-6.45 1.992-1.645 1.36-2.498 3.32-2.498 5.693 0 4.3 2.625 6.135 6.893 7.684 2.752.98 3.67 1.676 3.67 2.75 0 1.044-.885 1.645-2.5 1.645-1.992 0-5.28-.98-7.43-2.245l-.95 5.914c1.834 1.043 5.25 2.118 8.8 2.118 2.815 0 5.156-.664 6.737-1.93 1.77-1.4 2.687-3.447 2.687-6.103 0-4.396-2.687-6.23-7.02-7.78zm186.763-178.866c4.378-.001 8.334.74 12.143 2.232 3.138 1.23 6.016 2.914 8.63 5.044 2.877 2.343 5.286 5.096 7.23 8.252a31.65 31.65 0 0 1 2.149 4.155c.537 1.258-.4 2.62-1.75 2.55-.733-.037-1.262-.418-1.574-1.087l-.633-1.375c-1.624-3.356-3.823-6.286-6.588-8.785-3.466-3.132-7.463-5.302-11.982-6.503a28.58 28.58 0 0 0-4.38-.795 28.87 28.87 0 0 0-4.4-.116c-4.578.235-8.867 1.475-12.847 3.748a28.71 28.71 0 0 0-7.611 6.302 28.87 28.87 0 0 0-4.526 7.218c-.087.197-.167.396-.287.577a1.8 1.8 0 0 1-2.036.743c-.763-.234-1.272-.923-1.28-1.722a1.9 1.9 0 0 1 .161-.789c1.34-3.094 3.1-5.918 5.325-8.463a32.46 32.46 0 0 1 9.42-7.465c2.7-1.426 5.553-2.44 8.544-3.058a32.24 32.24 0 0 1 3.715-.538c.952-.084 1.904-.106 2.572-.125"/></g><g class="E B"><path d="M1034.44 230.947c.08-.138.067-.292.084-.433.215-1.765.647-3.487 1.03-5.22l1.257-5.688c.1-.498.325-.68.835-.686h1.432c.01 0 .018-.001.028 0 .438.017.63.262.53.685l-.164.622-3.074 11.4a3 3 0 0 1-.047.162c-.113.383-.328.557-.73.576l-.618.003h-1.824c-.482-.002-.635-.12-.757-.576l-2.266-8.468c-.187-.697-.273-1.4-.37-2.123a2.36 2.36 0 0 0-.101-.468l-.15 1.16c-.102.76-.303 1.5-.5 2.24l-2.05 7.628c-.115.43-.3.6-.754.605l-2.554.001c-.377-.003-.536-.133-.638-.505l-1.317-4.807-1.96-7.188-.08-.326c-.052-.367.136-.596.503-.628.037-.003.075-.002.112-.002h1.545c.422.02.6.162.7.576l.632 2.585 1.503 6.235c.183.765.247 1.548.326 2.33.008.073-.001.15.036.218.008.015.027.023.055.045l.22-1.294c.167-1.007.464-1.98.724-2.965l1.884-7.062c.13-.488.354-.664.86-.667h1.853c.537.004.786.196.927.712l2.402 8.867c.204.76.305 1.538.414 2.316.006.04-.012.1.05.13m55.688-5.107c-.004.3.012.794.064 1.287.06.558.154 1.1.34 1.64a3.09 3.09 0 0 0 .605 1.063c.472.526 1.08.742 1.77.78 1.35.073 2.324-.48 2.87-1.628.255-.536.397-1.104.48-1.7a11.64 11.64 0 0 0 .05-2.822c-.078-.745-.226-1.475-.55-2.16-.24-.507-.556-.955-1.024-1.27-.86-.578-1.784-.605-2.732-.263-.464.168-.8.495-1.07.9-.2.318-.346.662-.45 1.02-.285.96-.358 1.943-.35 3.132m6.212 4.815l-.378.452a3.94 3.94 0 0 1-2.394 1.29c-.87.134-1.734.12-2.588-.098-1.435-.366-2.4-1.277-2.986-2.615-.334-.76-.513-1.56-.6-2.38-.138-1.183-.127-2.37.002-3.552.14-1.292.555-2.47 1.43-3.465a4.32 4.32 0 0 1 1.6-1.15c1-.42 2.056-.54 3.132-.347 1 .18 1.827.686 2.464 1.486l.26.325c.053-.12.03-.222.03-.318l.001-6.984c0-.532.22-.755.764-.763l1.067-.002c.124-.001.244.022.358.06.254.084.392.28.4.547l.001.224-.001 18.258c-.006.303-.14.5-.424.588a.84.84 0 0 1-.246.05c-.28.005-.563.012-.842-.003-.47-.026-.67-.203-.78-.658l-.18-.764c-.014-.062-.022-.126-.083-.18"/><path d="M1075.27 225.546c-.055.118-.03.22-.03.32v5.722c0 .57-.224.8-.8.793-.355.002-.7-.002-1.066.002a.85.85 0 0 1-.407-.088c-.204-.108-.333-.27-.333-.512V213.33c.004-.457.222-.686.688-.698h1.234c.458.012.683.248.683.706l.001 11.718c.1.035.123-.045.162-.088l4.754-5.264.353-.4c.205-.245.468-.37.784-.374h1.824a.74.74 0 0 1 .219.035c.3.095.375.353.2.597-.05.068-.112.126-.17.186l-5.226 5.245c-.217.218-.215.216-.008.456l5.304 6.162c.055.064.1.125.146.205a.37.37 0 0 1-.235.538c-.1.032-.184.028-.277.028-.627.001-1.254-.004-1.88.003-.323.004-.58-.114-.778-.367l-2.503-3.167-2.43-3.084c-.057-.072-.102-.156-.205-.22m49.597 3.313l.204-.725 1.24-3.866 1.535-4.74c.1-.393.375-.58.754-.593l1.684-.004a.72.72 0 0 1 .218.046.41.41 0 0 1 .293.59l-.4 1.2-4.64 13.33c-.298.858-.715 1.642-1.373 2.283-.558.543-1.208.937-1.93 1.217l-.7.262c-.487.167-.805.057-1.08-.368l-.328-.522a.59.59 0 0 1 .247-.872c.1-.05.207-.086.314-.12.95-.3 1.625-.933 2.128-1.768.35-.58.587-1.207.754-1.862.034-.127.02-.23-.03-.348l-5.344-12.457c-.087-.246-.017-.413.223-.527.13-.06.266-.082.408-.082l1.488.002c.507.005.77.187.952.668l2.563 6.756c.3.82.67 1.625.84 2.5"/><path d="M1106.188 225.708c-.02.34.02.798.064 1.253.07.7.2 1.367.495 2.003.337.732.865 1.26 1.652 1.5.668.194 1.345.195 2.02.026.717-.18 1.26-.592 1.64-1.222.305-.503.48-1.052.585-1.625.207-1.13.213-2.268.1-3.407-.057-.568-.17-1.126-.38-1.66-.325-.827-.845-1.47-1.708-1.78-.492-.178-1.005-.217-1.52-.178-.977.074-1.75.493-2.246 1.365-.2.336-.326.693-.423 1.064-.217.838-.275 1.694-.277 2.674m6.656 4.942c-.124.022-.146.114-.195.176-.52.67-1.135 1.213-1.97 1.462a4.77 4.77 0 0 1-1.44.178c-.987-.014-1.93-.2-2.803-.687-1.223-.67-2-1.705-2.492-3-.416-1.1-.54-2.265-.52-3.442.02-1.055.166-2.086.56-3.07.786-1.967 2.225-3.136 4.32-3.478 1.076-.175 2.144-.137 3.194.17 1.418.414 2.434 1.305 3.085 2.623.388.788.592 1.63.7 2.496.077.622.1 1.247.1 1.874l-.018 5.58c-.001.476-.238.72-.716.728-.262.004-.524.006-.786-.001-.45-.013-.666-.187-.777-.62l-.23-.998m-67.175-4.977l.058.934c.054.682.176 1.35.438 1.986.223.542.524 1.032.993 1.4.753.6 1.62.725 2.54.626.732-.08 1.366-.366 1.872-.912.4-.44.667-.965.84-1.534.262-.866.338-1.756.333-2.656-.004-.854-.083-1.697-.34-2.515-.217-.7-.548-1.315-1.136-1.76-1.013-.765-2.147-.813-3.304-.444-.882.282-1.436.944-1.785 1.783-.4.958-.482 1.97-.508 3.092m9.918-.107c-.02 1.178-.175 2.33-.652 3.418-.824 1.878-2.25 3.014-4.262 3.396-1.25.238-2.5.183-3.7-.238-1.8-.626-2.97-1.9-3.595-3.668-.436-1.247-.528-2.535-.4-3.843.077-.854.263-1.677.616-2.46.796-1.77 2.154-2.866 4.033-3.3 1.484-.334 2.96-.262 4.375.333 1.497.628 2.5 1.747 3.067 3.248.3.8.47 1.65.504 2.516l.033.587"/><path d="M1062.83 220.8l.404-.484c.668-.766 1.464-1.33 2.475-1.546a3.73 3.73 0 0 1 1.723.025c.218.055.424.14.605.28.212.166.302.37.222.64l-.317 1.104c-.132.43-.4.593-.856.514l-.987-.205c-.2-.043-.424-.07-.637-.096-.82-.102-1.4.268-1.866.9-.5.7-.696 1.485-.706 2.322l-.02 4.226-.004 3.138c-.001.5-.234.744-.753.75l-1.15.002c-.183.001-.352-.04-.504-.143s-.248-.25-.25-.445l-.001-.195-.001-12c-.03-.386.214-.622.575-.662a4.73 4.73 0 0 1 1.064.002c.285.032.47.203.555.484l.43 1.4m70.57 9.7c.005-.84-.676-1.536-1.496-1.53a1.53 1.53 0 0 0-1.5 1.505 1.49 1.49 0 0 0 1.473 1.496c.826.006 1.506-.616 1.523-1.47m-1.494-1.833c1.028.001 1.804.78 1.804 1.814 0 1.012-.807 1.813-1.82 1.807-1-.006-1.782-.814-1.797-1.8-.012-.9.75-1.85 1.813-1.8"/><path d="M1131.634 230.013l.001.195c0 .05.02.097.073.1.14.012.28.022.41-.035a.24.24 0 0 0 .154-.216c.005-.1-.043-.198-.147-.248-.12-.058-.25-.065-.382-.06-.086.002-.11.05-.1.125v.14zm1.14 1.405c-.03.012-.047.023-.065.024-.453.033-.453.033-.642-.382l-.155-.33c-.042-.103-.123-.108-.208-.092s-.068.1-.07.16l.001.476c.01.14-.052.185-.18.172-.047-.005-.093-.004-.14 0-.127.01-.187-.035-.186-.173l.002-1.683c0-.093.015-.17.134-.167.346.004.693-.028 1.035.043.42.086.614.47.42.822-.046.084-.107.162-.195.193-.164.056-.127.143-.07.258.11.224.242.438.32.677z"/></g><path d="M740.36 376.26c0 50.938-41.294 92.232-92.232 92.232s-92.232-41.294-92.232-92.232 41.293-92.232 92.232-92.232 92.232 41.294 92.232 92.232" fill="#0a1b2b" class="B"/><path d="M630.585 338.36l-26.545 26.544v17.74l44.283-44.284zm-26.545 75.8L631.1 387v26.728h12.957v-57.324L604.04 396.42zm62.78-75.8l26.545 26.544v17.74l-44.283-44.284zm26.545 75.8L666.314 387v26.728h-12.956v-57.324l40.007 40.007z" fill="#fbb416" class="B"/></g></g></svg>