<svg width="1651" height="930" viewBox="0 0 1651 930" fill="none" xmlns="http://www.w3.org/2000/svg">
<path d="M154 504L7 544V740H1637.5V14L1489.87 211.5C1488.65 213.128 1486.97 214.346 1485.04 214.993L1340.88 263.37C1339.64 263.786 1338.33 263.955 1337.02 263.866L1193.01 254.136C1191.68 254.046 1190.35 254.222 1189.09 254.652L1045 304L896 364L750.939 413.678C750.315 413.892 749.67 414.044 749.016 414.131L599.5 434L450.946 473.483C449.661 473.824 448.322 473.906 447.006 473.724L306.81 454.32C305.291 454.109 303.743 454.252 302.287 454.735L154 504Z" fill="url(#paint0_radial)" fill-opacity="0.1"/>
<g filter="url(#filter0_d)">
<path d="M7 544L154 504L297.86 456.206C302.228 454.755 306.872 454.328 311.431 454.959L443.018 473.172C446.966 473.719 450.984 473.473 454.837 472.449L599.5 434L747.049 414.392C749.011 414.131 750.943 413.677 752.817 413.035L896 364L1045 304L1185.28 255.957C1189.06 254.665 1193.05 254.138 1197.03 254.407L1333.07 263.599C1336.98 263.864 1340.91 263.357 1344.64 262.109L1479.12 216.979C1484.9 215.039 1489.96 211.384 1493.61 206.499L1637.5 14" stroke="#33C69F" stroke-width="2"/>
</g>
<mask id="mask0" mask-type="alpha" maskUnits="userSpaceOnUse" x="7" y="0" width="1641" height="740">
<path d="M154 504L7 544V740H1647.5V0L1489.87 211.491C1488.65 213.125 1486.96 214.347 1485.03 214.995L1340.88 263.37C1339.64 263.786 1338.33 263.955 1337.02 263.866L1193.01 254.136C1191.68 254.046 1190.35 254.222 1189.09 254.652L1045 304L896 364L750.939 413.678C750.315 413.892 749.67 414.044 749.016 414.131L599.5 434L450.946 473.483C449.661 473.824 448.322 473.906 447.006 473.724L306.81 454.32C305.291 454.109 303.743 454.252 302.287 454.735L154 504Z" fill="url(#paint1_linear)"/>
</mask>
<g mask="url(#mask0)">
<g clip-path="url(#clip0)">
<line opacity="0.25" x1="926" y1="-13" x2="926" y2="736" stroke="#33C69F" stroke-width="2" stroke-dasharray="3 3"/>
<line opacity="0.25" x1="936" y1="-13" x2="936" y2="736" stroke="#33C69F" stroke-width="2" stroke-dasharray="3 3"/>
<line opacity="0.25" x1="946" y1="-13" x2="946" y2="736" stroke="#33C69F" stroke-width="2" stroke-dasharray="3 3"/>
<line opacity="0.25" x1="956" y1="-13" x2="956" y2="736" stroke="#33C69F" stroke-width="2" stroke-dasharray="3 3"/>
<line opacity="0.25" x1="966" y1="-13" x2="966" y2="736" stroke="#33C69F" stroke-width="2" stroke-dasharray="3 3"/>
<line opacity="0.25" x1="976" y1="-13" x2="976" y2="736" stroke="#33C69F" stroke-width="2" stroke-dasharray="3 3"/>
<line opacity="0.25" x1="986" y1="-13" x2="986" y2="736" stroke="#33C69F" stroke-width="2" stroke-dasharray="3 3"/>
<line opacity="0.25" x1="996" y1="-13" x2="996" y2="736" stroke="#33C69F" stroke-width="2" stroke-dasharray="3 3"/>
<line opacity="0.25" x1="1006" y1="-13" x2="1006" y2="736" stroke="#33C69F" stroke-width="2" stroke-dasharray="3 3"/>
<line opacity="0.25" x1="1016" y1="-13" x2="1016" y2="736" stroke="#33C69F" stroke-width="2" stroke-dasharray="3 3"/>
<line opacity="0.25" x1="1026" y1="-13" x2="1026" y2="736" stroke="#33C69F" stroke-width="2" stroke-dasharray="3 3"/>
<line opacity="0.25" x1="1036" y1="-13" x2="1036" y2="736" stroke="#33C69F" stroke-width="2" stroke-dasharray="3 3"/>
<line opacity="0.25" x1="1046" y1="-13" x2="1046" y2="736" stroke="#33C69F" stroke-width="2" stroke-dasharray="3 3"/>
<line opacity="0.25" x1="1056" y1="-13" x2="1056" y2="736" stroke="#33C69F" stroke-width="2" stroke-dasharray="3 3"/>
<line opacity="0.25" x1="1066" y1="-13" x2="1066" y2="736" stroke="#33C69F" stroke-width="2" stroke-dasharray="3 3"/>
<line opacity="0.25" x1="1076" y1="-13" x2="1076" y2="736" stroke="#33C69F" stroke-width="2" stroke-dasharray="3 3"/>
<line opacity="0.25" x1="1086" y1="-13" x2="1086" y2="736" stroke="#33C69F" stroke-width="2" stroke-dasharray="3 3"/>
<line opacity="0.25" x1="1096" y1="-13" x2="1096" y2="736" stroke="#33C69F" stroke-width="2" stroke-dasharray="3 3"/>
<line opacity="0.25" x1="1106" y1="-13" x2="1106" y2="736" stroke="#33C69F" stroke-width="2" stroke-dasharray="3 3"/>
<line opacity="0.25" x1="1116" y1="-13" x2="1116" y2="736" stroke="#33C69F" stroke-width="2" stroke-dasharray="3 3"/>
<line opacity="0.25" x1="1126" y1="-13" x2="1126" y2="736" stroke="#33C69F" stroke-width="2" stroke-dasharray="3 3"/>
<line opacity="0.25" x1="1136" y1="-13" x2="1136" y2="736" stroke="#33C69F" stroke-width="2" stroke-dasharray="3 3"/>
<line opacity="0.25" x1="1146" y1="-13" x2="1146" y2="736" stroke="#33C69F" stroke-width="2" stroke-dasharray="3 3"/>
<line opacity="0.25" x1="1156" y1="-13" x2="1156" y2="736" stroke="#33C69F" stroke-width="2" stroke-dasharray="3 3"/>
<line opacity="0.25" x1="1166" y1="-13" x2="1166" y2="736" stroke="#33C69F" stroke-width="2" stroke-dasharray="3 3"/>
<line opacity="0.25" x1="1176" y1="-13" x2="1176" y2="736" stroke="#33C69F" stroke-width="2" stroke-dasharray="3 3"/>
<line opacity="0.25" x1="1186" y1="-13" x2="1186" y2="736" stroke="#33C69F" stroke-width="2" stroke-dasharray="3 3"/>
<line opacity="0.25" x1="1196" y1="-13" x2="1196" y2="736" stroke="#33C69F" stroke-width="2" stroke-dasharray="3 3"/>
<line opacity="0.25" x1="1206" y1="-13" x2="1206" y2="736" stroke="#33C69F" stroke-width="2" stroke-dasharray="3 3"/>
<line opacity="0.25" x1="1216" y1="-13" x2="1216" y2="736" stroke="#33C69F" stroke-width="2" stroke-dasharray="3 3"/>
<line opacity="0.25" x1="1226" y1="-13" x2="1226" y2="736" stroke="#33C69F" stroke-width="2" stroke-dasharray="3 3"/>
<line opacity="0.25" x1="1236" y1="-13" x2="1236" y2="736" stroke="#33C69F" stroke-width="2" stroke-dasharray="3 3"/>
<line opacity="0.25" x1="1246" y1="-13" x2="1246" y2="736" stroke="#33C69F" stroke-width="2" stroke-dasharray="3 3"/>
<line opacity="0.25" x1="1256" y1="-13" x2="1256" y2="736" stroke="#33C69F" stroke-width="2" stroke-dasharray="3 3"/>
<line opacity="0.25" x1="1266" y1="-13" x2="1266" y2="736" stroke="#33C69F" stroke-width="2" stroke-dasharray="3 3"/>
<line opacity="0.25" x1="1276" y1="-13" x2="1276" y2="736" stroke="#33C69F" stroke-width="2" stroke-dasharray="3 3"/>
<line opacity="0.25" x1="1286" y1="-13" x2="1286" y2="736" stroke="#33C69F" stroke-width="2" stroke-dasharray="3 3"/>
<line opacity="0.25" x1="1296" y1="-13" x2="1296" y2="736" stroke="#33C69F" stroke-width="2" stroke-dasharray="3 3"/>
<line opacity="0.25" x1="1306" y1="-13" x2="1306" y2="736" stroke="#33C69F" stroke-width="2" stroke-dasharray="3 3"/>
<line opacity="0.25" x1="1316" y1="-13" x2="1316" y2="736" stroke="#33C69F" stroke-width="2" stroke-dasharray="3 3"/>
<line opacity="0.25" x1="1326" y1="-13" x2="1326" y2="736" stroke="#33C69F" stroke-width="2" stroke-dasharray="3 3"/>
<line opacity="0.25" x1="1336" y1="-13" x2="1336" y2="736" stroke="#33C69F" stroke-width="2" stroke-dasharray="3 3"/>
<line opacity="0.25" x1="1346" y1="-13" x2="1346" y2="736" stroke="#33C69F" stroke-width="2" stroke-dasharray="3 3"/>
<line opacity="0.25" x1="1356" y1="-13" x2="1356" y2="736" stroke="#33C69F" stroke-width="2" stroke-dasharray="3 3"/>
<line opacity="0.25" x1="1366" y1="-13" x2="1366" y2="736" stroke="#33C69F" stroke-width="2" stroke-dasharray="3 3"/>
<line opacity="0.25" x1="1376" y1="-13" x2="1376" y2="736" stroke="#33C69F" stroke-width="2" stroke-dasharray="3 3"/>
<line opacity="0.25" x1="1386" y1="-13" x2="1386" y2="736" stroke="#33C69F" stroke-width="2" stroke-dasharray="3 3"/>
<line opacity="0.25" x1="1396" y1="-13" x2="1396" y2="736" stroke="#33C69F" stroke-width="2" stroke-dasharray="3 3"/>
<line opacity="0.25" x1="1406" y1="-13" x2="1406" y2="736" stroke="#33C69F" stroke-width="2" stroke-dasharray="3 3"/>
<line opacity="0.25" x1="1416" y1="-13" x2="1416" y2="736" stroke="#33C69F" stroke-width="2" stroke-dasharray="3 3"/>
<line opacity="0.25" x1="1426" y1="-13" x2="1426" y2="736" stroke="#33C69F" stroke-width="2" stroke-dasharray="3 3"/>
<line opacity="0.25" x1="1436" y1="-13" x2="1436" y2="736" stroke="#33C69F" stroke-width="2" stroke-dasharray="3 3"/>
<line opacity="0.25" x1="1446" y1="-13" x2="1446" y2="736" stroke="#33C69F" stroke-width="2" stroke-dasharray="3 3"/>
<line opacity="0.25" x1="1456" y1="-13" x2="1456" y2="736" stroke="#33C69F" stroke-width="2" stroke-dasharray="3 3"/>
<line opacity="0.25" x1="1466" y1="-13" x2="1466" y2="736" stroke="#33C69F" stroke-width="2" stroke-dasharray="3 3"/>
<line opacity="0.25" x1="1476" y1="-13" x2="1476" y2="736" stroke="#33C69F" stroke-width="2" stroke-dasharray="3 3"/>
<line opacity="0.25" x1="1486" y1="-13" x2="1486" y2="736" stroke="#33C69F" stroke-width="2" stroke-dasharray="3 3"/>
<line opacity="0.25" x1="1496" y1="-13" x2="1496" y2="736" stroke="#33C69F" stroke-width="2" stroke-dasharray="3 3"/>
<line opacity="0.25" x1="1506" y1="-13" x2="1506" y2="736" stroke="#33C69F" stroke-width="2" stroke-dasharray="3 3"/>
<line opacity="0.25" x1="1516" y1="-13" x2="1516" y2="736" stroke="#33C69F" stroke-width="2" stroke-dasharray="3 3"/>
<line opacity="0.25" x1="1526" y1="-13" x2="1526" y2="736" stroke="#33C69F" stroke-width="2" stroke-dasharray="3 3"/>
<line opacity="0.25" x1="1536" y1="-13" x2="1536" y2="736" stroke="#33C69F" stroke-width="2" stroke-dasharray="3 3"/>
<line opacity="0.25" x1="1546" y1="-13" x2="1546" y2="736" stroke="#33C69F" stroke-width="2" stroke-dasharray="3 3"/>
<line opacity="0.25" x1="1556" y1="-13" x2="1556" y2="736" stroke="#33C69F" stroke-width="2" stroke-dasharray="3 3"/>
<line opacity="0.25" x1="1566" y1="-13" x2="1566" y2="736" stroke="#33C69F" stroke-width="2" stroke-dasharray="3 3"/>
<line opacity="0.25" x1="1576" y1="-13" x2="1576" y2="736" stroke="#33C69F" stroke-width="2" stroke-dasharray="3 3"/>
<line opacity="0.25" x1="1586" y1="-13" x2="1586" y2="736" stroke="#33C69F" stroke-width="2" stroke-dasharray="3 3"/>
<line opacity="0.25" x1="1596" y1="-13" x2="1596" y2="736" stroke="#33C69F" stroke-width="2" stroke-dasharray="3 3"/>
<line opacity="0.25" x1="1606" y1="-13" x2="1606" y2="736" stroke="#33C69F" stroke-width="2" stroke-dasharray="3 3"/>
<line opacity="0.25" x1="1616" y1="-13" x2="1616" y2="736" stroke="#33C69F" stroke-width="2" stroke-dasharray="3 3"/>
<line opacity="0.25" x1="1626" y1="-13" x2="1626" y2="736" stroke="#33C69F" stroke-width="2" stroke-dasharray="3 3"/>
<line opacity="0.25" x1="1636" y1="-13" x2="1636" y2="736" stroke="#33C69F" stroke-width="2" stroke-dasharray="3 3"/>
</g>
<path opacity="0.25" d="M288 -13L288 736" stroke="#33C69F" stroke-width="2" stroke-dasharray="3 3"/>
<path opacity="0.25" d="M485 -13L485 736" stroke="#33C69F" stroke-width="2" stroke-dasharray="3 3"/>
<path opacity="0.25" d="M624 -13L624 736" stroke="#33C69F" stroke-width="2" stroke-dasharray="3 3"/>
<path opacity="0.25" d="M720 -13L720 736" stroke="#33C69F" stroke-width="2" stroke-dasharray="3 3"/>
<path opacity="0.25" d="M786 -13L786 736" stroke="#33C69F" stroke-width="2" stroke-dasharray="3 3"/>
<path opacity="0.25" d="M833 -13L833 736" stroke="#33C69F" stroke-width="2" stroke-dasharray="3 3"/>
<path opacity="0.25" d="M866 -13L866 736" stroke="#33C69F" stroke-width="2" stroke-dasharray="3 3"/>
<path opacity="0.25" d="M889 -13L889 736" stroke="#33C69F" stroke-width="2" stroke-dasharray="3 3"/>
<path opacity="0.25" d="M905 -13L905 736" stroke="#33C69F" stroke-width="2" stroke-dasharray="3 3"/>
<path opacity="0.25" d="M916 -13L916 736" stroke="#33C69F" stroke-width="2" stroke-dasharray="3 3"/>
</g>
<path d="M1633.57 14.1096L1637.38 14.0659L1642.02 8.04427L1633.57 14.1096Z" fill="#33C69F"/>
<path d="M1638.31 17.7598L1637.38 14.0659L1642.02 8.04432L1638.31 17.7598Z" fill="#33C69F"/>
<defs>
<filter id="filter0_d" x="0.737427" y="10.4014" width="1643.56" height="543.564" filterUnits="userSpaceOnUse" color-interpolation-filters="sRGB">
<feFlood flood-opacity="0" result="BackgroundImageFix"/>
<feColorMatrix in="SourceAlpha" type="matrix" values="0 0 0 0 0 0 0 0 0 0 0 0 0 0 0 0 0 0 127 0"/>
<feOffset dy="3"/>
<feGaussianBlur stdDeviation="3"/>
<feColorMatrix type="matrix" values="0 0 0 0 0 0 0 0 0 0 0 0 0 0 0 0 0 0 0.5 0"/>
<feBlend mode="normal" in2="BackgroundImageFix" result="effect1_dropShadow"/>
<feBlend mode="normal" in="SourceGraphic" in2="effect1_dropShadow" result="shape"/>
</filter>
<radialGradient id="paint0_radial" cx="0" cy="0" r="1" gradientUnits="userSpaceOnUse" gradientTransform="translate(822 129.5) rotate(70.5527) scale(438.518 984.854)">
<stop stop-color="#33C69F"/>
<stop offset="1" stop-color="#33C69F" stop-opacity="0"/>
</radialGradient>
<linearGradient id="paint1_linear" x1="821" y1="13" x2="940.5" y2="622" gradientUnits="userSpaceOnUse">
<stop stop-color="white"/>
<stop offset="1" stop-color="white" stop-opacity="0"/>
</linearGradient>
<clipPath id="clip0">
<rect x="925" y="-13" width="717" height="749" fill="white"/>
</clipPath>
</defs>
</svg>
