<svg width="469" height="462" viewBox="0 0 469 462" fill="none" xmlns="http://www.w3.org/2000/svg">
<g filter="url(#filter0_dd)">
<g clip-path="url(#clip0)">
<path d="M40 42C40 39.2386 42.2386 37 45 37H424C426.761 37 429 39.2386 429 42V414C429 416.761 426.761 419 424 419H45C42.2386 419 40 416.761 40 414V42Z" fill="#092C3D"/>
<path d="M129.276 119.776C126.876 119.176 125.268 118.84 125.268 116.968C125.268 115.696 126.492 114.928 128.532 114.928C130.908 114.928 132.156 115.984 132.42 117.976H135.276C135.036 114.448 132.3 112.48 128.532 112.48C124.788 112.48 122.436 114.184 122.436 117.232C122.436 120.496 125.34 121.528 128.028 122.2C131.412 123.04 132.876 123.424 132.876 125.464C132.876 126.784 131.892 127.912 129.348 127.912C126.276 127.912 124.788 126.472 124.644 124.288H121.788C121.956 128.176 125.148 130.36 129.348 130.36C133.668 130.36 135.732 128.08 135.732 125.344C135.732 121.504 132.948 120.712 129.276 119.776ZM144.248 117.4C142.184 117.4 140.912 118.36 140.264 119.32H140.216V112.84H137.696V130H140.216V122.536C140.216 120.712 141.536 119.536 143.384 119.536C145.136 119.536 145.832 120.592 145.832 122.248V130H148.376V121.528C148.376 118.72 146.576 117.4 144.248 117.4ZM158.096 120.952C158.096 122.128 156.944 122.368 155.048 122.728C151.976 123.328 149.984 124.168 149.984 126.856C149.984 128.92 151.52 130.36 154.016 130.36C155.912 130.36 157.304 129.616 158.072 128.536H158.12C158.36 129.736 158.984 130.216 160.328 130.216C160.808 130.216 161.216 130.168 161.792 129.952V128.752C160.808 128.848 160.616 128.392 160.616 127.528V121.696C160.616 118.432 158.6 117.4 155.888 117.4C152.192 117.4 150.68 119.248 150.56 121.6H153.008C153.128 120.016 153.872 119.392 155.888 119.392C157.568 119.392 158.096 120.064 158.096 120.952ZM154.568 128.368C153.2 128.368 152.528 127.744 152.528 126.616C152.528 125.368 153.44 124.768 155.528 124.312C156.704 124.072 157.688 123.784 158.096 123.496V125.344C158.096 127.336 156.656 128.368 154.568 128.368ZM169.098 117.448C167.49 117.448 166.482 118.504 165.834 120.04H165.786V117.736H163.266V130H165.786V123.736C165.786 121.12 167.73 119.488 170.154 119.896H170.202V117.52C169.842 117.472 169.53 117.448 169.098 117.448ZM176.846 128.296C174.614 128.296 173.294 126.592 173.294 124.528H182.702C182.702 120.16 180.758 117.4 176.798 117.4C173.102 117.4 170.774 119.896 170.774 123.88C170.774 127.72 173.102 130.36 176.918 130.36C180.062 130.36 181.886 128.584 182.51 126.256H179.99C179.774 127 178.934 128.296 176.846 128.296ZM176.798 119.392C178.838 119.392 180.182 120.76 180.182 122.656H173.294C173.294 120.76 174.758 119.392 176.798 119.392ZM195.6 117.4C193.488 117.4 192.216 118.36 191.568 119.32H191.52V117.736H189V130H191.52V122.536C191.52 120.712 192.768 119.536 194.712 119.536C196.44 119.536 197.136 120.592 197.136 122.248V130H199.68V121.528C199.68 118.72 197.88 117.4 195.6 117.4ZM207.409 128.296C205.177 128.296 203.857 126.592 203.857 124.528H213.265C213.265 120.16 211.321 117.4 207.361 117.4C203.665 117.4 201.337 119.896 201.337 123.88C201.337 127.72 203.665 130.36 207.481 130.36C210.625 130.36 212.449 128.584 213.073 126.256H210.553C210.337 127 209.497 128.296 207.409 128.296ZM207.361 119.392C209.401 119.392 210.745 120.76 210.745 122.656H203.857C203.857 120.76 205.321 119.392 207.361 119.392ZM213.559 117.736L217.327 130H219.847L222.463 120.64H222.511L225.151 130H227.695L231.439 117.736H228.775L226.303 127.048H226.255L223.735 117.736H221.263L218.767 127.048H218.719L216.223 117.736H213.559ZM245.898 112.84V119.224H245.85C245.202 118.288 244.002 117.4 242.106 117.4C238.962 117.4 236.634 119.848 236.634 123.88C236.634 127.912 238.962 130.36 242.106 130.36C244.002 130.36 245.202 129.424 245.85 128.584H245.898V130H248.418V112.84H245.898ZM242.538 128.296C240.33 128.296 239.154 126.28 239.154 123.88C239.154 121.48 240.33 119.464 242.538 119.464C244.602 119.464 245.874 121.144 245.874 123.88C245.874 126.592 244.602 128.296 242.538 128.296ZM256.348 130.36C252.508 130.36 250.18 127.696 250.18 123.88C250.18 120.064 252.508 117.4 256.348 117.4C260.188 117.4 262.516 120.064 262.516 123.88C262.516 127.696 260.188 130.36 256.348 130.36ZM256.348 128.296C258.748 128.296 259.996 126.4 259.996 123.88C259.996 121.336 258.748 119.464 256.348 119.464C253.948 119.464 252.7 121.336 252.7 123.88C252.7 126.4 253.948 128.296 256.348 128.296ZM272.706 122.224H275.226C274.914 119.44 272.826 117.4 269.634 117.4C265.986 117.4 263.61 120.04 263.61 123.88C263.61 127.72 265.986 130.36 269.658 130.36C272.85 130.36 275.034 128.272 275.226 125.44H272.706C272.61 126.808 271.818 128.296 269.658 128.296C267.162 128.296 266.13 126.184 266.13 123.88C266.13 121.576 267.186 119.464 269.658 119.464C271.818 119.464 272.61 120.976 272.706 122.224ZM284.955 117.736V125.2C284.955 127.024 283.707 128.2 281.763 128.2C280.035 128.2 279.339 127.144 279.339 125.488V117.736H276.795V126.208C276.795 129.016 278.595 130.336 280.875 130.336C282.987 130.336 284.259 129.376 284.907 128.416H284.955V130H287.475V117.736H284.955ZM303.411 117.4C301.515 117.4 300.315 118.336 299.403 119.512H299.355C298.851 118.192 297.819 117.4 296.091 117.4C294.243 117.4 293.091 118.36 292.443 119.32H292.395V117.736H289.875V130H292.395V122.536C292.395 120.712 293.475 119.536 295.155 119.536C296.907 119.536 297.243 120.592 297.243 122.248V130H299.787V122.536C299.787 120.712 300.843 119.536 302.547 119.536C304.275 119.536 304.611 120.592 304.611 122.248V130H307.155V121.528C307.155 118.888 305.883 117.4 303.411 117.4ZM314.916 128.296C312.684 128.296 311.364 126.592 311.364 124.528H320.772C320.772 120.16 318.828 117.4 314.868 117.4C311.172 117.4 308.844 119.896 308.844 123.88C308.844 127.72 311.172 130.36 314.988 130.36C318.132 130.36 319.956 128.584 320.58 126.256H318.06C317.844 127 317.004 128.296 314.916 128.296ZM314.868 119.392C316.908 119.392 318.252 120.76 318.252 122.656H311.364C311.364 120.76 312.828 119.392 314.868 119.392ZM329.1 117.4C326.988 117.4 325.716 118.36 325.068 119.32H325.02V117.736H322.5V130H325.02V122.536C325.02 120.712 326.268 119.536 328.212 119.536C329.94 119.536 330.636 120.592 330.636 122.248V130H333.18V121.528C333.18 118.72 331.38 117.4 329.1 117.4ZM341.106 119.8V117.736H338.802V113.872H336.258V117.736H334.482V119.8H336.258V126.664C336.258 129.256 337.362 130.168 339.378 130.168C340.05 130.168 340.602 130.096 341.106 129.976V127.912C339.474 128.008 338.802 127.84 338.802 126.448V119.8H341.106Z" fill="white"/>
<path d="M93.9421 169.722V167.018H98.8951V165.705H92.3951V175H93.9421V171.048H97.9591V169.722H93.9421ZM100.636 167.239C101.039 167.239 101.416 166.979 101.416 166.511C101.416 166.043 101.039 165.796 100.636 165.796C100.259 165.796 99.8692 166.043 99.8692 166.511C99.8692 166.979 100.259 167.239 100.636 167.239ZM99.9602 168.357V175H101.325V168.357H99.9602ZM102.637 165.705V175H104.015V165.705H102.637ZM108.279 174.077C107.07 174.077 106.355 173.154 106.355 172.036H111.451C111.451 169.67 110.398 168.175 108.253 168.175C106.251 168.175 104.99 169.527 104.99 171.685C104.99 173.765 106.251 175.195 108.318 175.195C110.021 175.195 111.009 174.233 111.347 172.972H109.982C109.865 173.375 109.41 174.077 108.279 174.077ZM108.253 169.254C109.358 169.254 110.086 169.995 110.086 171.022H106.355C106.355 169.995 107.148 169.254 108.253 169.254Z" fill="white"/>
<rect x="91.8413" y="184" width="279.842" height="45" rx="5" fill="black" fill-opacity="0.12"/>
<path d="M142.798 198.462C141.498 198.137 140.627 197.955 140.627 196.941C140.627 196.252 141.29 195.836 142.395 195.836C143.682 195.836 144.358 196.408 144.501 197.487H146.048C145.918 195.576 144.436 194.51 142.395 194.51C140.367 194.51 139.093 195.433 139.093 197.084C139.093 198.852 140.666 199.411 142.122 199.775C143.955 200.23 144.748 200.438 144.748 201.543C144.748 202.258 144.215 202.869 142.837 202.869C141.173 202.869 140.367 202.089 140.289 200.906H138.742C138.833 203.012 140.562 204.195 142.837 204.195C145.177 204.195 146.295 202.96 146.295 201.478C146.295 199.398 144.787 198.969 142.798 198.462ZM151.713 204.195C154.508 204.195 156.276 202.141 156.276 199.346C156.276 196.551 154.508 194.51 151.713 194.51C148.905 194.51 147.15 196.551 147.15 199.346C147.15 202.141 148.905 204.195 151.713 204.195ZM151.713 202.869C149.581 202.869 148.684 201.231 148.684 199.346C148.684 197.474 149.581 195.836 151.713 195.836C153.845 195.836 154.729 197.474 154.729 199.346C154.729 201.231 153.845 202.869 151.713 202.869ZM163.979 197.903H165.526C165.305 196.005 163.875 194.51 161.522 194.51C158.844 194.51 157.154 196.551 157.154 199.346C157.154 202.154 158.844 204.195 161.522 204.195C163.888 204.195 165.318 202.7 165.526 200.607H163.979C163.875 201.738 163.212 202.869 161.483 202.869C159.481 202.869 158.688 201.192 158.688 199.346C158.688 197.513 159.481 195.836 161.483 195.836C163.199 195.836 163.81 196.967 163.979 197.903ZM170.395 198.202C170.395 196.967 170.902 196.109 172.241 196.109C173.398 196.109 173.749 196.85 173.749 197.591C173.749 198.865 172.696 199.294 171.045 200.386C169.667 201.257 168.718 202.414 168.718 204H175.166V202.726H170.681V202.7C171.422 200.867 175.257 200.386 175.257 197.526C175.257 195.81 173.944 194.822 172.28 194.822C169.979 194.822 168.939 196.265 168.939 198.202H170.395ZM181.404 204H182.951V196.018H185.915V194.705H178.427V196.018H181.404V204ZM191.777 197.357H190.321L188.618 202.44H188.592L186.733 197.357H185.264L187.669 203.324C187.916 203.948 187.734 204.468 187.487 204.767C187.188 205.131 186.759 205.17 186.187 205.092H186.07V206.132C186.33 206.197 186.655 206.262 187.045 206.262C188.319 206.262 188.748 205.443 189.125 204.416L191.777 197.357ZM195.885 197.175C194.845 197.175 194.195 197.669 193.844 198.137H193.818V197.357H192.44V206.262H193.818V203.207H193.844C194.195 203.701 194.845 204.195 195.885 204.195C197.575 204.195 198.836 202.869 198.836 200.685C198.836 198.501 197.575 197.175 195.885 197.175ZM195.625 203.077C194.52 203.077 193.831 202.154 193.831 200.685C193.831 199.203 194.52 198.293 195.625 198.293C196.821 198.293 197.458 199.385 197.458 200.685C197.458 201.985 196.821 203.077 195.625 203.077ZM202.766 203.077C201.557 203.077 200.842 202.154 200.842 201.036H205.938C205.938 198.67 204.885 197.175 202.74 197.175C200.738 197.175 199.477 198.527 199.477 200.685C199.477 202.765 200.738 204.195 202.805 204.195C204.508 204.195 205.496 203.233 205.834 201.972H204.469C204.352 202.375 203.897 203.077 202.766 203.077ZM202.74 198.254C203.845 198.254 204.573 198.995 204.573 200.022H200.842C200.842 198.995 201.635 198.254 202.74 198.254ZM210.741 198.202C210.741 196.967 211.248 196.109 212.587 196.109C213.744 196.109 214.095 196.85 214.095 197.591C214.095 198.865 213.042 199.294 211.391 200.386C210.013 201.257 209.064 202.414 209.064 204H215.512V202.726H211.027V202.7C211.768 200.867 215.603 200.386 215.603 197.526C215.603 195.81 214.29 194.822 212.626 194.822C210.325 194.822 209.285 196.265 209.285 198.202H210.741ZM219.306 204H220.853V200.412H223.128C225.364 200.412 224.493 203.61 224.922 204H226.547V203.909C226.053 203.753 226.833 200.113 224.688 199.71V199.684C225.754 199.424 226.417 198.67 226.417 197.37C226.417 195.68 225.182 194.705 223.271 194.705H219.306V204ZM220.853 196.018H222.946C223.895 196.018 224.883 196.213 224.883 197.552C224.883 198.904 223.895 199.086 222.946 199.086H220.853V196.018ZM230.417 203.077C229.208 203.077 228.493 202.154 228.493 201.036H233.589C233.589 198.67 232.536 197.175 230.391 197.175C228.389 197.175 227.128 198.527 227.128 200.685C227.128 202.765 228.389 204.195 230.456 204.195C232.159 204.195 233.147 203.233 233.485 201.972H232.12C232.003 202.375 231.548 203.077 230.417 203.077ZM230.391 198.254C231.496 198.254 232.224 198.995 232.224 200.022H228.493C228.493 198.995 229.286 198.254 230.391 198.254ZM237.97 197.175C236.93 197.175 236.28 197.669 235.929 198.137H235.903V197.357H234.525V206.262H235.903V203.207H235.929C236.28 203.701 236.93 204.195 237.97 204.195C239.66 204.195 240.921 202.869 240.921 200.685C240.921 198.501 239.66 197.175 237.97 197.175ZM237.71 203.077C236.605 203.077 235.916 202.154 235.916 200.685C235.916 199.203 236.605 198.293 237.71 198.293C238.906 198.293 239.543 199.385 239.543 200.685C239.543 201.985 238.906 203.077 237.71 203.077ZM244.903 204.195C242.823 204.195 241.562 202.752 241.562 200.685C241.562 198.618 242.823 197.175 244.903 197.175C246.983 197.175 248.244 198.618 248.244 200.685C248.244 202.752 246.983 204.195 244.903 204.195ZM244.903 203.077C246.203 203.077 246.879 202.05 246.879 200.685C246.879 199.307 246.203 198.293 244.903 198.293C243.603 198.293 242.927 199.307 242.927 200.685C242.927 202.05 243.603 203.077 244.903 203.077ZM252.347 197.201C251.476 197.201 250.93 197.773 250.579 198.605H250.553V197.357H249.188V204H250.553V200.607C250.553 199.19 251.606 198.306 252.919 198.527H252.945V197.24C252.75 197.214 252.581 197.201 252.347 197.201ZM257.031 198.475V197.357H255.783V195.264H254.405V197.357H253.443V198.475H254.405V202.193C254.405 203.597 255.003 204.091 256.095 204.091C256.459 204.091 256.758 204.052 257.031 203.987V202.869C256.147 202.921 255.783 202.83 255.783 202.076V198.475H257.031ZM258.865 204.104C259.333 204.104 259.697 203.779 259.697 203.259C259.697 202.752 259.333 202.414 258.865 202.414C258.384 202.414 258.02 202.752 258.02 203.259C258.02 203.779 258.384 204.104 258.865 204.104ZM264.325 197.175C263.285 197.175 262.635 197.669 262.284 198.137H262.258V197.357H260.88V206.262H262.258V203.207H262.284C262.635 203.701 263.285 204.195 264.325 204.195C266.015 204.195 267.276 202.869 267.276 200.685C267.276 198.501 266.015 197.175 264.325 197.175ZM264.065 203.077C262.96 203.077 262.271 202.154 262.271 200.685C262.271 199.203 262.96 198.293 264.065 198.293C265.261 198.293 265.898 199.385 265.898 200.685C265.898 201.985 265.261 203.077 264.065 203.077ZM272.936 194.705V198.163H272.91C272.559 197.656 271.909 197.175 270.882 197.175C269.179 197.175 267.918 198.501 267.918 200.685C267.918 202.869 269.179 204.195 270.882 204.195C271.909 204.195 272.559 203.688 272.91 203.233H272.936V204H274.301V194.705H272.936ZM271.116 203.077C269.92 203.077 269.283 201.985 269.283 200.685C269.283 199.385 269.92 198.293 271.116 198.293C272.234 198.293 272.923 199.203 272.923 200.685C272.923 202.154 272.234 203.077 271.116 203.077ZM278.74 195.823V194.705C278.467 194.653 278.168 194.614 277.83 194.614C276.738 194.614 276.14 195.108 276.14 196.512V197.357H275.191V198.475H276.14V204H277.518V198.475H278.74V197.357H277.518V196.629C277.518 195.875 277.856 195.784 278.74 195.823Z" fill="white"/>
<path d="M139.868 212.676C139.868 211.928 140.187 211.125 141.672 211.125C142.706 211.125 143.124 211.73 143.124 212.346C143.124 213.226 142.53 213.589 141.749 213.589H140.979V214.469H141.793C142.53 214.469 143.399 214.678 143.399 215.866C143.399 216.779 142.926 217.274 141.617 217.274C140.176 217.274 139.67 216.526 139.67 215.426H138.68C138.68 217.142 139.758 218.154 141.694 218.154C143.322 218.154 144.389 217.362 144.389 215.866C144.389 214.975 144.026 214.282 142.948 213.985V213.963C143.718 213.655 144.114 213.149 144.114 212.346C144.114 211.004 142.97 210.245 141.672 210.245C139.791 210.245 138.878 211.279 138.878 212.676H139.868ZM147.684 218H148.674V211.532H148.696L151.072 218H151.952L154.328 211.532H154.35V218H155.34V210.135H153.987L151.523 216.669H151.501L149.037 210.135H147.684V218ZM162.557 212.115C162.557 210.894 161.589 210.135 159.983 210.135H156.815V218H160.203C161.831 218 162.865 217.164 162.865 215.712C162.865 214.535 162.161 213.908 161.336 213.765V213.743C161.985 213.523 162.557 213.083 162.557 212.115ZM157.805 213.424V211.015H160.247C161.149 211.015 161.567 211.51 161.567 212.225C161.567 212.94 161.259 213.424 160.137 213.424H157.805ZM157.805 214.304H160.522C161.347 214.304 161.875 214.865 161.875 215.712C161.875 216.449 161.567 217.12 160.302 217.12H157.805V214.304Z" fill="white" fill-opacity="0.5"/>
<rect x="98.7881" y="191" width="30.7628" height="31" rx="4" fill="#0A1B2B"/>
<path fill-rule="evenodd" clip-rule="evenodd" d="M118.383 207.46C120.219 207.255 123.789 206.947 125.013 208.178C126.032 209.203 125.828 212.073 123.177 212.073C121.647 212.073 119.403 211.458 117.465 210.331C115.324 210.741 112.774 211.663 110.53 212.484C105.431 221.3 102.473 217.302 102.779 215.662C103.187 213.611 105.941 211.971 107.98 210.946C109 208.998 110.53 205.717 111.55 203.257C110.836 200.386 110.428 198.028 110.836 196.388C111.346 194.542 114.814 194.337 115.222 197.003C115.642 198.271 115.23 200.236 114.902 201.806C114.832 202.14 114.765 202.456 114.712 202.744C115.528 204.897 116.649 206.435 118.383 207.46ZM110.632 210.638C111.652 208.895 112.468 206.845 113.182 204.999C113.182 204.999 115.018 207.768 116.242 208.588C114.16 209.086 112.367 209.875 110.77 210.577L110.632 210.638ZM123.993 210.126C123.993 210.126 123.483 210.741 120.219 209.305C123.789 208.998 124.401 209.818 123.993 210.126ZM113.08 196.593C113.896 196.593 113.794 199.873 113.284 200.796C112.876 199.361 112.876 196.593 113.08 196.593ZM104.819 216.174C105.329 214.739 107.266 213.099 107.878 212.586C105.941 215.662 104.819 216.174 104.819 216.174Z" fill="#EB5757"/>
<path d="M97.8031 257.803L98.5571 260H100.13L96.7241 250.705H95.0991L91.6801 260H93.2531L94.0071 257.803H97.8031ZM94.4361 256.516L95.9051 252.122H95.9311L97.3871 256.516H94.4361ZM105.156 255.788H106.521C106.352 254.28 105.221 253.175 103.492 253.175C101.516 253.175 100.229 254.605 100.229 256.685C100.229 258.765 101.516 260.195 103.505 260.195C105.234 260.195 106.417 259.064 106.521 257.53H105.156C105.104 258.271 104.675 259.077 103.505 259.077C102.153 259.077 101.594 257.933 101.594 256.685C101.594 255.437 102.166 254.293 103.505 254.293C104.675 254.293 105.104 255.112 105.156 255.788ZM111.999 255.788H113.364C113.195 254.28 112.064 253.175 110.335 253.175C108.359 253.175 107.072 254.605 107.072 256.685C107.072 258.765 108.359 260.195 110.348 260.195C112.077 260.195 113.26 259.064 113.364 257.53H111.999C111.947 258.271 111.518 259.077 110.348 259.077C108.996 259.077 108.437 257.933 108.437 256.685C108.437 255.437 109.009 254.293 110.348 254.293C111.518 254.293 111.947 255.112 111.999 255.788ZM117.204 259.077C115.995 259.077 115.28 258.154 115.28 257.036H120.376C120.376 254.67 119.323 253.175 117.178 253.175C115.176 253.175 113.915 254.527 113.915 256.685C113.915 258.765 115.176 260.195 117.243 260.195C118.946 260.195 119.934 259.233 120.272 257.972H118.907C118.79 258.375 118.335 259.077 117.204 259.077ZM117.178 254.254C118.283 254.254 119.011 254.995 119.011 256.022H115.28C115.28 254.995 116.073 254.254 117.178 254.254ZM124.185 255.983C123.223 255.762 122.482 255.71 122.482 255.034C122.482 254.566 122.924 254.254 123.743 254.254C124.809 254.254 125.069 254.787 125.16 255.307H126.486C126.395 254.15 125.537 253.175 123.73 253.175C122.066 253.175 121.104 254.046 121.104 255.138C121.104 256.646 122.534 256.854 123.587 257.101C124.562 257.335 125.355 257.4 125.355 258.232C125.355 258.648 124.952 259.116 124.003 259.116C122.599 259.116 122.287 258.505 122.222 257.79H120.896C120.961 259.194 121.884 260.195 124.029 260.195C125.641 260.195 126.733 259.402 126.733 258.128C126.733 256.542 125.407 256.269 124.185 255.983ZM130.545 255.983C129.583 255.762 128.842 255.71 128.842 255.034C128.842 254.566 129.284 254.254 130.103 254.254C131.169 254.254 131.429 254.787 131.52 255.307H132.846C132.755 254.15 131.897 253.175 130.09 253.175C128.426 253.175 127.464 254.046 127.464 255.138C127.464 256.646 128.894 256.854 129.947 257.101C130.922 257.335 131.715 257.4 131.715 258.232C131.715 258.648 131.312 259.116 130.363 259.116C128.959 259.116 128.647 258.505 128.582 257.79H127.256C127.321 259.194 128.244 260.195 130.389 260.195C132.001 260.195 133.093 259.402 133.093 258.128C133.093 256.542 131.767 256.269 130.545 255.983Z" fill="white"/>
<rect x="91.8413" y="269" width="279.842" height="45" rx="5" fill="black" fill-opacity="0.12"/>
<path d="M145.749 282.903H147.296C147.075 281.005 145.645 279.51 143.292 279.51C140.614 279.51 138.924 281.551 138.924 284.346C138.924 287.154 140.614 289.195 143.292 289.195C145.658 289.195 147.088 287.7 147.296 285.607H145.749C145.645 286.738 144.982 287.869 143.253 287.869C141.251 287.869 140.458 286.192 140.458 284.346C140.458 282.513 141.251 280.836 143.253 280.836C144.969 280.836 145.58 281.967 145.749 282.903ZM152.666 282.357V286.4C152.666 287.388 151.99 288.025 150.937 288.025C150.001 288.025 149.624 287.453 149.624 286.556V282.357H148.246V286.946C148.246 288.467 149.221 289.182 150.456 289.182C151.6 289.182 152.289 288.662 152.64 288.142H152.666V289H154.031V282.357H152.666ZM158.204 284.983C157.242 284.762 156.501 284.71 156.501 284.034C156.501 283.566 156.943 283.254 157.762 283.254C158.828 283.254 159.088 283.787 159.179 284.307H160.505C160.414 283.15 159.556 282.175 157.749 282.175C156.085 282.175 155.123 283.046 155.123 284.138C155.123 285.646 156.553 285.854 157.606 286.101C158.581 286.335 159.374 286.4 159.374 287.232C159.374 287.648 158.971 288.116 158.022 288.116C156.618 288.116 156.306 287.505 156.241 286.79H154.915C154.98 288.194 155.903 289.195 158.048 289.195C159.66 289.195 160.752 288.402 160.752 287.128C160.752 285.542 159.426 285.269 158.204 284.983ZM164.686 283.475V282.357H163.438V280.264H162.06V282.357H161.098V283.475H162.06V287.193C162.06 288.597 162.658 289.091 163.75 289.091C164.114 289.091 164.413 289.052 164.686 288.987V287.869C163.802 287.921 163.438 287.83 163.438 287.076V283.475H164.686ZM168.604 289.195C166.524 289.195 165.263 287.752 165.263 285.685C165.263 283.618 166.524 282.175 168.604 282.175C170.684 282.175 171.945 283.618 171.945 285.685C171.945 287.752 170.684 289.195 168.604 289.195ZM168.604 288.077C169.904 288.077 170.58 287.05 170.58 285.685C170.58 284.307 169.904 283.293 168.604 283.293C167.304 283.293 166.628 284.307 166.628 285.685C166.628 287.05 167.304 288.077 168.604 288.077ZM180.221 282.175C179.194 282.175 178.544 282.682 178.05 283.319H178.024C177.751 282.604 177.192 282.175 176.256 282.175C175.255 282.175 174.631 282.695 174.28 283.215H174.254V282.357H172.889V289H174.254V284.957C174.254 283.969 174.839 283.332 175.749 283.332C176.698 283.332 176.88 283.904 176.88 284.801V289H178.258V284.957C178.258 283.969 178.83 283.332 179.753 283.332C180.689 283.332 180.871 283.904 180.871 284.801V289H182.249V284.411C182.249 282.981 181.56 282.175 180.221 282.175ZM186.453 288.077C185.244 288.077 184.529 287.154 184.529 286.036H189.625C189.625 283.67 188.572 282.175 186.427 282.175C184.425 282.175 183.164 283.527 183.164 285.685C183.164 287.765 184.425 289.195 186.492 289.195C188.195 289.195 189.183 288.233 189.521 286.972H188.156C188.039 287.375 187.584 288.077 186.453 288.077ZM186.427 283.254C187.532 283.254 188.26 283.995 188.26 285.022H184.529C184.529 283.995 185.322 283.254 186.427 283.254ZM193.72 282.201C192.849 282.201 192.303 282.773 191.952 283.605H191.926V282.357H190.561V289H191.926V285.607C191.926 284.19 192.979 283.306 194.292 283.527H194.318V282.24C194.123 282.214 193.954 282.201 193.72 282.201ZM198.067 284.983C197.105 284.762 196.364 284.71 196.364 284.034C196.364 283.566 196.806 283.254 197.625 283.254C198.691 283.254 198.951 283.787 199.042 284.307H200.368C200.277 283.15 199.419 282.175 197.612 282.175C195.948 282.175 194.986 283.046 194.986 284.138C194.986 285.646 196.416 285.854 197.469 286.101C198.444 286.335 199.237 286.4 199.237 287.232C199.237 287.648 198.834 288.116 197.885 288.116C196.481 288.116 196.169 287.505 196.104 286.79H194.778C194.843 288.194 195.766 289.195 197.911 289.195C199.523 289.195 200.615 288.402 200.615 287.128C200.615 285.542 199.289 285.269 198.067 284.983ZM208.022 284.099C208.022 284.736 207.398 284.866 206.371 285.061C204.707 285.386 203.628 285.841 203.628 287.297C203.628 288.415 204.46 289.195 205.812 289.195C206.839 289.195 207.593 288.792 208.009 288.207H208.035C208.165 288.857 208.503 289.117 209.231 289.117C209.491 289.117 209.712 289.091 210.024 288.974V288.324C209.491 288.376 209.387 288.129 209.387 287.661V284.502C209.387 282.734 208.295 282.175 206.826 282.175C204.824 282.175 204.005 283.176 203.94 284.45H205.266C205.331 283.592 205.734 283.254 206.826 283.254C207.736 283.254 208.022 283.618 208.022 284.099ZM206.111 288.116C205.37 288.116 205.006 287.778 205.006 287.167C205.006 286.491 205.5 286.166 206.631 285.919C207.268 285.789 207.801 285.633 208.022 285.477V286.478C208.022 287.557 207.242 288.116 206.111 288.116ZM214.397 282.175C213.253 282.175 212.564 282.695 212.213 283.215H212.187V282.357H210.822V289H212.187V284.957C212.187 283.969 212.863 283.332 213.916 283.332C214.852 283.332 215.229 283.904 215.229 284.801V289H216.607V284.411C216.607 282.89 215.632 282.175 214.397 282.175ZM222.523 279.705V283.163H222.497C222.146 282.656 221.496 282.175 220.469 282.175C218.766 282.175 217.505 283.501 217.505 285.685C217.505 287.869 218.766 289.195 220.469 289.195C221.496 289.195 222.146 288.688 222.497 288.233H222.523V289H223.888V279.705H222.523ZM220.703 288.077C219.507 288.077 218.87 286.985 218.87 285.685C218.87 284.385 219.507 283.293 220.703 283.293C221.821 283.293 222.51 284.203 222.51 285.685C222.51 287.154 221.821 288.077 220.703 288.077ZM227.812 289H229.359V285.282H231.764C233.545 285.282 234.832 284.437 234.832 282.487C234.832 280.537 233.545 279.705 231.764 279.705H227.812V289ZM229.359 281.018H231.699C232.739 281.018 233.285 281.473 233.285 282.487C233.285 283.514 232.739 283.956 231.699 283.956H229.359V281.018ZM238.877 282.201C238.006 282.201 237.46 282.773 237.109 283.605H237.083V282.357H235.718V289H237.083V285.607C237.083 284.19 238.136 283.306 239.449 283.527H239.475V282.24C239.28 282.214 239.111 282.201 238.877 282.201ZM243.126 289.195C241.046 289.195 239.785 287.752 239.785 285.685C239.785 283.618 241.046 282.175 243.126 282.175C245.206 282.175 246.467 283.618 246.467 285.685C246.467 287.752 245.206 289.195 243.126 289.195ZM243.126 288.077C244.426 288.077 245.102 287.05 245.102 285.685C245.102 284.307 244.426 283.293 243.126 283.293C241.826 283.293 241.15 284.307 241.15 285.685C241.15 287.05 241.826 288.077 243.126 288.077ZM250.283 284.983C249.321 284.762 248.58 284.71 248.58 284.034C248.58 283.566 249.022 283.254 249.841 283.254C250.907 283.254 251.167 283.787 251.258 284.307H252.584C252.493 283.15 251.635 282.175 249.828 282.175C248.164 282.175 247.202 283.046 247.202 284.138C247.202 285.646 248.632 285.854 249.685 286.101C250.66 286.335 251.453 286.4 251.453 287.232C251.453 287.648 251.05 288.116 250.101 288.116C248.697 288.116 248.385 287.505 248.32 286.79H246.994C247.059 288.194 247.982 289.195 250.127 289.195C251.739 289.195 252.831 288.402 252.831 287.128C252.831 285.542 251.505 285.269 250.283 284.983ZM257.19 282.175C256.15 282.175 255.5 282.669 255.149 283.137H255.123V282.357H253.745V291.262H255.123V288.207H255.149C255.5 288.701 256.15 289.195 257.19 289.195C258.88 289.195 260.141 287.869 260.141 285.685C260.141 283.501 258.88 282.175 257.19 282.175ZM256.93 288.077C255.825 288.077 255.136 287.154 255.136 285.685C255.136 284.203 255.825 283.293 256.93 283.293C258.126 283.293 258.763 284.385 258.763 285.685C258.763 286.985 258.126 288.077 256.93 288.077ZM264.072 288.077C262.863 288.077 262.148 287.154 262.148 286.036H267.244C267.244 283.67 266.191 282.175 264.046 282.175C262.044 282.175 260.783 283.527 260.783 285.685C260.783 287.765 262.044 289.195 264.111 289.195C265.814 289.195 266.802 288.233 267.14 286.972H265.775C265.658 287.375 265.203 288.077 264.072 288.077ZM264.046 283.254C265.151 283.254 265.879 283.995 265.879 285.022H262.148C262.148 283.995 262.941 283.254 264.046 283.254ZM272.756 284.788H274.121C273.952 283.28 272.821 282.175 271.092 282.175C269.116 282.175 267.829 283.605 267.829 285.685C267.829 287.765 269.116 289.195 271.105 289.195C272.834 289.195 274.017 288.064 274.121 286.53H272.756C272.704 287.271 272.275 288.077 271.105 288.077C269.753 288.077 269.194 286.933 269.194 285.685C269.194 284.437 269.766 283.293 271.105 283.293C272.275 283.293 272.704 284.112 272.756 284.788ZM278.195 283.475V282.357H276.947V280.264H275.569V282.357H274.607V283.475H275.569V287.193C275.569 288.597 276.167 289.091 277.259 289.091C277.623 289.091 277.922 289.052 278.195 288.987V287.869C277.311 287.921 276.947 287.83 276.947 287.076V283.475H278.195ZM282.098 284.983C281.136 284.762 280.395 284.71 280.395 284.034C280.395 283.566 280.837 283.254 281.656 283.254C282.722 283.254 282.982 283.787 283.073 284.307H284.399C284.308 283.15 283.45 282.175 281.643 282.175C279.979 282.175 279.017 283.046 279.017 284.138C279.017 285.646 280.447 285.854 281.5 286.101C282.475 286.335 283.268 286.4 283.268 287.232C283.268 287.648 282.865 288.116 281.916 288.116C280.512 288.116 280.2 287.505 280.135 286.79H278.809C278.874 288.194 279.797 289.195 281.942 289.195C283.554 289.195 284.646 288.402 284.646 287.128C284.646 285.542 283.32 285.269 282.098 284.983ZM286.3 289.104C286.768 289.104 287.132 288.779 287.132 288.259C287.132 287.752 286.768 287.414 286.3 287.414C285.819 287.414 285.455 287.752 285.455 288.259C285.455 288.779 285.819 289.104 286.3 289.104ZM292.599 284.788H293.964C293.795 283.28 292.664 282.175 290.935 282.175C288.959 282.175 287.672 283.605 287.672 285.685C287.672 287.765 288.959 289.195 290.948 289.195C292.677 289.195 293.86 288.064 293.964 286.53H292.599C292.547 287.271 292.118 288.077 290.948 288.077C289.596 288.077 289.037 286.933 289.037 285.685C289.037 284.437 289.609 283.293 290.948 283.293C292.118 283.293 292.547 284.112 292.599 284.788ZM297.84 284.983C296.878 284.762 296.137 284.71 296.137 284.034C296.137 283.566 296.579 283.254 297.398 283.254C298.464 283.254 298.724 283.787 298.815 284.307H300.141C300.05 283.15 299.192 282.175 297.385 282.175C295.721 282.175 294.759 283.046 294.759 284.138C294.759 285.646 296.189 285.854 297.242 286.101C298.217 286.335 299.01 286.4 299.01 287.232C299.01 287.648 298.607 288.116 297.658 288.116C296.254 288.116 295.942 287.505 295.877 286.79H294.551C294.616 288.194 295.539 289.195 297.684 289.195C299.296 289.195 300.388 288.402 300.388 287.128C300.388 285.542 299.062 285.269 297.84 284.983ZM300.55 282.357L302.903 289H304.45L306.803 282.357H305.36L303.683 287.557H303.67L301.993 282.357H300.55Z" fill="white"/>
<path d="M140.66 295.399C140.55 296.389 140.187 297.038 138.856 297.038V297.753C139.538 297.753 139.978 297.753 140.44 297.313V303H141.43V295.399H140.66ZM144.463 295.399C144.353 296.389 143.99 297.038 142.659 297.038V297.753C143.341 297.753 143.781 297.753 144.243 297.313V303H145.233V295.399H144.463ZM147.231 303.066C147.231 303.473 147.022 303.77 146.681 303.847V304.397C147.539 304.243 147.781 303.308 147.781 302.725C147.781 302.208 147.572 301.867 147.165 301.867C146.835 301.867 146.571 302.087 146.571 302.505C146.571 302.989 146.89 303.176 147.231 303.066ZM149.35 295.399C149.24 296.389 148.877 297.038 147.546 297.038V297.753C148.228 297.753 148.668 297.753 149.13 297.313V303H150.12V295.399H149.35ZM151.228 295.399V296.279H155.397V296.301C154.044 297.511 152.328 300.459 152.328 303H153.373C153.373 300.547 154.77 297.621 156.497 296.169V295.399H151.228ZM157.928 299.172V299.15C157.95 297.621 158.247 296.125 159.82 296.125C160.678 296.125 161.14 296.587 161.239 297.324H162.229C162.119 296.213 161.239 295.245 159.82 295.245C157.928 295.245 156.938 296.664 156.938 299.194C156.938 301.614 157.708 303.154 159.787 303.154C161.437 303.154 162.427 301.955 162.427 300.547C162.427 299.04 161.415 298.039 159.963 298.039C159.072 298.039 158.302 298.457 157.928 299.172ZM159.787 302.274C158.687 302.274 158.038 301.614 158.038 300.635C158.038 299.612 158.775 298.919 159.875 298.919C160.777 298.919 161.437 299.524 161.437 300.613C161.437 301.625 160.832 302.274 159.787 302.274ZM165.795 303H166.785V299.821H169.04C171.031 299.821 170.283 302.67 170.624 303H171.691V302.934C171.284 302.802 171.922 299.711 170.173 299.37V299.348C171.042 299.128 171.581 298.501 171.581 297.368C171.581 295.971 170.536 295.135 168.985 295.135H165.795V303ZM166.785 296.015H168.754C169.568 296.015 170.591 296.114 170.591 297.478C170.591 298.842 169.568 298.941 168.754 298.941H166.785V296.015ZM175.001 303.154C173.285 303.154 172.251 301.944 172.251 300.195C172.251 298.446 173.285 297.236 175.001 297.236C176.706 297.236 177.74 298.446 177.74 300.195C177.74 301.944 176.706 303.154 175.001 303.154ZM175.001 302.384C176.255 302.384 176.86 301.394 176.86 300.195C176.86 298.996 176.255 298.006 175.001 298.006C173.736 298.006 173.131 298.996 173.131 300.195C173.131 301.394 173.736 302.384 175.001 302.384ZM177.961 297.39L179.754 303H180.689L181.932 298.369H181.954L183.219 303H184.154L185.947 297.39H184.979L183.703 302.043H183.681L182.416 297.39H181.481L180.227 302.043H180.205L178.929 297.39H177.961ZM188.823 299.667C188.042 299.48 187.283 299.425 187.283 298.765C187.283 298.325 187.712 298.006 188.504 298.006C189.56 298.006 189.769 298.567 189.857 298.996H190.737C190.649 298.028 189.901 297.236 188.504 297.236C187.184 297.236 186.403 297.951 186.403 298.831C186.403 300.151 187.679 300.25 188.537 300.459C189.34 300.657 190.077 300.701 190.077 301.515C190.077 301.889 189.703 302.384 188.746 302.384C187.338 302.384 187.118 301.757 187.063 301.13H186.183C186.238 302.34 187.03 303.154 188.746 303.154C190.022 303.154 190.957 302.483 190.957 301.46C190.957 300.074 189.824 299.909 188.823 299.667ZM193.825 299.755V300.635H196.773V299.755H193.825ZM201.568 295.399C201.458 296.389 201.095 297.038 199.764 297.038V297.753C200.446 297.753 200.886 297.753 201.348 297.313V303H202.338V295.399H201.568ZM204.667 299.172V299.15C204.689 297.621 204.986 296.125 206.559 296.125C207.417 296.125 207.879 296.587 207.978 297.324H208.968C208.858 296.213 207.978 295.245 206.559 295.245C204.667 295.245 203.677 296.664 203.677 299.194C203.677 301.614 204.447 303.154 206.526 303.154C208.176 303.154 209.166 301.955 209.166 300.547C209.166 299.04 208.154 298.039 206.702 298.039C205.811 298.039 205.041 298.457 204.667 299.172ZM206.526 302.274C205.426 302.274 204.777 301.614 204.777 300.635C204.777 299.612 205.514 298.919 206.614 298.919C207.516 298.919 208.176 299.524 208.176 300.613C208.176 301.625 207.571 302.274 206.526 302.274ZM209.687 295.399V296.279H213.856V296.301C212.503 297.511 210.787 300.459 210.787 303H211.832C211.832 300.547 213.229 297.621 214.956 296.169V295.399H209.687ZM215.811 295.135V303H216.801V300.569L218.209 299.084L221.025 303H222.18L218.869 298.402L221.96 295.135H220.75L216.801 299.348V295.135H215.811ZM228.632 297.115C228.632 295.894 227.664 295.135 226.058 295.135H222.89V303H226.278C227.906 303 228.94 302.164 228.94 300.712C228.94 299.535 228.236 298.908 227.411 298.765V298.743C228.06 298.523 228.632 298.083 228.632 297.115ZM223.88 298.424V296.015H226.322C227.224 296.015 227.642 296.51 227.642 297.225C227.642 297.94 227.334 298.424 226.212 298.424H223.88ZM223.88 299.304H226.597C227.422 299.304 227.95 299.865 227.95 300.712C227.95 301.449 227.642 302.12 226.377 302.12H223.88V299.304Z" fill="white" fill-opacity="0.5"/>
<rect x="98.7881" y="276" width="30.7628" height="31" rx="4" fill="#0A1B2B"/>
<path d="M122.554 284H107.929C106.979 284 106.241 284.737 106.241 285.607V297.393C106.241 298.297 106.979 299 107.929 299H122.554C123.468 299 124.241 298.297 124.241 297.393V285.607C124.241 284.737 123.468 284 122.554 284ZM111.866 297.929H107.929C107.612 297.929 107.366 297.694 107.366 297.393V294.714H111.866V297.929ZM111.866 293.643H107.366V290.429H111.866V293.643ZM111.866 289.357H107.366V286.143H111.866V289.357ZM117.491 297.929H112.991V294.714H117.491V297.929ZM117.491 293.643H112.991V290.429H117.491V293.643ZM117.491 289.357H112.991V286.143H117.491V289.357ZM123.116 294.714V297.393C123.116 297.694 122.835 297.929 122.554 297.929H118.616V294.714H123.116ZM123.116 293.643H118.616V290.429H123.116V293.643ZM123.116 289.357H118.616V286.143H123.116V289.357Z" fill="white"/>
<rect x="91" y="347" width="284" height="37" rx="4" fill="#33C69F"/>
<path d="M214.675 364.332C212.875 363.882 211.669 363.63 211.669 362.226C211.669 361.272 212.587 360.696 214.117 360.696C215.899 360.696 216.835 361.488 217.033 362.982H219.175C218.995 360.336 216.943 358.86 214.117 358.86C211.309 358.86 209.545 360.138 209.545 362.424C209.545 364.872 211.723 365.646 213.739 366.15C216.277 366.78 217.375 367.068 217.375 368.598C217.375 369.588 216.637 370.434 214.729 370.434C212.425 370.434 211.309 369.354 211.201 367.716H209.059C209.185 370.632 211.579 372.27 214.729 372.27C217.969 372.27 219.517 370.56 219.517 368.508C219.517 365.628 217.429 365.034 214.675 364.332ZM225.904 362.55C224.356 362.55 223.402 363.27 222.916 363.99H222.88V359.13H220.99V372H222.88V366.402C222.88 365.034 223.87 364.152 225.256 364.152C226.57 364.152 227.092 364.944 227.092 366.186V372H229V365.646C229 363.54 227.65 362.55 225.904 362.55ZM236.29 365.214C236.29 366.096 235.426 366.276 234.004 366.546C231.7 366.996 230.206 367.626 230.206 369.642C230.206 371.19 231.358 372.27 233.23 372.27C234.652 372.27 235.696 371.712 236.272 370.902H236.308C236.488 371.802 236.956 372.162 237.964 372.162C238.324 372.162 238.63 372.126 239.062 371.964V371.064C238.324 371.136 238.18 370.794 238.18 370.146V365.772C238.18 363.324 236.668 362.55 234.634 362.55C231.862 362.55 230.728 363.936 230.638 365.7H232.474C232.564 364.512 233.122 364.044 234.634 364.044C235.894 364.044 236.29 364.548 236.29 365.214ZM233.644 370.776C232.618 370.776 232.114 370.308 232.114 369.462C232.114 368.526 232.798 368.076 234.364 367.734C235.246 367.554 235.984 367.338 236.29 367.122V368.508C236.29 370.002 235.21 370.776 233.644 370.776ZM244.542 362.586C243.336 362.586 242.58 363.378 242.094 364.53H242.058V362.802H240.168V372H242.058V367.302C242.058 365.34 243.516 364.116 245.334 364.422H245.37V362.64C245.1 362.604 244.866 362.586 244.542 362.586ZM250.353 370.722C248.679 370.722 247.689 369.444 247.689 367.896H254.745C254.745 364.62 253.287 362.55 250.317 362.55C247.545 362.55 245.799 364.422 245.799 367.41C245.799 370.29 247.545 372.27 250.407 372.27C252.765 372.27 254.133 370.938 254.601 369.192H252.711C252.549 369.75 251.919 370.722 250.353 370.722ZM250.317 364.044C251.847 364.044 252.855 365.07 252.855 366.492H247.689C247.689 365.07 248.787 364.044 250.317 364.044Z" fill="white"/>
<g filter="url(#filter1_iii)">
<path d="M40 45C40 40.5817 43.5817 37 48 37H424C428.418 37 432 40.5817 432 45V79H40V45Z" fill="black" fill-opacity="0.33"/>
</g>
<path fill-rule="evenodd" clip-rule="evenodd" d="M73.74 60V56L67.786 50H63.8166L73.74 60ZM67.7859 67H64.8089V57.8344V53.8344L67.7859 56.8344L73.74 62.8344V66.8344L67.7859 60.8344V67ZM59.8472 67H62.8242V53.8344L59.8472 56.8344L53.8931 62.8344V66.8344L59.8472 60.8344V67ZM53.8931 56V60L63.8165 50H59.8099L53.8931 56Z" fill="#FFB607"/>
<circle cx="386.5" cy="58.5" r="5.5" fill="white" fill-opacity="0.2"/>
<circle cx="399.5" cy="58.5" r="5.5" fill="white" fill-opacity="0.2"/>
<circle cx="412.5" cy="58.5" r="5.5" fill="white" fill-opacity="0.2"/>
</g>
<path d="M45 38H424V36H45V38ZM428 42V414H430V42H428ZM424 418H45V420H424V418ZM41 414V42H39V414H41ZM45 418C42.7909 418 41 416.209 41 414H39C39 417.314 41.6863 420 45 420V418ZM428 414C428 416.209 426.209 418 424 418V420C427.314 420 430 417.314 430 414H428ZM424 38C426.209 38 428 39.7909 428 42H430C430 38.6863 427.314 36 424 36V38ZM45 36C41.6863 36 39 38.6863 39 42H41C41 39.7909 42.7909 38 45 38V36Z" fill="white" fill-opacity="0.05"/>
</g>
<defs>
<filter id="filter0_dd" x="0" y="0" width="469" height="462" filterUnits="userSpaceOnUse" color-interpolation-filters="sRGB">
<feFlood flood-opacity="0" result="BackgroundImageFix"/>
<feColorMatrix in="SourceAlpha" type="matrix" values="0 0 0 0 0 0 0 0 0 0 0 0 0 0 0 0 0 0 127 0"/>
<feOffset dy="3"/>
<feGaussianBlur stdDeviation="20"/>
<feColorMatrix type="matrix" values="0 0 0 0 0 0 0 0 0 0 0 0 0 0 0 0 0 0 0.35 0"/>
<feBlend mode="normal" in2="BackgroundImageFix" result="effect1_dropShadow"/>
<feColorMatrix in="SourceAlpha" type="matrix" values="0 0 0 0 0 0 0 0 0 0 0 0 0 0 0 0 0 0 127 0"/>
<feOffset dy="2"/>
<feGaussianBlur stdDeviation="1.5"/>
<feColorMatrix type="matrix" values="0 0 0 0 0 0 0 0 0 0 0 0 0 0 0 0 0 0 0.22 0"/>
<feBlend mode="normal" in2="effect1_dropShadow" result="effect2_dropShadow"/>
<feBlend mode="normal" in="SourceGraphic" in2="effect2_dropShadow" result="shape"/>
</filter>
<filter id="filter1_iii" x="40" y="37" width="392" height="42" filterUnits="userSpaceOnUse" color-interpolation-filters="sRGB">
<feFlood flood-opacity="0" result="BackgroundImageFix"/>
<feBlend mode="normal" in="SourceGraphic" in2="BackgroundImageFix" result="shape"/>
<feColorMatrix in="SourceAlpha" type="matrix" values="0 0 0 0 0 0 0 0 0 0 0 0 0 0 0 0 0 0 127 0" result="hardAlpha"/>
<feOffset dy="1"/>
<feComposite in2="hardAlpha" operator="arithmetic" k2="-1" k3="1"/>
<feColorMatrix type="matrix" values="0 0 0 0 0.133333 0 0 0 0 0.203922 0 0 0 0 0.231373 0 0 0 1 0"/>
<feBlend mode="normal" in2="shape" result="effect1_innerShadow"/>
<feColorMatrix in="SourceAlpha" type="matrix" values="0 0 0 0 0 0 0 0 0 0 0 0 0 0 0 0 0 0 127 0" result="hardAlpha"/>
<feOffset dx="1"/>
<feComposite in2="hardAlpha" operator="arithmetic" k2="-1" k3="1"/>
<feColorMatrix type="matrix" values="0 0 0 0 0.133333 0 0 0 0 0.203922 0 0 0 0 0.231373 0 0 0 1 0"/>
<feBlend mode="normal" in2="effect1_innerShadow" result="effect2_innerShadow"/>
<feColorMatrix in="SourceAlpha" type="matrix" values="0 0 0 0 0 0 0 0 0 0 0 0 0 0 0 0 0 0 127 0" result="hardAlpha"/>
<feOffset dx="-1"/>
<feComposite in2="hardAlpha" operator="arithmetic" k2="-1" k3="1"/>
<feColorMatrix type="matrix" values="0 0 0 0 0.133333 0 0 0 0 0.203922 0 0 0 0 0.231373 0 0 0 1 0"/>
<feBlend mode="normal" in2="effect2_innerShadow" result="effect3_innerShadow"/>
</filter>
<clipPath id="clip0">
<path d="M40 42C40 39.2386 42.2386 37 45 37H424C426.761 37 429 39.2386 429 42V414C429 416.761 426.761 419 424 419H45C42.2386 419 40 416.761 40 414V42Z" fill="white"/>
</clipPath>
</defs>
</svg>
