<?xml version="1.0" encoding="UTF-8"?>
<svg width="396px" height="425px" viewBox="0 0 396 425" version="1.1" xmlns="http://www.w3.org/2000/svg" xmlns:xlink="http://www.w3.org/1999/xlink">
    <!-- Generator: Sketch 55 (78076) - https://sketchapp.com -->
    <title>Group 2</title>
    <desc>Created with Sketch.</desc>
    <g id="Page-1" stroke="none" stroke-width="1" fill="none" fill-rule="evenodd">
        <g id="Group-2" transform="translate(0.000000, 3.000000)" stroke="#33C69F" stroke-width="5">
            <g id="Ellipse" transform="translate(273.000000, 299.000000)">
                <path d="M60,0 C93.1371,0 120,26.8629 120,60 C120,93.1371 93.1371,120 60,120 C26.8629,120 0,93.1371 0,60 L49,60" id="Path"></path>
            </g>
            <g id="Group" transform="translate(312.000000, 329.000000)">
                <path d="M13.5,57 L44.164,57 C45.5293,56.9999 46.8538,56.5341 47.9187,55.6796 C48.9836,54.8251 49.7252,53.6329 50.021,52.3 L55.355,28.3 C55.5496,27.4232 55.5449,26.5139 55.3412,25.6392 C55.1375,24.7644 54.74,23.9466 54.178,23.246 C53.6161,22.5453 52.904,21.9798 52.0944,21.5911 C51.2847,21.2024 50.3981,21.0004 49.5,21 L29.5,21 L29.5,9 C29.5,2.79935 25.7027,0.87071 23.3404,0.27082 C22.3226,0.01234 21.4465,0.81268 21.3406,1.85748 C20.887,6.32861 19.9347,10.737 18.5,15 C16.479,20.417 10.5,22.5 8.5,30 L0,30" id="Path"></path>
            </g>
            <g id="Vector-2">
                <path d="M335,301.5 L335,80 C335,35.8172 299.183,-6.27622954e-15 255,-0 L0,0" id="Path"></path>
            </g>
        </g>
    </g>
</svg>