<svg width="880" height="507" viewBox="0 0 880 507" fill="none" xmlns="http://www.w3.org/2000/svg">
<g clip-path="url(#clip0)">
<rect width="880" height="507" rx="8" fill="#0A1B2B"/>
<rect width="880" height="507" rx="8" fill="url(#paint0_linear)" fill-opacity="0.04"/>
<path d="M191.35 64.654H193.016C192.778 62.61 191.238 61 188.704 61C185.82 61 184 63.198 184 66.208C184 69.232 185.82 71.43 188.704 71.43C191.252 71.43 192.792 69.82 193.016 67.566H191.35C191.238 68.784 190.524 70.002 188.662 70.002C186.506 70.002 185.652 68.196 185.652 66.208C185.652 64.234 186.506 62.428 188.662 62.428C190.51 62.428 191.168 63.646 191.35 64.654Z" fill="white" fill-opacity="0.5"/>
<path d="M197.636 71.43C195.396 71.43 194.038 69.876 194.038 67.65C194.038 65.424 195.396 63.87 197.636 63.87C199.876 63.87 201.234 65.424 201.234 67.65C201.234 69.876 199.876 71.43 197.636 71.43ZM197.636 70.226C199.036 70.226 199.764 69.12 199.764 67.65C199.764 66.166 199.036 65.074 197.636 65.074C196.236 65.074 195.508 66.166 195.508 67.65C195.508 69.12 196.236 70.226 197.636 70.226Z" fill="white" fill-opacity="0.5"/>
<path d="M206.38 63.87C205.148 63.87 204.406 64.43 204.028 64.99H204V64.066H202.53V71.22H204V66.866C204 65.802 204.728 65.116 205.862 65.116C206.87 65.116 207.276 65.732 207.276 66.698V71.22H208.76V66.278C208.76 64.64 207.71 63.87 206.38 63.87Z" fill="white" fill-opacity="0.5"/>
<path d="M213.664 65.27V64.066H212.32V61.812H210.836V64.066H209.8V65.27H210.836V69.274C210.836 70.786 211.48 71.318 212.656 71.318C213.048 71.318 213.37 71.276 213.664 71.206V70.002C212.712 70.058 212.32 69.96 212.32 69.148V65.27H213.664Z" fill="white" fill-opacity="0.5"/>
<path d="M219.379 65.942C219.379 66.628 218.707 66.768 217.601 66.978C215.809 67.328 214.647 67.818 214.647 69.386C214.647 70.59 215.543 71.43 216.999 71.43C218.105 71.43 218.917 70.996 219.365 70.366H219.393C219.533 71.066 219.897 71.346 220.681 71.346C220.961 71.346 221.199 71.318 221.535 71.192V70.492C220.961 70.548 220.849 70.282 220.849 69.778V66.376C220.849 64.472 219.673 63.87 218.091 63.87C215.935 63.87 215.053 64.948 214.983 66.32H216.411C216.481 65.396 216.915 65.032 218.091 65.032C219.071 65.032 219.379 65.424 219.379 65.942ZM217.321 70.268C216.523 70.268 216.131 69.904 216.131 69.246C216.131 68.518 216.663 68.168 217.881 67.902C218.567 67.762 219.141 67.594 219.379 67.426V68.504C219.379 69.666 218.539 70.268 217.321 70.268Z" fill="white" fill-opacity="0.5"/>
<path d="M223.501 62.862C223.935 62.862 224.341 62.582 224.341 62.078C224.341 61.574 223.935 61.308 223.501 61.308C223.095 61.308 222.675 61.574 222.675 62.078C222.675 62.582 223.095 62.862 223.501 62.862ZM222.773 64.066V71.22H224.243V64.066H222.773Z" fill="white" fill-opacity="0.5"/>
<path d="M229.867 63.87C228.635 63.87 227.893 64.43 227.515 64.99H227.487V64.066H226.017V71.22H227.487V66.866C227.487 65.802 228.215 65.116 229.349 65.116C230.357 65.116 230.763 65.732 230.763 66.698V71.22H232.247V66.278C232.247 64.64 231.197 63.87 229.867 63.87Z" fill="white" fill-opacity="0.5"/>
<path d="M237.035 70.226C235.733 70.226 234.964 69.232 234.964 68.028H240.451C240.451 65.48 239.317 63.87 237.007 63.87C234.851 63.87 233.493 65.326 233.493 67.65C233.493 69.89 234.851 71.43 237.077 71.43C238.911 71.43 239.976 70.394 240.34 69.036H238.869C238.743 69.47 238.253 70.226 237.035 70.226ZM237.007 65.032C238.197 65.032 238.981 65.83 238.981 66.936H234.964C234.964 65.83 235.817 65.032 237.007 65.032Z" fill="white" fill-opacity="0.5"/>
<path d="M245.141 63.898C244.203 63.898 243.615 64.514 243.237 65.41H243.209V64.066H241.739V71.22H243.209V67.566C243.209 66.04 244.343 65.088 245.757 65.326H245.785V63.94C245.575 63.912 245.393 63.898 245.141 63.898Z" fill="white" fill-opacity="0.5"/>
<path d="M250.11 71.22H251.734V63.632H251.762L254.408 71.22H255.738L258.384 63.632H258.412V71.22H260.036V61.21H257.88L255.094 68.91H255.066L252.266 61.21H250.11V71.22Z" fill="white" fill-opacity="0.5"/>
<path d="M265.171 70.226C263.869 70.226 263.099 69.232 263.099 68.028H268.587C268.587 65.48 267.453 63.87 265.143 63.87C262.987 63.87 261.629 65.326 261.629 67.65C261.629 69.89 262.987 71.43 265.213 71.43C267.047 71.43 268.111 70.394 268.475 69.036H267.005C266.879 69.47 266.389 70.226 265.171 70.226ZM265.143 65.032C266.333 65.032 267.117 65.83 267.117 66.936H263.099C263.099 65.83 263.953 65.032 265.143 65.032Z" fill="white" fill-opacity="0.5"/>
<path d="M273.154 65.27V64.066H271.81V61.812H270.326V64.066H269.29V65.27H270.326V69.274C270.326 70.786 270.97 71.318 272.146 71.318C272.538 71.318 272.86 71.276 273.154 71.206V70.002C272.202 70.058 271.81 69.96 271.81 69.148V65.27H273.154Z" fill="white" fill-opacity="0.5"/>
<path d="M277.905 63.898C276.967 63.898 276.379 64.514 276.001 65.41H275.973V64.066H274.503V71.22H275.973V67.566C275.973 66.04 277.107 65.088 278.521 65.326H278.549V63.94C278.339 63.912 278.157 63.898 277.905 63.898Z" fill="white" fill-opacity="0.5"/>
<path d="M280.599 62.862C281.033 62.862 281.439 62.582 281.439 62.078C281.439 61.574 281.033 61.308 280.599 61.308C280.193 61.308 279.773 61.574 279.773 62.078C279.773 62.582 280.193 62.862 280.599 62.862ZM279.871 64.066V71.22H281.341V64.066H279.871Z" fill="white" fill-opacity="0.5"/>
<path d="M288.043 66.684H289.513C289.331 65.06 288.113 63.87 286.251 63.87C284.123 63.87 282.737 65.41 282.737 67.65C282.737 69.89 284.123 71.43 286.265 71.43C288.127 71.43 289.401 70.212 289.513 68.56H288.043C287.987 69.358 287.525 70.226 286.265 70.226C284.809 70.226 284.207 68.994 284.207 67.65C284.207 66.306 284.823 65.074 286.265 65.074C287.525 65.074 287.987 65.956 288.043 66.684Z" fill="white" fill-opacity="0.5"/>
<path d="M293.968 66.894C292.932 66.656 292.134 66.6 292.134 65.872C292.134 65.368 292.61 65.032 293.492 65.032C294.64 65.032 294.92 65.606 295.018 66.166H296.446C296.348 64.92 295.424 63.87 293.478 63.87C291.686 63.87 290.65 64.808 290.65 65.984C290.65 67.608 292.19 67.832 293.324 68.098C294.374 68.35 295.228 68.42 295.228 69.316C295.228 69.764 294.794 70.268 293.772 70.268C292.26 70.268 291.924 69.61 291.854 68.84H290.426C290.496 70.352 291.49 71.43 293.8 71.43C295.536 71.43 296.712 70.576 296.712 69.204C296.712 67.496 295.284 67.202 293.968 66.894Z" fill="white" fill-opacity="0.5"/>
<path d="M189.733 87.4202C187.927 87.4202 186.814 88.2602 186.247 89.1002H186.205V83.4302H184V98.4452H186.205V91.9142C186.205 90.3182 187.36 89.2892 188.977 89.2892C190.51 89.2892 191.119 90.2132 191.119 91.6622V98.4452H193.345V91.0322C193.345 88.5752 191.77 87.4202 189.733 87.4202Z" fill="white"/>
<path d="M200.107 96.9542C198.154 96.9542 196.999 95.4632 196.999 93.6572H205.231C205.231 89.8352 203.53 87.4202 200.065 87.4202C196.831 87.4202 194.794 89.6042 194.794 93.0902C194.794 96.4502 196.831 98.7602 200.17 98.7602C202.921 98.7602 204.517 97.2062 205.063 95.1692H202.858C202.669 95.8202 201.934 96.9542 200.107 96.9542ZM200.065 89.1632C201.85 89.1632 203.026 90.3602 203.026 92.0192H196.999C196.999 90.3602 198.28 89.1632 200.065 89.1632Z" fill="white"/>
<path d="M213.232 90.5282C213.232 91.5572 212.224 91.7672 210.565 92.0822C207.877 92.6072 206.134 93.3422 206.134 95.6942C206.134 97.5002 207.478 98.7602 209.662 98.7602C211.321 98.7602 212.539 98.1092 213.211 97.1642H213.253C213.463 98.2142 214.009 98.6342 215.185 98.6342C215.605 98.6342 215.962 98.5922 216.466 98.4032V97.3532C215.605 97.4372 215.437 97.0382 215.437 96.2822V91.1792C215.437 88.3232 213.673 87.4202 211.3 87.4202C208.066 87.4202 206.743 89.0372 206.638 91.0952H208.78C208.885 89.7092 209.536 89.1632 211.3 89.1632C212.77 89.1632 213.232 89.7512 213.232 90.5282ZM210.145 97.0172C208.948 97.0172 208.36 96.4712 208.36 95.4842C208.36 94.3922 209.158 93.8672 210.985 93.4682C212.014 93.2582 212.875 93.0062 213.232 92.7542V94.3712C213.232 96.1142 211.972 97.0172 210.145 97.0172Z" fill="white"/>
<path d="M217.798 83.4302V98.4452H220.024V83.4302H217.798Z" fill="white"/>
<path d="M227.289 89.5202V87.7142H225.273V84.3332H223.047V87.7142H221.493V89.5202H223.047V95.5262C223.047 97.7942 224.013 98.5922 225.777 98.5922C226.365 98.5922 226.848 98.5292 227.289 98.4242V96.6182C225.861 96.7022 225.273 96.5552 225.273 95.3372V89.5202H227.289Z" fill="white"/>
<path d="M234.625 87.4202C232.819 87.4202 231.706 88.2602 231.139 89.1002H231.097V83.4302H228.892V98.4452H231.097V91.9142C231.097 90.3182 232.252 89.2892 233.869 89.2892C235.402 89.2892 236.011 90.2132 236.011 91.6622V98.4452H238.237V91.0322C238.237 88.5752 236.662 87.4202 234.625 87.4202Z" fill="white"/>
<path d="M247.645 91.6412H249.85C249.577 89.2052 247.75 87.4202 244.957 87.4202C241.765 87.4202 239.686 89.7302 239.686 93.0902C239.686 96.4502 241.765 98.7602 244.978 98.7602C247.771 98.7602 249.682 96.9332 249.85 94.4552H247.645C247.561 95.6522 246.868 96.9542 244.978 96.9542C242.794 96.9542 241.891 95.1062 241.891 93.0902C241.891 91.0742 242.815 89.2262 244.978 89.2262C246.868 89.2262 247.561 90.5492 247.645 91.6412Z" fill="white"/>
<path d="M256.137 98.7602C252.777 98.7602 250.74 96.4292 250.74 93.0902C250.74 89.7512 252.777 87.4202 256.137 87.4202C259.497 87.4202 261.534 89.7512 261.534 93.0902C261.534 96.4292 259.497 98.7602 256.137 98.7602ZM256.137 96.9542C258.237 96.9542 259.329 95.2952 259.329 93.0902C259.329 90.8642 258.237 89.2262 256.137 89.2262C254.037 89.2262 252.945 90.8642 252.945 93.0902C252.945 95.2952 254.037 96.9542 256.137 96.9542Z" fill="white"/>
<path d="M262.764 92.0822V94.1402H268.413V92.0822H262.764Z" fill="white"/>
<path d="M276.704 90.5282C276.704 91.5572 275.696 91.7672 274.037 92.0822C271.349 92.6072 269.606 93.3422 269.606 95.6942C269.606 97.5002 270.95 98.7602 273.134 98.7602C274.793 98.7602 276.011 98.1092 276.683 97.1642H276.725C276.935 98.2142 277.481 98.6342 278.657 98.6342C279.077 98.6342 279.434 98.5922 279.938 98.4032V97.3532C279.077 97.4372 278.909 97.0382 278.909 96.2822V91.1792C278.909 88.3232 277.145 87.4202 274.772 87.4202C271.538 87.4202 270.215 89.0372 270.11 91.0952H272.252C272.357 89.7092 273.008 89.1632 274.772 89.1632C276.242 89.1632 276.704 89.7512 276.704 90.5282ZM273.617 97.0172C272.42 97.0172 271.832 96.4712 271.832 95.4842C271.832 94.3922 272.63 93.8672 274.457 93.4682C275.486 93.2582 276.347 93.0062 276.704 92.7542V94.3712C276.704 96.1142 275.444 97.0172 273.617 97.0172Z" fill="white"/>
<path d="M286.793 87.4202C285.113 87.4202 284.063 88.2182 283.496 88.9742H283.454V87.7142H281.228V102.099H283.454V97.1642H283.496C284.063 97.9622 285.113 98.7602 286.793 98.7602C289.523 98.7602 291.56 96.6182 291.56 93.0902C291.56 89.5622 289.523 87.4202 286.793 87.4202ZM286.373 96.9542C284.588 96.9542 283.475 95.4632 283.475 93.0902C283.475 90.6962 284.588 89.2262 286.373 89.2262C288.305 89.2262 289.334 90.9902 289.334 93.0902C289.334 95.1902 288.305 96.9542 286.373 96.9542Z" fill="white"/>
<path d="M294.402 85.9082C295.053 85.9082 295.662 85.4882 295.662 84.7322C295.662 83.9762 295.053 83.5772 294.402 83.5772C293.793 83.5772 293.163 83.9762 293.163 84.7322C293.163 85.4882 293.793 85.9082 294.402 85.9082ZM293.31 87.7142V98.4452H295.515V87.7142H293.31Z" fill="white"/>
<path d="M297.463 92.0822V94.1402H303.112V92.0822H297.463Z" fill="white"/>
<path d="M310.689 87.4202C308.841 87.4202 307.728 88.2602 307.161 89.1002H307.119V87.7142H304.914V98.4452H307.119V91.9142C307.119 90.3182 308.211 89.2892 309.912 89.2892C311.424 89.2892 312.033 90.2132 312.033 91.6622V98.4452H314.259V91.0322C314.259 88.5752 312.684 87.4202 310.689 87.4202Z" fill="white"/>
<path d="M321.105 98.7602C317.745 98.7602 315.708 96.4292 315.708 93.0902C315.708 89.7512 317.745 87.4202 321.105 87.4202C324.465 87.4202 326.502 89.7512 326.502 93.0902C326.502 96.4292 324.465 98.7602 321.105 98.7602ZM321.105 96.9542C323.205 96.9542 324.297 95.2952 324.297 93.0902C324.297 90.8642 323.205 89.2262 321.105 89.2262C319.005 89.2262 317.913 90.8642 317.913 93.0902C317.913 95.2952 319.005 96.9542 321.105 96.9542Z" fill="white"/>
<path d="M335.565 83.4302V89.0162H335.523C334.956 88.1972 333.906 87.4202 332.247 87.4202C329.496 87.4202 327.459 89.5622 327.459 93.0902C327.459 96.6182 329.496 98.7602 332.247 98.7602C333.906 98.7602 334.956 97.9412 335.523 97.2062H335.565V98.4452H337.77V83.4302H335.565ZM332.625 96.9542C330.693 96.9542 329.664 95.1902 329.664 93.0902C329.664 90.9902 330.693 89.2262 332.625 89.2262C334.431 89.2262 335.544 90.6962 335.544 93.0902C335.544 95.4632 334.431 96.9542 332.625 96.9542Z" fill="white"/>
<path d="M344.626 96.9542C342.673 96.9542 341.518 95.4632 341.518 93.6572H349.75C349.75 89.8352 348.049 87.4202 344.584 87.4202C341.35 87.4202 339.313 89.6042 339.313 93.0902C339.313 96.4502 341.35 98.7602 344.689 98.7602C347.44 98.7602 349.036 97.2062 349.582 95.1692H347.377C347.188 95.8202 346.453 96.9542 344.626 96.9542ZM344.584 89.1632C346.369 89.1632 347.545 90.3602 347.545 92.0192H341.518C341.518 90.3602 342.799 89.1632 344.584 89.1632Z" fill="white"/>
<path d="M352.396 85.9082C353.026 85.9082 353.656 85.4882 353.656 84.7322C353.656 83.9762 353.026 83.5772 352.396 83.5772C351.787 83.5772 351.157 83.9762 351.157 84.7322C351.157 85.4882 351.787 85.9082 352.396 85.9082ZM351.304 87.7142V98.9702C351.304 100.188 350.926 100.272 349.498 100.188V101.868C350.107 102.015 350.569 102.099 351.22 102.099C352.984 102.099 353.509 100.923 353.509 98.9492V87.7142H351.304Z" fill="white"/>
<path d="M360.394 91.9562C358.84 91.5992 357.643 91.5152 357.643 90.4232C357.643 89.6672 358.357 89.1632 359.68 89.1632C361.402 89.1632 361.822 90.0242 361.969 90.8642H364.111C363.964 88.9952 362.578 87.4202 359.659 87.4202C356.971 87.4202 355.417 88.8272 355.417 90.5912C355.417 93.0272 357.727 93.3632 359.428 93.7622C361.003 94.1402 362.284 94.2452 362.284 95.5892C362.284 96.2612 361.633 97.0172 360.1 97.0172C357.832 97.0172 357.328 96.0302 357.223 94.8752H355.081C355.186 97.1432 356.677 98.7602 360.142 98.7602C362.746 98.7602 364.51 97.4792 364.51 95.4212C364.51 92.8592 362.368 92.4182 360.394 91.9562Z" fill="white"/>
<path d="M639.137 73.5149L634 87.2699H636.363L637.496 84.0179H643.199L644.331 87.2699H646.695L641.58 73.5149H639.137ZM638.141 82.1145L640.348 75.6121H640.386L642.575 82.1145H638.141ZM652.991 77.1692C651.43 77.1692 650.453 77.9009 649.925 78.5929H649.887V77.4389H647.816V90.5088H649.887V86.0967H649.925C650.454 86.8285 651.43 87.558 652.991 87.558C655.53 87.558 657.425 85.5971 657.425 82.3636C657.426 79.1323 655.53 77.1692 652.991 77.1692ZM652.6 85.9036C650.94 85.9036 649.906 84.5374 649.906 82.3636C649.906 80.1706 650.94 78.825 652.6 78.825C654.397 78.825 655.355 80.4403 655.355 82.3636C655.355 84.2868 654.397 85.9036 652.6 85.9036ZM661.512 77.4389H663.389V79.0924H661.512V84.4217C661.512 85.5389 662.059 85.673 663.389 85.5964V87.2507C662.979 87.3465 662.527 87.4039 661.98 87.4039C660.341 87.4039 659.441 86.6722 659.441 84.5956V79.0932H657.997V77.4389H659.441V74.3417H661.512V77.4389ZM665.198 77.4389H667.249V87.2699H665.198V77.4389ZM667.386 74.6536C667.386 75.2857 666.866 75.7983 666.224 75.7983C665.582 75.7983 665.062 75.2857 665.062 74.6536C665.062 74.0214 665.582 73.5088 666.223 73.5088C666.866 73.5088 667.386 74.0214 667.386 74.6536ZM674.447 77.1646C672.904 77.1646 671.928 77.8772 671.4 78.6273H671.362V73.5103H669.31V87.2653H671.362V86.1289H671.4C671.928 86.8024 672.904 87.5526 674.447 87.5526C677.004 87.5526 678.9 85.5918 678.9 82.3582C678.9 79.1269 677.004 77.1646 674.447 77.1646ZM674.085 85.8937C672.405 85.8937 671.371 84.5274 671.371 82.3536C671.371 80.1606 672.405 78.8151 674.085 78.8151C675.882 78.8151 676.839 80.4303 676.839 82.3536C676.839 84.2769 675.882 85.8937 674.085 85.8937ZM680.561 73.5103H682.632V87.2653H680.561V73.5103ZM689.235 85.899C687.419 85.899 686.344 84.5328 686.344 82.8792H694C694 79.3783 692.419 77.1653 689.197 77.1653C686.188 77.1653 684.292 79.1675 684.292 82.3597C684.292 85.4378 686.188 87.5541 689.292 87.5541C691.852 87.5541 693.338 86.1304 693.844 84.2646H691.792C691.618 84.86 690.933 85.899 689.235 85.899ZM689.195 78.7622C690.856 78.7622 691.95 79.8587 691.95 81.3782H686.343C686.343 79.8587 687.535 78.7622 689.195 78.7622Z" fill="white"/>
<path fill-rule="evenodd" clip-rule="evenodd" d="M630 81.7441V78.45L625.2 73.5088H622L630 81.7441ZM625.2 87.5088H622.8V79.9606V76.6665L625.2 79.1371L630 84.0783V87.3724L625.2 82.4312V87.5088ZM618.8 87.5088H621.2V76.6665L621.2 76.6668V76.6665L614 84.0783V87.3724L618.8 82.4309V87.5088ZM614 78.45V81.7441L622 73.5088H618.77L614 78.45Z" fill="#FFB607"/>
<path d="M695.002 77.5088C695.56 77.5088 696 77.0832 696 76.5088C696 75.9344 695.56 75.5088 695.002 75.5088C694.44 75.5088 694 75.9344 694 76.5088C694 77.0832 694.44 77.5088 695.002 77.5088ZM695.002 77.3311C694.537 77.3311 694.193 76.9923 694.193 76.5088C694.193 76.0295 694.537 75.6865 695.002 75.6865C695.463 75.6865 695.807 76.0295 695.807 76.5088C695.807 76.9923 695.463 77.3311 695.002 77.3311ZM694.608 77.0336H694.818V76.6204H694.998C695.287 76.6204 695.182 76.9881 695.229 77.0336H695.451V77.0212C695.392 77.0047 695.484 76.5873 695.237 76.5418V76.5377C695.358 76.5088 695.438 76.422 695.438 76.2733C695.438 76.079 695.291 75.9675 695.069 75.9675H694.608V77.0336ZM694.818 76.1493H695.002C695.115 76.1493 695.224 76.1534 695.224 76.2939C695.224 76.4344 695.115 76.4427 695.002 76.4427H694.818V76.1493Z" fill="white"/>
<g clip-path="url(#clip1)">
<rect x="184" y="118.099" width="512" height="61" rx="5" fill="black" fill-opacity="0.1"/>
<rect x="437.155" y="119.099" width="1" height="78" fill="white" fill-opacity="0.15"/>
<path d="M207.445 137.002H208.992C208.771 135.104 207.341 133.609 204.988 133.609C202.31 133.609 200.62 135.65 200.62 138.445C200.62 141.253 202.31 143.294 204.988 143.294C207.354 143.294 208.784 141.799 208.992 139.706H207.445C207.341 140.837 206.678 141.968 204.949 141.968C202.947 141.968 202.154 140.291 202.154 138.445C202.154 136.612 202.947 134.935 204.949 134.935C206.665 134.935 207.276 136.066 207.445 137.002Z" fill="white"/>
<path d="M213.282 143.294C211.202 143.294 209.941 141.851 209.941 139.784C209.941 137.717 211.202 136.274 213.282 136.274C215.362 136.274 216.623 137.717 216.623 139.784C216.623 141.851 215.362 143.294 213.282 143.294ZM213.282 142.176C214.582 142.176 215.258 141.149 215.258 139.784C215.258 138.406 214.582 137.392 213.282 137.392C211.982 137.392 211.306 138.406 211.306 139.784C211.306 141.149 211.982 142.176 213.282 142.176Z" fill="white"/>
<path d="M221.402 136.274C220.258 136.274 219.569 136.794 219.218 137.314H219.192V136.456H217.827V143.099H219.192V139.056C219.192 138.068 219.868 137.431 220.921 137.431C221.857 137.431 222.234 138.003 222.234 138.9V143.099H223.612V138.51C223.612 136.989 222.637 136.274 221.402 136.274Z" fill="white"/>
<path d="M228.165 137.574V136.456H226.917V134.363H225.539V136.456H224.577V137.574H225.539V141.292C225.539 142.696 226.137 143.19 227.229 143.19C227.593 143.19 227.892 143.151 228.165 143.086V141.968C227.281 142.02 226.917 141.929 226.917 141.175V137.574H228.165Z" fill="white"/>
<path d="M233.472 138.198C233.472 138.835 232.848 138.965 231.821 139.16C230.157 139.485 229.078 139.94 229.078 141.396C229.078 142.514 229.91 143.294 231.262 143.294C232.289 143.294 233.043 142.891 233.459 142.306H233.485C233.615 142.956 233.953 143.216 234.681 143.216C234.941 143.216 235.162 143.19 235.474 143.073V142.423C234.941 142.475 234.837 142.228 234.837 141.76V138.601C234.837 136.833 233.745 136.274 232.276 136.274C230.274 136.274 229.455 137.275 229.39 138.549H230.716C230.781 137.691 231.184 137.353 232.276 137.353C233.186 137.353 233.472 137.717 233.472 138.198ZM231.561 142.215C230.82 142.215 230.456 141.877 230.456 141.266C230.456 140.59 230.95 140.265 232.081 140.018C232.718 139.888 233.251 139.732 233.472 139.576V140.577C233.472 141.656 232.692 142.215 231.561 142.215Z" fill="white"/>
<path d="M237.299 135.338C237.702 135.338 238.079 135.078 238.079 134.61C238.079 134.142 237.702 133.895 237.299 133.895C236.922 133.895 236.532 134.142 236.532 134.61C236.532 135.078 236.922 135.338 237.299 135.338ZM236.623 136.456V143.099H237.988V136.456H236.623Z" fill="white"/>
<path d="M243.211 136.274C242.067 136.274 241.378 136.794 241.027 137.314H241.001V136.456H239.636V143.099H241.001V139.056C241.001 138.068 241.677 137.431 242.73 137.431C243.666 137.431 244.043 138.003 244.043 138.9V143.099H245.421V138.51C245.421 136.989 244.446 136.274 243.211 136.274Z" fill="white"/>
<path d="M249.867 142.176C248.658 142.176 247.943 141.253 247.943 140.135H253.039C253.039 137.769 251.986 136.274 249.841 136.274C247.839 136.274 246.578 137.626 246.578 139.784C246.578 141.864 247.839 143.294 249.906 143.294C251.609 143.294 252.597 142.332 252.935 141.071H251.57C251.453 141.474 250.998 142.176 249.867 142.176ZM249.841 137.353C250.946 137.353 251.674 138.094 251.674 139.121H247.943C247.943 138.094 248.736 137.353 249.841 137.353Z" fill="white"/>
<path d="M257.394 136.3C256.523 136.3 255.977 136.872 255.626 137.704H255.6V136.456H254.235V143.099H255.6V139.706C255.6 138.289 256.653 137.405 257.966 137.626H257.992V136.339C257.797 136.313 257.628 136.3 257.394 136.3Z" fill="white"/>
<path d="M268.482 137.002H270.029C269.808 135.104 268.378 133.609 266.025 133.609C263.347 133.609 261.657 135.65 261.657 138.445C261.657 141.253 263.347 143.294 266.025 143.294C268.391 143.294 269.821 141.799 270.029 139.706H268.482C268.378 140.837 267.715 141.968 265.986 141.968C263.984 141.968 263.191 140.291 263.191 138.445C263.191 136.612 263.984 134.935 265.986 134.935C267.702 134.935 268.313 136.066 268.482 137.002Z" fill="white"/>
<path d="M274.319 143.294C272.239 143.294 270.978 141.851 270.978 139.784C270.978 137.717 272.239 136.274 274.319 136.274C276.399 136.274 277.66 137.717 277.66 139.784C277.66 141.851 276.399 143.294 274.319 143.294ZM274.319 142.176C275.619 142.176 276.295 141.149 276.295 139.784C276.295 138.406 275.619 137.392 274.319 137.392C273.019 137.392 272.343 138.406 272.343 139.784C272.343 141.149 273.019 142.176 274.319 142.176Z" fill="white"/>
<path d="M283.231 136.456V140.499C283.231 141.487 282.555 142.124 281.502 142.124C280.566 142.124 280.189 141.552 280.189 140.655V136.456H278.811V141.045C278.811 142.566 279.786 143.281 281.021 143.281C282.165 143.281 282.854 142.761 283.205 142.241H283.231V143.099H284.596V136.456H283.231Z" fill="white"/>
<path d="M289.731 136.274C288.587 136.274 287.898 136.794 287.547 137.314H287.521V136.456H286.156V143.099H287.521V139.056C287.521 138.068 288.197 137.431 289.25 137.431C290.186 137.431 290.563 138.003 290.563 138.9V143.099H291.941V138.51C291.941 136.989 290.966 136.274 289.731 136.274Z" fill="white"/>
<path d="M296.495 137.574V136.456H295.247V134.363H293.869V136.456H292.907V137.574H293.869V141.292C293.869 142.696 294.467 143.19 295.559 143.19C295.923 143.19 296.222 143.151 296.495 143.086V141.968C295.611 142.02 295.247 141.929 295.247 141.175V137.574H296.495Z" fill="white"/>
<rect x="396.316" y="128.747" width="30.3675" height="10.705" rx="2" fill="#55C28F" fill-opacity="0.2"/>
<path d="M403.124 133.483C402.224 133.258 401.621 133.132 401.621 132.43C401.621 131.953 402.08 131.665 402.845 131.665C403.736 131.665 404.204 132.061 404.303 132.808H405.374C405.284 131.485 404.258 130.747 402.845 130.747C401.441 130.747 400.559 131.386 400.559 132.529C400.559 133.753 401.648 134.14 402.656 134.392C403.925 134.707 404.474 134.851 404.474 135.616C404.474 136.111 404.105 136.534 403.151 136.534C401.999 136.534 401.441 135.994 401.387 135.175H400.316C400.379 136.633 401.576 137.452 403.151 137.452C404.771 137.452 405.545 136.597 405.545 135.571C405.545 134.131 404.501 133.834 403.124 133.483Z" fill="#33C69F"/>
<path d="M409.647 134.401H410.592C410.475 133.357 409.692 132.592 408.495 132.592C407.127 132.592 406.236 133.582 406.236 135.022C406.236 136.462 407.127 137.452 408.504 137.452C409.701 137.452 410.52 136.669 410.592 135.607H409.647C409.611 136.12 409.314 136.678 408.504 136.678C407.568 136.678 407.181 135.886 407.181 135.022C407.181 134.158 407.577 133.366 408.504 133.366C409.314 133.366 409.611 133.933 409.647 134.401Z" fill="#33C69F"/>
<path d="M414.265 133.924C414.265 134.365 413.833 134.455 413.122 134.59C411.97 134.815 411.223 135.13 411.223 136.138C411.223 136.912 411.799 137.452 412.735 137.452C413.446 137.452 413.968 137.173 414.256 136.768H414.274C414.364 137.218 414.598 137.398 415.102 137.398C415.282 137.398 415.435 137.38 415.651 137.299V136.849C415.282 136.885 415.21 136.714 415.21 136.39V134.203C415.21 132.979 414.454 132.592 413.437 132.592C412.051 132.592 411.484 133.285 411.439 134.167H412.357C412.402 133.573 412.681 133.339 413.437 133.339C414.067 133.339 414.265 133.591 414.265 133.924ZM412.942 136.705C412.429 136.705 412.177 136.471 412.177 136.048C412.177 135.58 412.519 135.355 413.302 135.184C413.743 135.094 414.112 134.986 414.265 134.878V135.571C414.265 136.318 413.725 136.705 412.942 136.705Z" fill="#33C69F"/>
<path d="M416.402 130.882V137.317H417.356V130.882H416.402Z" fill="#33C69F"/>
<path d="M420.488 136.678C419.651 136.678 419.156 136.039 419.156 135.265H422.684C422.684 133.627 421.955 132.592 420.47 132.592C419.084 132.592 418.211 133.528 418.211 135.022C418.211 136.462 419.084 137.452 420.515 137.452C421.694 137.452 422.378 136.786 422.612 135.913H421.667C421.586 136.192 421.271 136.678 420.488 136.678ZM420.47 133.339C421.235 133.339 421.739 133.852 421.739 134.563H419.156C419.156 133.852 419.705 133.339 420.47 133.339Z" fill="#33C69F"/>
<path d="M462.445 137.002H463.992C463.771 135.104 462.341 133.609 459.988 133.609C457.31 133.609 455.62 135.65 455.62 138.445C455.62 141.253 457.31 143.294 459.988 143.294C462.354 143.294 463.784 141.799 463.992 139.706H462.445C462.341 140.837 461.678 141.968 459.949 141.968C457.947 141.968 457.154 140.291 457.154 138.445C457.154 136.612 457.947 134.935 459.949 134.935C461.665 134.935 462.276 136.066 462.445 137.002Z" fill="white"/>
<path d="M468.282 143.294C466.202 143.294 464.941 141.851 464.941 139.784C464.941 137.717 466.202 136.274 468.282 136.274C470.362 136.274 471.623 137.717 471.623 139.784C471.623 141.851 470.362 143.294 468.282 143.294ZM468.282 142.176C469.582 142.176 470.258 141.149 470.258 139.784C470.258 138.406 469.582 137.392 468.282 137.392C466.982 137.392 466.306 138.406 466.306 139.784C466.306 141.149 466.982 142.176 468.282 142.176Z" fill="white"/>
<path d="M476.402 136.274C475.258 136.274 474.569 136.794 474.218 137.314H474.192V136.456H472.827V143.099H474.192V139.056C474.192 138.068 474.868 137.431 475.921 137.431C476.857 137.431 477.234 138.003 477.234 138.9V143.099H478.612V138.51C478.612 136.989 477.637 136.274 476.402 136.274Z" fill="white"/>
<path d="M483.165 137.574V136.456H481.917V134.363H480.539V136.456H479.577V137.574H480.539V141.292C480.539 142.696 481.137 143.19 482.229 143.19C482.593 143.19 482.892 143.151 483.165 143.086V141.968C482.281 142.02 481.917 141.929 481.917 141.175V137.574H483.165Z" fill="white"/>
<path d="M488.472 138.198C488.472 138.835 487.848 138.965 486.821 139.16C485.157 139.485 484.078 139.94 484.078 141.396C484.078 142.514 484.91 143.294 486.262 143.294C487.289 143.294 488.043 142.891 488.459 142.306H488.485C488.615 142.956 488.953 143.216 489.681 143.216C489.941 143.216 490.162 143.19 490.474 143.073V142.423C489.941 142.475 489.837 142.228 489.837 141.76V138.601C489.837 136.833 488.745 136.274 487.276 136.274C485.274 136.274 484.455 137.275 484.39 138.549H485.716C485.781 137.691 486.184 137.353 487.276 137.353C488.186 137.353 488.472 137.717 488.472 138.198ZM486.561 142.215C485.82 142.215 485.456 141.877 485.456 141.266C485.456 140.59 485.95 140.265 487.081 140.018C487.718 139.888 488.251 139.732 488.472 139.576V140.577C488.472 141.656 487.692 142.215 486.561 142.215Z" fill="white"/>
<path d="M492.299 135.338C492.702 135.338 493.079 135.078 493.079 134.61C493.079 134.142 492.702 133.895 492.299 133.895C491.922 133.895 491.532 134.142 491.532 134.61C491.532 135.078 491.922 135.338 492.299 135.338ZM491.623 136.456V143.099H492.988V136.456H491.623Z" fill="white"/>
<path d="M498.211 136.274C497.067 136.274 496.378 136.794 496.027 137.314H496.001V136.456H494.636V143.099H496.001V139.056C496.001 138.068 496.677 137.431 497.73 137.431C498.666 137.431 499.043 138.003 499.043 138.9V143.099H500.421V138.51C500.421 136.989 499.446 136.274 498.211 136.274Z" fill="white"/>
<path d="M504.867 142.176C503.658 142.176 502.943 141.253 502.943 140.135H508.039C508.039 137.769 506.986 136.274 504.841 136.274C502.839 136.274 501.578 137.626 501.578 139.784C501.578 141.864 502.839 143.294 504.906 143.294C506.609 143.294 507.597 142.332 507.935 141.071H506.57C506.453 141.474 505.998 142.176 504.867 142.176ZM504.841 137.353C505.946 137.353 506.674 138.094 506.674 139.121H502.943C502.943 138.094 503.736 137.353 504.841 137.353Z" fill="white"/>
<path d="M512.394 136.3C511.523 136.3 510.977 136.872 510.626 137.704H510.6V136.456H509.235V143.099H510.6V139.706C510.6 138.289 511.653 137.405 512.966 137.626H512.992V136.339C512.797 136.313 512.628 136.3 512.394 136.3Z" fill="white"/>
<path d="M520.531 137.561C519.231 137.236 518.36 137.054 518.36 136.04C518.36 135.351 519.023 134.935 520.128 134.935C521.415 134.935 522.091 135.507 522.234 136.586H523.781C523.651 134.675 522.169 133.609 520.128 133.609C518.1 133.609 516.826 134.532 516.826 136.183C516.826 137.951 518.399 138.51 519.855 138.874C521.688 139.329 522.481 139.537 522.481 140.642C522.481 141.357 521.948 141.968 520.57 141.968C518.906 141.968 518.1 141.188 518.022 140.005H516.475C516.566 142.111 518.295 143.294 520.57 143.294C522.91 143.294 524.028 142.059 524.028 140.577C524.028 138.497 522.52 138.068 520.531 137.561Z" fill="white"/>
<path d="M526.118 135.338C526.521 135.338 526.898 135.078 526.898 134.61C526.898 134.142 526.521 133.895 526.118 133.895C525.741 133.895 525.351 134.142 525.351 134.61C525.351 135.078 525.741 135.338 526.118 135.338ZM525.442 136.456V143.099H526.807V136.456H525.442Z" fill="white"/>
<path d="M528.208 142.085V143.099H533.759V141.981H529.963V141.955L533.616 137.366V136.456H528.442V137.574H531.783V137.6L528.208 142.085Z" fill="white"/>
<path d="M537.696 142.176C536.487 142.176 535.772 141.253 535.772 140.135H540.868C540.868 137.769 539.815 136.274 537.67 136.274C535.668 136.274 534.407 137.626 534.407 139.784C534.407 141.864 535.668 143.294 537.735 143.294C539.438 143.294 540.426 142.332 540.764 141.071H539.399C539.282 141.474 538.827 142.176 537.696 142.176ZM537.67 137.353C538.775 137.353 539.503 138.094 539.503 139.121H535.772C535.772 138.094 536.565 137.353 537.67 137.353Z" fill="white"/>
<rect x="655.316" y="128.747" width="30.3675" height="10.705" rx="2" fill="#55C28F" fill-opacity="0.2"/>
<path d="M662.124 133.483C661.224 133.258 660.621 133.132 660.621 132.43C660.621 131.953 661.08 131.665 661.845 131.665C662.736 131.665 663.204 132.061 663.303 132.808H664.374C664.284 131.485 663.258 130.747 661.845 130.747C660.441 130.747 659.559 131.386 659.559 132.529C659.559 133.753 660.648 134.14 661.656 134.392C662.925 134.707 663.474 134.851 663.474 135.616C663.474 136.111 663.105 136.534 662.151 136.534C660.999 136.534 660.441 135.994 660.387 135.175H659.316C659.379 136.633 660.576 137.452 662.151 137.452C663.771 137.452 664.545 136.597 664.545 135.571C664.545 134.131 663.501 133.834 662.124 133.483Z" fill="#33C69F"/>
<path d="M668.647 134.401H669.592C669.475 133.357 668.692 132.592 667.495 132.592C666.127 132.592 665.236 133.582 665.236 135.022C665.236 136.462 666.127 137.452 667.504 137.452C668.701 137.452 669.52 136.669 669.592 135.607H668.647C668.611 136.12 668.314 136.678 667.504 136.678C666.568 136.678 666.181 135.886 666.181 135.022C666.181 134.158 666.577 133.366 667.504 133.366C668.314 133.366 668.611 133.933 668.647 134.401Z" fill="#33C69F"/>
<path d="M673.265 133.924C673.265 134.365 672.833 134.455 672.122 134.59C670.97 134.815 670.223 135.13 670.223 136.138C670.223 136.912 670.799 137.452 671.735 137.452C672.446 137.452 672.968 137.173 673.256 136.768H673.274C673.364 137.218 673.598 137.398 674.102 137.398C674.282 137.398 674.435 137.38 674.651 137.299V136.849C674.282 136.885 674.21 136.714 674.21 136.39V134.203C674.21 132.979 673.454 132.592 672.437 132.592C671.051 132.592 670.484 133.285 670.439 134.167H671.357C671.402 133.573 671.681 133.339 672.437 133.339C673.067 133.339 673.265 133.591 673.265 133.924ZM671.942 136.705C671.429 136.705 671.177 136.471 671.177 136.048C671.177 135.58 671.519 135.355 672.302 135.184C672.743 135.094 673.112 134.986 673.265 134.878V135.571C673.265 136.318 672.725 136.705 671.942 136.705Z" fill="#33C69F"/>
<path d="M675.402 130.882V137.317H676.356V130.882H675.402Z" fill="#33C69F"/>
<path d="M679.488 136.678C678.651 136.678 678.156 136.039 678.156 135.265H681.684C681.684 133.627 680.955 132.592 679.47 132.592C678.084 132.592 677.211 133.528 677.211 135.022C677.211 136.462 678.084 137.452 679.515 137.452C680.694 137.452 681.378 136.786 681.612 135.913H680.667C680.586 136.192 680.271 136.678 679.488 136.678ZM679.47 133.339C680.235 133.339 680.739 133.852 680.739 134.563H678.156C678.156 133.852 678.705 133.339 679.47 133.339Z" fill="#33C69F"/>
<rect x="200" y="155.099" width="5" height="11" rx="1" fill="#33C69F"/>
<rect x="207" y="155.099" width="5" height="11" rx="1" fill="#33C69F"/>
<rect x="214" y="155.099" width="5" height="11" rx="1" fill="#33C69F" fill-opacity="0.1"/>
<rect x="221" y="155.099" width="5" height="11" rx="1" fill="#33C69F" fill-opacity="0.1"/>
<rect x="228" y="155.099" width="5" height="11" rx="1" fill="#33C69F" fill-opacity="0.1"/>
<rect x="235" y="155.099" width="5" height="11" rx="1" fill="#33C69F" fill-opacity="0.1"/>
<rect x="242" y="155.099" width="5" height="11" rx="1" fill="#33C69F" fill-opacity="0.1"/>
<rect x="249" y="155.099" width="5" height="11" rx="1" fill="#33C69F" fill-opacity="0.1"/>
<rect x="256" y="155.099" width="5" height="11" rx="1" fill="#33C69F" fill-opacity="0.1"/>
<rect x="263" y="155.099" width="5" height="11" rx="1" fill="#33C69F" fill-opacity="0.1"/>
<rect x="270" y="155.099" width="5" height="11" rx="1" fill="#33C69F" fill-opacity="0.1"/>
<rect x="277" y="155.099" width="5" height="11" rx="1" fill="#33C69F" fill-opacity="0.1"/>
<rect x="284" y="155.099" width="5" height="11" rx="1" fill="#33C69F" fill-opacity="0.1"/>
<rect x="291" y="155.099" width="5" height="11" rx="1" fill="#33C69F" fill-opacity="0.1"/>
<rect x="298" y="155.099" width="5" height="11" rx="1" fill="#33C69F" fill-opacity="0.1"/>
<rect x="305" y="155.099" width="5" height="11" rx="1" fill="#33C69F" fill-opacity="0.1"/>
<rect x="312" y="155.099" width="5" height="11" rx="1" fill="#33C69F" fill-opacity="0.1"/>
<rect x="319" y="155.099" width="5" height="11" rx="1" fill="#33C69F" fill-opacity="0.1"/>
<rect x="326" y="155.099" width="5" height="11" rx="1" fill="#33C69F" fill-opacity="0.1"/>
<rect x="333" y="155.099" width="5" height="11" rx="1" fill="#33C69F" fill-opacity="0.1"/>
<rect x="340" y="155.099" width="5" height="11" rx="1" fill="#33C69F" fill-opacity="0.1"/>
<rect x="455" y="155.099" width="5" height="11" rx="1" fill="#33C69F"/>
<rect x="462" y="155.099" width="5" height="11" rx="1" fill="#33C69F"/>
<rect x="469" y="155.099" width="5" height="11" rx="1" fill="#33C69F"/>
<rect x="476" y="155.099" width="5" height="11" rx="1" fill="#33C69F"/>
<rect x="483" y="155.099" width="5" height="11" rx="1" fill="#33C69F"/>
<rect x="490" y="155.099" width="5" height="11" rx="1" fill="#33C69F"/>
<rect x="497" y="155.099" width="5" height="11" rx="1" fill="#33C69F"/>
<rect x="504" y="155.099" width="5" height="11" rx="1" fill="#33C69F"/>
<rect x="511" y="155.099" width="5" height="11" rx="1" fill="#33C69F"/>
<rect x="518" y="155.099" width="5" height="11" rx="1" fill="#33C69F"/>
<rect x="525" y="155.099" width="5" height="11" rx="1" fill="#33C69F"/>
<rect x="532" y="155.099" width="5" height="11" rx="1" fill="#33C69F"/>
<rect x="539" y="155.099" width="5" height="11" rx="1" fill="#33C69F" fill-opacity="0.1"/>
<rect x="546" y="155.099" width="5" height="11" rx="1" fill="#33C69F" fill-opacity="0.1"/>
<rect x="553" y="155.099" width="5" height="11" rx="1" fill="#33C69F" fill-opacity="0.1"/>
<rect x="560" y="155.099" width="5" height="11" rx="1" fill="#33C69F" fill-opacity="0.1"/>
<rect x="567" y="155.099" width="5" height="11" rx="1" fill="#33C69F" fill-opacity="0.1"/>
<rect x="574" y="155.099" width="5" height="11" rx="1" fill="#33C69F" fill-opacity="0.1"/>
<rect x="581" y="155.099" width="5" height="11" rx="1" fill="#33C69F" fill-opacity="0.1"/>
<rect x="588" y="155.099" width="5" height="11" rx="1" fill="#33C69F" fill-opacity="0.1"/>
</g>
<rect x="184.5" y="118.599" width="511" height="60" rx="4.5" stroke="white" stroke-opacity="0.1"/>
<g clip-path="url(#clip2)">
<rect x="184" y="195.099" width="512" height="120" rx="5" fill="black" fill-opacity="0.1"/>
<path d="M236.063 271.12L214.19 289.436C212.436 290.905 209.909 290.996 208.053 289.657L187.586 274.883C186.874 274.369 186.311 273.678 185.951 272.878L185 270.76V310.099C185 312.861 187.239 315.099 190 315.099H690C692.761 315.099 695 312.861 695 310.099V251.099L670.788 258.34C670.081 258.552 669.43 258.916 668.881 259.409L649.398 276.889C648.378 277.804 647.027 278.261 645.662 278.152L623.191 276.36C622.743 276.324 622.292 276.349 621.85 276.434L600.071 280.621C599.311 280.767 598.528 280.735 597.783 280.527L573.63 273.785L552.091 268.83C551.842 268.773 551.597 268.696 551.36 268.602L528.466 259.472C527.169 258.955 525.715 259.004 524.455 259.606L501.793 270.451C501.364 270.656 500.966 270.922 500.612 271.239L480.639 289.159C478.846 290.767 476.162 290.869 474.252 289.401L453.947 273.785L432.497 253.166C431.173 251.893 429.256 251.449 427.507 252.009L407.515 258.415C407.007 258.578 406.527 258.821 406.096 259.136L381.286 277.222C380.312 277.931 379.115 278.266 377.915 278.163L356.835 276.362C356.398 276.325 355.958 276.345 355.526 276.422L332.017 280.641C331.276 280.774 330.515 280.738 329.79 280.535L305.606 273.785L284.126 268.844C283.837 268.777 283.555 268.685 283.283 268.569L262.25 259.583C260.883 258.999 259.327 259.053 258.005 259.732L236.992 270.504C236.66 270.674 236.349 270.881 236.063 271.12Z" fill="#33C69F" fill-opacity="0.1"/>
<path d="M695 250.599L670.326 258.365C669.642 258.58 669.013 258.94 668.481 259.419L648.971 276.992C647.95 277.911 646.595 278.37 645.226 278.261L622.761 276.462C622.31 276.426 621.857 276.451 621.414 276.537L599.639 280.74C598.876 280.887 598.09 280.854 597.342 280.645L573.19 273.877L551.648 268.902C551.398 268.844 551.153 268.767 550.915 268.672L528.025 259.509C526.724 258.988 525.264 259.037 524.001 259.644L501.342 270.529C500.912 270.735 500.514 271.002 500.16 271.321L480.191 289.307C478.396 290.924 475.701 291.026 473.789 289.55L453.488 273.877L432.038 253.178C430.712 251.898 428.79 251.451 427.035 252.016L407.051 258.444C406.541 258.608 406.061 258.853 405.629 259.169L380.819 277.326C379.843 278.039 378.643 278.376 377.439 278.272L356.364 276.464C355.925 276.427 355.483 276.447 355.05 276.525L331.544 280.76C330.8 280.894 330.036 280.857 329.308 280.654L305.124 273.877L283.642 268.916C283.353 268.849 283.07 268.756 282.797 268.639L261.769 259.62C260.398 259.032 258.836 259.087 257.51 259.77L236.5 270.583C236.168 270.754 235.857 270.961 235.571 271.201L213.692 289.593C211.94 291.067 209.41 291.161 207.552 289.823L187.057 275.055C186.008 274.299 185.293 273.166 185.061 271.895L184.5 268.815" stroke="#33C69F"/>
<path d="M695 247.599L670.326 255.365C669.642 255.581 669.013 255.94 668.481 256.42L648.971 273.992C647.95 274.912 646.595 275.371 645.226 275.261L622.449 273.437C622.205 273.418 621.962 273.38 621.724 273.325L598.479 267.963L573.19 260.877L551.648 255.902C551.398 255.844 551.153 255.767 550.915 255.672L528.83 246.831C527.083 246.132 525.092 246.472 523.677 247.712L500.694 267.84L480.191 286.307C478.396 287.924 475.701 288.026 473.789 286.55L454.584 271.723C453.867 271.17 453.012 270.821 452.113 270.715L430.965 268.226C430.253 268.143 429.531 268.213 428.849 268.432L407.051 275.444C406.541 275.608 406.008 275.689 405.472 275.684L380.481 275.444C379.708 275.437 378.948 275.25 378.259 274.899L358.118 264.638C356.611 263.871 354.819 263.917 353.354 264.76L331.309 277.448C330.718 277.788 330.064 278.004 329.387 278.082L306.985 280.663C305.785 280.801 304.576 280.5 303.581 279.816L284.562 266.746C283.682 266.142 282.631 265.834 281.564 265.87L260.646 266.565C259.959 266.588 259.283 266.752 258.662 267.048L236.001 277.84L213.337 287.931C211.711 288.654 209.824 288.46 208.38 287.419L187.057 272.055C186.008 271.299 185.293 270.167 185.061 268.895L184.5 265.815" stroke="#FFB607"/>
<circle opacity="0.1" cx="525.5" cy="259.599" r="4.5" fill="#33C69F"/>
<path d="M528 259.599C528 260.98 526.881 262.099 525.5 262.099C524.119 262.099 523 260.98 523 259.599C523 258.218 524.119 257.099 525.5 257.099C526.881 257.099 528 258.218 528 259.599Z" fill="#33C69F"/>
<circle opacity="0.1" cx="525.5" cy="246.599" r="4.5" fill="#FDB515"/>
<path d="M528 246.599C528 247.98 526.881 249.099 525.5 249.099C524.119 249.099 523 247.98 523 246.599C523 245.218 524.119 244.099 525.5 244.099C526.881 244.099 528 245.218 528 246.599Z" fill="#FDB515"/>
<rect x="525" y="197.099" width="1" height="201" fill="white" fill-opacity="0.1"/>
<path d="M200.178 216.394H201.686V209.348H201.712L204.169 216.394H205.404L207.861 209.348H207.887V216.394H209.395V207.099H207.393L204.806 214.249H204.78L202.18 207.099H200.178V216.394Z" fill="white"/>
<path d="M214.163 215.471C212.954 215.471 212.239 214.548 212.239 213.43H217.335C217.335 211.064 216.282 209.569 214.137 209.569C212.135 209.569 210.874 210.921 210.874 213.079C210.874 215.159 212.135 216.589 214.202 216.589C215.905 216.589 216.893 215.627 217.231 214.366H215.866C215.749 214.769 215.294 215.471 214.163 215.471ZM214.137 210.648C215.242 210.648 215.97 211.389 215.97 212.416H212.239C212.239 211.389 213.032 210.648 214.137 210.648Z" fill="white"/>
<path d="M225.863 209.569C224.836 209.569 224.186 210.076 223.692 210.713H223.666C223.393 209.998 222.834 209.569 221.898 209.569C220.897 209.569 220.273 210.089 219.922 210.609H219.896V209.751H218.531V216.394H219.896V212.351C219.896 211.363 220.481 210.726 221.391 210.726C222.34 210.726 222.522 211.298 222.522 212.195V216.394H223.9V212.351C223.9 211.363 224.472 210.726 225.395 210.726C226.331 210.726 226.513 211.298 226.513 212.195V216.394H227.891V211.805C227.891 210.375 227.202 209.569 225.863 209.569Z" fill="white"/>
<path d="M232.407 216.589C230.327 216.589 229.066 215.146 229.066 213.079C229.066 211.012 230.327 209.569 232.407 209.569C234.487 209.569 235.748 211.012 235.748 213.079C235.748 215.146 234.487 216.589 232.407 216.589ZM232.407 215.471C233.707 215.471 234.383 214.444 234.383 213.079C234.383 211.701 233.707 210.687 232.407 210.687C231.107 210.687 230.431 211.701 230.431 213.079C230.431 214.444 231.107 215.471 232.407 215.471Z" fill="white"/>
<path d="M240.111 209.595C239.24 209.595 238.694 210.167 238.343 210.999H238.317V209.751H236.952V216.394H238.317V213.001C238.317 211.584 239.37 210.7 240.683 210.921H240.709V209.634C240.514 209.608 240.345 209.595 240.111 209.595Z" fill="white"/>
<path d="M247.747 209.751H246.291L244.588 214.834H244.562L242.703 209.751H241.234L243.639 215.718C243.886 216.342 243.704 216.862 243.457 217.161C243.158 217.525 242.729 217.564 242.157 217.486H242.04V218.526C242.3 218.591 242.625 218.656 243.015 218.656C244.289 218.656 244.718 217.837 245.095 216.81L247.747 209.751Z" fill="white"/>
<rect x="259.746" y="210.877" width="13" height="4" rx="2" fill="#FDB515"/>
<path d="M281.915 213.114H283.07C282.927 211.838 281.97 210.903 280.507 210.903C278.835 210.903 277.746 212.113 277.746 213.873C277.746 215.633 278.835 216.843 280.518 216.843C281.981 216.843 282.982 215.886 283.07 214.588H281.915C281.871 215.215 281.508 215.897 280.518 215.897C279.374 215.897 278.901 214.929 278.901 213.873C278.901 212.817 279.385 211.849 280.518 211.849C281.508 211.849 281.871 212.542 281.915 213.114Z" fill="white" fill-opacity="0.5"/>
<path d="M286.979 216.843C289.124 216.843 290.037 215.039 290.037 212.883C290.037 210.727 289.124 208.912 286.979 208.912C284.834 208.912 283.921 210.727 283.921 212.883C283.921 215.039 284.834 216.843 286.979 216.843ZM286.979 215.754C285.637 215.754 285.186 214.467 285.186 212.883C285.186 211.299 285.637 210.001 286.979 210.001C288.321 210.001 288.761 211.299 288.761 212.883C288.761 214.467 288.321 215.754 286.979 215.754Z" fill="white" fill-opacity="0.5"/>
<path d="M293.699 215.897C292.676 215.897 292.071 215.116 292.071 214.17H296.383C296.383 212.168 295.492 210.903 293.677 210.903C291.983 210.903 290.916 212.047 290.916 213.873C290.916 215.633 291.983 216.843 293.732 216.843C295.173 216.843 296.009 216.029 296.295 214.962H295.14C295.041 215.303 294.656 215.897 293.699 215.897ZM293.677 211.816C294.612 211.816 295.228 212.443 295.228 213.312H292.071C292.071 212.443 292.742 211.816 293.677 211.816Z" fill="white" fill-opacity="0.5"/>
<path d="M300.794 212.531C300.794 213.07 300.265 213.18 299.396 213.345C297.988 213.62 297.076 214.005 297.076 215.237C297.076 216.183 297.78 216.843 298.924 216.843C299.793 216.843 300.43 216.502 300.782 216.007H300.805C300.915 216.557 301.2 216.777 301.816 216.777C302.036 216.777 302.223 216.755 302.487 216.656V216.106C302.036 216.15 301.948 215.941 301.948 215.545V212.872C301.948 211.376 301.024 210.903 299.781 210.903C298.087 210.903 297.395 211.75 297.34 212.828H298.462C298.517 212.102 298.857 211.816 299.781 211.816C300.551 211.816 300.794 212.124 300.794 212.531ZM299.177 215.93C298.55 215.93 298.241 215.644 298.241 215.127C298.241 214.555 298.659 214.28 299.616 214.071C300.155 213.961 300.607 213.829 300.794 213.697V214.544C300.794 215.457 300.134 215.93 299.177 215.93Z" fill="white" fill-opacity="0.5"/>
<path d="M304.527 212.641V212.619C304.549 211.233 304.868 209.957 306.243 209.957C307.046 209.957 307.442 210.419 307.519 211.002H308.795C308.641 209.858 307.684 208.912 306.254 208.912C304.34 208.912 303.251 210.309 303.251 212.905C303.251 215.182 304.032 216.843 306.254 216.843C307.959 216.843 309.004 215.677 309.004 214.181C309.004 212.685 307.981 211.651 306.485 211.651C305.605 211.651 304.901 212.025 304.527 212.641ZM306.21 215.798C305.198 215.798 304.593 215.171 304.593 214.269C304.593 213.334 305.264 212.696 306.276 212.696C307.145 212.696 307.761 213.279 307.761 214.247C307.761 215.171 307.189 215.798 306.21 215.798Z" fill="white" fill-opacity="0.5"/>
<path d="M313.06 216.843C315.205 216.843 316.118 215.039 316.118 212.883C316.118 210.727 315.205 208.912 313.06 208.912C310.915 208.912 310.002 210.727 310.002 212.883C310.002 215.039 310.915 216.843 313.06 216.843ZM313.06 215.754C311.718 215.754 311.267 214.467 311.267 212.883C311.267 211.299 311.718 210.001 313.06 210.001C314.402 210.001 314.842 211.299 314.842 212.883C314.842 214.467 314.402 215.754 313.06 215.754Z" fill="white" fill-opacity="0.5"/>
<path d="M321.166 213.114H322.321C322.178 211.838 321.221 210.903 319.758 210.903C318.086 210.903 316.997 212.113 316.997 213.873C316.997 215.633 318.086 216.843 319.769 216.843C321.232 216.843 322.233 215.886 322.321 214.588H321.166C321.122 215.215 320.759 215.897 319.769 215.897C318.625 215.897 318.152 214.929 318.152 213.873C318.152 212.817 318.636 211.849 319.769 211.849C320.759 211.849 321.122 212.542 321.166 213.114Z" fill="white" fill-opacity="0.5"/>
<path d="M322.985 209.077V210.155H326.967V210.177C325.614 211.376 324.118 214.17 324.118 216.678H325.46C325.46 214.258 326.626 211.486 328.353 210.045V209.077H322.985Z" fill="white" fill-opacity="0.5"/>
<rect x="340.354" y="210.878" width="13" height="4" rx="2" fill="#33C69F"/>
<path d="M360.202 209.165C360.125 210.1 359.729 210.782 358.354 210.782V211.695C358.992 211.695 359.498 211.695 359.949 211.255V216.766H361.225V209.165H360.202Z" fill="white" fill-opacity="0.5"/>
<path d="M365.726 216.931C367.871 216.931 368.784 215.127 368.784 212.971C368.784 210.815 367.871 209 365.726 209C363.581 209 362.668 210.815 362.668 212.971C362.668 215.127 363.581 216.931 365.726 216.931ZM365.726 215.842C364.384 215.842 363.933 214.555 363.933 212.971C363.933 211.387 364.384 210.089 365.726 210.089C367.068 210.089 367.508 211.387 367.508 212.971C367.508 214.555 367.068 215.842 365.726 215.842Z" fill="white" fill-opacity="0.5"/>
<path d="M372.611 209.847V208.901C372.38 208.857 372.127 208.824 371.841 208.824C370.917 208.824 370.411 209.242 370.411 210.43V211.145H369.608V212.091H370.411V216.766H371.577V212.091H372.611V211.145H371.577V210.529C371.577 209.891 371.863 209.814 372.611 209.847Z" fill="white" fill-opacity="0.5"/>
<path d="M376.833 212.619C376.833 213.158 376.305 213.268 375.436 213.433C374.028 213.708 373.115 214.093 373.115 215.325C373.115 216.271 373.819 216.931 374.963 216.931C375.832 216.931 376.47 216.59 376.822 216.095H376.844C376.954 216.645 377.24 216.865 377.856 216.865C378.076 216.865 378.263 216.843 378.527 216.744V216.194C378.076 216.238 377.988 216.029 377.988 215.633V212.96C377.988 211.464 377.064 210.991 375.821 210.991C374.127 210.991 373.434 211.838 373.379 212.916H374.501C374.556 212.19 374.897 211.904 375.821 211.904C376.591 211.904 376.833 212.212 376.833 212.619ZM375.216 216.018C374.589 216.018 374.281 215.732 374.281 215.215C374.281 214.643 374.699 214.368 375.656 214.159C376.195 214.049 376.646 213.917 376.833 213.785V214.632C376.833 215.545 376.173 216.018 375.216 216.018Z" fill="white" fill-opacity="0.5"/>
<path d="M383.372 208.901V211.827H383.35C383.053 211.398 382.503 210.991 381.634 210.991C380.193 210.991 379.126 212.113 379.126 213.961C379.126 215.809 380.193 216.931 381.634 216.931C382.503 216.931 383.053 216.502 383.35 216.117H383.372V216.766H384.527V208.901H383.372ZM381.832 215.985C380.82 215.985 380.281 215.061 380.281 213.961C380.281 212.861 380.82 211.937 381.832 211.937C382.778 211.937 383.361 212.707 383.361 213.961C383.361 215.204 382.778 215.985 381.832 215.985Z" fill="white" fill-opacity="0.5"/>
<path d="M387.029 211.86C387.029 210.815 387.458 210.089 388.591 210.089C389.57 210.089 389.867 210.716 389.867 211.343C389.867 212.421 388.976 212.784 387.579 213.708C386.413 214.445 385.61 215.424 385.61 216.766H391.066V215.688H387.271V215.666C387.898 214.115 391.143 213.708 391.143 211.288C391.143 209.836 390.032 209 388.624 209C386.677 209 385.797 210.221 385.797 211.86H387.029Z" fill="white" fill-opacity="0.5"/>
<path d="M396.153 213.202H397.308C397.165 211.926 396.208 210.991 394.745 210.991C393.073 210.991 391.984 212.201 391.984 213.961C391.984 215.721 393.073 216.931 394.756 216.931C396.219 216.931 397.22 215.974 397.308 214.676H396.153C396.109 215.303 395.746 215.985 394.756 215.985C393.612 215.985 393.139 215.017 393.139 213.961C393.139 212.905 393.623 211.937 394.756 211.937C395.746 211.937 396.109 212.63 396.153 213.202Z" fill="white" fill-opacity="0.5"/>
<path d="M399.93 209.165C399.853 210.1 399.457 210.782 398.082 210.782V211.695C398.72 211.695 399.226 211.695 399.677 211.255V216.766H400.953V209.165H399.93Z" fill="white" fill-opacity="0.5"/>
</g>
<rect x="184.5" y="195.599" width="511" height="119" rx="4.5" stroke="white" stroke-opacity="0.1"/>
<g clip-path="url(#clip3)">
<rect x="184" y="331.099" width="512" height="120" rx="5" fill="black" fill-opacity="0.1"/>
<path d="M208.869 426.911L184 409.679V446.099C184 448.861 186.239 451.099 189 451.099H690C692.761 451.099 695 448.861 695 446.099V366.883L671.501 373.915C670.319 374.269 669.048 374.173 667.933 373.647L650.356 365.349C648.721 364.577 646.796 364.748 645.323 365.797L623.26 381.498C622.676 381.914 622.009 382.199 621.305 382.334L600.105 386.413C599.204 386.586 598.368 387.004 597.689 387.621L575.328 407.922C574.115 409.023 572.441 409.46 570.845 409.092L551.81 404.711C551.561 404.653 551.316 404.577 551.079 404.482L526.653 394.736C526.286 394.59 525.938 394.401 525.616 394.172L503.153 378.26C501.678 377.216 499.755 377.048 498.122 377.822L477.12 387.771L455.797 398.486C454.341 399.217 452.619 399.193 451.184 398.421L431.7 387.941C430.504 387.298 429.098 387.169 427.804 387.583L406.95 394.27C406.442 394.433 405.962 394.676 405.53 394.991L380.668 413.126C379.695 413.837 378.497 414.171 377.296 414.068L356.171 412.262C355.734 412.225 355.294 412.245 354.862 412.323L331.304 416.553C330.563 416.686 329.801 416.65 329.075 416.447L307.085 410.305C305.663 409.908 304.139 410.159 302.92 410.992L285.15 423.129C283.739 424.093 281.935 424.27 280.364 423.598L261.398 415.49C260.031 414.906 258.474 414.96 257.151 415.639L236.56 426.202C235.923 426.529 235.224 426.715 234.509 426.748L211.948 427.796C210.853 427.847 209.77 427.536 208.869 426.911Z" fill="#33C69F" fill-opacity="0.1"/>
<path d="M184.422 409.877L209.313 427.13C210.22 427.759 211.308 428.07 212.41 428.015L234.921 426.894C235.632 426.858 236.328 426.671 236.961 426.346L257.509 415.77C258.835 415.087 260.397 415.032 261.768 415.62L280.686 423.734C282.256 424.408 284.061 424.233 285.473 423.271L303.2 411.188C304.42 410.357 305.944 410.107 307.366 410.505L329.308 416.654C330.035 416.858 330.8 416.894 331.543 416.76L355.05 412.526C355.483 412.447 355.925 412.427 356.363 412.465L377.438 414.272C378.642 414.376 379.843 414.039 380.818 413.326L405.628 395.169C406.061 394.853 406.541 394.608 407.05 394.444L427.851 387.753C429.149 387.336 430.562 387.467 431.762 388.116L451.201 398.639C452.634 399.415 454.355 399.444 455.814 398.716L477.09 388.099L498.05 378.101C499.683 377.322 501.609 377.486 503.086 378.529L525.503 394.353C525.822 394.578 526.166 394.765 526.528 394.91L550.914 404.672C551.152 404.767 551.398 404.844 551.647 404.902L570.643 409.289C572.238 409.657 573.913 409.222 575.126 408.123L597.442 387.903C598.12 387.288 598.954 386.872 599.852 386.698L621.017 382.613C621.719 382.478 622.383 382.194 622.966 381.779L644.995 366.122C646.463 365.078 648.38 364.905 650.011 365.669L667.525 373.866C668.659 374.397 669.951 374.483 671.146 374.107L695 366.599" stroke="#33C69F"/>
<path d="M184.422 419.877L209.86 427.833C210.423 428.009 211.012 428.084 211.601 428.055L234.104 426.934C235.325 426.873 236.483 426.367 237.356 425.51L256.259 406.972C258.14 405.127 261.131 405.058 263.094 406.816L278.788 420.861C281.097 422.927 284.711 422.417 286.358 419.792L303.138 393.043C304.316 391.165 306.589 390.287 308.723 390.885L329.747 396.777C330.189 396.9 330.612 397.085 331.004 397.324L353.709 411.19C354.972 411.962 356.513 412.134 357.915 411.66L378.504 404.703C379.034 404.524 379.592 404.435 380.152 404.441L403.949 404.669C405.427 404.684 406.836 404.043 407.797 402.92L427.257 380.17C428.79 378.378 431.365 377.901 433.437 379.023L451.201 388.639C452.634 389.415 454.355 389.444 455.814 388.716L475.153 379.066C476.389 378.449 477.826 378.371 479.121 378.851L500.081 386.613C500.488 386.764 500.873 386.967 501.228 387.217L525.503 404.353C525.822 404.578 526.166 404.765 526.528 404.91L550.914 414.672C551.152 414.767 551.398 414.844 551.647 414.902L570.643 419.289C572.238 419.657 573.913 419.222 575.126 418.122L598.137 397.272C598.364 397.067 598.61 396.882 598.87 396.722L620.689 383.267C621.594 382.709 622.653 382.453 623.713 382.538L647.371 384.432L669.288 384.692L695 387.099" stroke="#FDB515"/>
<rect x="429" y="333.099" width="1" height="201" fill="white" fill-opacity="0.1"/>
<circle opacity="0.1" cx="429.5" cy="378.599" r="4.5" fill="#FDB515"/>
<path d="M432 378.599C432 379.98 430.881 381.099 429.5 381.099C428.119 381.099 427 379.98 427 378.599C427 377.218 428.119 376.099 429.5 376.099C430.881 376.099 432 377.218 432 378.599Z" fill="#FDB515"/>
<circle opacity="0.1" cx="429.5" cy="387.599" r="4.5" fill="#33C69F"/>
<path d="M432 387.599C432 388.98 430.881 390.099 429.5 390.099C428.119 390.099 427 388.98 427 387.599C427 386.218 428.119 385.099 429.5 385.099C430.881 385.099 432 386.218 432 387.599Z" fill="#33C69F"/>
<path d="M207.003 346.492H208.55C208.329 344.594 206.899 343.099 204.546 343.099C201.868 343.099 200.178 345.14 200.178 347.935C200.178 350.743 201.868 352.784 204.546 352.784C206.912 352.784 208.342 351.289 208.55 349.196H207.003C206.899 350.327 206.236 351.458 204.507 351.458C202.505 351.458 201.712 349.781 201.712 347.935C201.712 346.102 202.505 344.425 204.507 344.425C206.223 344.425 206.834 345.556 207.003 346.492Z" fill="white"/>
<path d="M209.955 352.589H211.502V348.871H213.907C215.688 348.871 216.975 348.026 216.975 346.076C216.975 344.126 215.688 343.294 213.907 343.294H209.955V352.589ZM211.502 344.607H213.842C214.882 344.607 215.428 345.062 215.428 346.076C215.428 347.103 214.882 347.545 213.842 347.545H211.502V344.607Z" fill="white"/>
<path d="M225.593 349.417V343.294H224.059V349.417C224.059 350.821 223.357 351.458 221.927 351.458C220.51 351.458 219.808 350.821 219.808 349.417V343.294H218.261V349.417C218.261 351.445 219.34 352.784 221.927 352.784C224.514 352.784 225.593 351.445 225.593 349.417Z" fill="white"/>
<rect x="237.593" y="345.941" width="13" height="4" rx="2" fill="#FDB515"/>
<path d="M259.762 348.178H260.917C260.774 346.902 259.817 345.967 258.354 345.967C256.682 345.967 255.593 347.177 255.593 348.937C255.593 350.697 256.682 351.907 258.365 351.907C259.828 351.907 260.829 350.95 260.917 349.652H259.762C259.718 350.279 259.355 350.961 258.365 350.961C257.221 350.961 256.748 349.993 256.748 348.937C256.748 347.881 257.232 346.913 258.365 346.913C259.355 346.913 259.718 347.606 259.762 348.178Z" fill="white" fill-opacity="0.5"/>
<path d="M264.826 351.907C266.971 351.907 267.884 350.103 267.884 347.947C267.884 345.791 266.971 343.976 264.826 343.976C262.681 343.976 261.768 345.791 261.768 347.947C261.768 350.103 262.681 351.907 264.826 351.907ZM264.826 350.818C263.484 350.818 263.033 349.531 263.033 347.947C263.033 346.363 263.484 345.065 264.826 345.065C266.168 345.065 266.608 346.363 266.608 347.947C266.608 349.531 266.168 350.818 264.826 350.818Z" fill="white" fill-opacity="0.5"/>
<path d="M271.545 350.961C270.522 350.961 269.917 350.18 269.917 349.234H274.229C274.229 347.232 273.338 345.967 271.523 345.967C269.829 345.967 268.762 347.111 268.762 348.937C268.762 350.697 269.829 351.907 271.578 351.907C273.019 351.907 273.855 351.093 274.141 350.026H272.986C272.887 350.367 272.502 350.961 271.545 350.961ZM271.523 346.88C272.458 346.88 273.074 347.507 273.074 348.376H269.917C269.917 347.507 270.588 346.88 271.523 346.88Z" fill="white" fill-opacity="0.5"/>
<path d="M278.64 347.595C278.64 348.134 278.112 348.244 277.243 348.409C275.835 348.684 274.922 349.069 274.922 350.301C274.922 351.247 275.626 351.907 276.77 351.907C277.639 351.907 278.277 351.566 278.629 351.071H278.651C278.761 351.621 279.047 351.841 279.663 351.841C279.883 351.841 280.07 351.819 280.334 351.72V351.17C279.883 351.214 279.795 351.005 279.795 350.609V347.936C279.795 346.44 278.871 345.967 277.628 345.967C275.934 345.967 275.241 346.814 275.186 347.892H276.308C276.363 347.166 276.704 346.88 277.628 346.88C278.398 346.88 278.64 347.188 278.64 347.595ZM277.023 350.994C276.396 350.994 276.088 350.708 276.088 350.191C276.088 349.619 276.506 349.344 277.463 349.135C278.002 349.025 278.453 348.893 278.64 348.761V349.608C278.64 350.521 277.98 350.994 277.023 350.994Z" fill="white" fill-opacity="0.5"/>
<path d="M282.374 347.705V347.683C282.396 346.297 282.715 345.021 284.09 345.021C284.893 345.021 285.289 345.483 285.366 346.066H286.642C286.488 344.922 285.531 343.976 284.101 343.976C282.187 343.976 281.098 345.373 281.098 347.969C281.098 350.246 281.879 351.907 284.101 351.907C285.806 351.907 286.851 350.741 286.851 349.245C286.851 347.749 285.828 346.715 284.332 346.715C283.452 346.715 282.748 347.089 282.374 347.705ZM284.057 350.862C283.045 350.862 282.44 350.235 282.44 349.333C282.44 348.398 283.111 347.76 284.123 347.76C284.992 347.76 285.608 348.343 285.608 349.311C285.608 350.235 285.036 350.862 284.057 350.862Z" fill="white" fill-opacity="0.5"/>
<path d="M290.907 351.907C293.052 351.907 293.965 350.103 293.965 347.947C293.965 345.791 293.052 343.976 290.907 343.976C288.762 343.976 287.849 345.791 287.849 347.947C287.849 350.103 288.762 351.907 290.907 351.907ZM290.907 350.818C289.565 350.818 289.114 349.531 289.114 347.947C289.114 346.363 289.565 345.065 290.907 345.065C292.249 345.065 292.689 346.363 292.689 347.947C292.689 349.531 292.249 350.818 290.907 350.818Z" fill="white" fill-opacity="0.5"/>
<path d="M299.012 348.178H300.167C300.024 346.902 299.067 345.967 297.604 345.967C295.932 345.967 294.843 347.177 294.843 348.937C294.843 350.697 295.932 351.907 297.615 351.907C299.078 351.907 300.079 350.95 300.167 349.652H299.012C298.968 350.279 298.605 350.961 297.615 350.961C296.471 350.961 295.998 349.993 295.998 348.937C295.998 347.881 296.482 346.913 297.615 346.913C298.605 346.913 298.968 347.606 299.012 348.178Z" fill="white" fill-opacity="0.5"/>
<path d="M300.831 344.141V345.219H304.813V345.241C303.46 346.44 301.964 349.234 301.964 351.742H303.306C303.306 349.322 304.472 346.55 306.199 345.109V344.141H300.831Z" fill="white" fill-opacity="0.5"/>
<rect x="318.199" y="345.942" width="13" height="4" rx="2" fill="#33C69F"/>
<path d="M338.047 344.229C337.97 345.164 337.574 345.846 336.199 345.846V346.759C336.837 346.759 337.343 346.759 337.794 346.319V351.83H339.07V344.229H338.047Z" fill="white" fill-opacity="0.5"/>
<path d="M343.572 351.995C345.717 351.995 346.63 350.191 346.63 348.035C346.63 345.879 345.717 344.064 343.572 344.064C341.427 344.064 340.514 345.879 340.514 348.035C340.514 350.191 341.427 351.995 343.572 351.995ZM343.572 350.906C342.23 350.906 341.779 349.619 341.779 348.035C341.779 346.451 342.23 345.153 343.572 345.153C344.914 345.153 345.354 346.451 345.354 348.035C345.354 349.619 344.914 350.906 343.572 350.906Z" fill="white" fill-opacity="0.5"/>
<path d="M350.456 344.911V343.965C350.225 343.921 349.972 343.888 349.686 343.888C348.762 343.888 348.256 344.306 348.256 345.494V346.209H347.453V347.155H348.256V351.83H349.422V347.155H350.456V346.209H349.422V345.593C349.422 344.955 349.708 344.878 350.456 344.911Z" fill="white" fill-opacity="0.5"/>
<path d="M354.679 347.683C354.679 348.222 354.151 348.332 353.282 348.497C351.874 348.772 350.961 349.157 350.961 350.389C350.961 351.335 351.665 351.995 352.809 351.995C353.678 351.995 354.316 351.654 354.668 351.159H354.69C354.8 351.709 355.086 351.929 355.702 351.929C355.922 351.929 356.109 351.907 356.373 351.808V351.258C355.922 351.302 355.834 351.093 355.834 350.697V348.024C355.834 346.528 354.91 346.055 353.667 346.055C351.973 346.055 351.28 346.902 351.225 347.98H352.347C352.402 347.254 352.743 346.968 353.667 346.968C354.437 346.968 354.679 347.276 354.679 347.683ZM353.062 351.082C352.435 351.082 352.127 350.796 352.127 350.279C352.127 349.707 352.545 349.432 353.502 349.223C354.041 349.113 354.492 348.981 354.679 348.849V349.696C354.679 350.609 354.019 351.082 353.062 351.082Z" fill="white" fill-opacity="0.5"/>
<path d="M361.218 343.965V346.891H361.196C360.899 346.462 360.349 346.055 359.48 346.055C358.039 346.055 356.972 347.177 356.972 349.025C356.972 350.873 358.039 351.995 359.48 351.995C360.349 351.995 360.899 351.566 361.196 351.181H361.218V351.83H362.373V343.965H361.218ZM359.678 351.049C358.666 351.049 358.127 350.125 358.127 349.025C358.127 347.925 358.666 347.001 359.678 347.001C360.624 347.001 361.207 347.771 361.207 349.025C361.207 350.268 360.624 351.049 359.678 351.049Z" fill="white" fill-opacity="0.5"/>
<path d="M364.875 346.924C364.875 345.879 365.304 345.153 366.437 345.153C367.416 345.153 367.713 345.78 367.713 346.407C367.713 347.485 366.822 347.848 365.425 348.772C364.259 349.509 363.456 350.488 363.456 351.83H368.912V350.752H365.117V350.73C365.744 349.179 368.989 348.772 368.989 346.352C368.989 344.9 367.878 344.064 366.47 344.064C364.523 344.064 363.643 345.285 363.643 346.924H364.875Z" fill="white" fill-opacity="0.5"/>
<path d="M373.999 348.266H375.154C375.011 346.99 374.054 346.055 372.591 346.055C370.919 346.055 369.83 347.265 369.83 349.025C369.83 350.785 370.919 351.995 372.602 351.995C374.065 351.995 375.066 351.038 375.154 349.74H373.999C373.955 350.367 373.592 351.049 372.602 351.049C371.458 351.049 370.985 350.081 370.985 349.025C370.985 347.969 371.469 347.001 372.602 347.001C373.592 347.001 373.955 347.694 373.999 348.266Z" fill="white" fill-opacity="0.5"/>
<path d="M377.776 344.229C377.699 345.164 377.303 345.846 375.928 345.846V346.759C376.566 346.759 377.072 346.759 377.523 346.319V351.83H378.799V344.229H377.776Z" fill="white" fill-opacity="0.5"/>
</g>
<rect x="184.5" y="331.599" width="511" height="119" rx="4.5" stroke="white" stroke-opacity="0.1"/>
<g clip-path="url(#clip4)">
<rect x="184" y="467.099" width="512" height="120" rx="5" fill="black" fill-opacity="0.1"/>
<rect x="257" y="469.099" width="1" height="201" fill="white" fill-opacity="0.1"/>
<path d="M200.178 479.099V488.394H206.366V487.081H201.725V479.099H200.178Z" fill="white"/>
<path d="M210.343 488.589C208.263 488.589 207.002 487.146 207.002 485.079C207.002 483.012 208.263 481.569 210.343 481.569C212.423 481.569 213.684 483.012 213.684 485.079C213.684 487.146 212.423 488.589 210.343 488.589ZM210.343 487.471C211.643 487.471 212.319 486.444 212.319 485.079C212.319 483.701 211.643 482.687 210.343 482.687C209.043 482.687 208.367 483.701 208.367 485.079C208.367 486.444 209.043 487.471 210.343 487.471Z" fill="white"/>
<path d="M218.905 483.493C218.905 484.13 218.281 484.26 217.254 484.455C215.59 484.78 214.511 485.235 214.511 486.691C214.511 487.809 215.343 488.589 216.695 488.589C217.722 488.589 218.476 488.186 218.892 487.601H218.918C219.048 488.251 219.386 488.511 220.114 488.511C220.374 488.511 220.595 488.485 220.907 488.368V487.718C220.374 487.77 220.27 487.523 220.27 487.055V483.896C220.27 482.128 219.178 481.569 217.709 481.569C215.707 481.569 214.888 482.57 214.823 483.844H216.149C216.214 482.986 216.617 482.648 217.709 482.648C218.619 482.648 218.905 483.012 218.905 483.493ZM216.994 487.51C216.253 487.51 215.889 487.172 215.889 486.561C215.889 485.885 216.383 485.56 217.514 485.313C218.151 485.183 218.684 485.027 218.905 484.871V485.872C218.905 486.951 218.125 487.51 216.994 487.51Z" fill="white"/>
<path d="M226.632 479.099V482.557H226.606C226.255 482.05 225.605 481.569 224.578 481.569C222.875 481.569 221.614 482.895 221.614 485.079C221.614 487.263 222.875 488.589 224.578 488.589C225.605 488.589 226.255 488.082 226.606 487.627H226.632V488.394H227.997V479.099H226.632ZM224.812 487.471C223.616 487.471 222.979 486.379 222.979 485.079C222.979 483.779 223.616 482.687 224.812 482.687C225.93 482.687 226.619 483.597 226.619 485.079C226.619 486.548 225.93 487.471 224.812 487.471Z" fill="white"/>
<rect x="239.997" y="481.844" width="13" height="4" rx="2" fill="#FDB515"/>
<path d="M262.166 484.08H263.321C263.178 482.804 262.221 481.869 260.758 481.869C259.086 481.869 257.997 483.079 257.997 484.839C257.997 486.599 259.086 487.809 260.769 487.809C262.232 487.809 263.233 486.852 263.321 485.554H262.166C262.122 486.181 261.759 486.863 260.769 486.863C259.625 486.863 259.152 485.895 259.152 484.839C259.152 483.783 259.636 482.815 260.769 482.815C261.759 482.815 262.122 483.508 262.166 484.08Z" fill="white" fill-opacity="0.5"/>
<path d="M267.23 487.809C269.375 487.809 270.288 486.005 270.288 483.849C270.288 481.693 269.375 479.878 267.23 479.878C265.085 479.878 264.172 481.693 264.172 483.849C264.172 486.005 265.085 487.809 267.23 487.809ZM267.23 486.72C265.888 486.72 265.437 485.433 265.437 483.849C265.437 482.265 265.888 480.967 267.23 480.967C268.572 480.967 269.012 482.265 269.012 483.849C269.012 485.433 268.572 486.72 267.23 486.72Z" fill="white" fill-opacity="0.5"/>
<path d="M273.95 486.863C272.927 486.863 272.322 486.082 272.322 485.136H276.634C276.634 483.134 275.743 481.869 273.928 481.869C272.234 481.869 271.167 483.013 271.167 484.839C271.167 486.599 272.234 487.809 273.983 487.809C275.424 487.809 276.26 486.995 276.546 485.928H275.391C275.292 486.269 274.907 486.863 273.95 486.863ZM273.928 482.782C274.863 482.782 275.479 483.409 275.479 484.278H272.322C272.322 483.409 272.993 482.782 273.928 482.782Z" fill="white" fill-opacity="0.5"/>
<path d="M281.044 483.497C281.044 484.036 280.516 484.146 279.647 484.311C278.239 484.586 277.326 484.971 277.326 486.203C277.326 487.149 278.03 487.809 279.174 487.809C280.043 487.809 280.681 487.468 281.033 486.973H281.055C281.165 487.523 281.451 487.743 282.067 487.743C282.287 487.743 282.474 487.721 282.738 487.622V487.072C282.287 487.116 282.199 486.907 282.199 486.511V483.838C282.199 482.342 281.275 481.869 280.032 481.869C278.338 481.869 277.645 482.716 277.59 483.794H278.712C278.767 483.068 279.108 482.782 280.032 482.782C280.802 482.782 281.044 483.09 281.044 483.497ZM279.427 486.896C278.8 486.896 278.492 486.61 278.492 486.093C278.492 485.521 278.91 485.246 279.867 485.037C280.406 484.927 280.857 484.795 281.044 484.663V485.51C281.044 486.423 280.384 486.896 279.427 486.896Z" fill="white" fill-opacity="0.5"/>
<path d="M284.778 483.607V483.585C284.8 482.199 285.119 480.923 286.494 480.923C287.297 480.923 287.693 481.385 287.77 481.968H289.046C288.892 480.824 287.935 479.878 286.505 479.878C284.591 479.878 283.502 481.275 283.502 483.871C283.502 486.148 284.283 487.809 286.505 487.809C288.21 487.809 289.255 486.643 289.255 485.147C289.255 483.651 288.232 482.617 286.736 482.617C285.856 482.617 285.152 482.991 284.778 483.607ZM286.461 486.764C285.449 486.764 284.844 486.137 284.844 485.235C284.844 484.3 285.515 483.662 286.527 483.662C287.396 483.662 288.012 484.245 288.012 485.213C288.012 486.137 287.44 486.764 286.461 486.764Z" fill="white" fill-opacity="0.5"/>
<path d="M293.311 487.809C295.456 487.809 296.369 486.005 296.369 483.849C296.369 481.693 295.456 479.878 293.311 479.878C291.166 479.878 290.253 481.693 290.253 483.849C290.253 486.005 291.166 487.809 293.311 487.809ZM293.311 486.72C291.969 486.72 291.518 485.433 291.518 483.849C291.518 482.265 291.969 480.967 293.311 480.967C294.653 480.967 295.093 482.265 295.093 483.849C295.093 485.433 294.653 486.72 293.311 486.72Z" fill="white" fill-opacity="0.5"/>
<path d="M301.417 484.08H302.572C302.429 482.804 301.472 481.869 300.009 481.869C298.337 481.869 297.248 483.079 297.248 484.839C297.248 486.599 298.337 487.809 300.02 487.809C301.483 487.809 302.484 486.852 302.572 485.554H301.417C301.373 486.181 301.01 486.863 300.02 486.863C298.876 486.863 298.403 485.895 298.403 484.839C298.403 483.783 298.887 482.815 300.02 482.815C301.01 482.815 301.373 483.508 301.417 484.08Z" fill="white" fill-opacity="0.5"/>
<path d="M303.236 480.043V481.121H307.218V481.143C305.865 482.342 304.369 485.136 304.369 487.644H305.711C305.711 485.224 306.877 482.452 308.604 481.011V480.043H303.236Z" fill="white" fill-opacity="0.5"/>
<rect x="320.604" y="481.844" width="13" height="4" rx="2" fill="#33C69F"/>
<path d="M340.452 480.132C340.375 481.067 339.979 481.749 338.604 481.749V482.662C339.242 482.662 339.748 482.662 340.199 482.222V487.733H341.475V480.132H340.452Z" fill="white" fill-opacity="0.5"/>
<path d="M345.976 487.898C348.121 487.898 349.034 486.094 349.034 483.938C349.034 481.782 348.121 479.967 345.976 479.967C343.831 479.967 342.918 481.782 342.918 483.938C342.918 486.094 343.831 487.898 345.976 487.898ZM345.976 486.809C344.634 486.809 344.183 485.522 344.183 483.938C344.183 482.354 344.634 481.056 345.976 481.056C347.318 481.056 347.758 482.354 347.758 483.938C347.758 485.522 347.318 486.809 345.976 486.809Z" fill="white" fill-opacity="0.5"/>
<path d="M352.861 480.814V479.868C352.63 479.824 352.377 479.791 352.091 479.791C351.167 479.791 350.661 480.209 350.661 481.397V482.112H349.858V483.058H350.661V487.733H351.827V483.058H352.861V482.112H351.827V481.496C351.827 480.858 352.113 480.781 352.861 480.814Z" fill="white" fill-opacity="0.5"/>
<path d="M357.083 483.586C357.083 484.125 356.555 484.235 355.686 484.4C354.278 484.675 353.365 485.06 353.365 486.292C353.365 487.238 354.069 487.898 355.213 487.898C356.082 487.898 356.72 487.557 357.072 487.062H357.094C357.204 487.612 357.49 487.832 358.106 487.832C358.326 487.832 358.513 487.81 358.777 487.711V487.161C358.326 487.205 358.238 486.996 358.238 486.6V483.927C358.238 482.431 357.314 481.958 356.071 481.958C354.377 481.958 353.684 482.805 353.629 483.883H354.751C354.806 483.157 355.147 482.871 356.071 482.871C356.841 482.871 357.083 483.179 357.083 483.586ZM355.466 486.985C354.839 486.985 354.531 486.699 354.531 486.182C354.531 485.61 354.949 485.335 355.906 485.126C356.445 485.016 356.896 484.884 357.083 484.752V485.599C357.083 486.512 356.423 486.985 355.466 486.985Z" fill="white" fill-opacity="0.5"/>
<path d="M363.622 479.868V482.794H363.6C363.303 482.365 362.753 481.958 361.884 481.958C360.443 481.958 359.376 483.08 359.376 484.928C359.376 486.776 360.443 487.898 361.884 487.898C362.753 487.898 363.303 487.469 363.6 487.084H363.622V487.733H364.777V479.868H363.622ZM362.082 486.952C361.07 486.952 360.531 486.028 360.531 484.928C360.531 483.828 361.07 482.904 362.082 482.904C363.028 482.904 363.611 483.674 363.611 484.928C363.611 486.171 363.028 486.952 362.082 486.952Z" fill="white" fill-opacity="0.5"/>
<path d="M367.279 482.827C367.279 481.782 367.708 481.056 368.841 481.056C369.82 481.056 370.117 481.683 370.117 482.31C370.117 483.388 369.226 483.751 367.829 484.675C366.663 485.412 365.86 486.391 365.86 487.733H371.316V486.655H367.521V486.633C368.148 485.082 371.393 484.675 371.393 482.255C371.393 480.803 370.282 479.967 368.874 479.967C366.927 479.967 366.047 481.188 366.047 482.827H367.279Z" fill="white" fill-opacity="0.5"/>
<path d="M376.403 484.169H377.558C377.415 482.893 376.458 481.958 374.995 481.958C373.323 481.958 372.234 483.168 372.234 484.928C372.234 486.688 373.323 487.898 375.006 487.898C376.469 487.898 377.47 486.941 377.558 485.643H376.403C376.359 486.27 375.996 486.952 375.006 486.952C373.862 486.952 373.389 485.984 373.389 484.928C373.389 483.872 373.873 482.904 375.006 482.904C375.996 482.904 376.359 483.597 376.403 484.169Z" fill="white" fill-opacity="0.5"/>
<path d="M380.18 480.132C380.103 481.067 379.707 481.749 378.332 481.749V482.662C378.97 482.662 379.476 482.662 379.927 482.222V487.733H381.203V480.132H380.18Z" fill="white" fill-opacity="0.5"/>
</g>
<rect x="184.5" y="467.599" width="511" height="119" rx="4.5" stroke="white" stroke-opacity="0.1"/>
<rect width="880" height="7" fill="#FDB515"/>
<rect width="880" height="238" transform="translate(0 269)" fill="url(#paint1_linear)"/>
</g>
<defs>
<linearGradient id="paint0_linear" x1="204.812" y1="2.11179e-06" x2="359.968" y2="530.411" gradientUnits="userSpaceOnUse">
<stop stop-color="white"/>
<stop offset="1" stop-color="white" stop-opacity="0.8"/>
</linearGradient>
<linearGradient id="paint1_linear" x1="440" y1="0" x2="440" y2="216" gradientUnits="userSpaceOnUse">
<stop stop-color="#0A1B2B" stop-opacity="0"/>
<stop offset="1" stop-color="#0A1B2B"/>
</linearGradient>
<clipPath id="clip0">
<rect width="880" height="507" rx="8" fill="white"/>
</clipPath>
<clipPath id="clip1">
<rect x="184" y="118.099" width="512" height="61" rx="5" fill="white"/>
</clipPath>
<clipPath id="clip2">
<rect x="184" y="195.099" width="512" height="120" rx="5" fill="white"/>
</clipPath>
<clipPath id="clip3">
<rect x="184" y="331.099" width="512" height="120" rx="5" fill="white"/>
</clipPath>
<clipPath id="clip4">
<rect x="184" y="467.099" width="512" height="120" rx="5" fill="white"/>
</clipPath>
</defs>
</svg>
