<?xml version="1.0" encoding="UTF-8"?>
<svg width="2500px" height="600px" viewBox="0 0 2500 600" version="1.1" xmlns="http://www.w3.org/2000/svg" xmlns:xlink="http://www.w3.org/1999/xlink">
    <!-- Generator: Sketch 55.2 (78181) - https://sketchapp.com -->
    <title>Artboard Copy</title>
    <desc>Created with Sketch.</desc>
    <g id="Artboard-Copy" stroke="none" stroke-width="1" fill="none" fill-rule="evenodd">
        <g id="Group-2-Copy-2" transform="translate(15.000000, 32.000000)" fill-rule="nonzero">
            <path d="M2321.74667,163.475043 C2372.63406,163.475043 2406.16949,197.594355 2406.16949,244.877398 L2234.30117,244.877398 C2234.30117,197.594355 2270.8562,163.475043 2321.74667,163.475043 Z M2322.96435,385.548835 C2267.29848,385.548835 2234.34729,343.044217 2234.34729,291.573133 L2469,291.573133 C2469,182.631794 2420.54797,113.759738 2321.79587,113.759738 C2229.57189,113.759738 2171.47066,176.051466 2171.47066,275.389829 C2171.47066,371.167435 2229.57189,437.01992 2324.72015,437.01992 C2403.19909,437.01992 2448.72069,392.713399 2464.22152,334.655836 L2401.34489,334.655836 C2395.98218,353.231427 2375.02022,385.548835 2322.96435,385.548835 Z M2057.10087,428.050379 L2120.56175,428.050379 L2120.56175,0.0399739591 L2057.10087,0.0399739591 L2057.10087,428.050379 Z M1858.59731,385.38894 C1807.12568,385.38894 1775.44137,342.887396 1775.44137,275.233008 C1775.44137,206.994385 1807.12568,165.1232 1858.59731,165.1232 C1913.67894,165.1232 1943.02321,215.373542 1943.02321,275.233008 C1943.02321,335.092474 1913.67894,385.38894 1858.59731,385.38894 Z M1869.71019,113.759738 C1822.42972,113.759738 1792.50428,135.932985 1776.31773,159.287002 L1775.14925,159.287002 L1775.14925,0.0399739591 L1712.26954,0.0399739591 L1712.26954,428.050379 L1775.14925,428.050379 L1775.14925,392.713399 L1776.31773,392.713399 C1792.50428,413.675128 1822.42972,437.01992 1869.71019,437.01992 C1948.09381,437.01992 2006.19503,375.998134 2006.19503,275.389829 C2006.19503,174.830722 1948.09381,113.759738 1869.71019,113.759738 Z M1653.2981,35.6321721 C1653.2981,55.3116597 1637.34217,71.2643443 1617.66555,71.2643443 C1597.98585,71.2643443 1582.033,55.3116597 1582.033,35.6321721 C1582.033,15.9526846 1597.98585,0 1617.66555,0 C1637.34217,0 1653.2981,15.9526846 1653.2981,35.6321721 Z M1586.22416,428.210275 L1649.10386,428.210275 L1649.10386,122.301865 L1586.22416,122.301865 L1586.22416,428.210275 L1586.22416,428.210275 Z M1473.2627,122.29879 L1530.77969,122.29879 L1530.77969,173.763725 L1473.2627,173.763725 L1473.2627,339.591082 C1473.2627,374.349977 1490.03042,378.538018 1530.77969,376.15188 L1530.77969,427.62604 C1518.20313,430.593337 1504.3597,432.398315 1487.59198,432.398315 C1437.38723,432.398315 1409.79875,409.631608 1409.79875,345.002941 L1409.79875,173.763725 L1365.53789,173.763725 L1365.53789,122.29879 L1409.79875,122.29879 L1409.79875,25.9277248 L1473.2627,25.9277248 L1473.2627,122.29879 Z M1200.10544,385.702581 C1149.21497,385.702581 1117.53373,343.197963 1117.53373,275.543575 C1117.53373,207.304952 1149.21497,165.433767 1200.10544,165.433767 C1255.18399,165.433767 1284.52826,215.684109 1284.52826,275.543575 C1284.52826,335.403041 1255.18399,385.702581 1200.10544,385.702581 Z M1212.09468,113.913484 C1164.22996,113.913484 1134.30145,136.677116 1118.11798,158.220005 L1116.94949,158.220005 L1116.94949,122.29879 L1053.48555,122.29879 L1053.48247,529 L1116.94642,529 L1116.94949,391.6956 L1118.11798,391.6956 C1134.30145,414.459233 1164.22996,437.173666 1212.09468,437.173666 C1289.89098,437.173666 1347.98913,376.15188 1347.98913,275.543575 C1347.98913,174.984468 1289.89098,113.913484 1212.09468,113.913484 Z M756.927893,267.794777 L824.586075,65.4619704 L825.754557,65.4619704 L892.825423,267.794777 L756.927893,267.794777 L756.927893,267.794777 Z M787.440648,0.193719956 L630,428.2072 L702.433583,428.2072 L737.140573,327.017735 L911.933179,327.017735 L946.637094,428.2072 L1019.07068,428.2072 L862.312669,0.193719956 L787.440648,0.193719956 L787.440648,0.193719956 Z" id="Shape" fill="#001B28"></path>
            <path d="M277.198924,100.707328 L277.198924,428 L352.800308,428 L352.800308,276.94208 L504,428 L504,327.295744 L277.198924,100.707328 M352.800308,0 L251.998462,0 L504,251.765248 L504,151.060992 L352.800308,0 M0,327.295744 L0,428 L151.199692,276.94208 L151.199692,428 L226.801076,428 L226.801076,100.707328 L0,327.295744 M0,151.060992 L0,251.765248 L251.998462,0 L150.255521,0 L0,151.060992" id="Shape" fill="#FFB607"></path>
        </g>
    </g>
</svg>
