<svg width="136" height="16" viewBox="0 0 136 16" fill="none" xmlns="http://www.w3.org/2000/svg">
<path d="M46.0229 16L46 9H43V6H46V4C46 1.3008 47.6715 0 50.0794 0C51.2328 0 52.2241 0.08587 52.5129 0.12425V2.94507L50.843 2.94583C49.5334 2.94583 49.2799 3.5681 49.2799 4.48124V6H53L52 9H49.2799V16H46.0229Z" fill="#0A1B2B" fill-opacity="0.5"/>
<g clip-path="url(#clip0)">
<path fill-rule="evenodd" clip-rule="evenodd" d="M88 0C83.5801 0 80 3.58011 80 8C80 11.5359 82.2934 14.5316 85.4708 15.5924C85.8686 15.6661 86.016 15.4205 86.016 15.2044C86.016 15.0129 86.011 14.512 86.0061 13.8441C83.7815 14.3254 83.31 12.7735 83.31 12.7735C82.9466 11.8502 82.4211 11.5998 82.4211 11.5998C81.6943 11.1037 82.4751 11.1136 82.4751 11.1136C83.2756 11.1725 83.7029 11.9386 83.7029 11.9386C84.415 13.1614 85.574 12.8079 86.0307 12.6016C86.1044 12.0859 86.3106 11.7324 86.5365 11.531C84.7637 11.3346 82.8975 10.647 82.8975 7.58257C82.8975 6.70841 83.2069 5.99632 83.7225 5.43646C83.639 5.2302 83.364 4.41989 83.7962 3.31983C83.7962 3.31983 84.469 3.10374 85.9963 4.13996C86.6347 3.96317 87.3174 3.87477 88 3.86986C88.6777 3.87477 89.3653 3.96317 90.0037 4.13996C91.531 3.10374 92.2038 3.31983 92.2038 3.31983C92.6409 4.41989 92.3659 5.23511 92.2824 5.43646C92.7931 5.99632 93.1025 6.70841 93.1025 7.58257C93.1025 10.6568 91.2314 11.3296 89.4487 11.531C89.7336 11.7765 89.9939 12.2676 89.9939 13.0141C89.9939 14.0847 89.984 14.9441 89.984 15.2093C89.984 15.4254 90.1265 15.671 90.5341 15.5924C93.7115 14.5316 96 11.5359 96 8.00491C96 3.58011 92.4199 0 88 0Z" fill="#0A1B2B" fill-opacity="0.5"/>
</g>
<path d="M123.32 2.33317C123.32 3.25384 122.58 3.99984 121.667 3.99984C120.753 3.99984 120.013 3.25384 120.013 2.33317C120.013 1.41317 120.753 0.666504 121.667 0.666504C122.58 0.666504 123.32 1.41317 123.32 2.33317ZM123.333 5.33317H120V15.9998H123.333V5.33317ZM128.655 5.33317H125.343V15.9998H128.655V10.4005C128.655 7.28717 132.675 7.0325 132.675 10.4005V15.9998H136V9.24584C136 3.9925 130.052 4.18384 128.655 6.76984V5.33317Z" fill="#0A1B2B" fill-opacity="0.5"/>
<path d="M16 3C15.4 3.3 14.8 3.4 14.1 3.5C14.8 3.1 15.3 2.5 15.5 1.7C14.9 2.1 14.2 2.3 13.4 2.5C12.8 1.9 11.9 1.5 11 1.5C9.3 1.5 7.8 3 7.8 4.8C7.8 5.1 7.8 5.3 7.9 5.5C5.2 5.4 2.7 4.1 1.1 2.1C0.8 2.6 0.7 3.1 0.7 3.8C0.7 4.9 1.3 5.9 2.2 6.5C1.7 6.5 1.2 6.3 0.7 6.1C0.7 7.7 1.8 9 3.3 9.3C3 9.4 2.7 9.4 2.4 9.4C2.2 9.4 2 9.4 1.8 9.3C2.2 10.6 3.4 11.6 4.9 11.6C3.8 12.5 2.4 13 0.8 13C0.5 13 0.3 13 0 13C1.5 13.9 3.2 14.5 5 14.5C11 14.5 14.3 9.5 14.3 5.2C14.3 5.1 14.3 4.9 14.3 4.8C15 4.3 15.6 3.7 16 3Z" fill="#0A1B2B" fill-opacity="0.5"/>
<defs>
<clipPath id="clip0">
<rect width="16" height="15.6022" fill="white" transform="translate(80)"/>
</clipPath>
</defs>
</svg>
