<?xml version="1.0" encoding="UTF-8"?>
<svg width="196px" height="40px" viewBox="0 0 196 40" version="1.1" xmlns="http://www.w3.org/2000/svg" xmlns:xlink="http://www.w3.org/1999/xlink">
    <!-- Generator: Sketch 55 (78076) - https://sketchapp.com -->
    <title>Cityblock White</title>
    <desc>Created with Sketch.</desc>
    <g id="Page-1" stroke="none" stroke-width="1" fill="none" fill-rule="evenodd" fill-opacity="0.6">
        <g id="Cityblock-White" fill="#FFFFFF" fill-rule="nonzero">
            <path d="M43.2,20 C43.2,14.5 47.4,10.4 52.7,10.4 C57,10.4 59.6,12.6 60.8,15.4 L58,17 C56.9,14.9 55.3,13.5 52.8,13.5 C49.3,13.5 46.7,16.3 46.7,19.9 C46.7,23.6 49.3,26.4 52.8,26.4 C55.5,26.4 57.2,24.9 58.1,22.5 L61.2,23.8 C60.1,27.1 57.3,29.6 52.8,29.6 C47.4,29.6 43.2,25.6 43.2,20" id="Path"></path>
            <polygon id="Path" points="64.8 29.3 68 29.3 68 10.7 64.8 10.7"></polygon>
            <polygon id="Path" points="80.4 29.3 77.1 29.3 77.1 13.7 71.5 13.7 71.5 10.7 86 10.7 86 13.7 80.4 13.7"></polygon>
            <polygon id="Path" points="100.4 10.7 104 10.7 97.5 21.5 97.5 29.3 94.2 29.3 94.2 21.5 87.9 10.7 91.5 10.7 96 18.2"></polygon>
            <path d="M114,26.3 C115.9,26.3 116.9,25.3 116.9,23.7 C116.9,22.1 115.9,21.1 113.9,21.1 L110.3,21.1 L110.3,26.3 L114,26.3 Z M110.3,13.7 L110.3,18.1 L113.3,18.1 C114.9,18.1 115.8,17.3 115.8,15.9 C115.8,14.6 115,13.7 113.5,13.7 L110.3,13.7 Z M107.1,29.3 L107.1,10.7 L113.8,10.7 C117.2,10.7 119.2,12.6 119.2,15.6 C119.2,17.4 118.1,18.6 116.8,19.3 C118.9,19.8 120.3,21.4 120.3,23.7 C120.3,27 118.1,29.2 114.1,29.2 L107.1,29.2 L107.1,29.3 Z" id="Shape"></path>
            <polygon id="Path" points="124.1 10.7 127.3 10.7 127.3 26.3 134.7 26.3 134.7 29.3 124.1 29.3"></polygon>
            <path d="M145.5,26.5 C149,26.5 151.6,23.5 151.6,20 C151.6,16.3 149,13.6 145.5,13.6 C142,13.6 139.4,16.4 139.4,20 C139.4,23.7 142,26.5 145.5,26.5 M145.5,10.4 C150.9,10.4 155,14.5 155,20 C155,25.3 150.8,29.6 145.5,29.6 C140.1,29.6 136,25.5 136,20 C135.9,14.5 140.1,10.4 145.5,10.4" id="Shape"></path>
            <path d="M158.1,20 C158.1,14.5 162.3,10.4 167.6,10.4 C171.9,10.4 174.5,12.6 175.7,15.4 L172.8,17 C171.7,14.9 170.1,13.5 167.6,13.5 C164.1,13.5 161.5,16.3 161.5,19.9 C161.5,23.6 164.1,26.4 167.6,26.4 C170.3,26.4 172,24.9 172.9,22.5 L176,23.8 C174.9,27.1 172.1,29.6 167.6,29.6 C162.3,29.6 158.1,25.6 158.1,20" id="Path"></path>
            <polygon id="Path" points="191 29.3 185.5 21 182.9 24 182.9 29.3 179.7 29.3 179.7 10.7 182.9 10.7 182.9 19.4 190.2 10.7 194.6 10.7 187.8 18.4 195.2 29.3"></polygon>
            <polygon id="Path" points="28.8 26.3 28.8 31.6 0.4 39.2 0.4 26.2 0.4 13.9 0.4 0.8 28.8 8.5 28.8 13.9"></polygon>
        </g>
    </g>
</svg>