<svg width="201px" height="39px" viewBox="0 0 201 39" version="1.1" xmlns="http://www.w3.org/2000/svg" xmlns:xlink="http://www.w3.org/1999/xlink">
    <g id="Page-1" stroke="none" stroke-width="1" fill="none" fill-rule="evenodd" fill-opacity="0.6">
        <g id="Fortmatic-Gray" fill="#FFFFFF" fill-rule="nonzero">
            <polygon id="Path" points="55.082 31.3216 59.4752 31.3216 59.4752 21.6675 67.4359 21.6675 67.4359 17.7629 59.4752 17.7629 59.4752 11.6367 69.5318 11.6367 69.5318 7.73486 55.082 7.73486"></polygon>
            <path d="M78.2124,14.9653 C73.6486,14.9653 69.8711,18.2169 69.8711,23.249 C69.8711,28.2812 73.6486,31.6025 78.2124,31.6025 C82.7762,31.6025 86.5538,28.2812 86.5538,23.249 C86.5538,18.2169 82.7427,14.9653 78.2124,14.9653 Z M78.2124,27.5248 C75.9123,27.5248 74.0152,25.8503 74.0152,23.2463 C74.0152,20.712 75.9011,19.0597 78.2124,19.0597 C80.5237,19.0597 82.4097,20.7009 82.4097,23.2463 C82.3985,25.8503 80.5125,27.5276 78.2124,27.5276 L78.2124,27.5248 Z" id="Shape"></path>
            <polygon id="Path" points="108.939 9.21484 104.787 9.21484 104.787 15.3076 101.871 15.3076 101.871 18.6624 104.787 18.6624 104.787 31.2973 108.939 31.2973 108.939 18.6624 112.339 18.6624 112.339 15.3076 108.939 15.3076"></polygon>
            <path d="M134.134,14.9653 C132.864,14.9653 130.6,15.3421 129.097,17.9768 C128.205,16.0231 126.523,15.1356 123.982,14.9988 C122.474,14.9988 120.277,15.7189 119.385,17.6698 L119.385,15.3058 L115.188,15.3058 L115.188,31.2955 L119.385,31.2955 L119.385,22.769 C119.385,20.031 121.03,19.0374 122.743,19.0374 C124.388,19.0374 125.658,20.271 125.695,22.4955 L125.695,31.2955 L129.892,31.2955 L129.892,22.769 C129.892,20.338 131.266,19.0374 133.152,19.0374 C134.87,19.0374 136.174,20.3045 136.174,22.5987 L136.174,31.2955 L140.326,31.2955 L140.326,22.155 C140.312,17.4633 138.012,14.9653 134.134,14.9653 Z" id="Path"></path>
            <path d="M156.302,17.293 C155.135,15.5124 152.768,14.9653 151.327,14.9653 C147.104,14.9653 143.156,18.1471 143.156,23.2825 C143.156,28.418 147.104,31.6025 151.327,31.6025 C152.905,31.6025 155.272,30.8824 156.302,29.2413 L156.302,31.2955 L160.499,31.2955 L160.499,15.3058 L156.302,15.3058 L156.302,17.293 Z M151.909,27.5974 C149.609,27.5974 147.482,25.8503 147.482,23.2825 C147.482,20.7148 149.609,18.9704 151.909,18.9704 C154.105,18.9704 156.302,20.5111 156.302,23.2825 C156.302,26.054 154.175,27.5974 151.909,27.5974 Z" id="Shape"></path>
            <polygon id="Path" points="170.717 9.21484 166.564 9.21484 166.564 15.3076 163.648 15.3076 163.648 18.6624 166.564 18.6624 166.564 31.2973 170.717 31.2973 170.717 18.6624 174.116 18.6624 174.116 15.3076 170.717 15.3076"></polygon>
            <path d="M179.366,6.61255 C177.891,6.61255 176.654,7.70662 176.654,9.11049 C176.654,10.5144 177.891,11.6447 179.366,11.6447 C180.034,11.6447 180.674,11.3801 181.146,10.909 C181.619,10.4379 181.884,9.79902 181.884,9.13282 C181.884,8.46663 181.619,7.82771 181.146,7.35663 C180.674,6.88556 180.034,6.62092 179.366,6.62092 L179.366,6.61255 Z" id="Path"></path>
            <polygon id="Path" points="181.422 15.3057 177.27 15.3057 177.27 31.2925 181.422 31.2925"></polygon>
            <path d="M197.11,26.0248 C196.718,26.5325 196.213,26.9422 195.635,27.2213 C195.057,27.5003 194.422,27.6411 193.78,27.6324 C191.446,27.6324 189.286,25.8518 189.286,23.2505 C189.286,20.6493 191.446,19.0054 193.78,19.0054 C194.42,18.9906 195.054,19.1252 195.632,19.3986 C196.21,19.6719 196.716,20.0763 197.11,20.5796 L200.44,18.0677 C198.929,16.0805 196.458,14.9529 193.78,14.9529 C189.183,14.9529 185.131,18.2044 185.131,23.2366 C185.131,28.2688 189.183,31.6236 193.78,31.6236 C196.491,31.6236 198.965,30.4597 200.473,28.4753 L197.11,26.0248 Z" id="Path"></path>
            <path d="M89.5137,15.3057 L89.5137,31.2953 L93.7109,31.2953 L93.7109,18.9703 L97.5024,18.9703 C98.5769,18.9703 99.4472,18.0241 99.4472,16.8547 L99.4472,15.3057 L89.5137,15.3057 Z" id="Path"></path>
            <polygon id="Path" points="28.8015 0 19.201 0 9.60051 0 0 0 0 9.57593 0 19.1519 0 19.7659 0 28.672 0 28.7278 0 38.2479 9.60051 38.2479 9.60051 28.7278 9.60051 28.672 9.60051 19.7659 9.60051 19.1519 9.60051 9.57593 19.201 9.57593 28.8015 9.57593 38.402 9.57593 38.402 0"></polygon>
            <path d="M19.2598,28.6742 L28.8043,28.6742 L28.8043,38.2501 L29.1401,38.2501 C31.5963,38.2486 33.9514,37.2744 35.6876,35.5415 C37.4239,33.8086 38.3992,31.459 38.3992,29.0091 L38.3992,19.1541 L19.2598,19.1541 L19.2598,28.6742 Z" id="Path"></path>
        </g>
    </g>
</svg>
