<svg width="142" height="48" viewBox="0 0 142 48" fill="none" xmlns="http://www.w3.org/2000/svg">
<path fill-rule="evenodd" clip-rule="evenodd" d="M13.4636 0L5.04883 8.41479L0 13.4639V47.123L21.8785 25.2445L30.2932 16.8297H21.8784L21.8785 25.2445H13.4637V16.8297H5.04889L5.04883 8.41479H13.4636V0ZM44.8089 13.4636H38.077V5.04883H34.08V25.2444H38.077V16.8296H44.8089V25.2444H48.8059V5.04883H44.8089V13.4636ZM50.9096 18.0918C50.9096 13.4636 53.434 10.9392 57.1366 10.9392C61.0494 10.9392 63.3214 13.7582 63.3214 17.671V19.1016H54.4017C54.4017 21.1632 55.4536 22.3833 57.4311 22.3833C58.9878 22.3833 59.8293 22.0046 60.7129 21.1211L62.8166 23.2249C61.344 24.6974 59.9976 25.4547 57.4311 25.4547C54.0652 25.4547 50.9096 23.856 50.9096 18.0918ZM54.7383 15.3149C54.528 15.8198 54.4438 16.1985 54.4017 16.8296H59.8714C59.8714 16.222 59.7154 15.8485 59.5161 15.3711L59.4927 15.3149C59.114 14.4734 58.3146 13.8844 57.1366 13.8844C55.9164 13.8844 55.117 14.4734 54.7383 15.3149ZM70.7265 10.9392C68.3704 10.9392 67.0661 11.3179 65.6776 12.8325L67.8655 15.0625C68.5807 14.2209 69.2119 13.9265 70.5582 13.9265C72.4516 13.9265 73.2089 14.5996 73.2089 16.1564V16.8296H69.843C66.5612 16.8296 65.0044 18.6808 65.0044 20.9529C65.0044 22.2151 65.4252 23.3511 66.1825 24.1505C67.024 24.9919 68.16 25.4127 69.7588 25.4127C71.3997 25.4127 72.3674 24.9919 73.2089 24.0663V25.2444H76.7852V15.9039C76.7852 12.5801 74.6815 10.9392 70.7265 10.9392ZM72.6619 21.7943C72.0308 22.3833 71.3997 22.4675 70.432 22.4675C69.0435 22.4675 68.3704 21.7943 68.3704 20.8267C68.3704 19.8169 69.0856 19.1016 70.3478 19.1016H73.1668V19.9431C73.2089 20.9108 73.0406 21.4578 72.6619 21.7943ZM101.398 12.2014C102.366 11.2338 103.46 10.7289 104.722 10.7289C107.836 10.7289 109.393 12.7904 109.435 15.7777V25.2444H105.858V16.4088C105.858 14.5155 104.764 13.8844 103.628 13.8844C102.492 13.8844 101.398 14.5576 101.398 16.4088V25.2444H97.8222V5.04883H101.398V12.2014ZM115.704 11.1495H112.127V25.2444H115.704V11.1495ZM112.127 5.04883H115.704V8.62512H112.127V5.04883ZM92.1422 6.73181H88.5659V11.1495H85.8311V13.8844H88.5659V21.2473C88.5659 23.267 89.6178 25.2444 92.7733 25.2444H94.877V22.2992H93.4044C92.5209 22.2992 92.1422 21.8784 92.1422 20.8267V13.8844H94.877V11.1495H92.1422V6.73181ZM120.542 11.1495V9.0459C120.542 7.02637 121.594 5.04883 124.75 5.04883H126.853V7.99402H125.381C124.497 7.99402 124.119 8.41479 124.119 9.46655V11.1495H126.853V13.8844H124.119V25.2444H120.542V13.8844H117.807V11.1495H120.542ZM83.0962 20.8267V5.04883H79.5199V21.2473C79.5199 23.2668 80.5718 25.2444 83.7274 25.2444H85.8311V22.2992H84.3585C83.4749 22.2992 83.0962 21.8784 83.0962 20.8267ZM135.268 20.4479L138.424 11.1495H142L136.741 25.665L135.731 28.484C135.436 29.2834 135.1 29.8726 134.679 30.2932C133.838 31.0927 132.786 31.3451 131.608 31.3451H130.219V28.1896H131.019C132.028 28.1896 132.449 27.9791 132.786 26.9274L133.375 25.2444L128.326 11.1495H131.692L135.268 20.4479Z" fill="#C5C5C5"/>
</svg>
