<svg width="121px" height="40px" viewBox="0 0 121 40" version="1.1" xmlns="http://www.w3.org/2000/svg" xmlns:xlink="http://www.w3.org/1999/xlink">
    <g id="Page-1" stroke="none" stroke-width="1" fill="none" fill-rule="evenodd" fill-opacity="0.6">
        <g id="healthify-logo_master-v1a_logotype" fill="#FFFFFF" fill-rule="nonzero">
            <g id="Group">
                <polygon id="Path" points="11.4285714 14.2857143 4.28571429 14.2857143 4.28571429 7.14285714 0 11.4285714 0 40 18.5714286 21.4285714 11.4285714 21.4285714"></polygon>
                <polygon id="Path" points="11.4285714 0 4.28571429 7.14285714 11.4285714 7.14285714"></polygon>
                <polygon id="Path" points="25.7142857 14.2857143 18.5714286 14.2857143 18.5714286 21.4285714"></polygon>
            </g>
            <g id="Group" transform="translate(28.928571, 4.285714)">
                <polygon id="Path" points="9.10714286 7.14285714 3.39285714 7.14285714 3.39285714 0 0 0 0 17.1428571 3.39285714 17.1428571 3.39285714 10 9.10714286 10 9.10714286 17.1428571 12.5 17.1428571 12.5 0 9.10714286 0"></polygon>
                <path d="M19.5714286,5 C16.4285714,5 14.2857143,7.14285714 14.2857143,11.0714286 C14.2857143,15.9642857 16.9642857,17.3214286 19.8214286,17.3214286 C22,17.3214286 23.1428571,16.6785714 24.3928571,15.4285714 L22.6071429,13.6428571 C21.8571429,14.3928571 21.1428571,14.7142857 19.8214286,14.7142857 C18.1428571,14.7142857 17.25,13.6785714 17.25,11.9285714 L24.8214286,11.9285714 L24.8214286,10.7142857 C24.8214286,7.39285714 22.8928571,5 19.5714286,5 Z M17.25,10 C17.2857143,9.46428571 17.3571429,9.14285714 17.5357143,8.71428571 C17.8571429,8 18.5357143,7.5 19.5714286,7.5 C20.5714286,7.5 21.25,8 21.5714286,8.71428571 C21.75,9.14285714 21.8928571,9.46428571 21.8928571,10 L17.25,10 Z" id="Shape"></path>
                <path d="M31.1071429,5 C29.1071429,5 28,5.32142857 26.8214286,6.60714286 L28.6785714,8.5 C29.2857143,7.78571429 29.8214286,7.53571429 30.9642857,7.53571429 C32.5714286,7.53571429 33.2142857,8.10714286 33.2142857,9.42857143 L33.2142857,10 L30.3571429,10 C27.5714286,10 26.25,11.5714286 26.25,13.5 C26.25,14.5714286 26.6071429,15.5357143 27.25,16.2142857 C27.9642857,16.9285714 28.9285714,17.2857143 30.2857143,17.2857143 C31.6785714,17.2857143 32.5,16.9285714 33.2142857,16.1428571 L33.2142857,17.1428571 L36.25,17.1428571 L36.25,9.21428571 C36.25,6.39285714 34.4642857,5 31.1071429,5 Z M32.75,14.2142857 C32.2142857,14.7142857 31.6785714,14.7857143 30.8571429,14.7857143 C29.6785714,14.7857143 29.1071429,14.2142857 29.1071429,13.3928571 C29.1071429,12.5357143 29.7142857,11.9285714 30.7857143,11.9285714 L33.1785714,11.9285714 L33.1785714,12.6428571 C33.2142857,13.4642857 33.0714286,13.9285714 32.75,14.2142857 Z" id="Shape"></path>
                <path d="M59.9642857,4.82142857 C58.8928571,4.82142857 57.9642857,5.25 57.1428571,6.07142857 L57.1428571,0 L54.1071429,0 L54.1071429,17.1428571 L57.1428571,17.1428571 L57.1428571,9.64285714 C57.1428571,8.07142857 58.0714286,7.5 59.0357143,7.5 C60,7.5 60.9285714,8.03571429 60.9285714,9.64285714 L60.9285714,17.1428571 L63.9642857,17.1428571 L63.9642857,9.10714286 C63.9285714,6.57142857 62.6071429,4.82142857 59.9642857,4.82142857 Z" id="Path"></path>
                <rect id="Rectangle" x="66.25" y="5.17857143" width="3.03571429" height="11.9642857"></rect>
                <rect id="Rectangle" x="66.25" y="0" width="3.03571429" height="3.03571429"></rect>
                <path d="M49.2857143,1.42857143 L46.25,1.42857143 L46.25,5.17857143 L43.9285714,5.17857143 L43.9285714,7.5 L46.25,7.5 L46.25,13.75 C46.25,15.4642857 47.1428571,17.1428571 49.8214286,17.1428571 L51.6071429,17.1428571 L51.6071429,14.6428571 L50.3571429,14.6428571 C49.6071429,14.6428571 49.2857143,14.2857143 49.2857143,13.3928571 L49.2857143,7.5 L51.6071429,7.5 L51.6071429,5.17857143 L49.2857143,5.17857143 L49.2857143,1.42857143 Z" id="Path"></path>
                <path d="M73.3928571,3.39285714 L73.3928571,5.17857143 L71.0714286,5.17857143 L71.0714286,7.5 L73.3928571,7.5 L73.3928571,17.1428571 L76.4285714,17.1428571 L76.4285714,7.5 L78.75,7.5 L78.75,5.17857143 L76.4285714,5.17857143 L76.4285714,3.75 C76.4285714,2.85714286 76.75,2.5 77.5,2.5 L78.75,2.5 L78.75,0 L76.9642857,0 C74.2857143,0 73.3928571,1.67857143 73.3928571,3.39285714 Z" id="Path"></path>
                <path d="M41.6071429,13.3928571 L41.6071429,0 L38.5714286,0 L38.5714286,13.75 C38.5714286,15.4642857 39.4642857,17.1428571 42.1428571,17.1428571 L43.9285714,17.1428571 L43.9285714,14.6428571 L42.6785714,14.6428571 C41.9285714,14.6428571 41.6071429,14.2857143 41.6071429,13.3928571 Z" id="Path"></path>
                <path d="M88.5714286,5.17857143 L85.8928571,13.0714286 L82.8571429,5.17857143 L80,5.17857143 L84.2857143,17.1428571 L83.7857143,18.5714286 C83.5,19.4642857 83.1428571,19.6428571 82.2857143,19.6428571 L81.6071429,19.6428571 L81.6071429,22.3214286 L82.7857143,22.3214286 C83.7857143,22.3214286 84.6785714,22.1071429 85.3928571,21.4285714 C85.75,21.0714286 86.0357143,20.5714286 86.2857143,19.8928571 L87.1428571,17.5 L91.6071429,5.17857143 L88.5714286,5.17857143 Z" id="Path"></path>
            </g>
        </g>
    </g>
</svg>
