<svg width="50px" height="40px" viewBox="0 0 50 40" version="1.1" xmlns="http://www.w3.org/2000/svg" xmlns:xlink="http://www.w3.org/1999/xlink">
    <g id="Page-1" stroke="none" stroke-width="1" fill="none" fill-rule="evenodd" fill-opacity="0.6">
        <g id="mdsave-17ac9082" fill="#FFFFFF" fill-rule="nonzero">
            <g id="Group" transform="translate(46.279070, 36.279070)">
                <path d="M1.13860465,0.834883721 L1.89325581,0.834883721 C2.12534884,0.834883721 2.2972093,0.881395349 2.40883721,0.973488372 C2.52046512,1.06581395 2.57627907,1.2055814 2.57627907,1.39325581 C2.57627907,1.56883721 2.52744186,1.69767442 2.42906977,1.77930233 C2.33069767,1.86139535 2.20883721,1.90953488 2.0627907,1.92465116 L2.62093023,2.78627907 L2.29511628,2.78627907 L1.76372093,1.94674419 L1.44232558,1.94674419 L1.44232558,2.78627907 L1.13860465,2.78627907 L1.13860465,0.835116279 L1.13860465,0.834883721 Z M1.44232558,1.70139535 L1.75930233,1.70139535 C1.82767442,1.70139535 1.89255814,1.69906977 1.95348837,1.6944186 C2.0144186,1.69023256 2.06883721,1.67744186 2.11627907,1.65674419 C2.16295415,1.6367479 2.20262234,1.60331329 2.23023256,1.56069767 C2.25860465,1.51744186 2.2727907,1.4572093 2.2727907,1.37976744 C2.2727907,1.3144186 2.26,1.26232558 2.23488372,1.22348837 C2.2104797,1.1856195 2.17655728,1.15482468 2.13651163,1.13418605 C2.09310129,1.11238325 2.04631858,1.09807324 1.99813953,1.09186047 C1.94715057,1.08450058 1.89570339,1.08077027 1.84418605,1.08069767 L1.44232558,1.08069767 L1.44232558,1.70139535 L1.44232558,1.70139535 Z" id="Shape"></path>
                <path d="M0.106976744,1.80395349 C0.106976744,1.56883721 0.151860465,1.35 0.241162791,1.14767442 C0.327123882,0.95005619 0.450741958,0.771066695 0.605116279,0.620697674 C0.922876665,0.313071784 1.34819423,0.141676399 1.79046512,0.143023256 C2.23089633,0.141244292 2.65434311,0.31282837 2.96930233,0.620697674 C3.12249085,0.771568158 3.2452596,0.950471048 3.33093023,1.14767442 C3.42023256,1.35 3.46488372,1.56883721 3.46488372,1.80395349 C3.46488372,2.04511628 3.42023256,2.26767442 3.33093023,2.47139535 C3.24531603,2.66993358 3.12257502,2.85029577 2.96930233,3.0027907 C2.81698007,3.15352687 2.63639506,3.27270507 2.43790698,3.35348837 C2.23243309,3.4373808 2.01240059,3.47982242 1.79046512,3.47837209 C1.56139535,3.47837209 1.34465116,3.43674419 1.14093023,3.35348837 C0.941103333,3.27276678 0.759059119,3.15361632 0.605116279,3.0027907 C0.450677136,2.85086618 0.327088538,2.6704979 0.241162791,2.47162791 C0.151860465,2.26767442 0.107209302,2.04511628 0.107209302,1.80418605 L0.106976744,1.80395349 Z M0.410697674,1.80395349 C0.410697674,2.00930233 0.445581395,2.19930233 0.515813953,2.37325581 C0.585581395,2.54744186 0.682325581,2.69860465 0.806046512,2.82651163 C0.929302326,2.9544186 1.07534884,3.05488372 1.24348837,3.12790698 C1.41162791,3.20093023 1.59395349,3.2372093 1.79046512,3.2372093 C1.98395349,3.2372093 2.16418605,3.20093023 2.33069767,3.12790698 C2.49427164,3.0571377 2.64222844,2.95470607 2.76604651,2.82651163 C2.88976744,2.69860465 2.98651163,2.54744186 3.05627907,2.37325581 C3.12627907,2.19906977 3.16139535,2.00930233 3.16139535,1.80395349 C3.16291855,1.6128475 3.12721542,1.42327339 3.05627907,1.24581395 C2.98989282,1.07862253 2.89127786,0.926117035 2.76604651,0.796976744 C2.64172565,0.669964929 2.49385622,0.568383684 2.33069767,0.497906977 C2.16020125,0.424234927 1.97619083,0.387005096 1.79046512,0.388604651 C1.42039883,0.385193508 1.06492366,0.532741318 0.806046512,0.797209302 C0.680815163,0.926349593 0.582200208,1.07885509 0.515813953,1.24604651 C0.444877603,1.42350595 0.409174478,1.61308006 0.410697674,1.80418605 L0.410697674,1.80395349 Z" id="Shape"></path>
            </g>
            <path d="M5.22395349,32.1995349 C6.13332815,32.5640417 7.00750324,33.0108596 7.8355814,33.5344186 C8.67418605,34.0634884 9.08046512,34.9211628 9.05465116,36.1076744 C9.05465116,37.1653488 8.64186047,38.0425581 7.81651163,38.7390698 C6.99093023,39.4355814 5.95906977,39.7837209 4.72093023,39.7837209 C3.86953488,39.8353488 3.03767442,39.6934884 2.22488372,39.3581395 C1.41232558,39.0227907 0.709302326,38.5455814 0.116046512,37.9265116 L0,37.7716279 L1.12209302,36.1465116 L1.3544186,36.4560465 C1.81860465,36.8688372 2.34744186,37.197907 2.94093023,37.4427907 C3.53395349,37.687907 4.14046512,37.8102326 4.75953488,37.8102326 C5.27534884,37.8102326 5.7655814,37.6813953 6.23,37.4234884 C6.69418605,37.1653488 6.92651163,36.7269767 6.92651163,36.1076744 C6.92651163,35.5918605 6.66837209,35.192093 6.15255814,34.9081395 C5.63651163,34.6244186 5.03046512,34.3406977 4.33395349,34.0569767 C3.41161289,33.6990809 2.52953695,33.2450253 1.70232558,32.7023256 C0.876744186,32.1604651 0.464186047,31.3093023 0.464186047,30.1483721 C0.464186047,29.0651163 0.876744186,28.187907 1.70232558,27.5172093 C2.52790698,26.8465116 3.5855814,26.5111628 4.87534884,26.5111628 C6.19093023,26.5111628 7.15837209,26.7367442 7.77767442,27.1883721 C8.39674419,27.6395349 8.71906977,27.8783721 8.74488372,27.904186 L8.86116279,28.0204651 L7.85488372,29.7227907 L7.6227907,29.5293023 C7.21,29.1681395 6.75860465,28.8974419 6.26837209,28.7167442 C5.78632303,28.537417 5.27272571,28.4584386 4.75906977,28.4846512 C4.50139535,28.4846512 4.08232558,28.5683721 3.50162791,28.7360465 C2.92116279,28.9037209 2.63093023,29.3746512 2.63093023,30.1483721 C2.63093023,30.6644186 2.89534884,31.064186 3.42418605,31.3481395 C3.95302326,31.6318605 4.5527907,31.9155814 5.22372093,32.1993023 L5.22395349,32.1995349 Z M18.6511628,33.3216279 L18.1867442,33.3216279 C16.9486047,33.3216279 15.7425581,33.4634884 14.5688372,33.7472093 C13.3948837,34.0309302 12.8081395,34.7276744 12.8081395,35.8369767 C12.8081395,36.3011628 13.0081395,36.7590698 13.407907,37.2106977 C13.807907,37.6618605 14.4204651,37.8876744 15.245814,37.8876744 C16.252093,37.8876744 17.0709302,37.4297674 17.7030233,36.514186 C18.3351163,35.5983721 18.6511628,34.6244186 18.6511628,33.5925581 L18.6511628,33.3216279 L18.6511628,33.3216279 Z M16.0197674,26.5116279 C17.5676744,26.5116279 18.754186,26.9372093 19.5797674,27.7883721 C20.4053488,28.6397674 20.817907,29.8651163 20.817907,31.4646512 L20.817907,39.3972093 L18.7674419,39.3972093 L18.7674419,37.7718605 C18.3288372,38.3909302 17.7744186,38.8683721 17.1034884,39.2037209 C16.4327907,39.5390698 15.7104651,39.7067442 14.9365116,39.7067442 C13.9046512,39.7067442 12.9309302,39.3776744 12.0151163,38.72 C11.0993023,38.062093 10.6413953,37.1013953 10.6413953,35.8372093 C10.6413953,34.727907 10.9509302,33.8702326 11.57,33.2639535 C12.1803468,32.6630784 12.922279,32.212648 13.7369767,31.9483721 C14.5511446,31.6796671 15.3965673,31.5170858 16.2523256,31.4646512 C17.1034884,31.4130233 17.774186,31.3872093 18.2644186,31.3872093 L18.6511628,31.3872093 L18.6511628,31.3486047 C18.6511628,30.3681395 18.4255814,29.6393023 17.9739535,29.1623256 C17.5225581,28.6848837 16.8323256,28.4462791 15.9037209,28.4462791 C15.3104651,28.472093 14.7362791,28.5818605 14.1818605,28.7753488 C13.6272093,28.9688372 13.1306977,29.2332558 12.692093,29.5683721 L12.4597674,29.7232558 L11.4151163,28.0209302 L11.6086047,27.9046512 C12.2276744,27.4402326 12.917907,27.0855814 13.6788372,26.8404651 C14.4342394,26.596216 15.2263077,26.4849519 16.0197674,26.5116279 L16.0197674,26.5116279 Z M27.7444186,35.875814 L31.1109302,26.7825581 L33.3165116,26.7825581 L28.5569767,39.4744186 L26.4288372,39.4744186 L21.6693023,26.7825581 L23.9523256,26.7825581 L27.3574419,35.875814 C27.3832558,35.9532558 27.4090698,36.05 27.4348837,36.1660465 C27.4606977,36.2823256 27.4865116,36.3916279 27.5123256,36.4948837 C27.5446954,36.4020738 27.5834708,36.3116237 27.6283721,36.224186 C27.6824645,36.113755 27.7215697,35.9965958 27.7446512,35.875814 L27.7444186,35.875814 Z M35.9865116,31.6193023 L43.0290698,31.6581395 C42.925814,30.4713953 42.5453488,29.6395349 41.8874419,29.1623256 C41.2297674,28.6848837 40.5525581,28.4462791 39.8560465,28.4462791 C38.875814,28.4206977 38.0181395,28.7106977 37.2827907,29.3169767 C36.5476744,29.9232558 36.1153488,30.6906977 35.9865116,31.6193023 Z M39.8946512,26.5116279 C41.7262791,26.5116279 43.0613953,27.124186 43.8997674,28.3495349 C44.7381395,29.5751163 45.1702326,30.9227907 45.1960465,32.3932558 C45.1960465,32.5481395 45.1895349,32.7351163 45.1767442,32.9544186 L45.1572093,33.2832558 L45.1572093,33.4767442 L35.8704651,33.4767442 C35.947907,34.5860465 36.3411628,35.5855814 37.0506977,36.4755814 C37.76,37.3655814 38.85,37.8104651 40.3204651,37.8104651 C40.9395349,37.7848837 41.552093,37.6493023 42.1583721,37.404186 C42.7533121,37.1663329 43.2980923,36.8184784 43.764186,36.3788372 L44.0737209,36.1467442 L45.08,37.887907 L44.9637209,37.9653488 C44.3188372,38.5844186 43.5965116,39.0423256 42.7969767,39.3390698 C42.0046687,39.6343778 41.1657842,39.7850619 40.3202326,39.7839535 L39.7786047,39.7839535 C38.0244186,39.7067442 36.5539535,39.0230233 35.3674419,37.7332558 C34.1806977,36.4432558 33.6260465,34.9213953 33.7034884,33.1672093 C33.7034884,31.2067442 34.2839535,29.6072093 35.4448837,28.3690698 C36.6055814,27.1306977 38.0890698,26.5116279 39.8946512,26.5116279 L39.8946512,26.5116279 Z" id="Shape"></path>
            <path d="M13.2527907,15.2955814 L21.2048837,0.121162791 L23.4106977,0.121162791 L23.4106977,21.2874419 L26.3127907,21.2874419 L26.3127907,23.3769767 L18.2639535,23.3769767 L18.2639535,21.2874419 L21.05,21.2874419 L21.05,6.89302326 C21.05,6.58372093 21.0567442,6.26744186 21.0695349,5.94511628 C21.0823256,5.62255814 21.1276744,5.29395349 21.2048837,4.95837209 L21.0888372,4.95837209 C21.034743,5.25246229 20.9636942,5.54317974 20.8760465,5.82906977 C20.7870599,6.12183086 20.6902814,6.41216663 20.585814,6.69976744 L14.6267442,18.075814 L11.8795349,18.075814 L5.92046512,6.69953488 C5.8179518,6.41773592 5.72118755,6.13387862 5.63023256,5.84813953 C5.53817006,5.55692666 5.46705832,5.25950086 5.41744186,4.95813953 L5.30116279,4.95813953 C5.3527907,5.29348837 5.38488372,5.62232558 5.39790698,5.94488372 C5.41093023,6.26744186 5.41744186,6.58325581 5.41744186,6.8927907 L5.41744186,21.2874419 L8.24186047,21.2874419 L8.24186047,23.3769767 L0.154883721,23.3769767 L0.154883721,21.2874419 L3.01813953,21.2874419 L3.01813953,2.21069767 L0.11627907,2.21069767 L0.11627907,0.121162791 L5.22418605,0.121162791 L13.2530233,15.2955814 L13.2527907,15.2955814 Z M46.5116279,11.7297674 C46.5116279,13.1486047 46.3439535,14.4513953 46.0086047,15.637907 C45.6732558,16.8246512 45.1895349,17.8823256 44.5574419,18.8109302 C43.9334085,19.7313701 43.1544152,20.5365658 42.2551163,21.1906977 C41.3523256,21.8486047 40.3462791,22.3709302 39.2369767,22.7581395 C38.4441846,23.0145272 37.6273298,23.1894618 36.7990698,23.2802326 C35.9734884,23.3706977 35.1481395,23.4027907 34.3225581,23.3769767 L27.5897674,23.3769767 L27.5897674,2.21069767 L24.6874419,2.21069767 L24.6874419,0.121162791 L34.3225581,0.121162791 C35.1481395,0.0955813953 35.9737209,0.127674419 36.7993023,0.217906977 C37.6243535,0.308131945 38.4399883,0.469982772 39.2369767,0.701627907 C40.3058457,1.02968138 41.3127475,1.53313224 42.2165116,2.19139535 C43.1193023,2.84930233 43.8867442,3.64883721 44.5188372,4.59046512 C45.1509302,5.53232558 45.6409302,6.6027907 45.9893023,7.80209302 C46.3372093,9.00209302 46.5116279,10.3111628 46.5116279,11.7302326 L46.5116279,11.7297674 Z M44.1125581,11.7686047 C44.1125581,9.60162791 43.5644186,7.67976744 42.467907,6.00302326 C41.3716279,4.32627907 39.9851163,3.24255814 38.3081395,2.75255814 C37.6709371,2.54789491 37.0171625,2.39896316 36.354186,2.30744186 C35.6810575,2.21640679 35.0012913,2.18403697 34.3225581,2.21069767 L30.1823256,2.21069767 L30.1823256,21.2874419 L34.3225581,21.2874419 C34.9932558,21.3132558 35.6574419,21.2811628 36.3155814,21.1906977 C36.9820258,21.0982462 37.6369295,20.9361182 38.2695349,20.7069767 C39.8432558,20.2427907 41.2104651,19.172093 42.3711628,17.4953488 C43.532093,15.8186047 44.1125581,13.9095349 44.1125581,11.7686047 Z" id="Shape"></path>
        </g>
    </g>
</svg>
