<?xml version="1.0" encoding="UTF-8"?>
<svg width="214px" height="40px" viewBox="0 0 214 40" version="1.1" xmlns="http://www.w3.org/2000/svg" xmlns:xlink="http://www.w3.org/1999/xlink">
    <!-- Generator: Sketch 55 (78076) - https://sketchapp.com -->
    <title>quadpay-logo</title>
    <desc>Created with Sketch.</desc>
    <g id="Page-1" stroke="none" stroke-width="1" fill="none" fill-rule="evenodd" fill-opacity="0.6">
        <g id="quadpay-logo" fill="#FFFFFF" fill-rule="nonzero">
            <path d="M36.2196253,29.668159 L32.750401,25.2504133 C32.5835715,25.037971 32.3284173,24.913916 32.058299,24.913916 L14.5319972,24.913916 C9.75018413,24.4269368 6.14436106,20.4774174 6.14436106,15.7268769 C6.14436106,10.6340256 10.3460126,6.49042723 15.5101008,6.49042723 C15.7352763,6.49042723 15.9595505,6.49837462 16.1825546,6.51412803 C18.2747667,6.66192562 20.2551773,7.49681533 21.8190861,8.9020428 C23.5460728,10.4539621 24.1758211,12.5662637 24.393231,14.8503145 L24.4007029,15.0056727 L24.400944,19.9841501 C24.400964,20.4701466 24.7949475,20.8641139 25.280944,20.8641139 L29.9084349,20.86406 C30.3943957,20.86406 30.7883448,20.4701109 30.7883448,19.9841501 C30.7883448,19.9837384 30.7883445,19.9833267 30.7883438,19.9829149 C30.7836229,16.6198632 30.7790386,14.9039286 30.774591,14.8351112 C30.2865034,6.75814696 23.5337802,0.434782608 15.4011548,0.434782608 C6.90891125,0.434782608 0,7.3111652 0,15.7632221 C0,23.712384 5.99034229,30.2725866 13.9339994,31.022772 C13.9831697,31.0270478 14.2336009,31.0410634 15.3739183,31.0902363 L23.1570488,31.0916616 L24.4031133,31.0918992 L24.4031133,32.7545171 L24.4031133,34.641383 L24.4032894,35.9042579 C24.4033299,36.1952962 24.5472635,36.4674904 24.7877779,36.6313685 L29.4255214,39.791365 C29.8271614,40.0650285 30.3746029,39.961283 30.6482664,39.559643 C30.7478555,39.4134819 30.8010917,39.2407035 30.801033,39.063839 L30.7989352,32.7549923 L30.7984531,31.0916616 L32.4861518,31.0916616 L35.5275235,31.0916616 C36.0135341,31.0916616 36.4075235,30.6976723 36.4075235,30.2116616 C36.4075235,30.014564 36.3413562,29.8231722 36.2196253,29.668159 Z" id="Fill-1-Copy"></path>
            <path d="M39.7037037,19.7391304 C39.7037037,26.3478261 45.3063374,31.3043478 52.232428,31.3043478 C59.2026338,31.3043478 64.8493827,26.3478261 64.8493827,19.7391304 L64.8493827,1.26086956 C64.8493827,0.826086957 64.4523456,0.434782608 64.0111934,0.434782608 L58.5850206,0.434782608 C58.0997531,0.434782608 57.7468312,0.826086957 57.7468312,1.26086956 L57.7468312,19.3913043 C57.7468312,22.5652174 55.4087243,24.3478261 52.232428,24.3478261 C49.1002469,24.3478261 46.8062552,22.5652174 46.8062552,19.3913043 L46.8062552,1.26086956 C46.8062552,0.826086957 46.4533333,0.434782608 45.9680659,0.434782608 L40.541893,0.434782608 C40.1007408,0.434782608 39.7037037,0.826086957 39.7037037,1.26086956 L39.7037037,19.7391304 Z M69.569712,30.8695653 C68.9079835,30.8695653 68.5550618,30.3043478 68.8197531,29.7391304 L82.6278189,0.478260869 C82.7601646,0.217391304 83.0689712,0 83.3777778,0 L83.8189301,0 C84.1277366,0 84.4365432,0.217391304 84.568889,0.478260869 L98.3769547,29.7391304 C98.6416461,30.3043478 98.2887243,30.8695653 97.6269958,30.8695653 L92.7302058,30.8695653 C91.9361317,30.8695653 91.5832099,30.6086957 91.1861728,29.7826086 L89.5980246,26.3478261 L77.5986832,26.3478261 L76.010535,29.8260869 C75.7899589,30.3478261 75.3046914,30.8695653 74.4223869,30.8695653 L69.569712,30.8695653 Z M80.2455966,20.4347826 L86.951111,20.4347826 L83.5983539,13.2608696 L83.5542387,13.2608696 L80.2455966,20.4347826 Z M103.626667,30.0434782 L103.626667,1.26086956 C103.626667,0.826086957 103.979588,0.434782608 104.420741,0.434782608 L115.184856,0.434782608 C123.699095,0.434782608 130.6693,7.26086957 130.6693,15.6086956 C130.6693,24.0434782 123.699095,30.8695653 115.184856,30.8695653 L104.420741,30.8695653 C103.979588,30.8695653 103.626667,30.4782608 103.626667,30.0434782 Z M110.508642,24.4347826 L115.140741,24.4347826 C120.125761,24.4347826 123.346173,20.5652174 123.346173,15.6086956 C123.346173,10.6956522 120.125761,6.82608696 115.140741,6.82608696 L110.508642,6.82608696 L110.508642,24.4347826 Z M137.683621,30.0434782 L137.683621,1.26086956 C137.683621,0.826086957 138.036543,0.434782608 138.521811,0.434782608 L149.15358,0.434782608 C154.97679,0.434782608 159.035391,4.78260869 159.035391,10.0434783 C159.035391,15.4347826 154.97679,19.8260869 149.197696,19.8260869 L144.565597,19.8260869 L144.565597,30.0434782 C144.565597,30.4782608 144.16856,30.8695653 143.727407,30.8695653 L138.521811,30.8695653 C138.036543,30.8695653 137.683621,30.4782608 137.683621,30.0434782 Z M144.565597,13.4782609 L149.021235,13.4782609 C150.918189,13.4782609 152.241646,12 152.241646,10.0434783 C152.241646,8.21739131 150.918189,6.82608696 149.021235,6.82608696 L144.565597,6.82608696 L144.565597,13.4782609 Z M159.741235,30.8695653 C159.079506,30.8695653 158.726584,30.3043478 158.991276,29.7391304 L172.799341,0.478260869 C172.931688,0.217391304 173.240494,0 173.549301,0 L173.990453,0 C174.299259,0 174.608066,0.217391304 174.740411,0.478260869 L188.548477,29.7391304 C188.813168,30.3043478 188.460246,30.8695653 187.798518,30.8695653 L182.901728,30.8695653 C182.107654,30.8695653 181.754733,30.6086957 181.357696,29.7826086 L179.769547,26.3478261 L167.770206,26.3478261 L166.182058,29.8260869 C165.961482,30.3478261 165.476214,30.8695653 164.593909,30.8695653 L159.741235,30.8695653 Z M170.41712,20.4347826 L177.122634,20.4347826 L173.769877,13.2608696 L173.725762,13.2608696 L170.41712,20.4347826 Z M197.018602,30.0434782 L197.018602,16.2173914 L187.269136,1.69565218 C186.916214,1.13043478 187.269136,0.434782608 187.974979,0.434782608 L193.709958,0.434782608 C194.06288,0.434782608 194.283456,0.652173914 194.415803,0.826086957 L200.547819,9.73913043 L206.679835,0.826086957 C206.812181,0.652173914 206.988642,0.434782608 207.385678,0.434782608 L213.120659,0.434782608 C213.826502,0.434782608 214.179424,1.13043478 213.826502,1.69565218 L203.944691,16.1739131 L203.944691,30.0434782 C203.944691,30.4782608 203.547654,30.8695653 203.106502,30.8695653 L197.85679,30.8695653 C197.371523,30.8695653 197.018602,30.4782608 197.018602,30.0434782 Z" id="QUADPAY-Copy-2"></path>
        </g>
    </g>
</svg>