<svg width="172" height="27" viewBox="0 0 172 27" fill="none" xmlns="http://www.w3.org/2000/svg">
<g opacity="0.7">
<path d="M13.4375 26.875C20.8588 26.875 26.875 20.8588 26.875 13.4375C26.875 6.01617 20.8588 0 13.4375 0C6.01617 0 0 6.01617 0 13.4375C0 20.8588 6.01617 26.875 13.4375 26.875Z" fill="white"/>
<path d="M40.5816 21.6348C38.1629 21.6348 36.1473 20.8285 34.8035 19.6191C34.6691 19.4848 34.4004 19.216 34.4004 18.9473C34.4004 18.5441 34.8035 18.0066 35.341 18.0066C35.4754 18.0066 35.7441 18.141 36.0129 18.141C37.2223 19.0816 38.7004 19.8879 40.5816 19.8879C43.4035 19.8879 44.4785 18.4098 44.4785 17.066C44.4785 12.9004 34.6691 15.1848 34.6691 9.40664C34.6691 6.71914 37.0879 4.83789 40.3129 4.83789C42.3285 4.83789 44.2098 5.50977 45.5535 6.58477C45.6879 6.71914 45.9566 6.98789 45.9566 7.25664C45.9566 7.65977 45.5535 8.19727 45.016 8.19727C44.8816 8.19727 44.6129 8.06289 44.3441 8.06289C43.1348 7.12227 41.6566 6.58477 40.1785 6.58477C38.1629 6.58477 36.8191 7.65977 36.8191 9.13789C36.8191 12.766 46.6285 10.616 46.6285 16.7973C46.6285 19.216 45.016 21.6348 40.5816 21.6348Z" fill="white"/>
<path d="M50.9285 6.58542C50.9285 7.2573 50.2566 7.7948 49.7191 7.7948C49.1816 7.7948 48.5098 7.2573 48.5098 6.58542C48.5098 5.91355 49.1816 5.37605 49.7191 5.37605C50.391 5.24167 50.9285 5.77917 50.9285 6.58542ZM49.8535 21.3667C49.4504 21.3667 48.9129 20.9635 48.9129 20.426V10.0792C48.9129 9.67605 49.316 9.13855 49.8535 9.13855C50.2566 9.13855 50.7941 9.54167 50.7941 10.0792V20.426C50.6598 21.0979 50.391 21.3667 49.8535 21.3667Z" fill="white"/>
<path d="M68.9346 21.3664C68.5314 21.3664 67.9939 20.9633 67.9939 20.4258V13.3039C67.9939 11.8258 67.3221 10.7508 65.7096 10.7508C64.5002 10.7508 63.1564 11.6914 62.6189 12.4977V20.5602C62.6189 20.9633 62.2158 21.5008 61.6783 21.5008C61.1408 21.5008 60.7377 21.0977 60.7377 20.5602V13.3039C60.7377 11.8258 60.0658 10.7508 58.4533 10.7508C57.2439 10.7508 55.9002 11.6914 55.3627 12.4977V20.4258C55.3627 20.8289 54.9596 21.3664 54.4221 21.3664C54.0189 21.3664 53.4814 20.9633 53.4814 20.4258V10.0789C53.4814 9.67578 53.8846 9.13828 54.4221 9.13828C54.8252 9.13828 55.3627 9.54141 55.3627 10.0789V11.0195C55.7658 10.3477 57.3783 9.00391 59.2596 9.00391C61.0064 9.00391 62.0814 9.94453 62.3502 11.2883C63.0221 10.2133 64.6346 9.00391 66.2471 9.00391C68.3971 9.00391 69.6064 10.2133 69.6064 12.632V20.4258C69.7408 21.0977 69.4721 21.3664 68.9346 21.3664Z" fill="white"/>
<path d="M78.6098 21.6352C76.9973 21.6352 75.5191 20.9633 74.5785 19.6195V25.1289C74.5785 25.532 74.1754 26.0695 73.6379 26.0695C73.1004 26.0695 72.6973 25.6664 72.6973 25.1289V10.0789C72.6973 9.67578 73.1004 9.13828 73.6379 9.13828C74.041 9.13828 74.5785 9.54141 74.5785 10.0789V11.0195C75.5191 9.81016 76.8629 9.00391 78.6098 9.00391C81.7004 9.00391 83.8504 11.2883 83.8504 15.3195C83.9848 19.2164 81.8348 21.6352 78.6098 21.6352ZM78.0723 10.8852C76.5941 10.8852 75.2504 11.8258 74.4441 12.7664V18.1414C75.116 19.082 76.4598 20.157 78.0723 20.157C80.3566 20.157 81.9691 18.1414 81.9691 15.4539C81.9691 12.7664 80.491 10.8852 78.0723 10.8852Z" fill="white"/>
<path d="M86.8059 21.3656C86.4027 21.3656 85.8652 20.9625 85.8652 20.425V5.64375C85.8652 5.24062 86.2684 4.70312 86.8059 4.70312C87.209 4.70312 87.7465 5.10625 87.7465 5.64375V20.5594C87.8809 21.0969 87.3434 21.3656 86.8059 21.3656Z" fill="white"/>
<path d="M100.512 15.991H91.9121C92.0465 18.2754 93.659 20.1566 96.2121 20.1566C97.4215 20.1566 98.4965 19.7535 99.3027 18.9473C99.4371 18.8129 99.5715 18.8129 99.7059 18.8129C100.109 18.8129 100.378 19.0816 100.378 19.4848C100.378 20.6941 97.2871 21.5004 95.9434 21.5004C92.4496 21.5004 89.8965 18.9473 89.8965 15.1848C89.8965 11.8254 92.4496 8.86914 95.6746 8.86914C98.6309 8.86914 100.646 10.7504 101.184 13.5723C101.318 13.9754 101.318 14.3785 101.318 14.7816C101.587 15.4535 101.05 15.991 100.512 15.991ZM95.9434 10.616C93.3902 10.616 92.1809 12.766 92.0465 14.5129H99.8402C99.7059 12.766 98.6309 10.616 95.9434 10.616Z" fill="white"/>
<path d="M117.444 7.12148C117.578 7.39023 117.847 7.79336 117.847 8.06211C117.847 8.73398 117.175 9.40586 116.369 9.40586C115.965 9.40586 115.697 9.27148 115.294 9.00273C114.353 7.92773 113.009 7.25586 111.665 7.25586C108.44 7.25586 106.156 9.80898 106.156 13.034C106.156 16.259 108.44 18.8121 111.665 18.8121C113.009 18.8121 114.353 18.1402 115.294 17.0652C115.562 16.7965 115.965 16.6621 116.369 16.6621C117.04 16.6621 117.712 17.334 117.712 18.0059C117.712 18.2746 117.578 18.6777 117.444 18.9465C116.234 20.4246 114.353 21.4996 111.665 21.4996C106.828 21.4996 103.065 18.1402 103.065 13.034C103.065 7.92773 106.828 4.56836 111.665 4.56836C114.219 4.70273 116.1 5.77773 117.444 7.12148Z" fill="white"/>
<path d="M122.684 6.31562C122.684 7.25625 122.012 7.92812 121.071 7.92812C120.131 7.92812 119.459 7.25625 119.459 6.31562C119.459 5.375 120.131 4.70312 121.071 4.70312C122.012 4.70312 122.684 5.50937 122.684 6.31562ZM120.937 21.3656C120.265 21.3656 119.728 20.6937 119.728 20.1562V10.6156C119.728 9.94375 120.4 9.40625 121.071 9.40625C121.743 9.40625 122.281 10.0781 122.281 10.6156V20.1562C122.281 20.8281 121.743 21.3656 120.937 21.3656Z" fill="white"/>
<path d="M128.462 21.6348C126.447 21.6348 125.372 20.5598 125.372 18.5441V11.691H124.431C123.759 11.691 123.222 11.1535 123.222 10.4816C123.222 9.80977 123.759 9.27227 124.431 9.27227H125.372V7.39102C125.372 6.71914 126.044 6.18164 126.715 6.18164C127.387 6.18164 127.925 6.85352 127.925 7.39102V9.40664H129.403C130.075 9.40664 130.612 9.94414 130.612 10.616C130.612 11.2879 130.209 11.8254 129.403 11.8254H127.925V18.0066C127.925 18.9473 128.462 19.4848 129.134 19.4848C129.269 19.4848 129.537 19.3504 129.672 19.3504C130.344 19.3504 130.881 19.7535 130.881 20.5598C130.881 21.0973 130.209 21.6348 128.462 21.6348Z" fill="white"/>
<path d="M135.047 6.31562C135.047 7.25625 134.375 7.92812 133.435 7.92812C132.494 7.92812 131.822 7.25625 131.822 6.31562C131.822 5.375 132.494 4.70312 133.435 4.70312C134.375 4.70312 135.047 5.50937 135.047 6.31562ZM133.3 21.3656C132.629 21.3656 132.091 20.6937 132.091 20.1562V10.6156C132.091 9.94375 132.763 9.40625 133.435 9.40625C134.107 9.40625 134.644 10.0781 134.644 10.6156V20.1562C134.644 20.8281 134.107 21.3656 133.3 21.3656Z" fill="white"/>
<path d="M145.26 21.3652H137.869C137.197 21.3652 136.66 20.6934 136.66 20.0215C136.66 19.7527 136.794 19.3496 136.929 19.0809L142.572 11.6902H137.735C137.063 11.6902 136.525 11.1527 136.525 10.4809C136.525 9.80898 137.063 9.27148 137.735 9.27148H145.125C145.797 9.27148 146.335 9.80898 146.335 10.4809C146.335 10.884 146.2 11.1527 146.066 11.4215L140.288 18.8121H145.26C145.932 18.8121 146.469 19.2152 146.469 20.0215C146.335 20.8277 145.932 21.3652 145.26 21.3652Z" fill="white"/>
<path d="M158.025 16.2586H150.232C150.366 18.0055 151.71 19.618 153.86 19.618C154.8 19.618 155.607 19.3492 156.413 18.8117C156.547 18.6773 156.816 18.6773 156.95 18.6773C157.488 18.6773 158.16 19.0805 158.16 19.7523C158.16 21.0961 155.069 21.768 153.591 21.768C149.963 21.768 147.275 19.2148 147.275 15.4523C147.275 12.093 149.829 9.13672 153.322 9.13672C156.144 9.13672 158.025 10.8836 158.832 13.3023C158.966 13.7055 159.1 14.3773 159.1 14.7805C159.369 15.7211 158.832 16.2586 158.025 16.2586ZM153.457 11.2867C151.307 11.2867 150.366 13.0336 150.097 14.3773H156.682C156.816 13.0336 155.875 11.2867 153.457 11.2867Z" fill="white"/>
<path d="M170.522 21.3664C169.85 21.3664 169.313 20.6945 169.313 20.157V13.8414C169.313 12.0945 168.372 11.4227 167.029 11.4227C165.819 11.4227 164.61 12.0945 163.938 12.9008V20.0227C163.938 20.6945 163.266 21.232 162.594 21.232C161.922 21.232 161.385 20.5602 161.385 20.0227V10.6164C161.385 9.94453 162.057 9.40703 162.729 9.40703C163.4 9.40703 163.938 10.0789 163.938 10.6164V11.0195C164.744 10.0789 166.222 9.00391 168.104 9.00391C170.657 9.00391 172 10.482 172 12.9008V20.0227C171.866 20.8289 171.194 21.3664 170.522 21.3664Z" fill="white"/>
<path d="M0.671875 12.4978C0.80625 12.0947 0.80625 11.6916 0.80625 11.4228C5.50937 11.2885 12.4969 9.81034 13.3031 9.40721C13.5719 9.27284 5.50937 11.9603 0.671875 12.4978Z" fill="#767676"/>
<path d="M4.43437 16.5277C10.4812 17.4684 14.6469 15.3184 14.7812 15.5871C14.6469 17.0652 8.46562 20.559 5.77812 23.5152C2.6875 21.2309 0.80625 17.7371 0.671875 13.7059C0.671875 13.3027 0.671875 13.034 0.671875 12.4965C5.64375 12.8996 10.4812 11.1527 13.0344 10.6152C11.0187 11.8246 8.6 12.6309 1.74687 13.8402C4.70312 14.109 10.4812 13.1684 13.1687 12.0934C11.1531 13.5715 6.31562 14.6465 3.62812 15.0496C6.9875 15.7215 11.5562 14.3777 12.9 13.9746C11.825 14.9152 8.19687 15.9902 4.43437 16.5277Z" fill="#767676"/>
<path d="M15.4529 6.31478C11.0186 8.19603 6.31543 9.80853 0.94043 10.6148C2.1498 5.10541 6.9873 0.805408 13.0342 0.671033C19.3498 0.536658 24.5904 4.83666 25.7998 10.6148C25.2623 10.4804 24.7248 10.4804 24.5904 10.4804C23.2467 9.27103 19.3498 13.571 18.1404 13.0335C19.6186 11.2867 19.0811 8.59916 20.4248 7.25541C21.3654 6.04603 20.8279 5.50853 20.1561 5.37416C18.9467 4.83666 17.1998 5.77728 15.4529 6.31478Z" fill="#767676"/>
<path d="M26.2035 13.0352C26.3379 20.157 20.9629 25.9352 13.9754 26.0695C11.1535 26.2039 8.46602 25.2633 6.18164 23.7852C9.80977 20.9633 14.6473 19.6195 19.216 16.6633C21.2316 15.1852 23.6504 11.4227 26.0691 11.0195C26.0691 11.6914 26.2035 12.3633 26.2035 13.0352Z" fill="#767676"/>
</g>
</svg>
