<svg width="172" height="27" viewBox="0 0 172 27" fill="none" xmlns="http://www.w3.org/2000/svg">
<g opacity="0.7">
<path d="M13.4375 26.875C20.8588 26.875 26.875 20.8588 26.875 13.4375C26.875 6.01617 20.8588 0 13.4375 0C6.01617 0 0 6.01617 0 13.4375C0 20.8588 6.01617 26.875 13.4375 26.875Z" fill="white"/>
<path d="M40.5811 21.6344C38.1624 21.6344 36.1468 20.8281 34.803 19.6188C34.6687 19.4844 34.3999 19.2156 34.3999 18.9469C34.3999 18.5438 34.803 18.0063 35.3405 18.0063C35.4749 18.0063 35.7437 18.1406 36.0124 18.1406C37.2218 19.0813 38.6999 19.8875 40.5811 19.8875C43.403 19.8875 44.478 18.4094 44.478 17.0656C44.478 12.9 34.6687 15.1844 34.6687 9.40627C34.6687 6.71877 37.0874 4.83752 40.3124 4.83752C42.328 4.83752 44.2093 5.5094 45.553 6.5844C45.6874 6.71877 45.9561 6.98752 45.9561 7.25627C45.9561 7.6594 45.553 8.1969 45.0155 8.1969C44.8811 8.1969 44.6124 8.06252 44.3436 8.06252C43.1343 7.1219 41.6562 6.5844 40.178 6.5844C38.1624 6.5844 36.8187 7.6594 36.8187 9.13752C36.8187 12.7656 46.628 10.6156 46.628 16.7969C46.628 19.2156 45.0155 21.6344 40.5811 21.6344Z" fill="white"/>
<path d="M50.928 6.58445C50.928 7.25632 50.2561 7.79382 49.7186 7.79382C49.1811 7.79382 48.5093 7.25632 48.5093 6.58445C48.5093 5.91257 49.1811 5.37507 49.7186 5.37507C50.3905 5.2407 50.928 5.7782 50.928 6.58445ZM49.853 21.3657C49.4499 21.3657 48.9124 20.9626 48.9124 20.4251V10.0782C48.9124 9.67507 49.3155 9.13757 49.853 9.13757C50.2562 9.13757 50.7937 9.5407 50.7937 10.0782V20.4251C50.6593 21.0969 50.3905 21.3657 49.853 21.3657Z" fill="white"/>
<path d="M68.9346 21.3657C68.5314 21.3657 67.9939 20.9625 67.9939 20.425V13.3032C67.9939 11.825 67.3221 10.75 65.7096 10.75C64.5002 10.75 63.1564 11.6907 62.6189 12.4969V20.5594C62.6189 20.9625 62.2158 21.5 61.6783 21.5C61.1408 21.5 60.7377 21.0969 60.7377 20.5594V13.3032C60.7377 11.825 60.0658 10.75 58.4533 10.75C57.2439 10.75 55.9002 11.6907 55.3627 12.4969V20.425C55.3627 20.8282 54.9596 21.3657 54.4221 21.3657C54.0189 21.3657 53.4814 20.9625 53.4814 20.425V10.0782C53.4814 9.67505 53.8846 9.13755 54.4221 9.13755C54.8252 9.13755 55.3627 9.54067 55.3627 10.0782V11.0188C55.7658 10.3469 57.3783 9.00317 59.2596 9.00317C61.0064 9.00317 62.0814 9.9438 62.3502 11.2875C63.0221 10.2125 64.6346 9.00317 66.2471 9.00317C68.3971 9.00317 69.6064 10.2125 69.6064 12.6313V20.425C69.7408 21.0969 69.4721 21.3657 68.9346 21.3657Z" fill="white"/>
<path d="M78.6093 21.6344C76.9968 21.6344 75.5186 20.9625 74.578 19.6188V25.1282C74.578 25.5313 74.1749 26.0688 73.6374 26.0688C73.0999 26.0688 72.6968 25.6657 72.6968 25.1282V10.0782C72.6968 9.67505 73.0999 9.13755 73.6374 9.13755C74.0405 9.13755 74.578 9.54067 74.578 10.0782V11.0188C75.5186 9.80942 76.8624 9.00317 78.6093 9.00317C81.6999 9.00317 83.8499 11.2875 83.8499 15.3188C83.9843 19.2157 81.8343 21.6344 78.6093 21.6344ZM78.0718 10.8844C76.5937 10.8844 75.2499 11.825 74.4437 12.7657V18.1407C75.1155 19.0813 76.4593 20.1563 78.0718 20.1563C80.3562 20.1563 81.9686 18.1407 81.9686 15.4532C81.9686 12.7657 80.4905 10.8844 78.0718 10.8844Z" fill="white"/>
<path d="M86.8059 21.3656C86.4027 21.3656 85.8652 20.9625 85.8652 20.425V5.64375C85.8652 5.24062 86.2684 4.70312 86.8059 4.70312C87.209 4.70312 87.7465 5.10625 87.7465 5.64375V20.5594C87.8809 21.0969 87.3434 21.3656 86.8059 21.3656Z" fill="white"/>
<path d="M100.512 15.9906H91.9121C92.0465 18.275 93.659 20.1563 96.2121 20.1563C97.4215 20.1563 98.4965 19.7531 99.3027 18.9469C99.4371 18.8125 99.5715 18.8125 99.7059 18.8125C100.109 18.8125 100.378 19.0813 100.378 19.4844C100.378 20.6938 97.2871 21.5 95.9434 21.5C92.4496 21.5 89.8965 18.9469 89.8965 15.1844C89.8965 11.825 92.4496 8.86877 95.6746 8.86877C98.6309 8.86877 100.646 10.75 101.184 13.5719C101.318 13.975 101.318 14.3781 101.318 14.7813C101.587 15.4531 101.05 15.9906 100.512 15.9906ZM95.9434 10.6156C93.3902 10.6156 92.1809 12.7656 92.0465 14.5125H99.8402C99.7059 12.7656 98.6309 10.6156 95.9434 10.6156Z" fill="white"/>
<path d="M117.444 7.12185C117.578 7.3906 117.847 7.79372 117.847 8.06247C117.847 8.73435 117.175 9.40622 116.369 9.40622C115.965 9.40622 115.697 9.27185 115.294 9.0031C114.353 7.9281 113.009 7.25623 111.665 7.25623C108.44 7.25623 106.156 9.80935 106.156 13.0343C106.156 16.2593 108.44 18.8125 111.665 18.8125C113.009 18.8125 114.353 18.1406 115.294 17.0656C115.562 16.7968 115.965 16.6625 116.369 16.6625C117.04 16.6625 117.712 17.3343 117.712 18.0062C117.712 18.275 117.578 18.6781 117.444 18.9468C116.234 20.425 114.353 21.5 111.665 21.5C106.828 21.5 103.065 18.1406 103.065 13.0343C103.065 7.9281 106.828 4.56873 111.665 4.56873C114.219 4.7031 116.1 5.7781 117.444 7.12185Z" fill="white"/>
<path d="M122.684 6.31562C122.684 7.25625 122.012 7.92812 121.071 7.92812C120.131 7.92812 119.459 7.25625 119.459 6.31562C119.459 5.375 120.131 4.70312 121.071 4.70312C122.012 4.70312 122.684 5.50937 122.684 6.31562ZM120.937 21.3656C120.265 21.3656 119.728 20.6937 119.728 20.1562V10.6156C119.728 9.94375 120.4 9.40625 121.071 9.40625C121.743 9.40625 122.281 10.0781 122.281 10.6156V20.1562C122.281 20.8281 121.743 21.3656 120.937 21.3656Z" fill="white"/>
<path d="M128.462 21.6344C126.447 21.6344 125.372 20.5594 125.372 18.5438V11.6906H124.431C123.759 11.6906 123.222 11.1531 123.222 10.4813C123.222 9.8094 123.759 9.2719 124.431 9.2719H125.372V7.39065C125.372 6.71877 126.044 6.18127 126.715 6.18127C127.387 6.18127 127.925 6.85315 127.925 7.39065V9.40627H129.403C130.075 9.40627 130.612 9.94377 130.612 10.6156C130.612 11.2875 130.209 11.825 129.403 11.825H127.925V18.0063C127.925 18.9469 128.462 19.4844 129.134 19.4844C129.269 19.4844 129.537 19.35 129.672 19.35C130.344 19.35 130.881 19.7531 130.881 20.5594C130.881 21.0969 130.209 21.6344 128.462 21.6344Z" fill="white"/>
<path d="M135.047 6.31562C135.047 7.25625 134.375 7.92812 133.434 7.92812C132.494 7.92812 131.822 7.25625 131.822 6.31562C131.822 5.375 132.494 4.70312 133.434 4.70312C134.375 4.70312 135.047 5.50937 135.047 6.31562ZM133.3 21.3656C132.628 21.3656 132.091 20.6937 132.091 20.1562V10.6156C132.091 9.94375 132.762 9.40625 133.434 9.40625C134.106 9.40625 134.644 10.0781 134.644 10.6156V20.1562C134.644 20.8281 134.106 21.3656 133.3 21.3656Z" fill="white"/>
<path d="M145.259 21.3656H137.869C137.197 21.3656 136.659 20.6937 136.659 20.0218C136.659 19.7531 136.794 19.35 136.928 19.0812L142.572 11.6906H137.734C137.062 11.6906 136.525 11.1531 136.525 10.4812C136.525 9.80935 137.062 9.27185 137.734 9.27185H145.125C145.797 9.27185 146.334 9.80935 146.334 10.4812C146.334 10.8844 146.2 11.1531 146.066 11.4218L140.287 18.8125H145.259C145.931 18.8125 146.469 19.2156 146.469 20.0218C146.334 20.8281 145.931 21.3656 145.259 21.3656Z" fill="white"/>
<path d="M158.025 16.2594H150.231C150.366 18.0063 151.709 19.6188 153.859 19.6188C154.8 19.6188 155.606 19.3501 156.412 18.8126C156.547 18.6782 156.816 18.6782 156.95 18.6782C157.487 18.6782 158.159 19.0813 158.159 19.7532C158.159 21.0969 155.069 21.7688 153.591 21.7688C149.962 21.7688 147.275 19.2157 147.275 15.4532C147.275 12.0938 149.828 9.13757 153.322 9.13757C156.144 9.13757 158.025 10.8844 158.831 13.3032C158.966 13.7063 159.1 14.3782 159.1 14.7813C159.369 15.7219 158.831 16.2594 158.025 16.2594ZM153.456 11.2876C151.306 11.2876 150.366 13.0344 150.097 14.3782H156.681C156.816 13.0344 155.875 11.2876 153.456 11.2876Z" fill="white"/>
<path d="M170.522 21.3657C169.85 21.3657 169.312 20.6938 169.312 20.1563V13.8407C169.312 12.0938 168.372 11.4219 167.028 11.4219C165.819 11.4219 164.609 12.0938 163.937 12.9V20.0219C163.937 20.6938 163.266 21.2313 162.594 21.2313C161.922 21.2313 161.384 20.5594 161.384 20.0219V10.6157C161.384 9.9438 162.056 9.4063 162.728 9.4063C163.4 9.4063 163.937 10.0782 163.937 10.6157V11.0188C164.744 10.0782 166.222 9.00317 168.103 9.00317C170.656 9.00317 172 10.4813 172 12.9V20.0219C171.866 20.8282 171.194 21.3657 170.522 21.3657Z" fill="white"/>
<path d="M0.671875 12.4969C0.80625 12.0937 0.80625 11.6906 0.80625 11.4219C5.50937 11.2875 12.4969 9.80936 13.3031 9.40624C13.5719 9.27186 5.50937 11.9594 0.671875 12.4969Z" fill="#767676"/>
<path d="M4.43437 16.528C10.4812 17.4686 14.6469 15.3186 14.7812 15.5874C14.6469 17.0655 8.46562 20.5592 5.77812 23.5155C2.6875 21.2311 0.80625 17.7374 0.671875 13.7061C0.671875 13.303 0.671875 13.0342 0.671875 12.4967C5.64375 12.8999 10.4812 11.153 13.0344 10.6155C11.0187 11.8249 8.6 12.6311 1.74687 13.8405C4.70312 14.1092 10.4812 13.1686 13.1687 12.0936C11.1531 13.5717 6.31562 14.6467 3.62812 15.0499C6.9875 15.7217 11.5562 14.378 12.9 13.9749C11.825 14.9155 8.19687 15.9905 4.43437 16.528Z" fill="#767676"/>
<path d="M15.4529 6.31551C11.0186 8.19676 6.31543 9.80926 0.94043 10.6155C2.1498 5.10614 6.9873 0.80614 13.0342 0.671766C19.3498 0.537391 24.5904 4.83739 25.7998 10.6155C25.2623 10.4811 24.7248 10.4811 24.5904 10.4811C23.2467 9.27176 19.3498 13.5718 18.1404 13.0343C19.6186 11.2874 19.0811 8.59989 20.4248 7.25614C21.3654 6.04676 20.8279 5.50926 20.1561 5.37489C18.9467 4.83739 17.1998 5.77801 15.4529 6.31551Z" fill="#767676"/>
<path d="M26.203 13.0344C26.3374 20.1563 20.9624 25.9344 13.9749 26.0688C11.153 26.2032 8.46553 25.2625 6.18115 23.7844C9.80928 20.9625 14.6468 19.6188 19.2155 16.6625C21.2312 15.1844 23.6499 11.4219 26.0687 11.0188C26.0687 11.6907 26.203 12.3625 26.203 13.0344Z" fill="#767676"/>
</g>
</svg>
