<svg width="213px" height="40px" viewBox="0 0 213 40" version="1.1" xmlns="http://www.w3.org/2000/svg" xmlns:xlink="http://www.w3.org/1999/xlink">
    <g id="Page-1" stroke="none" stroke-width="1" fill="none" fill-rule="evenodd" fill-opacity="0.6">
        <g id="logo.698135d2" fill="#FFFFFF" fill-rule="nonzero">
            <path d="M21.9133333,2.5 L17.53,0 L8.76333333,5 L0,10 L0,30 L4.38333333,32.5 L21.9133333,22.5 L21.9133333,17.5 L19.7216667,16.25 L21.9133333,15 L24.1033333,16.25 L24.1033333,23.75 L6.57333333,33.75 L8.76666667,35 L10.9583333,36.25 L28.4883333,26.25 L28.4883333,13.75 L26.2966667,12.5 L28.4883333,11.25 L30.68,12.5 L30.68,27.5 L13.1483333,37.5 L17.5316667,40 L26.2966667,35 L35.0616667,30 L35.0616667,10 L30.6783333,7.5 L13.1483333,17.5 L13.1483333,22.5 L15.34,23.75 L13.1483333,25 L10.9583333,23.75 L10.9583333,16.25 L28.4883333,6.25 L26.295,5 L24.1033333,3.75 L6.57333333,13.75 L6.57333333,26.25 L8.765,27.5 L6.57333333,28.75 L4.38166667,27.5 L4.38166667,12.5 L21.9133333,2.5 Z M55.5033333,11.23 L55.5033333,21.1716667 L48.7133333,11.23 L43.52,11.23 L55.5033333,28.78 L59.665,28.78 L59.665,11.2283333 L55.5033333,11.2283333 L55.5033333,11.23 Z M76.9283333,11.23 L76.9283333,14.72 L67.9166667,14.72 L67.9166667,18.335 L76.0216667,18.335 L76.0216667,21.6733333 L67.9166667,21.6733333 L67.9166667,25.3133333 L77.2133333,25.3133333 L77.2133333,28.78 L63.8766667,28.78 L63.8766667,11.2283333 L76.9283333,11.2283333 L76.9283333,11.23 Z M18.625,21.085 L16.435,21.085 L16.435,18.915 L18.625,18.915 L18.625,21.085 L18.625,21.085 Z M89.6883333,19.0183333 C90.1683333,18.59 90.4083333,17.9116667 90.4083333,16.98 C90.4083333,16.0466667 90.16,15.4083333 89.6633333,15.0633333 C89.1666667,14.7166667 88.2966667,14.545 87.0566667,14.545 L84.15,14.545 L84.15,19.6616667 L86.9816667,19.6616667 C88.3066667,19.6616667 89.2083333,19.4483333 89.6883333,19.02 L89.6883333,19.0183333 Z M94.3566667,16.9683333 C94.3566667,19.735 93.2566667,21.525 91.055,22.3316667 L95.45,28.515 L90.6833333,28.515 L86.8333333,23 L84.15,23 L84.15,28.515 L80.2766667,28.515 L80.2766667,11.2316667 L86.8583333,11.2316667 C89.5566667,11.2316667 91.48,11.6833333 92.6316667,12.59 C93.7816667,13.4966667 94.3566667,14.9566667 94.3566667,16.9666667 L94.3566667,16.9683333 Z M109.355,20.1083333 L113.255,20.1083333 L113.255,26.2416667 C111.531667,28.1533333 109.146667,29.1083333 106.101667,29.1083333 C103.551667,29.1083333 101.411667,28.2666667 99.6816667,26.5866667 C97.9516667,24.9033333 97.0866667,22.7816667 97.0866667,20.22 C97.0866667,17.6566667 97.9683333,15.5183333 99.7316667,13.8033333 C101.495,12.0866667 103.621667,11.23 106.115,11.23 C108.605,11.23 110.77,12.0466667 112.608333,13.6783333 L110.596667,16.5716667 C109.818333,15.8966667 109.101667,15.43 108.448333,15.175 C107.770837,14.9152701 107.050548,14.7852336 106.325,14.7916667 C104.851667,14.7916667 103.608333,15.29 102.6,16.2866667 C101.59,17.2866667 101.083333,18.6 101.083333,20.2316667 C101.083333,21.865 101.568333,23.17 102.538333,24.1516667 C103.505,25.1316667 104.661667,25.6233333 106.001667,25.6233333 C107.343333,25.6233333 108.46,25.3666667 109.355,24.8566667 L109.355,20.1066667 L109.355,20.1083333 Z M128.971667,14.6666667 L128.971667,11.23 L116.455,11.23 L116.455,28.5133333 L129.245,28.5133333 L129.245,25.1033333 L120.33,25.1033333 L120.33,21.5166667 L128.103333,21.5166667 L128.103333,18.2283333 L120.33,18.2283333 L120.33,14.6683333 L128.973333,14.6683333 L128.971667,14.6666667 Z M136.511667,15.0733333 C136.145034,15.3666859 135.93813,15.8156982 135.953333,16.285 C135.953333,16.7883333 136.18,17.1883333 136.636667,17.485 C137.09,17.7816667 138.141667,18.1316667 139.79,18.535 C141.436667,18.94 142.715,19.5466667 143.626667,20.3516667 C144.536667,21.1616667 144.993333,22.34 144.993333,23.89 C144.993333,25.44 144.41,26.6966667 143.241667,27.6616667 C142.075,28.625 140.538333,29.1066667 138.635,29.1066667 C135.885,29.1066667 133.41,28.0933333 131.21,26.065 L133.518333,23.2483333 C135.39,24.8783333 137.12,25.695 138.71,25.695 C139.42,25.695 139.98,25.5416667 140.385,25.2366667 C140.780889,24.9513212 141.008922,24.4877571 140.993333,24 C141.005055,23.5047977 140.761435,23.0383308 140.348333,22.765 C139.916667,22.46 139.065,22.15 137.79,21.8366667 C135.77,21.3583333 134.291667,20.7366667 133.356667,19.97 C132.423333,19.2033333 131.953333,18 131.953333,16.36 C131.953333,14.72 132.546667,13.455 133.73,12.565 C134.913333,11.6733333 136.391667,11.2283333 138.163333,11.2283333 C139.321667,11.2283333 140.48,11.4283333 141.64,11.8233333 C142.746328,12.1893567 143.774123,12.7597885 144.67,13.505 L142.706667,16.3216667 C141.201667,15.185 139.645,14.6166667 138.04,14.6166667 C137.393333,14.6166667 136.883333,14.77 136.511667,15.0733333 L136.511667,15.0733333 Z M160.561667,14.6666667 L160.561667,11.23 L148.045,11.23 L148.045,28.5133333 L160.835,28.5133333 L160.835,25.1033333 L151.92,25.1033333 L151.92,21.5166667 L159.693333,21.5166667 L159.693333,18.2283333 L151.92,18.2283333 L151.92,14.6683333 L160.563333,14.6683333 L160.561667,14.6666667 Z M176.183333,11.2283333 L180.056667,11.2283333 L180.056667,28.5116667 L176.183333,28.5116667 L167.913333,17.6833333 L167.913333,28.5133333 L164.038333,28.5133333 L164.038333,11.2316667 L167.665,11.2316667 L176.183333,22.3583333 L176.183333,11.23 L176.183333,11.2283333 Z M187.585,16.285 C187.585,15.785 187.771667,15.38 188.143333,15.0733333 C188.516667,14.77 189.025,14.6166667 189.671667,14.6166667 C191.276667,14.6166667 192.833333,15.185 194.34,16.3233333 L196.301667,13.505 C195.405991,12.7590969 194.378168,12.1880841 193.271667,11.8216667 C192.153576,11.4329392 190.978731,11.2324382 189.795,11.2283333 C188.023333,11.2283333 186.545,11.6733333 185.361667,12.565 C184.178333,13.455 183.586667,14.72 183.586667,16.36 C183.586667,18 184.055,19.2033333 184.99,19.97 C185.925,20.7366667 187.403333,21.3583333 189.423333,21.8366667 C190.698333,22.15 191.55,22.46 191.98,22.765 C192.411667,23.07 192.626667,23.4816667 192.626667,24 C192.642256,24.4877571 192.414222,24.9513212 192.018333,25.2366667 C191.611667,25.5416667 191.053333,25.695 190.341667,25.695 C188.751667,25.695 187.021667,24.8783333 185.151667,23.2466667 L182.841667,26.065 C185.043333,28.0933333 187.518333,29.1066667 190.266667,29.1066667 C192.171667,29.1066667 193.706667,28.6233333 194.873333,27.6616667 C196.041667,26.695 196.625,25.44 196.625,23.89 C196.625,22.34 196.168333,21.1616667 195.26,20.3533333 C194.348333,19.5466667 193.07,18.94 191.421667,18.5366667 C189.775,18.1316667 188.723333,17.7816667 188.268333,17.4866667 C187.813333,17.1883333 187.585,16.7883333 187.585,16.2866667 L187.585,16.285 Z M212.193333,11.2283333 L212.193333,14.6666667 L203.551667,14.6666667 L203.551667,18.2266667 L211.325,18.2266667 L211.325,21.515 L203.551667,21.515 L203.551667,25.1016667 L212.466667,25.1016667 L212.466667,28.5133333 L199.678333,28.5133333 L199.678333,11.2316667 L212.193333,11.2316667 L212.193333,11.2283333 Z" id="b"></path>
        </g>
    </g>
</svg>
