<svg width="167" height="32" viewBox="0 0 167 32" fill="none" xmlns="http://www.w3.org/2000/svg">
<path fill-rule="evenodd" clip-rule="evenodd" d="M17.154 2L13.7227 0L6.86005 4L0 8V24L3.43133 26L17.154 18V14L15.4384 13L17.154 12L18.8684 13V19L5.14569 27L6.86266 28L8.57832 29L22.301 21V11L20.5854 10L22.301 9L24.0167 10V22L10.2927 30L13.724 32L20.5854 28L27.4467 24V8L24.0154 6L10.2927 14V18L12.0083 19L10.2927 20L8.57832 19V13L22.301 5L20.5841 4L18.8684 3L5.14569 11V21L6.86135 22L5.14569 23L3.43002 22V10L17.154 2ZM43.4487 8.984V16.9373L38.1334 8.984H34.068L43.4487 23.024H46.7065V8.98267H43.4487V8.984ZM60.2205 8.984V11.776H53.166V14.668H59.5107V17.3387H53.166V20.2507H60.4436V23.024H50.0035V8.98267H60.2205V8.984ZM14.5799 16.868H12.8655V15.132H14.5799V16.868ZM70.2091 15.2147C70.5849 14.872 70.7728 14.3293 70.7728 13.584C70.7728 12.8373 70.5784 12.3267 70.1896 12.0507C69.8008 11.7733 69.1197 11.636 68.149 11.636H65.8737V15.7293H68.0903C69.1276 15.7293 69.8334 15.5587 70.2091 15.216V15.2147ZM73.8636 13.5747C73.8636 15.788 73.0025 17.22 71.279 17.8653L74.7195 22.812H70.988L67.9742 18.4H65.8737V22.812H62.8416V8.98533H67.9938C70.1061 8.98533 71.6117 9.34667 72.5132 10.072C73.4135 10.7973 73.8636 11.9653 73.8636 13.5733V13.5747ZM85.6045 16.0867H88.6574V20.9933C87.3084 22.5227 85.4414 23.2867 83.0577 23.2867C81.0615 23.2867 79.3863 22.6133 78.0321 21.2693C76.6778 19.9227 76.0007 18.2253 76.0007 16.176C76.0007 14.1253 76.6908 12.4147 78.0712 11.0427C79.4516 9.66933 81.1163 8.984 83.0681 8.984C85.0173 8.984 86.7121 9.63733 88.1512 10.9427L86.5765 13.2573C85.9672 12.7173 85.4062 12.344 84.8947 12.14C84.3644 11.9322 83.8005 11.8282 83.2325 11.8333C82.0792 11.8333 81.1059 12.232 80.3166 13.0293C79.5259 13.8293 79.1293 14.88 79.1293 16.1853C79.1293 17.492 79.509 18.536 80.2683 19.3213C81.025 20.1053 81.9305 20.4987 82.9794 20.4987C84.0297 20.4987 84.9038 20.2933 85.6045 19.8853V16.0853V16.0867ZM100.961 11.7333V8.984H91.1624V22.8107H101.175V20.0827H94.1958V17.2133H100.281V14.5827H94.1958V11.7347H100.962L100.961 11.7333ZM106.863 12.0587C106.721 12.1744 106.608 12.3223 106.532 12.4905C106.457 12.6588 106.42 12.8428 106.426 13.028C106.426 13.4307 106.603 13.7507 106.961 13.988C107.316 14.2253 108.139 14.5053 109.429 14.828C110.718 15.152 111.719 15.6373 112.433 16.2813C113.145 16.9293 113.503 17.872 113.503 19.112C113.503 20.352 113.046 21.3573 112.131 22.1293C111.218 22.9 110.015 23.2853 108.525 23.2853C106.372 23.2853 104.435 22.4747 102.713 20.852L104.52 18.5987C105.985 19.9027 107.339 20.556 108.584 20.556C109.14 20.556 109.578 20.4333 109.895 20.1893C110.048 20.0769 110.171 19.9279 110.254 19.7554C110.337 19.5829 110.377 19.3922 110.371 19.2C110.376 19.0051 110.332 18.8122 110.244 18.6394C110.155 18.4666 110.026 18.3196 109.866 18.212C109.529 17.968 108.862 17.72 107.864 17.4693C106.282 17.0867 105.125 16.5893 104.393 15.976C103.663 15.3627 103.295 14.4 103.295 13.088C103.295 11.776 103.759 10.764 104.686 10.052C105.612 9.33867 106.769 8.98267 108.156 8.98267C109.063 8.98267 109.97 9.14267 110.878 9.45867C111.744 9.75149 112.548 10.2078 113.249 10.804L111.713 13.0573C110.534 12.148 109.316 11.6933 108.059 11.6933C107.553 11.6933 107.154 11.816 106.863 12.0587ZM125.69 11.7333V8.984H115.891V22.8107H125.904V20.0827H118.925V17.2133H125.01V14.5827H118.925V11.7347H125.691L125.69 11.7333ZM137.919 8.98267H140.951V22.8093H137.919L131.445 14.1467V22.8107H128.411V8.98533H131.25L137.919 17.8867V8.984V8.98267ZM146.844 13.028C146.844 12.628 146.99 12.304 147.281 12.0587C147.573 11.816 147.971 11.6933 148.477 11.6933C149.734 11.6933 150.952 12.148 152.132 13.0587L153.667 10.804C152.966 10.2073 152.162 9.75047 151.295 9.45733C150.42 9.14635 149.501 8.98595 148.574 8.98267C147.187 8.98267 146.03 9.33867 145.103 10.052C144.177 10.764 143.714 11.776 143.714 13.088C143.714 14.4 144.081 15.3627 144.812 15.976C145.544 16.5893 146.702 17.0867 148.283 17.4693C149.281 17.72 149.948 17.968 150.284 18.212C150.622 18.456 150.791 18.7853 150.791 19.2C150.797 19.3922 150.756 19.5829 150.673 19.7554C150.59 19.9279 150.467 20.0769 150.314 20.1893C149.996 20.4333 149.559 20.556 149.002 20.556C147.757 20.556 146.403 19.9027 144.939 18.5973L143.131 20.852C144.854 22.4747 146.792 23.2853 148.943 23.2853C150.434 23.2853 151.636 22.8987 152.549 22.1293C153.464 21.356 153.921 20.352 153.921 19.112C153.921 17.872 153.563 16.9293 152.852 16.2827C152.138 15.6373 151.138 15.152 149.847 14.8293C148.558 14.5053 147.735 14.2253 147.379 13.9893C147.023 13.7507 146.844 13.4307 146.844 13.0293V13.028ZM166.108 8.98267V11.7333H159.343V14.5813H165.428V17.212H159.343V20.0813H166.322V22.8107H156.311V8.98533H166.108V8.98267Z" fill="#C5C5C5"/>
</svg>
