<svg width="126px" height="40px" viewBox="0 0 126 40" version="1.1" xmlns="http://www.w3.org/2000/svg" xmlns:xlink="http://www.w3.org/1999/xlink">
    <g id="Page-1" stroke="none" stroke-width="1" fill="none" fill-rule="evenodd" fill-opacity="0.6">
        <g id="Virta-Logo---Horizontal-White" fill="#FFFFFF" fill-rule="nonzero">
            <path d="M71.4813187,8.90549451 C73.2923077,8.90549451 74.6813187,7.6 74.6813187,5.78901099 C74.6813187,3.97802198 73.2923077,2.67252747 71.4813187,2.67252747 C69.6703297,2.67252747 68.2813187,3.97802198 68.2813187,5.78901099 C68.2813187,7.6 69.6703297,8.90549451 71.4813187,8.90549451 Z M73.967033,33.4593407 L73.967033,12.4021978 L68.9956044,12.4021978 L68.9956044,33.4593407 L73.967033,33.4593407 Z M58.5934066,33.4593407 C62.0901099,28.0681319 64.9120879,21.1208791 66.3428571,12.4021978 L61.2461538,12.4021978 C60.2791209,18.8043956 58.8879121,23.4373626 56.5714286,27.5208791 C54.2989011,23.4373626 52.9076923,18.8043956 51.9406593,12.4021978 L46.7164835,12.4021978 C48.1494505,21.1208791 51.0131868,28.0681319 54.4659341,33.4593407 L58.5934066,33.4593407 Z M103.868132,33.1648352 L103.868132,28.989011 C102.937933,29.2522938 101.977582,29.3941302 101.010989,29.410989 C98.9472527,29.410989 98.189011,28.567033 98.189011,25.8307692 L98.189011,16.6 L104.210989,16.6 L105.854945,12.389011 L98.1824176,12.389011 L98.1824176,6.08351648 L93.2131868,7.55824176 L93.2131868,27.0153846 C93.2131868,31.6065934 96.1604396,33.8813187 100.162637,33.8813187 C101.432871,33.8881776 102.692012,33.6447139 103.868132,33.1648352 L103.868132,33.1648352 Z M82.7692308,22.9318681 C82.7692308,18.6351648 84.7472527,16.4021978 88.621978,16.4021978 C89.5508304,16.4042759 90.4740491,16.5465375 91.3604396,16.8241758 L91.3604396,12.5714286 C90.4606023,12.2725086 89.5195797,12.1160423 88.5714286,12.1076923 C86.0021978,12.1076923 84.0659341,13.243956 82.7604396,15.2241758 L82.7604396,12.4021978 L77.8021978,12.4021978 L77.8021978,33.4593407 L82.7692308,33.4593407 L82.7692308,22.9318681 Z M113.345055,30.0901099 C111.195604,30.0901099 110.017582,28.8263736 110.017582,27.232967 C110.017582,25.5054945 111.364835,24.243956 114.523077,24.243956 C115.596852,24.2520346 116.668039,24.3505514 117.725275,24.5384615 L117.725275,26.0967033 C117.725275,28.5714286 115.661538,30.0901099 113.345055,30.0901099 Z M125.213187,33.3340659 L125.213187,29.6703297 C123.105495,29.9230769 122.356044,29.2065934 122.356044,27.3956044 L122.356044,19.0989011 C122.356044,13.9604396 119.112088,11.9802198 113.215385,11.9802198 C111.419874,11.9832883 109.629209,12.1666254 107.87033,12.5274725 L106.153846,16.9494505 C108.293299,16.4361984 110.48165,16.1539969 112.681319,16.1076923 C115.978022,16.1076923 117.736264,17.1186813 117.736264,19.4769231 L117.736264,20.9516484 C116.454059,20.7052255 115.151807,20.5779433 113.846154,20.5714286 C108.032967,20.5714286 105.210989,23.6043956 105.210989,27.2681319 C105.210989,30.8483516 107.991209,33.8813187 112.496703,33.8813187 C115.151648,33.8813187 117.173626,32.7824176 118.393407,31.1010989 C119.661538,33.2483516 122.4,34.2175824 125.221978,33.3340659 L125.213187,33.3340659 Z" id="Shape"></path>
            <path d="M39.9054945,20.010989 C37.3538462,19.5186813 36.0703297,18.3384615 35.778022,16.8703297 C35.4857143,15.4021978 36.2175824,13.8197802 38.389011,12.389011 C35.843956,12.9098901 34.2131868,12.3120879 33.3736264,11.0703297 C32.5340659,9.82857143 32.6153846,8.07692308 34.0659341,5.93406593 C31.9142857,7.39120879 30.1736264,7.47252747 28.9274725,6.63076923 C27.6813187,5.78901099 27.0813187,4.16263736 27.6087912,1.61758242 C26.178022,3.78461538 24.5956044,4.51868132 23.1274725,4.22637363 C21.6593407,3.93406593 20.4769231,2.63736264 19.9846154,0.0923076923 C19.4923077,2.64175824 18.3142857,3.92527473 16.843956,4.21758242 C15.3736264,4.50989011 13.7934066,3.77802198 12.3626374,1.60879121 C12.8835165,4.15384615 12.2857143,5.78461538 11.043956,6.62197802 C9.8021978,7.45934066 8.05494505,7.38241758 5.9032967,5.92527473 C7.36043956,8.07692308 7.44175824,9.81978022 6.6,11.0659341 C5.75824176,12.3120879 4.13186813,12.9098901 1.58681319,12.3846154 C3.75384615,13.8153846 4.48791209,15.3956044 4.1956044,16.8659341 C3.9032967,18.3362637 2.61538462,19.5186813 0.0659340659,20.010989 C2.61538462,20.5032967 3.9010989,21.6835165 4.19120879,23.1516484 C4.48131868,24.6197802 3.75164835,26.2043956 1.58241758,27.6351648 C4.12747253,27.1120879 5.75824176,27.7120879 6.5956044,28.9538462 C7.43296703,30.1956044 7.35604396,31.9406593 5.8989011,34.0923077 C8.05054945,32.6351648 9.79340659,32.5538462 11.0395604,33.3956044 C12.2857143,34.2373626 12.8835165,35.8659341 12.3582418,38.410989 C13.789011,36.2417582 15.3692308,35.5076923 16.8395604,35.8 C18.3098901,36.0923077 19.4879121,37.3758242 19.9802198,39.9274725 C20.4725275,37.3758242 21.6527473,36.0923077 23.1230769,35.8 C24.5934066,35.5076923 26.1736264,36.2395604 27.6043956,38.410989 C27.0813187,35.8659341 27.6813187,34.2351648 28.9230769,33.3956044 C30.1648352,32.556044 31.9098901,32.6351648 34.0615385,34.0923077 C32.6065934,31.9406593 32.5230769,30.1978022 33.3648352,28.9538462 C34.2065934,27.7098901 35.8351648,27.1076923 38.3802198,27.6351648 C36.210989,26.2043956 35.4769231,24.621978 35.7692308,23.1516484 C36.0615385,21.6813187 37.3626374,20.5032967 39.9054945,20.010989 Z M22.5978022,33.1252747 C17.2934793,34.1805244 11.87579,31.9366002 8.87102024,27.4398511 C5.86625047,22.9431021 5.86614572,17.0790972 8.87075483,12.5822408 C11.8753639,8.08538444 17.2929731,5.84126667 22.5973337,6.89632684 C27.9016943,7.95138701 32.04819,12.0978465 33.1032967,17.4021978 C34.5439866,24.6449968 29.8405623,31.6843895 22.5978022,33.1252747 L22.5978022,33.1252747 Z" id="Shape"></path>
        </g>
    </g>
</svg>
